<svg width="41" height="41" viewBox="0 0 41 41" fill="none" xmlns="http://www.w3.org/2000/svg">
<path fill-rule="evenodd" clip-rule="evenodd" d="M8.69824 16.4452L9.40866 18.0119L11.3878 17.0223V26.5932H13.6649V14.8786H11.817L8.69824 16.4452Z" fill="#F70D1A"/>
<path fill-rule="evenodd" clip-rule="evenodd" d="M31.0732 20.8848V17.9807H29.3899V20.8848H26.5524V22.5348H29.3899V25.439H31.0732V22.5348H33.9107V20.8848H31.0732Z" fill="#F70D1A"/>
<path fill-rule="evenodd" clip-rule="evenodd" d="M22.492 20.4557C23.267 19.9119 24.0753 19.0036 24.0753 17.6994C24.0753 15.9494 22.6732 14.6807 20.2482 14.6807C17.8232 14.6807 16.4357 15.9015 16.4357 17.7827C16.4357 19.0369 17.0628 19.8786 17.8545 20.4557C16.8816 21.0327 16.0066 22.0057 16.0066 23.5077C16.0087 25.489 17.4774 26.7911 20.2649 26.7911C23.0524 26.7911 24.5212 25.5202 24.5212 23.4577C24.5212 21.8411 23.5962 20.9994 22.492 20.4557ZM20.2816 16.364C21.3212 16.364 22.0149 16.8598 22.0149 17.8161C22.0149 18.7723 21.3545 19.4161 20.8274 19.8119C19.5899 19.3994 18.517 19.0036 18.517 17.8327C18.517 16.8765 19.2274 16.364 20.2816 16.364ZM20.2482 25.0932C19.142 25.0932 18.3003 24.5494 18.3003 23.3932C18.3003 22.4036 18.9107 21.7598 19.5545 21.3473C20.8753 21.8432 22.2274 22.1223 22.2274 23.4265C22.2295 24.4494 21.4545 25.0932 20.2482 25.0932Z" fill="#F70D1A"/>
<path fill-rule="evenodd" clip-rule="evenodd" d="M20.6982 2.68066C10.7587 2.68066 2.69824 10.7411 2.69824 20.6807C2.69824 30.6202 10.7587 38.6807 20.6982 38.6807C30.6378 38.6807 38.6982 30.6202 38.6982 20.6807C38.6982 10.7411 30.6378 2.68066 20.6982 2.68066ZM20.6982 35.6807C12.4128 35.6807 5.69824 28.9661 5.69824 20.6807C5.69824 12.3952 12.4128 5.68066 20.6982 5.68066C28.9837 5.68066 35.6982 12.3952 35.6982 20.6807C35.6982 28.9661 28.9837 35.6807 20.6982 35.6807Z" fill="#F70D1A"/>
</svg>
