<?xml version="1.0" encoding="UTF-8"?>
<svg xmlns="http://www.w3.org/2000/svg" xmlns:xlink="http://www.w3.org/1999/xlink" width="22px" height="18px" viewBox="0 0 22 18">
  <title>Group 3</title>
  <defs>
    <polygon id="path-1" points="0 0 20.3298696 0 20.3298696 17.16 0 17.16"></polygon>
  </defs>
  <g id="Page-1" stroke="none" stroke-width="1" fill="none" fill-rule="evenodd">
    <g id="Menu-Expanded" transform="translate(-21, -209)">
      <g id="menu-expanded" transform="translate(0, 76)">
        <g id="Group-2" transform="translate(17.7, 114.8081)">
          <g id="Group-3" transform="translate(4.1351, 18.82)">
            <mask id="mask-2" fill="white">
              <use xlink:href="#path-1"></use>
            </mask>
            <g id="Clip-2"></g>
            <path d="M6.41232261,5.50372935 C2.00946532,1.67763467 -3.37831745,10.8347085 2.76668235,13.6383379 C3.3264862,13.8937072 3.91016404,14.0278955 4.48956103,14.0550625 C4.00812971,12.401336 4.19895697,10.5732472 4.90002897,9.03609165 C5.48206032,7.76023281 6.38993045,6.73447458 7.45701538,6.14750377 C7.60042396,6.06847264 7.74613761,5.99915575 7.89349774,5.93658944 C7.56749432,5.71019818 7.17118612,5.65504103 6.75561409,5.64549144 C7.60223509,4.29455303 8.56789673,3.22154076 10.0861177,2.53281738 C11.8524635,3.91405106 12.980139,6.17154241 12.439599,8.36712604 C7.64257389,4.23972518 3.18340692,14.0303652 9.0027326,16.6856466 C9.10053363,16.729937 9.20162762,16.7729102 9.30519133,16.813249 C15.032314,19.0501593 19.4134377,9.77898429 12.8569821,8.56700895 C13.2310628,6.97930644 13.0464922,5.35357019 12.3742336,3.88079212 C15.7291052,6.05744121 18.9257498,4.88135918 20.3298696,3.24673194 C12.8123625,-2.74646223 9.56138392,0.477184708 6.41232261,5.50372935" id="Fill-1" fill="#6864B1" mask="url(#mask-2)"></path>
          </g>
        </g>
      </g>
    </g>
  </g>
</svg>
