<svg width="77" height="41" viewBox="0 0 77 41" fill="none" xmlns="http://www.w3.org/2000/svg">
<path d="M49.3661 11.5983C49.3898 11.5983 49.4135 11.6025 49.4358 11.6108C49.4609 11.6205 49.4846 11.6371 49.5027 11.6565L49.8946 12.0719C49.7258 12.292 49.5041 12.4651 49.2489 12.5759C48.9589 12.695 48.6465 12.7531 48.3314 12.7462C48.033 12.7504 47.736 12.695 47.4599 12.5814C47.2117 12.4776 46.99 12.3225 46.8073 12.1273C46.6218 11.9279 46.4796 11.6911 46.389 11.4349C46.2928 11.158 46.2453 10.8658 46.2495 10.5723C46.2467 10.2746 46.3025 9.97823 46.4141 9.70129C46.5187 9.44374 46.6748 9.21111 46.8728 9.01587C47.075 8.82063 47.3135 8.66831 47.577 8.56862C47.8657 8.45923 48.1724 8.40384 48.482 8.40799C48.634 8.40799 48.7846 8.42045 48.9338 8.44953C49.069 8.47584 49.2029 8.51461 49.3312 8.56585C49.4511 8.61293 49.5641 8.67247 49.6714 8.74309C49.7732 8.80817 49.8667 8.88571 49.9503 8.97156L49.6171 9.41605C49.5947 9.44374 49.5696 9.46866 49.5404 9.49082C49.5041 9.51436 49.4609 9.52682 49.4177 9.52405C49.3828 9.52405 49.3493 9.51574 49.3187 9.50051C49.2852 9.4839 49.2517 9.46451 49.2197 9.44374L49.1039 9.37035C49.0565 9.34127 49.0063 9.31773 48.9547 9.29835C48.8892 9.27342 48.8208 9.25542 48.7525 9.24157C48.6633 9.22496 48.5726 9.21665 48.482 9.21804C48.3133 9.21527 48.1459 9.2485 47.9898 9.31219C47.8434 9.37589 47.7123 9.47005 47.6077 9.58913C47.4975 9.71375 47.4125 9.85915 47.3595 10.0156C47.2981 10.1956 47.2675 10.3853 47.2702 10.5764C47.2675 10.773 47.2967 10.9683 47.3595 11.1552C47.4111 11.3089 47.492 11.4502 47.5979 11.5734C47.6969 11.6856 47.8196 11.7756 47.9563 11.8365C48.0944 11.8974 48.2449 11.9279 48.3955 11.9265C48.4778 11.9265 48.5601 11.9223 48.641 11.914C48.7107 11.9057 48.7804 11.8905 48.8473 11.8683C48.9101 11.8476 48.9714 11.8185 49.0286 11.7852C49.09 11.7479 49.1485 11.7063 49.2029 11.6592C49.2266 11.6399 49.2517 11.6232 49.2796 11.6108C49.3075 11.5997 49.3368 11.5955 49.3661 11.5983Z" fill="#515151"/>
<path d="M51.3364 11.1261V12.6936H50.3463V8.45784H51.7408C52.0071 8.4523 52.272 8.48415 52.53 8.552C52.7238 8.60323 52.9051 8.69324 53.0627 8.81509C53.1938 8.9231 53.2955 9.06157 53.3569 9.21942C53.4196 9.37866 53.4517 9.54759 53.4503 9.71929C53.4503 9.85084 53.4322 9.98238 53.3946 10.1084C53.3583 10.2302 53.3025 10.3438 53.2286 10.4476C53.1533 10.5529 53.0627 10.647 52.9595 10.7246C52.8479 10.809 52.7238 10.8769 52.5914 10.9254C52.6583 10.9586 52.7196 10.9987 52.7768 11.0472C52.8368 11.0984 52.887 11.158 52.9274 11.2244L53.8352 12.6991H52.9386C52.7936 12.7102 52.6555 12.6382 52.5816 12.5136L51.8732 11.284C51.8481 11.2355 51.8105 11.1954 51.7631 11.1677C51.7073 11.1414 51.6473 11.1303 51.586 11.1331L51.3364 11.1261ZM51.3364 10.449H51.7352C51.8523 10.4518 51.9681 10.4338 52.0796 10.3978C52.1661 10.3687 52.2455 10.3216 52.3125 10.2593C52.3724 10.1998 52.4184 10.1278 52.4449 10.0488C52.4728 9.96438 52.4868 9.87715 52.4854 9.78853C52.4938 9.62375 52.4268 9.46312 52.3027 9.35235C52.1382 9.23465 51.9374 9.17926 51.7366 9.19588H51.3378V10.449H51.3364Z" fill="#515151"/>
<path d="M56.3675 11.0832V12.6936H55.3774V11.0832L53.831 8.4523H54.7039C54.7764 8.44815 54.8489 8.46892 54.9089 8.51184C54.9605 8.55338 55.0023 8.60462 55.0316 8.66416L55.6354 9.89653L55.7748 10.1735C55.8153 10.2566 55.8515 10.3396 55.8836 10.4213C55.9143 10.3355 55.9491 10.2524 55.9896 10.1707L56.1206 9.89376L56.7175 8.66139C56.73 8.6337 56.7467 8.60877 56.7663 8.58523C56.7844 8.56446 56.8039 8.54508 56.8262 8.52708C56.8541 8.5063 56.8848 8.48969 56.9169 8.47723C56.9531 8.46476 56.9908 8.45784 57.0298 8.45784H57.9083L56.3675 11.0832Z" fill="#515151"/>
<path d="M59.1967 11.2785V12.6936H58.2067V8.45784H59.7113C59.9734 8.4523 60.2342 8.4883 60.4852 8.56446C60.6818 8.624 60.8631 8.7237 61.0179 8.85663C61.1545 8.9771 61.2605 9.12665 61.3274 9.29558C61.3943 9.47005 61.4278 9.6556 61.4264 9.84253C61.4292 10.0405 61.393 10.2386 61.3232 10.4241C61.2577 10.5986 61.1489 10.7564 61.0095 10.881C60.8547 11.0154 60.672 11.1151 60.4754 11.176C60.2272 11.2521 59.9692 11.2881 59.7099 11.2826L59.1967 11.2785ZM59.1967 10.5376H59.7127C59.9163 10.557 60.1185 10.4906 60.2704 10.3549C60.3918 10.2122 60.4517 10.0281 60.4406 9.84253C60.4406 9.75252 60.4266 9.66252 60.3973 9.57805C60.3681 9.50051 60.3192 9.42989 60.2579 9.37312C60.1937 9.31081 60.1171 9.26373 60.032 9.23465C59.9274 9.20142 59.8187 9.18619 59.7085 9.18757H59.1967V10.5376Z" fill="#515151"/>
<path d="M65.0408 8.45784V9.23742H63.8402V12.6991H62.8501V9.23742H61.6495V8.45784H65.0408Z" fill="#515151"/>
<path d="M69.4862 10.5736C69.489 10.8686 69.4346 11.1608 69.3258 11.4349C69.1208 11.9583 68.7039 12.3737 68.1782 12.5801C67.594 12.8002 66.9497 12.8002 66.3655 12.5801C65.837 12.3751 65.4187 11.9597 65.2123 11.4349C64.9989 10.8838 64.9989 10.2759 65.2123 9.72483C65.3127 9.46589 65.4661 9.2305 65.6627 9.03249C65.8621 8.83448 66.0991 8.67939 66.3599 8.57554C66.6485 8.46199 66.9567 8.40522 67.2677 8.40938C67.5786 8.40522 67.8854 8.462 68.174 8.57692C68.4348 8.68216 68.6718 8.83725 68.8712 9.03526C69.0665 9.23327 69.2198 9.46866 69.3202 9.7276C69.429 9.99623 69.4862 10.2842 69.4862 10.5736ZM68.4724 10.5736C68.4752 10.3826 68.4473 10.1915 68.3902 10.0087C68.3414 9.85222 68.2619 9.70683 68.1545 9.58221C68.0513 9.46589 67.923 9.37451 67.778 9.31496C67.6177 9.25127 67.4447 9.21942 67.2718 9.22219C67.0975 9.21942 66.9232 9.25127 66.7615 9.31496C66.6165 9.37451 66.4868 9.46589 66.3836 9.58221C66.2762 9.70683 66.1967 9.85222 66.1479 10.0087C66.0392 10.3784 66.0392 10.773 66.1479 11.1428C66.1953 11.3006 66.2762 11.4474 66.3836 11.5734C66.4868 11.6897 66.6165 11.7811 66.7615 11.8393C66.9232 11.9029 67.0975 11.9334 67.2718 11.9306C67.4447 11.9334 67.6177 11.9029 67.778 11.8393C67.923 11.7811 68.0513 11.6897 68.1545 11.5734C68.2619 11.4488 68.3414 11.3034 68.3902 11.1469C68.4473 10.9614 68.4752 10.7675 68.4724 10.5736Z" fill="#515151"/>
<path d="M40.63 19.0507C40.7513 19.0521 40.8726 19.041 40.9926 19.0161C41.0944 18.9939 41.1947 18.9635 41.291 18.9233V18.2753H40.8726C40.821 18.2753 40.7722 18.2587 40.7332 18.2254C40.6983 18.1936 40.6788 18.1479 40.6802 18.1008V17.5594H42.1848V19.3484C42.0774 19.4273 41.9631 19.4952 41.8432 19.5534C41.7218 19.6115 41.5949 19.6572 41.4653 19.6918C41.3244 19.7306 41.1822 19.7569 41.0372 19.7735C40.8754 19.7915 40.7123 19.7998 40.5491 19.7998C40.2521 19.8026 39.9565 19.7472 39.6818 19.635C39.1603 19.426 38.7461 19.0147 38.5356 18.4955C38.4226 18.2213 38.3669 17.9277 38.3696 17.6328C38.3669 17.3351 38.4198 17.0401 38.5272 16.7618C38.6276 16.5043 38.781 16.2703 38.979 16.0764C39.1826 15.8798 39.4252 15.7275 39.6902 15.6291C39.9886 15.5184 40.3051 15.4644 40.623 15.4685C40.7904 15.4685 40.9591 15.4824 41.1236 15.5114C41.2714 15.5378 41.4165 15.5779 41.5559 15.6305C41.6828 15.6776 41.8027 15.7385 41.9171 15.8105C42.0216 15.877 42.1192 15.9532 42.2099 16.0376L41.9226 16.471C41.8975 16.5098 41.8641 16.5417 41.825 16.5666C41.7874 16.5901 41.7441 16.6012 41.7009 16.6012C41.6368 16.5998 41.5726 16.579 41.5196 16.543C41.4416 16.4973 41.3677 16.4572 41.2979 16.4226C41.2296 16.3893 41.1585 16.3616 41.086 16.3395C41.0107 16.3173 40.9354 16.3021 40.8573 16.2924C40.7681 16.2827 40.6774 16.2772 40.5882 16.2786C40.4167 16.2758 40.2451 16.309 40.0876 16.3755C39.9426 16.4392 39.8129 16.5333 39.7083 16.6524C39.6009 16.7771 39.5187 16.9224 39.4671 17.0789C39.4085 17.2575 39.3792 17.4445 39.382 17.6328C39.3778 17.8363 39.4099 18.0399 39.4754 18.2324C39.5312 18.3958 39.619 18.5453 39.7348 18.6741C39.8436 18.7945 39.9774 18.8887 40.1266 18.951C40.2856 19.0175 40.4571 19.0521 40.63 19.0507Z" fill="#515151"/>
<path d="M46.7627 19.7555H45.9957C45.9204 19.7583 45.8465 19.7375 45.7838 19.696C45.7294 19.6586 45.689 19.606 45.6681 19.5437L45.4157 18.8056H43.7926L43.5402 19.5437C43.4872 19.6738 43.3589 19.7583 43.2181 19.7555H42.4455L44.0965 15.5184H45.1131L46.7627 19.7555ZM44.0212 18.1354H45.187L44.7938 16.9737L44.7045 16.7134C44.6696 16.6137 44.6362 16.5057 44.6041 16.3893C44.572 16.507 44.54 16.6164 44.5079 16.7175C44.4758 16.8186 44.4451 16.9058 44.4159 16.982L44.0212 18.1354Z" fill="#515151"/>
<path d="M49.4023 18.0482C49.4386 18.1271 49.4734 18.2088 49.5069 18.2933C49.5404 18.2074 49.5752 18.1244 49.6129 18.044C49.6505 17.9637 49.6882 17.8862 49.7272 17.81L50.8218 15.6679C50.8372 15.6361 50.8581 15.607 50.8818 15.5821C50.9013 15.5627 50.925 15.5461 50.9501 15.5364C50.978 15.5267 51.0073 15.5211 51.0366 15.5211H51.9053V19.7555H51.0324V17.3185C51.0324 17.2008 51.038 17.072 51.0505 16.9349L49.9196 19.113C49.889 19.1767 49.8402 19.2293 49.7802 19.2667C49.7189 19.3027 49.6477 19.3207 49.5766 19.3193H49.4372C49.3661 19.3193 49.2949 19.3027 49.2336 19.2667C49.1736 19.2293 49.1248 19.1767 49.0941 19.113L47.9563 16.9321C47.9633 17 47.9702 17.0678 47.9744 17.1343C47.9786 17.2008 47.9786 17.2617 47.9744 17.3185V19.7555H47.1071V15.5225H47.9758C48.0051 15.5225 48.0344 15.5281 48.0623 15.5378C48.0874 15.5474 48.1111 15.5641 48.1306 15.5834C48.1543 15.6084 48.1752 15.6375 48.1906 15.6693L49.2894 17.8211C49.3284 17.8931 49.3661 17.9693 49.4023 18.0482Z" fill="#515151"/>
<path d="M52.6067 19.7555V15.5198H54.1768C54.4306 15.5156 54.683 15.5419 54.9298 15.6014C55.1111 15.6444 55.2812 15.7219 55.4318 15.8299C55.5545 15.9227 55.6507 16.0473 55.7107 16.1899C55.772 16.3409 55.8027 16.5015 55.7999 16.6635C55.7999 16.7577 55.7874 16.8504 55.7595 16.9404C55.7316 17.0304 55.6884 17.1149 55.6312 17.1897C55.5685 17.2714 55.4918 17.342 55.4053 17.4002C55.3021 17.4694 55.192 17.5248 55.0748 17.5649C55.3119 17.6092 55.5294 17.7242 55.6981 17.8945C55.8376 18.0579 55.9087 18.267 55.9003 18.4802C55.9003 18.6533 55.8655 18.825 55.7943 18.9829C55.7232 19.1393 55.6173 19.2778 55.4848 19.3886C55.337 19.5132 55.1669 19.6074 54.9828 19.6655C54.7625 19.7334 54.5324 19.7666 54.3009 19.7624L52.6067 19.7555ZM53.5967 17.3018H54.1127C54.2117 17.3018 54.3107 17.2949 54.4083 17.2783C54.4878 17.2658 54.5645 17.2382 54.6328 17.1966C54.6941 17.1578 54.7416 17.1025 54.7722 17.0374C54.8071 16.9571 54.8238 16.8684 54.821 16.7812C54.8238 16.6954 54.8113 16.6109 54.7834 16.5292C54.7611 16.4655 54.7192 16.4087 54.6663 16.3672C54.6063 16.3229 54.538 16.2938 54.4655 16.2799C54.3706 16.2606 54.273 16.2523 54.1768 16.2536H53.5967V17.3018ZM53.5967 17.9596V19.0147H54.2939C54.4027 19.0175 54.5115 19.0009 54.6147 18.9649C54.6886 18.9386 54.7555 18.8942 54.8099 18.8375C54.8559 18.7862 54.888 18.7267 54.9061 18.6602C54.9242 18.5951 54.9326 18.5273 54.9326 18.4594C54.9326 18.3888 54.9228 18.3182 54.9019 18.2504C54.8824 18.1894 54.8447 18.1354 54.7959 18.0939C54.7374 18.0468 54.6704 18.0136 54.5979 17.9956C54.4961 17.9707 54.3916 17.9582 54.287 17.961H53.5967V17.9596Z" fill="#515151"/>
<path d="M57.4384 18.9704H59.0196V19.7555H56.4483V15.5198H57.4384V18.9704Z" fill="#515151"/>
<path d="M60.5716 19.7555H59.576V15.5198H60.5716V19.7555Z" fill="#515151"/>
<path d="M61.9856 15.5253C62.0135 15.5281 62.04 15.5364 62.0651 15.5474C62.0902 15.5585 62.1125 15.5751 62.132 15.5931C62.1585 15.6181 62.1822 15.6444 62.2045 15.6721L64.2376 18.2199C64.2306 18.1382 64.2236 18.0593 64.2194 17.9831C64.2153 17.907 64.2153 17.835 64.2194 17.7671V15.5198H65.0924V19.7569H64.5764C64.5095 19.7583 64.444 19.7472 64.3826 19.7223C64.3226 19.6932 64.2696 19.6489 64.2306 19.5949L62.2143 17.0692C62.2198 17.1426 62.224 17.2146 62.2282 17.2852C62.2324 17.3559 62.2324 17.4223 62.2282 17.4846V19.7555H61.3553V15.5198H61.8768C61.9131 15.5198 61.9493 15.5198 61.9856 15.5253Z" fill="#515151"/>
<path d="M67.7989 19.0507C67.9202 19.0521 68.0416 19.041 68.1615 19.0161C68.2633 18.9939 68.3637 18.9635 68.4599 18.9233V18.2753H68.0416C67.99 18.2753 67.9412 18.2587 67.9021 18.2254C67.8673 18.1936 67.8477 18.1479 67.8491 18.1008V17.5594H69.3663V19.3484C69.2589 19.4273 69.1446 19.4952 69.0246 19.5534C68.9033 19.6115 68.7764 19.6572 68.6467 19.6918C68.5059 19.7306 68.3637 19.7569 68.2187 19.7735C68.0569 19.7915 67.8938 19.7998 67.7306 19.7998C67.4336 19.8026 67.138 19.7472 66.8633 19.635C66.3418 19.426 65.9276 19.0147 65.7171 18.4955C65.6041 18.2213 65.5483 17.9277 65.5511 17.6328C65.5483 17.3351 65.6013 17.0401 65.7087 16.7618C65.8091 16.5043 65.9625 16.2703 66.1605 16.0764C66.3641 15.8798 66.6067 15.7275 66.8716 15.6291C67.17 15.5184 67.4866 15.4644 67.8045 15.4685C67.9718 15.4685 68.1406 15.4824 68.3051 15.5114C68.4529 15.5378 68.5979 15.5779 68.7374 15.6305C68.8643 15.6776 68.9842 15.7385 69.0985 15.8105C69.2031 15.877 69.3007 15.9532 69.3914 16.0376L69.0971 16.4752C69.072 16.514 69.0386 16.5458 68.9995 16.5707C68.9619 16.5943 68.9187 16.6053 68.8754 16.6053C68.8113 16.604 68.7471 16.5832 68.6941 16.5472C68.6161 16.5015 68.5422 16.4613 68.4724 16.4267C68.4041 16.3935 68.333 16.3658 68.2605 16.3436C68.1852 16.3215 68.1099 16.3063 68.0318 16.2966C67.9426 16.2869 67.8519 16.2813 67.7627 16.2827C67.5912 16.2799 67.4196 16.3132 67.2621 16.3796C67.1171 16.4433 66.9874 16.5375 66.8828 16.6566C66.7754 16.7812 66.6932 16.9266 66.6416 17.0831C66.583 17.2617 66.5537 17.4486 66.5565 17.6369C66.5523 17.8405 66.5844 18.044 66.6499 18.2365C66.7057 18.3999 66.7936 18.5495 66.9093 18.6782C67.0181 18.7987 67.1519 18.8929 67.3011 18.9552C67.4587 19.0202 67.6288 19.0521 67.7989 19.0507Z" fill="#515151"/>
<path d="M33.5673 22.5817V23.3432H31.8159V24.4164H33.2744V25.1752H31.8159V26.8244H30.8202V22.5817H33.5673Z" fill="#515151"/>
<path d="M38.293 24.6975C38.2957 24.9896 38.2414 25.2804 38.134 25.5518C37.929 26.0752 37.5121 26.4906 36.9864 26.697C36.4021 26.9171 35.7579 26.9171 35.1736 26.697C34.6465 26.4906 34.2282 26.0766 34.0218 25.5518C33.8085 25.0007 33.8085 24.3928 34.0218 23.8417C34.1222 23.5828 34.2756 23.3474 34.4722 23.1494C34.6716 22.9514 34.9087 22.7963 35.1694 22.6924C35.4581 22.5789 35.7663 22.5221 36.0772 22.5263C36.3882 22.5221 36.6949 22.5789 36.9836 22.6938C37.2443 22.7991 37.4814 22.9541 37.6808 23.1522C37.876 23.3502 38.0294 23.5856 38.1298 23.8445C38.2386 24.1159 38.2943 24.4053 38.293 24.6975ZM37.2792 24.6975C37.282 24.5064 37.2541 24.3153 37.1969 24.1325C37.1481 23.976 37.0686 23.8307 36.9613 23.706C36.8581 23.5897 36.7298 23.4983 36.5848 23.4388C36.4244 23.3751 36.2515 23.3432 36.0786 23.346C35.9043 23.3432 35.73 23.3751 35.5683 23.4388C35.4232 23.4983 35.2936 23.5897 35.1904 23.706C35.083 23.8307 35.0035 23.976 34.9547 24.1325C34.8459 24.5022 34.8459 24.8969 34.9547 25.2666C35.0035 25.423 35.083 25.5684 35.1904 25.6931C35.2936 25.8094 35.4232 25.9008 35.5683 25.9589C35.73 26.0226 35.9043 26.0531 36.0786 26.0503C36.2515 26.0531 36.4244 26.0226 36.5848 25.9589C36.7298 25.9008 36.8581 25.8094 36.9613 25.6931C37.0686 25.5684 37.1481 25.423 37.1969 25.2666C37.2541 25.0824 37.2834 24.8899 37.2806 24.6975H37.2792Z" fill="#515151"/>
<path d="M40.5422 26.042C40.6635 26.0448 40.7848 26.0226 40.8977 25.9769C40.9995 25.9354 41.0902 25.8717 41.1627 25.79C41.238 25.7028 41.2951 25.6017 41.3286 25.4923C41.369 25.3621 41.3872 25.2278 41.3858 25.0921V22.5817H42.3758V25.0907C42.3786 25.3358 42.3354 25.5781 42.2489 25.8066C42.1681 26.0171 42.044 26.2082 41.885 26.3674C41.7204 26.528 41.5238 26.654 41.3077 26.7344C40.8113 26.9088 40.2702 26.9088 39.7738 26.7344C39.5577 26.654 39.3611 26.528 39.1965 26.3674C39.0376 26.2082 38.9135 26.0171 38.834 25.8066C38.7475 25.5781 38.7057 25.3344 38.7085 25.0907V22.5817H39.6985V25.088C39.6971 25.2237 39.7153 25.358 39.7557 25.4881C39.7906 25.5975 39.8463 25.7 39.9216 25.7872C39.9941 25.8689 40.0848 25.934 40.1866 25.9755C40.2995 26.0212 40.4208 26.0434 40.5422 26.042Z" fill="#515151"/>
<path d="M43.6489 22.5872C43.6768 22.59 43.7033 22.5983 43.7284 22.6094C43.7535 22.6204 43.7758 22.6371 43.7953 22.6551C43.8218 22.68 43.8455 22.7063 43.8679 22.734L45.8953 25.2818C45.8884 25.2001 45.8814 25.1212 45.8772 25.045C45.873 24.9689 45.873 24.8969 45.8772 24.829V22.5817H46.7501V26.8188H46.2286C46.1617 26.8202 46.0961 26.8091 46.0348 26.7842C45.9748 26.7551 45.9218 26.7108 45.8828 26.6568L43.872 24.1311C43.8776 24.2045 43.8818 24.2765 43.886 24.3471C43.8902 24.4178 43.8902 24.4842 43.886 24.5465V26.8174H43.0214V22.5817H43.543C43.5778 22.5817 43.6141 22.5831 43.6489 22.5872Z" fill="#515151"/>
<path d="M51.3183 24.6975C51.321 24.9869 51.2681 25.2749 51.1593 25.5449C51.0575 25.7969 50.9041 26.0254 50.7103 26.2165C50.5109 26.4089 50.2738 26.5599 50.0131 26.6582C49.723 26.7662 49.4163 26.8202 49.1067 26.816H47.4473V22.5817H49.1053C49.4149 22.5775 49.723 22.6329 50.0117 22.7423C50.271 22.842 50.5095 22.9915 50.7089 23.184C50.9041 23.3737 51.0561 23.6022 51.1579 23.8542C51.2667 24.1228 51.321 24.4081 51.3183 24.6975ZM50.3045 24.6975C50.3073 24.505 50.2794 24.3139 50.2222 24.1311C50.1734 23.9733 50.094 23.8279 49.9866 23.7019C49.8848 23.5814 49.7551 23.4873 49.6101 23.4249C49.4497 23.3599 49.2768 23.328 49.1039 23.3308H48.4416V26.0559H49.1039C49.2768 26.0586 49.4497 26.0268 49.6101 25.9617C49.7551 25.8994 49.8848 25.8052 49.9866 25.6848C50.094 25.5588 50.1734 25.4134 50.2222 25.2555C50.278 25.0755 50.3073 24.8872 50.3059 24.6975H50.3045Z" fill="#515151"/>
<path d="M55.588 26.8174H54.821C54.7457 26.8202 54.6718 26.7994 54.6091 26.7579C54.5547 26.7205 54.5143 26.6679 54.4934 26.6056L54.241 25.8675H52.6192L52.3641 26.6056C52.3111 26.7357 52.1828 26.8202 52.042 26.8174H51.2694L52.9218 22.5817H53.9356L55.588 26.8174ZM52.8465 25.1973H54.0123L53.619 24.0356L53.5298 23.7753C53.4949 23.6756 53.4615 23.5676 53.4294 23.4513C53.3973 23.569 53.3653 23.6783 53.3332 23.7794C53.3011 23.8805 53.2691 23.9677 53.2398 24.0411L52.8465 25.1973Z" fill="#515151"/>
<path d="M58.5637 22.5817V23.3612H57.3631V26.823H56.373V23.3612H55.1724V22.5817H58.5637Z" fill="#515151"/>
<path d="M60.0571 26.8174H59.0573V22.5817H60.0529L60.0571 26.8174Z" fill="#515151"/>
<path d="M65.0533 24.6975C65.0561 24.9896 65.0017 25.2804 64.8943 25.5518C64.6894 26.0752 64.2724 26.4906 63.7467 26.697C63.1625 26.9171 62.5183 26.9171 61.934 26.697C61.4069 26.4906 60.9886 26.0766 60.7822 25.5518C60.5689 25.0007 60.5689 24.3928 60.7822 23.8417C60.8826 23.5828 61.036 23.3474 61.2326 23.1494C61.432 22.9514 61.6691 22.7963 61.9298 22.6924C62.2185 22.5789 62.5266 22.5221 62.8376 22.5263C63.1485 22.5221 63.4553 22.5789 63.7439 22.6938C64.0047 22.7991 64.2418 22.9541 64.4412 23.1522C64.6364 23.3502 64.7898 23.5856 64.8902 23.8445C64.9989 24.1159 65.0547 24.4053 65.0533 24.6975ZM64.0396 24.6975C64.0424 24.5064 64.0145 24.3153 63.9573 24.1325C63.9085 23.976 63.829 23.8307 63.7216 23.706C63.6185 23.5897 63.4902 23.4983 63.3451 23.4388C63.1848 23.3751 63.0119 23.3432 62.839 23.346C62.6647 23.3432 62.4904 23.3751 62.3286 23.4388C62.1836 23.4983 62.0539 23.5897 61.9507 23.706C61.8434 23.8307 61.7639 23.976 61.7151 24.1325C61.6063 24.5022 61.6063 24.8969 61.7151 25.2666C61.7639 25.423 61.8434 25.5684 61.9507 25.6931C62.0539 25.8094 62.1836 25.9008 62.3286 25.9589C62.4904 26.0226 62.6647 26.0531 62.839 26.0503C63.0119 26.0531 63.1848 26.0226 63.3451 25.9589C63.4902 25.9008 63.6185 25.8094 63.7216 25.6931C63.829 25.5684 63.9085 25.423 63.9573 25.2666C64.0159 25.0824 64.0465 24.8899 64.0451 24.6975H64.0396Z" fill="#515151"/>
<path d="M66.1689 22.5872C66.1967 22.59 66.2232 22.5983 66.2483 22.6094C66.2734 22.6204 66.2957 22.6371 66.3153 22.6551C66.3418 22.68 66.3655 22.7063 66.3878 22.734L68.4083 25.2818C68.4013 25.2001 68.3943 25.1212 68.3902 25.045C68.386 24.9689 68.386 24.8969 68.3902 24.829V22.5817H69.2631V26.8188H68.7471C68.6802 26.8202 68.6147 26.8091 68.5533 26.7842C68.4934 26.7551 68.4404 26.7108 68.4013 26.6568L66.3892 24.1325C66.3947 24.2059 66.3989 24.2779 66.4031 24.3485C66.4073 24.4191 66.4073 24.4856 66.4031 24.5479V26.8188H65.5302V22.5817H66.0517C66.0908 22.5817 66.1298 22.5817 66.1689 22.5872Z" fill="#515151"/>
<path fill-rule="evenodd" clip-rule="evenodd" d="M5.2326 5.06535C5.15558 5.06535 5.09315 5.12735 5.09315 5.20382V29.7654C5.09315 29.8419 5.15558 29.9039 5.2326 29.9039H72.1649C72.2419 29.9039 72.3043 29.8419 72.3043 29.7654V5.20382C72.3043 5.12735 72.2419 5.06535 72.1649 5.06535H5.2326ZM3.69873 5.20382C3.69873 4.36261 4.38547 3.68066 5.2326 3.68066H72.1649C73.012 3.68066 73.6987 4.36261 73.6987 5.20382V29.7654C73.6987 30.6067 73.012 31.2886 72.1649 31.2886H5.2326C4.38547 31.2886 3.69873 30.6067 3.69873 29.7654V5.20382Z" fill="#46C6F1"/>
<path fill-rule="evenodd" clip-rule="evenodd" d="M27.4736 27.5236V7.44563H28.1708V27.5236H27.4736Z" fill="#9B9B9B"/>
<path d="M8.74514 33.295H9.5553C9.632 33.2922 9.7073 33.313 9.77144 33.3545C9.82722 33.3933 9.86905 33.4487 9.89136 33.5124L10.7364 35.8345C10.774 35.9356 10.8131 36.0464 10.8521 36.1655C10.8912 36.2845 10.9274 36.4092 10.9623 36.5407C10.9902 36.4092 11.0222 36.2845 11.0599 36.1655C11.0975 36.0464 11.1338 35.9356 11.17 35.8345L12.0067 33.5124C12.0611 33.3767 12.1963 33.2895 12.3441 33.295H13.1655L11.4127 37.6332H10.4951L8.74514 33.295Z" fill="#494949"/>
<path d="M16.3364 33.295V34.069H14.5432V35.0813H15.9167V35.8262H14.5432V36.8592H16.3364V37.6332H13.5238V33.295H16.3364Z" fill="#494949"/>
<path d="M17.9218 37.6332H16.9109V33.295H18.3318C18.6037 33.2895 18.8756 33.3227 19.1392 33.3919C19.3372 33.4446 19.5226 33.5359 19.6844 33.6619C19.8196 33.77 19.9256 33.9112 19.9912 34.0704C20.0567 34.2338 20.0888 34.4069 20.0874 34.5828C20.0874 34.7171 20.0693 34.8528 20.0302 34.9816C19.9926 35.1048 19.9354 35.2225 19.8615 35.3277C19.7834 35.4357 19.69 35.5313 19.5826 35.6116C19.4683 35.6974 19.3414 35.7667 19.2061 35.8165C19.2744 35.8498 19.3386 35.8927 19.3971 35.9411C19.4585 35.9924 19.5101 36.0547 19.5519 36.1225L20.482 37.6319H19.5673C19.4181 37.6429 19.2772 37.5682 19.2019 37.4408L18.4768 36.1821C18.4503 36.1322 18.4113 36.0921 18.3639 36.063C18.3081 36.0367 18.2453 36.0242 18.1826 36.027H17.9218V37.6332ZM17.9218 35.336H18.329C18.4489 35.3388 18.5675 35.3208 18.6818 35.2834C18.771 35.2557 18.8519 35.2073 18.9202 35.1449C18.983 35.0854 19.0304 35.0106 19.0597 34.9289C19.0876 34.8431 19.1029 34.7531 19.1015 34.6631C19.1113 34.4928 19.043 34.328 18.9147 34.2158C18.7459 34.0954 18.541 34.0386 18.3346 34.0552H17.9218V35.336Z" fill="#494949"/>
<path d="M20.9896 37.6332V33.295H22.0089V37.6332H20.9896Z" fill="#494949"/>
<path d="M25.6302 33.295V34.069H23.837V35.1671H25.3304V35.9439H23.837V37.6332H22.8177V33.295H25.6302Z" fill="#494949"/>
<path d="M27.2645 37.6332H26.2465V33.295H27.2645V37.6332Z" fill="#494949"/>
<path d="M30.89 33.295V34.069H29.0953V35.0813H30.4716V35.8262H29.0981V36.8592H30.89V37.6332H28.076V33.295H30.89Z" fill="#494949"/>
<path d="M35.4274 35.4634C35.4302 35.7611 35.3758 36.0561 35.2643 36.3316C35.1611 36.5919 35.0035 36.8273 34.8041 37.024C34.5991 37.222 34.3565 37.3757 34.0888 37.4768C33.7932 37.5875 33.478 37.6429 33.1615 37.6388H31.4631V33.295H33.1601C33.4766 33.2909 33.7918 33.3462 34.0874 33.4584C34.3537 33.5595 34.5977 33.7146 34.8027 33.9112C35.0021 34.1078 35.1597 34.3432 35.2629 34.6035C35.373 34.8763 35.4288 35.1685 35.4274 35.4634ZM34.39 35.4634C34.3928 35.2668 34.3649 35.0716 34.3063 34.8832C34.2561 34.7226 34.1738 34.5731 34.0651 34.4443C33.9605 34.3238 33.828 34.2297 33.6802 34.1674C33.5157 34.1009 33.3386 34.0677 33.1615 34.0704H32.4838V36.8606H33.1615C33.3386 36.8633 33.5157 36.8301 33.6802 36.7637C33.828 36.7013 33.9605 36.6072 34.0651 36.4867C34.1738 36.3579 34.2561 36.2084 34.3063 36.0478C34.3649 35.8581 34.3928 35.6614 34.39 35.4634Z" fill="#494949"/>
<path d="M41.3816 35.4634C41.3844 35.7625 41.3286 36.0602 41.2185 36.3386C41.0079 36.8744 40.5826 37.2995 40.043 37.5114C39.4447 37.7371 38.7838 37.7371 38.1856 37.5114C37.6446 37.3009 37.2179 36.8758 37.0059 36.3386C36.7884 35.775 36.7884 35.1519 37.0059 34.5883C37.1105 34.3252 37.2667 34.087 37.4675 33.8863C37.6724 33.6841 37.9165 33.5249 38.1856 33.4182C38.4812 33.3019 38.7977 33.2438 39.1157 33.2479C39.4336 33.2438 39.7487 33.3019 40.043 33.4196C40.3107 33.5262 40.5547 33.6869 40.7583 33.889C40.9577 34.0898 41.1139 34.328 41.2185 34.5911C41.3286 34.8694 41.3844 35.1643 41.3816 35.4634ZM40.3441 35.4634C40.3469 35.2668 40.3191 35.0716 40.2605 34.8846C40.2103 34.724 40.1294 34.5758 40.0192 34.4485C39.9147 34.328 39.7822 34.2338 39.6344 34.1715C39.4698 34.105 39.2928 34.0732 39.1157 34.076C38.9372 34.0732 38.7587 34.105 38.5928 34.1715C38.4436 34.2324 38.3125 34.328 38.2065 34.4485C38.0963 34.5758 38.0141 34.724 37.9653 34.8846C37.8537 35.264 37.8537 35.667 37.9653 36.0464C38.0141 36.207 38.0963 36.3552 38.2065 36.4826C38.3111 36.603 38.4436 36.6986 38.5928 36.7595C38.7587 36.8246 38.9372 36.8564 39.1157 36.8537C39.2928 36.8564 39.4698 36.8246 39.6344 36.7595C39.7822 36.6986 39.9147 36.603 40.0192 36.4826C40.1294 36.3552 40.2103 36.207 40.2605 36.0464C40.3191 35.8581 40.3469 35.6614 40.3441 35.4634Z" fill="#494949"/>
<path d="M42.882 36.1835V37.6332H41.8683V33.295H43.4091C43.6782 33.2895 43.9459 33.3269 44.2025 33.4044C44.4033 33.4653 44.5888 33.5678 44.7477 33.7035C44.8872 33.8267 44.9959 33.9804 45.0643 34.1535C45.1326 34.3308 45.1675 34.5177 45.1661 34.7074C45.1689 34.9109 45.1326 35.1131 45.0615 35.3028C44.9932 35.48 44.883 35.6393 44.7408 35.7667C44.5818 35.9038 44.3949 36.0062 44.1941 36.0685C43.9404 36.1461 43.6754 36.1821 43.4105 36.1765L42.882 36.1835ZM42.882 35.4247H43.4091C43.7591 35.4828 44.091 35.2474 44.1495 34.8999C44.1593 34.8376 44.1607 34.7752 44.1523 34.7129C44.1537 34.6188 44.1398 34.5246 44.1077 34.436C44.0784 34.3557 44.031 34.2837 43.9683 34.2255C43.9027 34.1632 43.8232 34.1161 43.7368 34.087C43.6294 34.0538 43.5179 34.0372 43.4049 34.04H42.882V35.4247Z" fill="#494949"/>
<path d="M48.5043 33.295V34.069H46.7111V35.0813H48.0846V35.8262H46.7111V36.8592H48.5043V37.6332H45.6918V33.295H48.5043Z" fill="#494949"/>
<path d="M50.0926 37.6332H49.0788V33.295H50.4997C50.7716 33.2895 51.0436 33.3227 51.3071 33.3919C51.5051 33.4446 51.6906 33.5359 51.8523 33.6619C51.9876 33.77 52.0936 33.9112 52.1591 34.0704C52.2246 34.2338 52.2567 34.4069 52.2553 34.5828C52.2553 34.7171 52.2372 34.8528 52.1981 34.9816C52.1605 35.1048 52.1033 35.2225 52.0294 35.3277C51.9513 35.4357 51.8579 35.5313 51.7505 35.6116C51.6362 35.6974 51.5093 35.7667 51.374 35.8165C51.4424 35.8498 51.5065 35.8927 51.5651 35.9411C51.6264 35.9924 51.678 36.0547 51.7198 36.1225L52.6499 37.6319H51.7366C51.5874 37.6429 51.4465 37.5682 51.3712 37.4408L50.6461 36.1821C50.6196 36.1322 50.5806 36.0921 50.5332 36.063C50.4774 36.0367 50.4147 36.0242 50.3519 36.027H50.0926V37.6332ZM50.0926 35.336H50.4997C50.6196 35.3388 50.7382 35.3208 50.8525 35.2834C50.9418 35.2557 51.0226 35.2073 51.091 35.1449C51.1537 35.0854 51.2011 35.0106 51.2304 34.9289C51.2583 34.8431 51.2722 34.7531 51.2722 34.6631C51.282 34.4928 51.2137 34.328 51.0854 34.2158C50.9167 34.0954 50.7117 34.0386 50.5053 34.0552H50.0981L50.0926 35.336Z" fill="#494949"/>
<path d="M57.133 37.6332H56.3479C56.2712 37.636 56.1945 37.6152 56.1304 37.5723C56.0746 37.5335 56.0342 37.4795 56.0119 37.4158L55.7539 36.6598H54.0918L53.8338 37.4158C53.7808 37.5502 53.6483 37.636 53.5033 37.6332H52.7127L54.4041 33.295H55.4416L57.133 37.6332ZM54.3274 35.9716H55.521L55.1194 34.7835L55.0274 34.5177C54.9926 34.4152 54.9577 34.3044 54.9242 34.1854C54.8922 34.3058 54.8601 34.418 54.8252 34.5218C54.7904 34.6257 54.7583 34.7143 54.729 34.7891L54.3274 35.9716Z" fill="#494949"/>
<path d="M60.1728 33.295V34.0926H58.943V37.6332H57.9418V34.0926H56.7119V33.295H60.1728Z" fill="#494949"/>
<path d="M64.7298 35.4634C64.7326 35.7625 64.6768 36.0602 64.5667 36.3386C64.3561 36.8744 63.9308 37.2995 63.3912 37.5114C62.793 37.7371 62.132 37.7371 61.5338 37.5114C60.9928 37.3009 60.5661 36.8758 60.3541 36.3386C60.1366 35.775 60.1366 35.1519 60.3541 34.5883C60.4587 34.3252 60.6149 34.087 60.8157 33.8863C61.0206 33.6841 61.2647 33.5249 61.5338 33.4182C61.8294 33.3019 62.1459 33.2438 62.4639 33.2479C62.7818 33.2438 63.0969 33.3019 63.3912 33.4196C63.6589 33.5262 63.9029 33.6869 64.1065 33.889C64.3059 34.0898 64.4621 34.328 64.5667 34.5911C64.6768 34.8694 64.7326 35.1643 64.7298 35.4634ZM63.6924 35.4634C63.6951 35.2668 63.6673 35.0716 63.6087 34.8846C63.5585 34.724 63.4776 34.5758 63.3675 34.4485C63.2629 34.328 63.1304 34.2338 62.9826 34.1715C62.8181 34.105 62.641 34.0732 62.4639 34.076C62.2854 34.0732 62.1069 34.105 61.941 34.1715C61.7918 34.2324 61.6607 34.328 61.5547 34.4485C61.4445 34.5758 61.3623 34.724 61.3135 34.8846C61.2019 35.264 61.2019 35.667 61.3135 36.0464C61.3623 36.207 61.4445 36.3552 61.5547 36.4826C61.6593 36.603 61.7918 36.6986 61.941 36.7595C62.1069 36.8246 62.2854 36.8564 62.4639 36.8537C62.641 36.8564 62.8181 36.8246 62.9826 36.7595C63.1304 36.6986 63.2629 36.603 63.3675 36.4826C63.4776 36.3552 63.5585 36.207 63.6087 36.0464C63.6673 35.8581 63.6951 35.6614 63.6924 35.4634Z" fill="#494949"/>
<path d="M66.2288 37.6332H65.2151V33.295H66.636C66.9079 33.2895 67.1798 33.3227 67.4434 33.3919C67.6414 33.4446 67.8268 33.5359 67.9886 33.6619C68.1238 33.77 68.2298 33.9112 68.2953 34.0704C68.3609 34.2338 68.393 34.4069 68.3916 34.5828C68.3916 34.7171 68.3734 34.8528 68.3344 34.9816C68.2967 35.1048 68.2396 35.2225 68.1657 35.3277C68.0876 35.4357 67.9941 35.5313 67.8868 35.6116C67.7724 35.6974 67.6455 35.7667 67.5103 35.8165C67.5786 35.8498 67.6428 35.8927 67.7013 35.9411C67.7627 35.9924 67.8143 36.0547 67.8561 36.1225L68.7862 37.6319H67.8687C67.7195 37.6429 67.5786 37.5682 67.5033 37.4408L66.7782 36.1821C66.7517 36.1322 66.7127 36.0921 66.6653 36.063C66.6095 36.0367 66.5467 36.0242 66.484 36.027H66.2288V37.6332ZM66.2288 35.336H66.636C66.7559 35.3388 66.8744 35.3208 66.9888 35.2834C67.078 35.2557 67.1589 35.2073 67.2272 35.1449C67.29 35.0854 67.3374 35.0106 67.3667 34.9289C67.3946 34.8431 67.4085 34.7531 67.4085 34.6631C67.4183 34.4928 67.3499 34.328 67.2216 34.2158C67.0529 34.0954 66.8479 34.0386 66.6416 34.0552H66.2344L66.2288 35.336Z" fill="#494949"/>
<path d="M16.2485 24.3444C15.6503 24.3485 15.1065 24.6878 14.8402 25.2195L14.8053 25.286L14.7342 25.2638C14.281 25.135 13.8683 24.8969 13.5294 24.5715C13.1836 24.2585 12.934 23.8542 12.8085 23.4056C12.4627 22.3615 12.7374 21.2136 13.5169 20.4354C13.5196 20.4202 13.5266 20.4063 13.5364 20.3939L13.5573 20.3717C13.8027 20.11 13.7957 19.7029 13.542 19.4495C13.2812 19.1906 12.8601 19.1906 12.5993 19.4495C12.2493 19.8151 11.8017 20.0754 11.3095 20.2C10.392 20.416 9.69475 20.4008 9.54275 20.1585C8.9571 19.9383 8.44813 19.5534 8.07861 19.0507C7.26985 17.9014 7.40371 16.3423 8.39514 15.3439C8.71586 15.0337 9.09515 14.7914 9.51068 14.6294C10.088 14.4231 10.7155 14.4009 11.3067 14.5657C11.739 14.6903 12.1378 14.9133 12.4683 15.2165C12.4961 15.2456 12.5198 15.2774 12.5422 15.3121C12.5589 15.337 12.577 15.3605 12.5979 15.3827C12.8573 15.6402 13.2784 15.6416 13.5392 15.3827C13.6688 15.2497 13.7344 15.0697 13.7204 14.8856C13.7358 14.6986 13.6688 14.5159 13.5392 14.3802C13.5238 14.3663 13.5071 14.3525 13.4904 14.3414L13.5043 14.304L13.482 14.3358C13.4583 14.3206 13.436 14.304 13.4165 14.2846C12.7276 13.5147 12.5003 12.4416 12.8183 11.4612C12.934 11.1137 12.7443 10.7398 12.3943 10.6249C12.0443 10.51 11.6679 10.6983 11.5521 11.0458C11.336 11.7243 11.2955 12.4444 11.435 13.1422L11.4587 13.2696L11.3304 13.2433C10.5802 13.0841 9.80072 13.1284 9.07423 13.3735C8.55829 13.5493 8.05212 13.8678 7.47901 14.3774C6.01905 15.8327 5.81267 18.1147 6.98817 19.8054C7.51387 20.5212 8.23479 21.071 9.06586 21.3922C9.5302 21.557 10.0196 21.6415 10.5133 21.6415C10.7545 21.6318 10.9943 21.5985 11.2286 21.5432L11.4517 21.5002L11.4238 21.6304C11.2677 22.3407 11.3011 23.0788 11.5214 23.7725C11.7069 24.4372 12.0722 25.0381 12.5798 25.5089C13.192 26.114 13.9728 26.5211 14.822 26.6762L14.8611 26.6831L14.882 26.7177C15.1581 27.2107 15.681 27.5167 16.2485 27.5209C17.1312 27.5209 17.8479 26.8091 17.8479 25.9326C17.8479 25.0561 17.1312 24.3444 16.2485 24.3444Z" fill="#46C6F1"/>
<path d="M24.7908 14.9617C24.2651 14.2458 23.5428 13.6947 22.7117 13.3735C21.9824 13.1256 21.1987 13.0799 20.4457 13.2433L20.3175 13.2696L20.3412 13.1422C20.4806 12.461 20.4443 11.7562 20.2338 11.0929C20.0483 10.4296 19.683 9.82868 19.1768 9.35789C18.5479 8.73616 17.7392 8.32491 16.8635 8.1809H16.8272L16.8063 8.14352C16.519 7.71288 16.0366 7.45117 15.5165 7.44425C14.6324 7.44009 13.9115 8.14767 13.9073 9.02556C13.9031 9.90346 14.6157 10.6193 15.4997 10.6235C16.1398 10.6263 16.7198 10.251 16.975 9.66806L17.0085 9.59329L17.0852 9.62098C17.5147 9.75253 17.9079 9.98238 18.2314 10.2926C18.5772 10.6069 18.8268 11.0112 18.9537 11.4598C19.2689 12.4361 19.0443 13.505 18.3611 14.2735C18.3374 14.2943 18.3123 14.3137 18.2858 14.3317C18.2663 14.3442 18.2467 14.358 18.23 14.3732C18.1017 14.5062 18.0362 14.6862 18.0501 14.8703C18.0236 15.2304 18.2969 15.5433 18.6595 15.5696C18.8519 15.5835 19.0402 15.5128 19.1754 15.3757C19.1949 15.355 19.2131 15.3314 19.2284 15.3079C19.2493 15.2747 19.2716 15.2442 19.2967 15.2151C19.63 14.9091 20.0302 14.6848 20.4653 14.5588C21.0467 14.3968 21.6631 14.4148 22.2334 14.6114C22.819 14.8316 23.328 15.2165 23.6975 15.7191C24.5063 16.8684 24.3724 18.4276 23.381 19.426C23.0603 19.7361 22.681 19.9785 22.2655 20.1405C21.6882 20.3454 21.0607 20.3675 20.4694 20.2042C19.9814 20.0685 19.538 19.8095 19.1796 19.4537L17.8856 18.17L17.9009 18.1202C17.9581 17.9693 17.9902 17.81 17.9985 17.6494C18.0432 16.7272 17.3264 15.9421 16.3977 15.8978C15.469 15.8535 14.6784 16.5652 14.6338 17.4874C14.5892 18.4096 15.3059 19.1947 16.2346 19.239C16.4633 19.2501 16.692 19.2141 16.9053 19.1352L16.9583 19.1186L16.9959 19.1587L18.1826 20.3371C18.2007 20.3592 18.2147 20.3856 18.2216 20.4146V20.4354C19.0081 21.2136 19.2856 22.3657 18.9356 23.4125C18.8798 23.5786 18.8938 23.76 18.9746 23.9165C19.0541 24.073 19.1936 24.1921 19.3623 24.2461C19.4292 24.2682 19.4989 24.2793 19.5687 24.2793C19.8573 24.2793 20.1139 24.0951 20.2017 23.8223C20.4304 23.1134 20.4681 22.356 20.3105 21.6276L20.2826 21.4891L20.4416 21.521C20.7121 21.5861 20.9882 21.6235 21.2657 21.6332C21.7551 21.6332 22.2404 21.5487 22.7005 21.3839C23.2137 21.2108 23.7212 20.8923 24.2971 20.38C25.7529 18.9275 25.9593 16.6497 24.7894 14.9617H24.7908Z" fill="#46C6F1"/>
</svg>
