<svg width="192" height="56" viewBox="0 0 192 56" fill="none" xmlns="http://www.w3.org/2000/svg">
<path d="M44.3771 23.88C44.4646 24.1049 44.6921 24.1434 44.8452 23.9764C45.5692 23.1905 45.8885 22.4839 46.3829 21.6124C46.5754 21.274 46.5951 21.2291 46.805 20.9014C46.8903 20.7687 47.1309 20.4196 47.2644 20.3233C47.4656 20.1755 47.7675 20.0556 48.0059 20.0406C48.2268 20.0278 48.4718 19.94 48.6139 20.1884C48.8327 20.5631 47.9818 21.4753 47.774 21.8436C46.781 23.5824 45.882 25.2548 44.7665 26.9207C44.5805 27.197 44.3618 27.6959 44.2568 28.0085C44.2131 28.1391 44.1496 28.2633 44.0556 28.3704C43.7778 28.6895 43.2725 28.6231 43.1085 28.2419C42.9532 27.8779 42.9663 27.6038 43.1894 27.1755C44.0403 25.5417 43.839 25.5781 43.6728 24.88C43.4366 23.8822 43.3513 23.289 43.0778 22.2997C42.9029 21.6702 42.8438 21.3704 42.8591 21.0599C42.8766 20.7002 43.29 20.3404 43.4934 20.3768C43.7428 20.4239 43.8478 20.6381 43.9265 20.9914C44.1037 21.7773 44.0009 21.8436 44.1671 22.8522C44.1912 22.9892 44.294 23.6659 44.3771 23.88Z" fill="#A2ABB0"/>
<path d="M51.136 24.9186C51.2257 24.8543 51.3176 24.7879 51.4051 24.7216C51.3657 24.7472 51.2629 24.8243 51.136 24.9186ZM51.136 24.9186C51.0945 24.9485 51.0529 24.9807 51.0092 25.0106C51.0551 24.9785 51.0967 24.9485 51.136 24.9186Z" fill="#A2ABB0"/>
<path d="M61.9851 23.2034C61.9436 23.062 61.7533 23.0342 61.5958 23.032C61.0752 23.0256 60.7143 23.1648 60.2834 23.4496C59.9662 23.6616 59.8722 23.7301 59.5594 23.9507C59.4741 24.0085 59.1985 24.2505 59.1022 24.3318C58.9973 24.4239 58.8223 24.3618 58.8048 24.2248C58.7741 23.9914 58.866 23.7986 58.8966 23.6466C58.9404 23.4303 59.0891 23.2076 58.9076 23.0834C58.6517 22.9078 58.2886 22.9464 58.0086 23.2183C57.7833 23.4368 57.8445 23.6338 57.7964 23.9764C57.7221 24.4839 57.6346 24.9999 57.4246 25.4689C57.184 26.0064 56.9696 26.546 56.484 26.91C56.3222 27.032 55.8585 27.456 55.6135 27.0192C55.515 26.8415 55.8125 26.0492 55.8606 25.9228C56.0859 25.334 56.1253 25.2847 56.3309 24.6894C56.46 24.3126 56.2937 24.0235 55.9044 23.8243C55.5829 23.6616 55.3007 23.728 55.0448 24.0385C54.931 24.1755 54.0255 26.5545 53.4087 27.3468C53.3059 27.4796 53.1484 27.728 52.7525 27.5738C52.4856 27.471 52.5009 27.1434 52.5119 27.0128C52.5447 26.6787 52.6956 26.2355 52.8159 25.9207C53.004 25.4346 53.1877 24.9764 53.2796 24.5096C53.3802 23.9956 52.8749 23.91 52.3741 24.0963C52.28 24.1327 52.1903 24.1841 52.1028 24.2398C51.8688 24.3811 51.6435 24.546 51.416 24.7151C51.4138 24.7173 51.4094 24.7194 51.4073 24.7216C51.2782 24.8179 51.147 24.9164 51.0113 25.0106C50.9545 25.0535 50.8954 25.0941 50.8364 25.1327C50.7882 25.1648 50.7423 25.1991 50.6964 25.2269C50.5236 25.3404 50.3727 25.4153 50.3223 25.3896C50.3005 25.3811 50.2939 25.3575 50.2983 25.3361C50.3158 25.2569 50.3552 25.0663 50.3705 25.0213C50.5804 24.3747 50.458 23.8629 50.0117 23.5138C49.5808 23.1798 49.1237 23.0706 48.6534 23.3554C48.5637 23.4089 48.4806 23.471 48.3953 23.5331C47.2907 24.3532 46.7155 25.4646 46.4486 26.7473C46.3021 27.4368 46.6039 27.9443 47.1223 28.3575C47.4329 28.6038 47.8091 28.6809 48.2181 28.5974C48.66 28.5053 48.9662 28.2462 49.2024 27.895C49.4715 27.4903 49.7493 26.9228 49.9133 26.4732C50.0314 26.1541 50.5433 25.6552 50.9129 25.4753L50.9151 25.471C51.0945 25.3875 51.2848 25.2954 51.4466 25.2847C51.5626 25.2762 51.6632 25.3511 51.6282 25.4603C51.4816 25.9121 51.2016 26.8115 51.1207 27.2505C51.0573 27.5909 51.1732 28.0984 51.4707 28.2997C52.0831 28.7151 52.6103 28.9121 53.3518 28.5246C53.6602 28.364 53.8899 28.1841 54.1458 27.9571C54.3405 27.7837 54.4345 27.6124 54.6182 27.4453C54.6686 27.4004 54.7714 27.3147 54.8239 27.3575C54.8742 27.3961 54.8567 27.5181 54.8676 27.5802C55.0163 28.3425 55.4582 28.456 56.075 27.9614C56.2762 27.8008 56.4031 27.6188 56.5759 27.4325C56.6109 27.3939 57.0549 26.8736 57.1227 26.9207C57.1708 26.955 56.9609 27.4817 56.9455 27.5288C56.8843 27.713 56.8209 27.8393 56.7662 28.0235C56.7203 28.1841 56.7574 28.3661 56.834 28.4239C57.0724 28.6081 57.6258 28.5888 57.7789 28.3661C58.037 27.9914 58.0545 27.6016 58.2164 27.1712C58.6167 26.1027 59.1285 24.9443 60.22 24.289C60.7865 23.9485 61.2327 23.7173 61.843 23.4625C61.9589 23.4153 62.0333 23.3618 61.9851 23.2034ZM48.38 27.3575C48.2422 27.5974 47.0939 27.9464 47.4088 26.8329C47.5313 26.3982 48.0978 25.0535 48.7606 24.4089C48.7606 24.4089 49.2243 23.8051 49.3905 24.7044C49.4671 25.1091 49.1631 25.9978 48.38 27.3575Z" fill="#A2ABB0"/>
<path d="M36.1809 22.4066C35.481 22.4237 35.4044 21.3659 35.9972 21.0897C36.6446 20.7878 36.9312 21.0405 36.9377 21.5694C36.9443 22.019 36.8262 22.3103 36.1809 22.4066Z" fill="#A2ABB0"/>
<path d="M39.031 21.5415C38.331 21.5587 38.2545 20.5008 38.8472 20.2246C39.4947 19.9227 39.7812 20.1754 39.7878 20.7043C39.7944 21.1518 39.6741 21.4452 39.031 21.5415Z" fill="#A2ABB0"/>
<path d="M40.7919 21.8028C40.7919 21.8842 40.7722 21.9656 40.7547 22.0426C40.5579 23.0148 40.2888 23.9698 39.8951 24.882C39.6983 25.3381 39.462 25.7793 39.1755 26.1883C39.029 26.396 38.8562 26.5737 38.6877 26.7578C38.5215 26.9463 38.3181 27.1026 38.1081 27.2418C37.6838 27.5116 37.161 27.6829 36.647 27.5972C36.1329 27.5202 35.6802 27.2311 35.3214 26.8799C34.9627 26.5244 34.6653 26.1154 34.4159 25.685C34.2912 25.4688 34.1709 25.2504 34.0637 25.0234L33.9062 24.6872C33.8516 24.5801 33.8013 24.4431 33.8034 24.3125C33.8013 24.1797 33.8275 24.0491 33.8953 23.9249C33.9697 23.8028 34.0834 23.73 34.1775 23.6551C34.2693 23.578 34.3787 23.488 34.5099 23.4452C34.639 23.3981 34.7899 23.4002 34.919 23.4474C35.048 23.4945 35.1661 23.578 35.2449 23.6915C35.3236 23.8071 35.3586 23.9399 35.3696 24.0705C35.3739 24.139 35.3696 24.2032 35.3586 24.2696C35.3499 24.336 35.3193 24.4024 35.3214 24.4409C35.3236 24.548 35.3564 24.6701 35.3871 24.7857C35.5183 25.2589 35.7108 25.7129 36.0761 26.0448C36.2489 26.2204 36.4392 26.3724 36.6666 26.4495C36.8919 26.5287 37.1391 26.5352 37.3753 26.4838C37.85 26.3746 38.27 26.0833 38.5959 25.7172C38.9283 25.3531 39.2083 24.942 39.4358 24.5052C39.672 24.0705 39.8361 23.6058 39.9936 23.1347C40.1489 22.6636 40.2845 22.1904 40.4135 21.7107C40.4179 21.7022 40.4179 21.7 40.4201 21.6957L40.4245 21.6808C40.4288 21.6722 40.431 21.6658 40.4398 21.6551C40.4398 21.6551 40.4376 21.6551 40.4398 21.6529L40.442 21.6486V21.6465C40.4791 21.5972 40.5316 21.5437 40.6038 21.5394C40.6782 21.5394 40.7285 21.593 40.7613 21.6486C40.7744 21.67 40.7766 21.6872 40.7854 21.7086C40.7897 21.7471 40.7919 21.775 40.7919 21.8028Z" fill="#A2ABB0"/>
<path fill-rule="evenodd" clip-rule="evenodd" d="M6 20H28.3566V34.591H6V20ZM17.173 22.8415L16.7005 23.1777L16.8799 22.6338L16.4009 22.2976H16.9915L17.173 21.7452L17.3524 22.2976H17.9429L17.4639 22.6338L17.6433 23.1777L17.173 22.8415ZM14.7319 23.484L14.2595 23.8202L14.4388 23.2763L13.9598 22.9379L14.5504 22.9401L14.7319 22.3855L14.9113 22.9379H15.5019L15.0228 23.2763L15.2022 23.8202L14.7319 23.484ZM12.9448 24.1392L12.7633 24.6917H12.1749L12.6517 25.0279L12.4724 25.5739L12.9448 25.2356L13.4173 25.5739L13.2379 25.0279L13.717 24.6917H13.1264L12.9448 24.1392ZM12.7611 27.9593L12.2908 27.6231L11.8184 27.9593L11.9977 27.4154L11.5187 27.0771L12.1093 27.0792L12.2908 26.5268L12.4702 27.0771H13.0608L12.5817 27.4154L12.7611 27.9593ZM13.1264 29.4732L12.9448 28.9207L12.7633 29.4732H12.1749L12.6517 29.8094L12.4724 30.3533L12.9448 30.0171L13.4173 30.3533L13.2379 29.8094L13.717 29.4732H13.1264ZM14.734 30.6724L14.9156 31.2248H15.5061L15.0271 31.561L15.2065 32.107L14.734 31.7687L14.2637 32.107L14.4431 31.561L13.9641 31.2248H14.5546L14.734 30.6724ZM17.3546 31.8586L17.173 31.3062L16.9915 31.8586H16.4009L16.8799 32.197L16.7005 32.7409L17.173 32.4047L17.6455 32.7409L17.4661 32.197L17.9451 31.8586H17.3546ZM19.6119 30.6724L19.7913 31.2248H20.3819L19.9029 31.561L20.0822 32.107L19.6119 31.7687L19.1395 32.107L19.3188 31.561L18.8398 31.2248H19.4304L19.6119 30.6724ZM21.5827 29.4732L21.4011 28.9207L21.2196 29.4732H20.629L21.108 29.8094L20.9286 30.3533L21.4011 30.0171L21.8736 30.3533L21.692 29.8094L22.171 29.4732H21.5827ZM22.2298 27.0707H22.8204L22.3414 27.409L22.5207 27.9529L22.0483 27.6167L21.578 27.9529L21.7574 27.409L21.2783 27.0707L21.8689 27.0728L22.0483 26.5182L22.2298 27.0707ZM20.9286 25.5653L21.4011 25.2291L21.8736 25.5653L21.692 25.0214L22.171 24.6852H21.5827L21.4011 24.1327L21.2196 24.6852H20.629L21.108 25.0214L20.9286 25.5653ZM19.4368 22.94L19.6184 22.3876L19.7977 22.9379H20.3905L19.9115 23.2762L20.0908 23.8223L19.6184 23.4839L19.1459 23.8223L19.3253 23.2762L18.8462 22.9379L19.4368 22.94Z" fill="#A2ABB0"/>
<path d="M33.9084 29.2934H38.3552V30.4154H35.573V31.2505H38.1562V32.3233H35.573V33.3597H38.4384V34.5503H33.9106V29.2934H33.9084Z" fill="#A2ABB0"/>
<path d="M41.9249 34.5503V33.9336C41.7171 34.1863 41.5072 34.3683 41.2972 34.4754C41.085 34.5824 40.8269 34.636 40.5185 34.636C40.1073 34.636 39.7857 34.5161 39.5539 34.2762C39.3198 34.0364 39.2039 33.6659 39.2039 33.167V30.743H40.7022V32.8373C40.7022 33.0771 40.7482 33.2463 40.8378 33.3469C40.9275 33.4475 41.0544 33.4968 41.2184 33.4968C41.3956 33.4968 41.5422 33.4304 41.6559 33.2955C41.7696 33.1606 41.8265 32.9208 41.8265 32.5739V30.7409H43.3183V34.5503H41.9249Z" fill="#A2ABB0"/>
<path d="M44.2194 30.743H45.615V31.3662C45.7484 31.0964 45.8884 30.9101 46.0305 30.8094C46.1727 30.7088 46.3499 30.6574 46.5599 30.6574C46.7786 30.6574 47.0192 30.7238 47.2817 30.8587L46.8202 31.8994C46.6452 31.8287 46.5052 31.7923 46.4024 31.7923C46.2077 31.7923 46.0546 31.8715 45.9474 32.03C45.7943 32.2527 45.7178 32.6681 45.7178 33.2784V34.5546H44.2194V30.743Z" fill="#A2ABB0"/>
<path d="M47.3298 32.6574C47.3298 32.0771 47.5289 31.5974 47.9313 31.2206C48.3316 30.8437 48.8719 30.6552 49.5543 30.6552C50.333 30.6552 50.9214 30.8758 51.3195 31.3191C51.6388 31.6745 51.7985 32.1135 51.7985 32.636C51.7985 33.2227 51.5995 33.7024 51.2036 34.0749C50.8076 34.4497 50.2586 34.636 49.5565 34.636C48.9309 34.636 48.4257 34.4797 48.0407 34.1692C47.566 33.7859 47.3298 33.2826 47.3298 32.6574ZM48.8237 32.6531C48.8237 32.9936 48.8937 33.2441 49.0337 33.4068C49.1737 33.5696 49.3509 33.651 49.5631 33.651C49.7774 33.651 49.9546 33.5717 50.0924 33.4111C50.2302 33.2505 50.3002 32.9936 50.3002 32.6403C50.3002 32.3105 50.2302 32.0642 50.0924 31.9036C49.9524 31.743 49.7818 31.6617 49.5762 31.6617C49.3596 31.6617 49.1803 31.743 49.0381 31.9079C48.8937 32.0707 48.8237 32.319 48.8237 32.6531Z" fill="#A2ABB0"/>
<path d="M52.5094 36V30.743H53.9049V31.3062C54.0974 31.0685 54.2746 30.9101 54.4364 30.8265C54.653 30.7152 54.8936 30.6574 55.1582 30.6574C55.6788 30.6574 56.0813 30.8522 56.3656 31.242C56.65 31.6317 56.7922 32.1135 56.7922 32.6874C56.7922 33.3212 56.6369 33.8051 56.3263 34.137C56.0157 34.4711 55.6241 34.6381 55.1495 34.6381C54.9198 34.6381 54.7098 34.5996 54.5217 34.5225C54.3336 34.4454 54.163 34.3319 54.0143 34.182V36H52.5094ZM54.0033 32.6574C54.0033 32.9593 54.0689 33.182 54.198 33.3276C54.327 33.4732 54.4911 33.546 54.688 33.546C54.8608 33.546 55.0073 33.4754 55.1232 33.3362C55.2413 33.197 55.2982 32.9593 55.2982 32.6253C55.2982 32.3169 55.237 32.0899 55.1145 31.9465C54.992 31.8008 54.8433 31.7302 54.6683 31.7302C54.478 31.7302 54.3183 31.803 54.1914 31.9486C54.0668 32.0942 54.0033 32.3298 54.0033 32.6574Z" fill="#A2ABB0"/>
<path d="M58.8198 33.0086C58.8461 33.242 58.9117 33.4176 59.0145 33.5332C59.1588 33.6981 59.3469 33.7816 59.5788 33.7816C59.7254 33.7816 59.8653 33.7452 59.9966 33.6745C60.0775 33.6295 60.1628 33.5482 60.2569 33.4347L61.7268 33.5674C61.5015 33.9507 61.2302 34.2248 60.9131 34.3897C60.5959 34.5567 60.1409 34.6381 59.546 34.6381C59.0298 34.6381 58.6251 34.5675 58.3298 34.424C58.0346 34.2827 57.7896 34.0557 57.5949 33.7452C57.4002 33.4347 57.304 33.0707 57.304 32.6531C57.304 32.0578 57.4987 31.576 57.888 31.2077C58.2773 30.8394 58.8154 30.6552 59.5022 30.6552C60.06 30.6552 60.4997 30.7388 60.8212 30.9036C61.1427 31.0685 61.3899 31.3083 61.5583 31.621C61.7267 31.9336 61.8121 32.3426 61.8121 32.8437V33.0086H58.8198ZM60.2919 32.3105C60.2634 32.0278 60.1847 31.8265 60.06 31.7045C59.9332 31.5824 59.7691 31.5225 59.5635 31.5225C59.3273 31.5225 59.137 31.6146 58.9948 31.7987C58.9051 31.9143 58.8461 32.0835 58.822 32.3105H60.2919Z" fill="#A2ABB0"/>
<path fill-rule="evenodd" clip-rule="evenodd" d="M184 1H8C4.13401 1 1 4.13401 1 8V48C1 51.866 4.13401 55 8 55H184C187.866 55 191 51.866 191 48V8C191 4.13401 187.866 1 184 1ZM8 0C3.58172 0 0 3.58172 0 8V48C0 52.4183 3.58173 56 8 56H184C188.418 56 192 52.4183 192 48V8C192 3.58172 188.418 0 184 0H8Z" fill="#A2ABB0"/>
<path d="M86.693 15.9634L88.5028 15.85C88.542 16.1439 88.6218 16.3679 88.7422 16.5219C88.9381 16.771 89.2181 16.8956 89.582 16.8956C89.8536 16.8956 90.0621 16.8326 90.2077 16.7066C90.3561 16.5779 90.4303 16.4295 90.4303 16.2615C90.4303 16.102 90.3603 15.9592 90.2203 15.8332C90.0803 15.7072 89.7556 15.5882 89.2461 15.4763C88.4118 15.2887 87.817 15.0395 87.4614 14.7288C87.1031 14.4181 86.9239 14.0219 86.9239 13.5404C86.9239 13.2241 87.0149 12.9259 87.1969 12.646C87.3816 12.3632 87.6574 12.1421 88.0241 11.9825C88.3936 11.8201 88.8989 11.739 89.54 11.739C90.3267 11.739 90.9258 11.8859 91.3373 12.1799C91.7516 12.471 91.998 12.9357 92.0764 13.574L90.2833 13.679C90.2357 13.4019 90.1349 13.2003 89.9809 13.0743C89.8298 12.9483 89.6198 12.8854 89.3511 12.8854C89.1299 12.8854 88.9633 12.9329 88.8514 13.0281C88.7394 13.1205 88.6834 13.2339 88.6834 13.3683C88.6834 13.4662 88.7296 13.5544 88.822 13.6328C88.9116 13.714 89.1243 13.7896 89.4603 13.8596C90.2917 14.0387 90.8866 14.2207 91.2449 14.4055C91.606 14.5874 91.8678 14.8142 92.0302 15.0857C92.1953 15.3573 92.2779 15.661 92.2779 15.997C92.2779 16.3917 92.1687 16.7556 91.9504 17.0888C91.732 17.4219 91.4269 17.6753 91.035 17.8488C90.643 18.0196 90.1489 18.105 89.5526 18.105C88.5056 18.105 87.7806 17.9034 87.3774 17.5003C86.9743 17.0972 86.7462 16.5849 86.693 15.9634Z" fill="#A2ABB0"/>
<path d="M92.6662 15.7828C92.6662 15.1025 92.8958 14.5426 93.3549 14.1031C93.814 13.6608 94.4341 13.4396 95.2151 13.4396C96.1082 13.4396 96.7828 13.6986 97.2392 14.2165C97.6059 14.6336 97.7893 15.1473 97.7893 15.7576C97.7893 16.4435 97.5611 17.0062 97.1048 17.4457C96.6513 17.8824 96.0228 18.1008 95.2193 18.1008C94.5027 18.1008 93.9232 17.9188 93.4809 17.5549C92.9378 17.1042 92.6662 16.5135 92.6662 15.7828ZM94.3795 15.7786C94.3795 16.1761 94.4593 16.4701 94.6188 16.6604C94.7812 16.8508 94.9842 16.946 95.2277 16.946C95.4741 16.946 95.6756 16.8522 95.8324 16.6646C95.992 16.4771 96.0718 16.1761 96.0718 15.7618C96.0718 15.3755 95.992 15.0885 95.8324 14.901C95.6728 14.7106 95.4755 14.6154 95.2403 14.6154C94.9912 14.6154 94.7854 14.712 94.623 14.9052C94.4607 15.0955 94.3795 15.3867 94.3795 15.7786Z" fill="#A2ABB0"/>
<path d="M98.4211 11.8439H100.134V18H98.4211V11.8439Z" fill="#A2ABB0"/>
<path d="M105.675 18H104.079V17.2777C103.841 17.5745 103.601 17.7858 103.357 17.9118C103.116 18.0378 102.82 18.1008 102.467 18.1008C101.997 18.1008 101.627 17.9608 101.358 17.6809C101.092 17.3981 100.959 16.9642 100.959 16.3791V13.5404H102.677V15.9928C102.677 16.2727 102.729 16.4715 102.832 16.5891C102.936 16.7066 103.081 16.7654 103.269 16.7654C103.473 16.7654 103.64 16.687 103.769 16.5303C103.9 16.3735 103.966 16.0922 103.966 15.6862V13.5404H105.675V18Z" fill="#A2ABB0"/>
<path d="M108.524 11.8439V13.5404H109.465V14.7876H108.524V16.3707C108.524 16.5611 108.542 16.687 108.579 16.7486C108.635 16.8438 108.733 16.8914 108.873 16.8914C108.999 16.8914 109.175 16.855 109.402 16.7822L109.528 17.9622C109.105 18.0546 108.71 18.1008 108.344 18.1008C107.918 18.1008 107.604 18.0462 107.403 17.937C107.201 17.8278 107.052 17.6627 106.954 17.4415C106.858 17.2175 106.811 16.8564 106.811 16.3581V14.7876H106.181V13.5404H106.811V12.7216L108.524 11.8439ZM107.424 18.5081H108.558V19.3312C108.558 19.6335 108.495 19.8715 108.369 20.045C108.246 20.2214 108.03 20.3768 107.722 20.5111L107.424 20.0744C107.763 19.9232 107.933 19.7315 107.936 19.4991H107.424V18.5081Z" fill="#A2ABB0"/>
<path d="M110.097 11.8439H111.806V13.0071H110.097V11.8439ZM110.097 13.5404H111.806V18H110.097V13.5404Z" fill="#A2ABB0"/>
<path d="M112.437 15.7828C112.437 15.1025 112.667 14.5426 113.126 14.1031C113.585 13.6608 114.205 13.4396 114.986 13.4396C115.879 13.4396 116.554 13.6986 117.01 14.2165C117.377 14.6336 117.561 15.1473 117.561 15.7576C117.561 16.4435 117.332 17.0062 116.876 17.4457C116.423 17.8824 115.794 18.1008 114.991 18.1008C114.274 18.1008 113.694 17.9188 113.252 17.5549C112.709 17.1042 112.437 16.5135 112.437 15.7828ZM114.151 15.7786C114.151 16.1761 114.231 16.4701 114.39 16.6604C114.552 16.8508 114.755 16.946 114.999 16.946C115.245 16.946 115.447 16.8522 115.604 16.6646C115.763 16.4771 115.843 16.1761 115.843 15.7618C115.843 15.3755 115.763 15.0885 115.604 14.901C115.444 14.7106 115.247 14.6154 115.012 14.6154C114.762 14.6154 114.557 14.712 114.394 14.9052C114.232 15.0955 114.151 15.3867 114.151 15.7786Z" fill="#A2ABB0"/>
<path d="M118.134 13.5404H119.725V14.2669C119.963 13.9701 120.204 13.7588 120.447 13.6328C120.691 13.504 120.988 13.4396 121.338 13.4396C121.811 13.4396 122.18 13.581 122.446 13.8638C122.715 14.1437 122.849 14.5776 122.849 15.1655V18H121.132V15.5477C121.132 15.2677 121.08 15.0703 120.976 14.9556C120.873 14.838 120.727 14.7792 120.54 14.7792C120.333 14.7792 120.165 14.8576 120.036 15.0144C119.907 15.1711 119.843 15.4525 119.843 15.8584V18H118.134V13.5404Z" fill="#A2ABB0"/>
<path d="M125.178 14.985L123.544 14.8128C123.606 14.5272 123.694 14.3033 123.809 14.1409C123.926 13.9757 124.094 13.833 124.313 13.7126C124.469 13.6258 124.685 13.5586 124.959 13.511C125.234 13.4634 125.53 13.4396 125.85 13.4396C126.362 13.4396 126.773 13.469 127.084 13.5278C127.395 13.5838 127.654 13.7028 127.861 13.8848C128.007 14.0107 128.121 14.1899 128.205 14.4223C128.289 14.6518 128.331 14.8716 128.331 15.0815V17.051C128.331 17.2609 128.344 17.4261 128.369 17.5465C128.397 17.6641 128.456 17.8152 128.545 18H126.941C126.877 17.8852 126.835 17.7984 126.815 17.7396C126.796 17.6781 126.776 17.5829 126.757 17.4541C126.533 17.6697 126.31 17.8236 126.089 17.916C125.787 18.0392 125.435 18.1008 125.035 18.1008C124.503 18.1008 124.098 17.9776 123.821 17.7312C123.547 17.4849 123.41 17.1812 123.41 16.82C123.41 16.4813 123.509 16.2027 123.708 15.9844C123.907 15.766 124.273 15.6036 124.808 15.4973C125.449 15.3685 125.865 15.2789 126.055 15.2285C126.246 15.1753 126.447 15.1067 126.66 15.0228C126.66 14.8128 126.617 14.6658 126.53 14.5818C126.443 14.4979 126.29 14.4559 126.072 14.4559C125.792 14.4559 125.582 14.5007 125.442 14.5902C125.333 14.6602 125.245 14.7918 125.178 14.985ZM126.66 15.8836C126.425 15.9676 126.18 16.0418 125.925 16.1062C125.578 16.1985 125.358 16.2895 125.266 16.3791C125.171 16.4715 125.123 16.5765 125.123 16.694C125.123 16.8284 125.169 16.939 125.262 17.0258C125.357 17.1098 125.495 17.1518 125.677 17.1518C125.868 17.1518 126.044 17.1056 126.206 17.0132C126.372 16.9208 126.488 16.8088 126.555 16.6772C126.625 16.5429 126.66 16.3693 126.66 16.1565V15.8836Z" fill="#A2ABB0"/>
<path d="M129.123 13.5404H130.723V14.2711C130.877 13.9548 131.035 13.7378 131.197 13.6202C131.362 13.4998 131.565 13.4396 131.806 13.4396C132.058 13.4396 132.334 13.518 132.633 13.6748L132.104 14.8926C131.903 14.8086 131.743 14.7666 131.625 14.7666C131.401 14.7666 131.228 14.859 131.105 15.0437C130.928 15.3041 130.84 15.7912 130.84 16.5051V18H129.123V13.5404Z" fill="#A2ABB0"/>
<path d="M137.628 16.1943H134.201C134.232 16.4687 134.306 16.673 134.424 16.8074C134.589 17.0006 134.805 17.0972 135.071 17.0972C135.239 17.0972 135.398 17.0552 135.549 16.9712C135.642 16.918 135.741 16.8242 135.848 16.6898L137.531 16.8452C137.274 17.2931 136.963 17.6151 136.599 17.811C136.235 18.0042 135.713 18.1008 135.033 18.1008C134.442 18.1008 133.977 18.0182 133.639 17.853C133.3 17.6851 133.019 17.4205 132.795 17.0594C132.574 16.6954 132.463 16.2685 132.463 15.7786C132.463 15.0815 132.686 14.5174 133.131 14.0863C133.579 13.6552 134.196 13.4396 134.983 13.4396C135.621 13.4396 136.125 13.5362 136.494 13.7294C136.864 13.9226 137.145 14.2025 137.338 14.5692C137.531 14.936 137.628 15.4133 137.628 16.0012V16.1943ZM135.89 15.3755C135.856 15.0451 135.766 14.8086 135.621 14.6658C135.478 14.523 135.289 14.4517 135.054 14.4517C134.782 14.4517 134.565 14.5594 134.403 14.775C134.299 14.9094 134.234 15.1095 134.206 15.3755H135.89Z" fill="#A2ABB0"/>
<path d="M139.721 14.985L138.088 14.8128C138.149 14.5272 138.237 14.3033 138.352 14.1409C138.47 13.9757 138.638 13.833 138.856 13.7126C139.013 13.6258 139.228 13.5586 139.503 13.511C139.777 13.4634 140.074 13.4396 140.393 13.4396C140.905 13.4396 141.317 13.469 141.628 13.5278C141.938 13.5838 142.197 13.7028 142.404 13.8848C142.55 14.0107 142.665 14.1899 142.749 14.4223C142.833 14.6518 142.875 14.8716 142.875 15.0815V17.051C142.875 17.2609 142.887 17.4261 142.913 17.5465C142.941 17.6641 142.999 17.8152 143.089 18H141.485C141.42 17.8852 141.378 17.7984 141.359 17.7396C141.339 17.6781 141.32 17.5829 141.3 17.4541C141.076 17.6697 140.854 17.8236 140.632 17.916C140.33 18.0392 139.979 18.1008 139.578 18.1008C139.047 18.1008 138.642 17.9776 138.365 17.7312C138.09 17.4849 137.953 17.1812 137.953 16.82C137.953 16.4813 138.053 16.2027 138.251 15.9844C138.45 15.766 138.817 15.6036 139.352 15.4973C139.993 15.3685 140.408 15.2789 140.599 15.2285C140.789 15.1753 140.991 15.1067 141.204 15.0228C141.204 14.8128 141.16 14.6658 141.073 14.5818C140.987 14.4979 140.834 14.4559 140.616 14.4559C140.336 14.4559 140.126 14.5007 139.986 14.5902C139.877 14.6602 139.788 14.7918 139.721 14.985ZM141.204 15.8836C140.968 15.9676 140.723 16.0418 140.469 16.1062C140.122 16.1985 139.902 16.2895 139.809 16.3791C139.714 16.4715 139.667 16.5765 139.667 16.694C139.667 16.8284 139.713 16.939 139.805 17.0258C139.9 17.1098 140.039 17.1518 140.221 17.1518C140.411 17.1518 140.588 17.1056 140.75 17.0132C140.915 16.9208 141.031 16.8088 141.099 16.6772C141.169 16.5429 141.204 16.3693 141.204 16.1565V15.8836Z" fill="#A2ABB0"/>
<path d="M146.146 14.9262C146.146 13.9212 146.426 13.1387 146.986 12.5788C147.545 12.0189 148.325 11.739 149.325 11.739C150.349 11.739 151.139 12.0147 151.693 12.5662C152.247 13.1149 152.524 13.8848 152.524 14.8758C152.524 15.5952 152.403 16.1859 152.159 16.6479C151.918 17.107 151.568 17.4653 151.109 17.7229C150.653 17.9776 150.083 18.105 149.4 18.105C148.706 18.105 148.131 17.9944 147.674 17.7732C147.221 17.5521 146.853 17.2021 146.57 16.7234C146.287 16.2447 146.146 15.6456 146.146 14.9262ZM148.048 14.9346C148.048 15.5561 148.163 16.0026 148.392 16.2741C148.625 16.5457 148.94 16.6814 149.337 16.6814C149.746 16.6814 150.062 16.5485 150.286 16.2825C150.51 16.0166 150.622 15.5393 150.622 14.8506C150.622 14.2711 150.504 13.8484 150.269 13.5824C150.037 13.3137 149.721 13.1793 149.32 13.1793C148.937 13.1793 148.629 13.3151 148.396 13.5866C148.164 13.8582 148.048 14.3075 148.048 14.9346Z" fill="#A2ABB0"/>
<path d="M153.186 13.5404H154.777V14.2669C155.015 13.9701 155.256 13.7588 155.499 13.6328C155.743 13.504 156.04 13.4396 156.39 13.4396C156.863 13.4396 157.232 13.581 157.498 13.8638C157.767 14.1437 157.901 14.5776 157.901 15.1655V18H156.184V15.5477C156.184 15.2677 156.132 15.0703 156.028 14.9556C155.925 14.838 155.779 14.7792 155.592 14.7792C155.385 14.7792 155.217 14.8576 155.088 15.0144C154.959 15.1711 154.895 15.4525 154.895 15.8584V18H153.186V13.5404Z" fill="#A2ABB0"/>
<path d="M158.73 11.8439H160.444V18H158.73V11.8439Z" fill="#A2ABB0"/>
<path d="M161.349 11.8439H163.058V13.0071H161.349V11.8439ZM161.349 13.5404H163.058V18H161.349V13.5404Z" fill="#A2ABB0"/>
<path d="M163.899 13.5404H165.491V14.2669C165.729 13.9701 165.97 13.7588 166.213 13.6328C166.457 13.504 166.753 13.4396 167.103 13.4396C167.577 13.4396 167.946 13.581 168.212 13.8638C168.481 14.1437 168.615 14.5776 168.615 15.1655V18H166.898V15.5477C166.898 15.2677 166.846 15.0703 166.742 14.9556C166.639 14.838 166.493 14.7792 166.306 14.7792C166.098 14.7792 165.93 14.8576 165.802 15.0144C165.673 15.1711 165.608 15.4525 165.608 15.8584V18H163.899V13.5404Z" fill="#A2ABB0"/>
<path d="M174.336 16.1943H170.91C170.941 16.4687 171.015 16.673 171.132 16.8074C171.298 17.0006 171.513 17.0972 171.779 17.0972C171.947 17.0972 172.107 17.0552 172.258 16.9712C172.35 16.918 172.45 16.8242 172.556 16.6898L174.24 16.8452C173.982 17.2931 173.672 17.6151 173.308 17.811C172.944 18.0042 172.422 18.1008 171.741 18.1008C171.151 18.1008 170.686 18.0182 170.347 17.853C170.008 17.6851 169.727 17.4205 169.503 17.0594C169.282 16.6954 169.171 16.2685 169.171 15.7786C169.171 15.0815 169.394 14.5174 169.839 14.0863C170.287 13.6552 170.904 13.4396 171.691 13.4396C172.329 13.4396 172.833 13.5362 173.203 13.7294C173.572 13.9226 173.854 14.2025 174.047 14.5692C174.24 14.936 174.336 15.4133 174.336 16.0012V16.1943ZM172.598 15.3755C172.564 15.0451 172.475 14.8086 172.329 14.6658C172.186 14.523 171.997 14.4517 171.762 14.4517C171.491 14.4517 171.274 14.5594 171.111 14.775C171.008 14.9094 170.942 15.1095 170.914 15.3755H172.598Z" fill="#A2ABB0"/>
<path d="M110.06 27.985L108.427 27.8128C108.488 27.5272 108.576 27.3033 108.691 27.1409C108.809 26.9757 108.977 26.833 109.195 26.7126C109.352 26.6258 109.567 26.5586 109.842 26.511C110.116 26.4634 110.413 26.4396 110.732 26.4396C111.244 26.4396 111.656 26.469 111.966 26.5278C112.277 26.5838 112.536 26.7028 112.743 26.8848C112.889 27.0107 113.004 27.1899 113.088 27.4223C113.172 27.6518 113.214 27.8716 113.214 28.0815V30.051C113.214 30.2609 113.226 30.4261 113.251 30.5465C113.279 30.6641 113.338 30.8152 113.428 31H111.824C111.759 30.8852 111.717 30.7984 111.698 30.7396C111.678 30.6781 111.659 30.5829 111.639 30.4541C111.415 30.6697 111.192 30.8236 110.971 30.916C110.669 31.0392 110.318 31.1008 109.917 31.1008C109.385 31.1008 108.981 30.9776 108.704 30.7313C108.429 30.4849 108.292 30.1812 108.292 29.82C108.292 29.4813 108.392 29.2027 108.59 28.9844C108.789 28.766 109.156 28.6036 109.691 28.4973C110.332 28.3685 110.747 28.2789 110.938 28.2285C111.128 28.1753 111.33 28.1067 111.542 28.0228C111.542 27.8128 111.499 27.6658 111.412 27.5818C111.325 27.4979 111.173 27.4559 110.954 27.4559C110.675 27.4559 110.465 27.5007 110.325 27.5902C110.215 27.6602 110.127 27.7918 110.06 27.985ZM111.542 28.8836C111.307 28.9676 111.062 29.0418 110.808 29.1062C110.46 29.1985 110.241 29.2895 110.148 29.3791C110.053 29.4715 110.005 29.5765 110.005 29.694C110.005 29.8284 110.052 29.939 110.144 30.0258C110.239 30.1098 110.378 30.1518 110.56 30.1518C110.75 30.1518 110.926 30.1056 111.089 30.0132C111.254 29.9208 111.37 29.8088 111.437 29.6772C111.507 29.5429 111.542 29.3693 111.542 29.1565V28.8836Z" fill="#A2ABB0"/>
<path d="M116.724 24.8439H118.626V29.4841H121.595V31H116.724V24.8439Z" fill="#A2ABB0"/>
<path d="M122.16 24.8439H123.869V26.0071H122.16V24.8439ZM122.16 26.5404H123.869V31H122.16V26.5404Z" fill="#A2ABB0"/>
<path d="M126.772 24.8439V26.5404H127.713V27.7876H126.772V29.3707C126.772 29.5611 126.791 29.687 126.827 29.7486C126.883 29.8438 126.981 29.8914 127.121 29.8914C127.247 29.8914 127.423 29.855 127.65 29.7822L127.776 30.9622C127.353 31.0546 126.959 31.1008 126.592 31.1008C126.166 31.1008 125.853 31.0462 125.651 30.937C125.45 30.8278 125.3 30.6627 125.202 30.4415C125.107 30.2175 125.059 29.8564 125.059 29.3581V27.7876H124.429V26.5404H125.059V25.7216L126.772 24.8439Z" fill="#A2ABB0"/>
<path d="M128.345 24.8439H130.054V26.0071H128.345V24.8439ZM128.345 26.5404H130.054V31H128.345V26.5404Z" fill="#A2ABB0"/>
<path d="M133.999 26.5404H135.599V30.7522L135.603 30.9496C135.603 31.2296 135.543 31.4955 135.422 31.7475C135.305 32.0022 135.147 32.208 134.948 32.3647C134.752 32.5215 134.501 32.6349 134.196 32.7049C133.894 32.7749 133.547 32.8099 133.155 32.8099C132.259 32.8099 131.643 32.6755 131.307 32.4067C130.974 32.138 130.808 31.7783 130.808 31.3275C130.808 31.2715 130.81 31.196 130.816 31.1008L132.475 31.2897C132.517 31.4437 132.581 31.5501 132.668 31.6089C132.794 31.6957 132.952 31.7391 133.142 31.7391C133.389 31.7391 133.572 31.6733 133.692 31.5417C133.816 31.4101 133.877 31.1806 133.877 30.853V30.177C133.709 30.3757 133.541 30.5199 133.373 30.6095C133.11 30.7494 132.826 30.8194 132.521 30.8194C131.925 30.8194 131.443 30.5591 131.076 30.0384C130.816 29.6688 130.686 29.1803 130.686 28.5729C130.686 27.8786 130.854 27.3495 131.19 26.9855C131.526 26.6216 131.965 26.4396 132.508 26.4396C132.855 26.4396 133.141 26.4984 133.365 26.616C133.592 26.7336 133.803 26.9282 133.999 27.1997V26.5404ZM132.391 28.703C132.391 29.025 132.459 29.2643 132.596 29.4211C132.734 29.5751 132.914 29.6521 133.138 29.6521C133.351 29.6521 133.529 29.5723 133.671 29.4127C133.817 29.2503 133.89 29.0068 133.89 28.682C133.89 28.3573 133.814 28.1095 133.663 27.9388C133.512 27.7652 133.327 27.6784 133.109 27.6784C132.89 27.6784 132.715 27.7582 132.584 27.9178C132.455 28.0745 132.391 28.3363 132.391 28.703Z" fill="#A2ABB0"/>
<path d="M136.445 24.8439H138.154V26.0071H136.445V24.8439ZM136.445 26.5404H138.154V31H136.445V26.5404Z" fill="#A2ABB0"/>
<path d="M139.059 24.8439H140.768V26.0071H139.059V24.8439ZM139.059 26.5404H140.768V31H139.059V26.5404Z" fill="#A2ABB0"/>
<path d="M141.668 24.8439H143.382V31H141.668V24.8439Z" fill="#A2ABB0"/>
<path d="M144.013 28.7828C144.013 28.1025 144.243 27.5426 144.702 27.1031C145.161 26.6608 145.781 26.4396 146.562 26.4396C147.455 26.4396 148.13 26.6986 148.586 27.2165C148.953 27.6336 149.137 28.1473 149.137 28.7576C149.137 29.4435 148.908 30.0062 148.452 30.4457C147.999 30.8824 147.37 31.1008 146.567 31.1008C145.85 31.1008 145.27 30.9188 144.828 30.5549C144.285 30.1042 144.013 29.5135 144.013 28.7828ZM145.727 28.7786C145.727 29.1761 145.807 29.4701 145.966 29.6604C146.128 29.8508 146.331 29.946 146.575 29.946C146.821 29.946 147.023 29.8522 147.18 29.6646C147.339 29.4771 147.419 29.1761 147.419 28.7618C147.419 28.3755 147.339 28.0885 147.18 27.901C147.02 27.7106 146.823 27.6154 146.588 27.6154C146.338 27.6154 146.133 27.712 145.97 27.9052C145.808 28.0955 145.727 28.3867 145.727 28.7786Z" fill="#A2ABB0"/>
<path d="M149.726 26.5404H151.326V27.2711C151.48 26.9548 151.638 26.7378 151.801 26.6202C151.966 26.4998 152.169 26.4396 152.41 26.4396C152.662 26.4396 152.937 26.518 153.237 26.6748L152.708 27.8926C152.506 27.8086 152.347 27.7666 152.229 27.7666C152.005 27.7666 151.832 27.859 151.708 28.0438C151.532 28.3041 151.444 28.7912 151.444 29.5051V31H149.726V26.5404Z" fill="#A2ABB0"/>
<path d="M115.573 42.1323V44.8643H115.958C116.287 44.8643 116.521 44.829 116.659 44.7585C116.798 44.6858 116.907 44.5607 116.986 44.3834C117.065 44.2037 117.104 43.9138 117.104 43.5136C117.104 42.9839 117.016 42.6212 116.84 42.4256C116.664 42.2301 116.372 42.1323 115.965 42.1323H115.573Z" fill="#A2ABB0"/>
<path d="M133.354 44.0935L132.791 42.296L132.232 44.0935H133.354Z" fill="#A2ABB0"/>
<path fill-rule="evenodd" clip-rule="evenodd" d="M114 39C112.343 39 111 40.3431 111 42V45C111 46.6569 112.343 48 114 48H146C147.657 48 149 46.6569 149 45V42C149 40.3431 147.657 39 146 39H114ZM114 41H116.337C116.797 41 117.169 41.0614 117.451 41.1842C117.736 41.307 117.971 41.4832 118.156 41.7128C118.341 41.9425 118.475 42.2096 118.559 42.5143C118.642 42.819 118.684 43.1419 118.684 43.4829C118.684 44.0173 118.621 44.4322 118.496 44.7278C118.373 45.0211 118.202 45.2678 117.982 45.4679C117.762 45.6658 117.526 45.7976 117.274 45.8636C116.929 45.9545 116.617 46 116.337 46H114V41ZM119.764 41H123.979V42.0675H121.34V42.8622H123.788V43.882H121.34V44.8677H124.055V46H119.764V41ZM129.583 41H124.802V42.2346H126.406V46H127.979V42.2346H129.583V41ZM133.684 45.1746H131.892L131.646 46H130.038L131.951 41H133.666L135.579 46H133.934L133.684 45.1746ZM137.913 41H136.34V46H140.368V44.7688H137.913V41ZM141.399 41H142.975V46H141.399V41ZM146 41H144.424V46H146V41Z" fill="#A2ABB0"/>
<path d="M68 0H69V56H68V0Z" fill="#A2ABB0"/>
</svg>
