<svg width="40" height="41" viewBox="0 0 40 41" fill="none" xmlns="http://www.w3.org/2000/svg">
<rect y="0.0419922" width="40" height="40" rx="20" fill="#EAECFE"/>
<path d="M27.3049 13.1887C29.6618 16.6755 30.8258 20.6086 30.3907 25.1364C30.3889 25.1556 30.3789 25.1732 30.3633 25.1847C28.5784 26.5034 26.8491 27.3037 25.1441 27.8345C25.1308 27.8385 25.1166 27.8383 25.1035 27.8338C25.0903 27.8294 25.0789 27.8209 25.0708 27.8095C24.6769 27.2581 24.3189 26.6767 24.0054 26.0661C23.9874 26.0302 24.0038 25.9869 24.0409 25.9727C24.6093 25.7572 25.1498 25.4989 25.6697 25.1931C25.7107 25.169 25.7133 25.1099 25.6755 25.0816C25.5651 24.9991 25.4558 24.9125 25.3512 24.8259C25.3316 24.8099 25.3053 24.8067 25.2831 24.8175C21.9077 26.3858 18.2102 26.3858 14.7949 24.8175C14.7727 24.8075 14.7464 24.8109 14.7273 24.8267C14.623 24.9133 14.5134 24.9991 14.4041 25.0816C14.3663 25.1099 14.3694 25.169 14.4106 25.1931C14.9305 25.4931 15.471 25.7572 16.0387 25.9737C16.0755 25.9879 16.093 26.0302 16.0747 26.0661C15.7679 26.6775 15.41 27.2589 15.0088 27.8103C14.9913 27.8326 14.9626 27.8429 14.9355 27.8345C13.2385 27.3037 11.5092 26.5034 9.72436 25.1847C9.70949 25.1732 9.6988 25.1548 9.69723 25.1356C9.33358 21.2191 10.0747 17.2535 12.7802 13.1879C12.7867 13.1772 12.7966 13.1688 12.8081 13.1638C14.1393 12.5491 15.5655 12.0968 17.0561 11.8385C17.0832 11.8343 17.1104 11.8469 17.1244 11.8711C17.3086 12.1992 17.5191 12.6199 17.6616 12.9638C19.2328 12.7223 20.8285 12.7223 22.4326 12.9638C22.575 12.6273 22.7783 12.1992 22.9616 11.8711C22.9682 11.8591 22.9783 11.8495 22.9906 11.8436C23.0029 11.8378 23.0166 11.836 23.03 11.8385C24.5214 12.0976 25.9476 12.5498 27.2777 13.1638C27.2895 13.1688 27.2991 13.1772 27.3049 13.1887ZM18.4604 20.6354C18.4768 19.4776 17.6378 18.5195 16.5847 18.5195C15.5402 18.5195 14.7093 19.4692 14.7093 20.6354C14.7093 21.8013 15.5566 22.751 16.5847 22.751C17.6295 22.751 18.4604 21.8013 18.4604 20.6354ZM25.3948 20.6354C25.4112 19.4776 24.5723 18.5195 23.5194 18.5195C22.4746 18.5195 21.6437 19.4692 21.6437 20.6354C21.6437 21.8013 22.491 22.751 23.5194 22.751C24.5723 22.751 25.3948 21.8013 25.3948 20.6354Z" fill="#5865F2"/>
</svg>
