<?xml version="1.0" encoding="UTF-8"?>
<svg xmlns="http://www.w3.org/2000/svg" xmlns:xlink="http://www.w3.org/1999/xlink" width="17px" height="19px" viewBox="0 0 17 19">
  <title>gift-svgrepo-com (2)</title>
  <g id="Page-1" stroke="none" stroke-width="1" fill="none" fill-rule="evenodd">
    <g id="Menu-Expanded" transform="translate(-24, -490)" fill="#6864B1" fill-rule="nonzero">
      <g id="menu-expanded" transform="translate(0, 76)">
        <g id="Group-2" transform="translate(17.7, 114.8081)">
          <g id="gift-svgrepo-com-(2)" transform="translate(6.608, 299.6972)">
            <path d="M15.1700076,6.1331688 L9.8318088,6.1331688 C10.9801692,5.7575232 12.1792968,4.9706316 12.6418644,4.5081036 C13.6737612,3.4762068 13.67388,1.805958 12.6418644,0.773982 C11.6100072,-0.2579544 9.9397584,-0.2580336 8.9077428,0.773982 C8.6029416,1.0787832 8.243928,1.5904548 7.9285932,2.1528144 C7.6132584,1.5904548 7.2542052,1.0787832 6.949404,0.773982 C5.9174676,-0.2579148 4.247298,-0.257994 3.2152824,0.773982 C2.183346,1.8059184 2.1832668,3.476088 3.2152824,4.5081036 C3.67785,4.9706712 4.8769776,5.7575628 6.0254172,6.1332084 L0.68706,6.1332084 C0.3076128,6.1332084 0,6.4408212 0,6.8202684 L0,9.9911988 C0,10.370646 0.3076128,10.6782588 0.68706,10.6782588 L1.363428,10.6782588 L1.363428,17.4552444 C1.363428,17.8346916 1.6710408,18.1423044 2.050488,18.1423044 L6.2243676,18.1423044 C6.2243676,18.0486504 6.2243676,6.243732 6.2243676,6.1331688 L7.808328,6.1331688 L9.6326604,6.1331688 C9.6326604,6.2442468 9.6326604,18.0507096 9.6326604,18.1423044 L13.80654,18.1423044 C14.1859872,18.1423044 14.4936,17.8346916 14.4936,17.4552444 L14.4936,10.6782588 L15.169968,10.6782588 C15.5494152,10.6782588 15.857028,10.370646 15.857028,9.9911988 L15.857028,6.8202684 C15.857028,6.4407816 15.5494944,6.1331688 15.1700076,6.1331688 Z M4.4055,3.317886 C4.0313988,2.9437848 4.0313196,2.3383404 4.4055,1.96416 C4.7796012,1.5900588 5.3850852,1.5900192 5.759226,1.96416 C5.9810256,2.1859596 6.3872028,2.7798012 6.7031316,3.4434972 C6.9370488,3.934854 7.073946,4.6107072 7.07249244,4.6566036 C6.3176256,4.5873432 4.8774132,3.7898388 4.4055,3.317886 Z M8.7566688,4.659336 C8.788428,4.285908 8.9922096,3.783384 9.1539756,3.4434972 C9.4699044,2.7798012 9.8761212,2.1859596 10.0978812,1.96416 C10.4719824,1.5900588 11.0774664,1.5900192 11.4516072,1.96416 C11.8257084,2.3383008 11.825748,2.9437056 11.4515676,3.317886 C10.9709424,3.79863 9.4991292,4.6079748 8.7566688,4.659336 Z" id="Shape"></path>
          </g>
        </g>
      </g>
    </g>
  </g>
</svg>
