<svg width="41" height="41" viewBox="0 0 41 41" fill="none" xmlns="http://www.w3.org/2000/svg">
<rect x="0.946045" y="0.0722656" width="40" height="40" rx="20" fill="#E4E4E4"/>
<path fill-rule="evenodd" clip-rule="evenodd" d="M21.2524 9.04199C15.0354 9.04199 9.99988 14.053 9.99988 20.2398C9.99988 25.1949 13.2209 29.3801 17.6938 30.8638C18.2564 30.9618 18.4674 30.6258 18.4674 30.3319C18.4674 30.0659 18.4533 29.1841 18.4533 28.2463C15.6261 28.7642 14.8947 27.5604 14.6697 26.9305C14.5431 26.6086 13.9945 25.6148 13.5163 25.3488C13.1225 25.1389 12.5598 24.621 13.5022 24.607C14.3884 24.593 15.0213 25.4188 15.2323 25.7548C16.245 27.4484 17.8626 26.9725 18.5096 26.6786C18.6081 25.9507 18.9035 25.4608 19.227 25.1809C16.7233 24.9009 14.1071 23.9351 14.1071 19.6519C14.1071 18.4342 14.5431 17.4264 15.2604 16.6425C15.1479 16.3626 14.7541 15.2148 15.373 13.6751C15.373 13.6751 16.3154 13.3812 18.4674 14.8229C19.3676 14.5709 20.3241 14.4449 21.2806 14.4449C22.237 14.4449 23.1935 14.5709 24.0937 14.8229C26.2457 13.3672 27.1881 13.6751 27.1881 13.6751C27.807 15.2148 27.4132 16.3626 27.3007 16.6425C28.018 17.4264 28.454 18.4202 28.454 19.6519C28.454 23.9491 25.8238 24.9009 23.3201 25.1809C23.728 25.5308 24.0796 26.2027 24.0796 27.2525C24.0796 28.7502 24.0656 29.9539 24.0656 30.3319C24.0656 30.6258 24.2765 30.9757 24.8392 30.8638C29.2839 29.3801 32.505 25.1809 32.505 20.2398C32.505 14.053 27.4694 9.04199 21.2524 9.04199Z" fill="#525A62"/>
</svg>
