<?xml version="1.0" encoding="UTF-8"?>
<svg xmlns="http://www.w3.org/2000/svg" xmlns:xlink="http://www.w3.org/1999/xlink" width="28px" height="19px" viewBox="0 0 28 19">
  <title>Group 17</title>
  <g id="Page-1" stroke="none" stroke-width="1" fill="none" fill-rule="evenodd">
    <g id="Menu-Expanded" transform="translate(-18, -354)" fill="#6864B1">
      <g id="menu-expanded" transform="translate(0, 76)">
        <g id="Group-2" transform="translate(17.7, 114.8081)">
          <g id="Group-17" transform="translate(0.7638, 164.0667)">
            <path d="M18.1324617,0.0799579846 C17.9884194,-0.0128762954 17.8162335,-0.0254426954 17.6601222,0.0452433046 L8.90974515,4.01405276 L8.90974515,10.3418111 L17.6601222,14.3106206 C17.8162859,14.3813851 17.9883932,14.368714 18.1324617,14.2759059 C18.2765565,14.1830454 18.3591805,14.0314632 18.3591805,13.8600628 L18.3591805,10.6792713 L18.3591805,3.67659256 L18.3591805,0.495801105 C18.3591805,0.324400645 18.2765565,0.172818445 18.1324617,0.0799579846" id="Fill-1"></path>
            <path d="M4.28068656,16.5216996 C4.2814196,16.5250506 4.28212646,16.5284279 4.28278096,16.5318051 C4.40169052,17.1287091 4.92979348,17.5619095 5.53853084,17.5619095 C6.24457926,17.5619095 6.81899464,16.9874942 6.81899464,16.2814457 L6.81899464,11.2028661 L3.11174956,11.2028661 L4.28068656,16.5216996 Z" id="Fill-3"></path>
            <path d="M0,6.39041136 L0,7.96545252 C0,7.98754844 0.0225148,8.00550792 0.05016088,8.00550792 L0.87001376,8.00550792 L0.87001376,6.35035596 L0.05016088,6.35035596 C0.0225148,6.35035596 0,6.36831544 0,6.39041136" id="Fill-5"></path>
            <path d="M1.7420172,5.27287879 L1.7420172,5.82674287 L1.7420172,8.52912101 L1.7420172,9.08298509 C1.7420172,9.67444365 2.22323178,10.1556582 2.81471652,10.1556582 L7.34108144,10.1556582 C7.34160504,10.1556582 7.34207628,10.1555797 7.34259988,10.1555797 C7.3430973,10.1555797 7.34359472,10.1556582 7.34409214,10.1556582 L7.86253468,10.1556582 L7.86253468,4.20017947 L2.81471652,4.20017947 C2.22323178,4.20017947 1.7420172,4.68139405 1.7420172,5.27287879" id="Fill-7"></path>
            <path d="M19.4063858,4.21619378 L19.4063858,10.1396544 C20.9032534,9.98419756 22.0742848,8.71525296 22.0742848,7.17793718 C22.0742848,5.6406214 20.9032534,4.37165062 19.4063858,4.21619378" id="Fill-9"></path>
            <path d="M26.548871,6.65433194 L24.6028592,6.65433194 C24.3136749,6.65433194 24.0792592,6.88874766 24.0792592,7.17793194 C24.0792592,7.46711622 24.3136749,7.70153194 24.6028592,7.70153194 L26.548871,7.70153194 C26.8380552,7.70153194 27.072471,7.46711622 27.072471,7.17793194 C27.072471,6.88874766 26.8380552,6.65433194 26.548871,6.65433194" id="Fill-11"></path>
            <path d="M24.6028592,5.08353194 C24.7368484,5.08353194 24.8708639,5.03242858 24.9731229,4.93019568 L26.3491437,3.5541487 C26.5536095,3.3496829 26.5536095,3.0181132 26.3491437,2.8136474 C26.1446779,2.60915542 25.8131344,2.60915542 25.6086424,2.8136474 L24.2325955,4.1896682 C24.0281558,4.39416018 24.0281558,4.7257037 24.2325955,4.93019568 C24.3348545,5.03242858 24.46887,5.08353194 24.6028592,5.08353194" id="Fill-13"></path>
            <path d="M24.9731125,9.4256682 C24.7686205,9.22117622 24.437077,9.22117622 24.2326112,9.4256682 C24.0281454,9.63016018 24.0281454,9.9617037 24.2326112,10.1661695 L25.608632,11.5422165 C25.7108911,11.6444494 25.8449065,11.6955527 25.9788957,11.6955527 C26.112885,11.6955527 26.2469004,11.6444494 26.3491595,11.5422165 C26.5535991,11.3377245 26.5535991,11.006181 26.3491595,10.8017152 L24.9731125,9.4256682 Z" id="Fill-15"></path>
          </g>
        </g>
      </g>
    </g>
  </g>
</svg>
