<?xml version="1.0" encoding="UTF-8"?>
<svg xmlns="http://www.w3.org/2000/svg" xmlns:xlink="http://www.w3.org/1999/xlink" width="20px" height="23px" viewBox="0 0 20 23">
  <title>headphones-head-set-chat-live-support-svgrepo-com</title>
  <g id="Page-1" stroke="none" stroke-width="1" fill="none" fill-rule="evenodd">
    <g id="Menu-Expanded" transform="translate(-22, -548)" fill="#6864B1" fill-rule="nonzero">
      <g id="menu-expanded" transform="translate(0, 76)">
        <g id="Group-2" transform="translate(17.7, 114.8081)">
          <g id="headphones-head-set-chat-live-support-svgrepo-com" transform="translate(5.1049, 357.8724)">
            <path d="M9.19512,0 C4.137804,0 0,4.061178 0,9.118494 L0,11.800404 C0,11.87703 0,11.87703 0,11.953656 C0,12.030282 0,12.183534 0,12.26016 C0,14.405688 1.685772,16.09146 3.8313,16.09146 C4.291056,16.09146 4.59756,15.784956 4.59756,15.3252 L4.59756,9.19512 C4.59756,8.735364 4.291056,8.42886 3.8313,8.42886 C2.988414,8.42886 2.145528,8.735364 1.53252,9.19512 L1.53252,9.041868 C1.53252,4.904064 4.98069,1.53252 9.19512,1.53252 C13.40955,1.53252 16.85772,4.904064 16.85772,9.118494 L16.85772,9.19512 C16.244712,8.735364 15.401826,8.42886 14.55894,8.42886 C14.099184,8.42886 13.79268,8.735364 13.79268,9.19512 L13.79268,15.3252 C13.79268,15.784956 14.099184,16.09146 14.55894,16.09146 C15.095322,16.09146 15.631704,15.938208 16.09146,15.784956 C15.3252,17.394102 13.945932,18.620118 12.26016,19.309752 C12.26016,19.233126 12.26016,19.233126 12.26016,19.1565 C12.26016,18.696744 11.953656,18.39024 11.4939,18.39024 L9.19512,18.39024 C8.735364,18.39024 8.42886,18.696744 8.42886,19.1565 L8.42886,20.68902 C8.42886,21.148776 8.735364,21.45528 9.19512,21.45528 C14.252436,21.45528 18.39024,17.470728 18.39024,12.566664 L18.39024,11.800404 L18.39024,9.96138 L18.39024,9.118494 C18.39024,4.061178 14.252436,0 9.19512,0 Z" id="Path"></path>
          </g>
        </g>
      </g>
    </g>
  </g>
</svg>
