<svg width="40" height="41" viewBox="0 0 40 41" fill="none" xmlns="http://www.w3.org/2000/svg">
<rect y="0.0419922" width="40" height="40" rx="20" fill="#FFE1FA"/>
<path d="M16.286 19.9636C16.286 17.953 17.9164 16.3228 19.9281 16.3228C21.9399 16.3228 23.5711 17.953 23.5711 19.9636C23.5711 21.9741 21.9399 23.6044 19.9281 23.6044C17.9164 23.6044 16.286 21.9741 16.286 19.9636ZM14.3167 19.9636C14.3167 23.0609 16.8289 25.5717 19.9281 25.5717C23.0274 25.5717 25.5396 23.0609 25.5396 19.9636C25.5396 16.8662 23.0274 14.3555 19.9281 14.3555C16.8289 14.3555 14.3167 16.8662 14.3167 19.9636ZM24.4504 14.1331C24.4503 14.3923 24.5271 14.6457 24.6711 14.8613C24.8151 15.0769 25.0198 15.245 25.2594 15.3443C25.499 15.4436 25.7627 15.4696 26.0171 15.4191C26.2715 15.3687 26.5052 15.2439 26.6887 15.0607C26.8721 14.8775 26.9971 14.644 27.0478 14.3898C27.0985 14.1356 27.0727 13.8721 26.9735 13.6326C26.8743 13.3931 26.7063 13.1883 26.4908 13.0442C26.2752 12.9001 26.0216 12.8231 25.7623 12.823C25.4146 12.8232 25.0807 12.9613 24.8348 13.2069C24.589 13.4525 24.4507 13.7857 24.4504 14.1331ZM15.5132 28.8535C14.4477 28.805 13.8686 28.6276 13.4838 28.4778C12.9736 28.2793 12.6095 28.0428 12.2268 27.6608C11.844 27.2789 11.6071 26.9154 11.4093 26.4055C11.2593 26.021 11.0819 25.4421 11.0334 24.3773C10.9804 23.2261 10.9699 22.8802 10.9699 19.9637C10.9699 17.0471 10.9813 16.7022 11.0334 15.55C11.0819 14.4852 11.2607 13.9074 11.4093 13.5219C11.608 13.0119 11.8446 12.6481 12.2268 12.2656C12.609 11.8831 12.9727 11.6463 13.4838 11.4487C13.8684 11.2987 14.4477 11.1214 15.5132 11.073C16.6651 11.02 17.0111 11.0094 19.9281 11.0094C22.8452 11.0094 23.1915 11.0209 24.3444 11.073C25.4099 11.1215 25.988 11.3001 26.3738 11.4487C26.884 11.6463 27.2481 11.8836 27.6308 12.2656C28.0136 12.6476 28.2496 13.0119 28.4482 13.5219C28.5983 13.9063 28.7757 14.4852 28.8242 15.55C28.8771 16.7022 28.8877 17.0471 28.8877 19.9637C28.8877 22.8802 28.8771 23.2251 28.8242 24.3773C28.7756 25.4421 28.5973 26.0209 28.4482 26.4055C28.2496 26.9154 28.013 27.2792 27.6308 27.6608C27.2486 28.0425 26.884 28.2793 26.3738 28.4778C25.9891 28.6277 25.4099 28.8051 24.3444 28.8535C23.1925 28.9064 22.8465 28.917 19.9281 28.917C17.0098 28.917 16.6647 28.9064 15.5132 28.8535ZM15.4227 9.10813C14.2593 9.16108 13.4644 9.34544 12.7701 9.61542C12.0511 9.89423 11.4425 10.2683 10.8343 10.8752C10.226 11.482 9.85274 12.0913 9.57377 12.8099C9.30363 13.5041 9.11916 14.2982 9.06618 15.4608C9.01233 16.6253 9 16.9976 9 19.9636C9 22.9295 9.01233 23.3018 9.06618 24.4663C9.11916 25.6291 9.30363 26.423 9.57377 27.1173C9.85274 27.8354 10.2261 28.4454 10.8343 29.052C11.4424 29.6586 12.0511 30.0321 12.7701 30.3117C13.4657 30.5817 14.2593 30.7661 15.4227 30.819C16.5885 30.872 16.9604 30.8852 19.9281 30.8852C22.8959 30.8852 23.2684 30.8728 24.4336 30.819C25.597 30.7661 26.3915 30.5817 27.0862 30.3117C27.8047 30.0321 28.4138 29.6589 29.022 29.052C29.6302 28.4451 30.0027 27.8354 30.2825 27.1173C30.5526 26.423 30.738 25.629 30.7901 24.4663C30.8431 23.301 30.8554 22.9295 30.8554 19.9636C30.8554 16.9976 30.8431 16.6253 30.7901 15.4608C30.7371 14.2981 30.5526 13.5037 30.2825 12.8099C30.0027 12.0917 29.6293 11.483 29.022 10.8752C28.4148 10.2673 27.8047 9.89423 27.087 9.61542C26.3915 9.34544 25.597 9.16021 24.4345 9.10813C23.2693 9.05519 22.8967 9.04199 19.929 9.04199C16.9613 9.04199 16.5885 9.05431 15.4227 9.10813Z" fill="#F759AE"/>
<path d="M16.286 19.9636C16.286 17.953 17.9164 16.3228 19.9281 16.3228C21.9399 16.3228 23.5711 17.953 23.5711 19.9636C23.5711 21.9741 21.9399 23.6044 19.9281 23.6044C17.9164 23.6044 16.286 21.9741 16.286 19.9636ZM14.3167 19.9636C14.3167 23.0609 16.8289 25.5717 19.9281 25.5717C23.0274 25.5717 25.5396 23.0609 25.5396 19.9636C25.5396 16.8662 23.0274 14.3555 19.9281 14.3555C16.8289 14.3555 14.3167 16.8662 14.3167 19.9636ZM24.4504 14.1331C24.4503 14.3923 24.5271 14.6457 24.6711 14.8613C24.8151 15.0769 25.0198 15.245 25.2594 15.3443C25.499 15.4436 25.7627 15.4696 26.0171 15.4191C26.2715 15.3687 26.5052 15.2439 26.6887 15.0607C26.8721 14.8775 26.9971 14.644 27.0478 14.3898C27.0985 14.1356 27.0727 13.8721 26.9735 13.6326C26.8743 13.3931 26.7063 13.1883 26.4908 13.0442C26.2752 12.9001 26.0216 12.8231 25.7623 12.823C25.4146 12.8232 25.0807 12.9613 24.8348 13.2069C24.589 13.4525 24.4507 13.7857 24.4504 14.1331ZM15.5132 28.8535C14.4477 28.805 13.8686 28.6276 13.4838 28.4778C12.9736 28.2793 12.6095 28.0428 12.2268 27.6608C11.844 27.2789 11.6071 26.9154 11.4093 26.4055C11.2593 26.021 11.0819 25.4421 11.0334 24.3773C10.9804 23.2261 10.9699 22.8802 10.9699 19.9637C10.9699 17.0471 10.9813 16.7022 11.0334 15.55C11.0819 14.4852 11.2607 13.9074 11.4093 13.5219C11.608 13.0119 11.8446 12.6481 12.2268 12.2656C12.609 11.8831 12.9727 11.6463 13.4838 11.4487C13.8684 11.2987 14.4477 11.1214 15.5132 11.073C16.6651 11.02 17.0111 11.0094 19.9281 11.0094C22.8452 11.0094 23.1915 11.0209 24.3444 11.073C25.4099 11.1215 25.988 11.3001 26.3738 11.4487C26.884 11.6463 27.2481 11.8836 27.6308 12.2656C28.0136 12.6476 28.2496 13.0119 28.4482 13.5219C28.5983 13.9063 28.7757 14.4852 28.8242 15.55C28.8771 16.7022 28.8877 17.0471 28.8877 19.9637C28.8877 22.8802 28.8771 23.2251 28.8242 24.3773C28.7756 25.4421 28.5973 26.0209 28.4482 26.4055C28.2496 26.9154 28.013 27.2792 27.6308 27.6608C27.2486 28.0425 26.884 28.2793 26.3738 28.4778C25.9891 28.6277 25.4099 28.8051 24.3444 28.8535C23.1925 28.9064 22.8465 28.917 19.9281 28.917C17.0098 28.917 16.6647 28.9064 15.5132 28.8535ZM15.4227 9.10813C14.2593 9.16108 13.4644 9.34544 12.7701 9.61542C12.0511 9.89423 11.4425 10.2683 10.8343 10.8752C10.226 11.482 9.85274 12.0913 9.57377 12.8099C9.30363 13.5041 9.11916 14.2982 9.06618 15.4608C9.01233 16.6253 9 16.9976 9 19.9636C9 22.9295 9.01233 23.3018 9.06618 24.4663C9.11916 25.6291 9.30363 26.423 9.57377 27.1173C9.85274 27.8354 10.2261 28.4454 10.8343 29.052C11.4424 29.6586 12.0511 30.0321 12.7701 30.3117C13.4657 30.5817 14.2593 30.7661 15.4227 30.819C16.5885 30.872 16.9604 30.8852 19.9281 30.8852C22.8959 30.8852 23.2684 30.8728 24.4336 30.819C25.597 30.7661 26.3915 30.5817 27.0862 30.3117C27.8047 30.0321 28.4138 29.6589 29.022 29.052C29.6302 28.4451 30.0027 27.8354 30.2825 27.1173C30.5526 26.423 30.738 25.629 30.7901 24.4663C30.8431 23.301 30.8554 22.9295 30.8554 19.9636C30.8554 16.9976 30.8431 16.6253 30.7901 15.4608C30.7371 14.2981 30.5526 13.5037 30.2825 12.8099C30.0027 12.0917 29.6293 11.483 29.022 10.8752C28.4148 10.2673 27.8047 9.89423 27.087 9.61542C26.3915 9.34544 25.597 9.16021 24.4345 9.10813C23.2693 9.05519 22.8967 9.04199 19.929 9.04199C16.9613 9.04199 16.5885 9.05431 15.4227 9.10813Z" fill="#F759AE"/>
</svg>
