<?xml version="1.0" encoding="utf-8"?>
<!-- Generator: Adobe Illustrator 28.0.0, SVG Export Plug-In . SVG Version: 6.00 Build 0)  -->
<svg version="1.1" id="Layer_1" xmlns="http://www.w3.org/2000/svg" xmlns:xlink="http://www.w3.org/1999/xlink" x="0px" y="0px"
	 viewBox="0 0 32 32" style="enable-background:new 0 0 32 32;" xml:space="preserve">
<style type="text/css">
	.st0{fill:#FFFFFF;}
</style>
<path class="st0" d="M16,1.3c-4,0-4.5,0-6,0.1C8.4,1.5,7.3,1.7,6.4,2.1C5.4,2.5,4.6,3,3.8,3.8S2.5,5.4,2.1,6.4
	c-0.4,0.9-0.6,2-0.7,3.6c-0.1,1.6-0.1,2.1-0.1,6c0,4,0,4.5,0.1,6c0.1,1.6,0.3,2.6,0.7,3.6c0.4,1,0.9,1.8,1.7,2.6
	c0.8,0.8,1.6,1.3,2.6,1.7c0.9,0.4,2,0.6,3.6,0.7c1.6,0.1,2.1,0.1,6,0.1c4,0,4.5,0,6-0.1c1.6-0.1,2.6-0.3,3.6-0.7
	c1-0.4,1.8-0.9,2.6-1.7c0.8-0.8,1.3-1.6,1.7-2.6c0.4-0.9,0.6-2,0.7-3.6c0.1-1.6,0.1-2.1,0.1-6c0-4,0-4.5-0.1-6
	c-0.1-1.6-0.3-2.6-0.7-3.6c-0.4-1-0.9-1.8-1.7-2.6c-0.8-0.8-1.6-1.3-2.6-1.7c-0.9-0.4-2-0.6-3.6-0.7C20.5,1.3,20,1.3,16,1.3z M16,4
	c3.9,0,4.4,0,5.9,0.1c1.4,0.1,2.2,0.3,2.7,0.5c0.7,0.3,1.2,0.6,1.7,1.1c0.5,0.5,0.8,1,1.1,1.7c0.2,0.5,0.4,1.3,0.5,2.7
	c0.1,1.5,0.1,2,0.1,5.9s0,4.4-0.1,5.9c-0.1,1.4-0.3,2.2-0.5,2.7c-0.3,0.7-0.6,1.2-1.1,1.7c-0.5,0.5-1,0.8-1.7,1.1
	c-0.5,0.2-1.3,0.4-2.7,0.5C20.3,28,19.9,28,16,28c-3.9,0-4.4,0-5.9-0.1c-1.4-0.1-2.2-0.3-2.7-0.5c-0.7-0.3-1.2-0.6-1.7-1.1
	c-0.5-0.5-0.8-1-1.1-1.7c-0.2-0.5-0.4-1.3-0.5-2.7c-0.1-1.5-0.1-2-0.1-5.9c0-3.9,0-4.4,0.1-5.9c0.1-1.4,0.3-2.2,0.5-2.7
	c0.3-0.7,0.6-1.2,1.1-1.7c0.5-0.5,1-0.8,1.7-1.1C7.8,4.3,8.6,4.1,10,4C11.6,4,12,3.9,16,4L16,4z M16,8.5c-4.2,0-7.5,3.4-7.5,7.5
	c0,4.2,3.4,7.5,7.5,7.5c4.2,0,7.5-3.4,7.5-7.5C23.5,11.8,20.2,8.5,16,8.5z M16,20.9c-2.7,0-4.9-2.2-4.9-4.9c0-2.7,2.2-4.9,4.9-4.9
	c2.7,0,4.9,2.2,4.9,4.9C20.9,18.7,18.7,20.9,16,20.9z M25.6,8.2c0,1-0.8,1.8-1.8,1.8c-1,0-1.8-0.8-1.8-1.8c0-1,0.8-1.8,1.8-1.8
	C24.8,6.4,25.6,7.2,25.6,8.2z"/>
</svg>
