<svg width="32" height="32" viewBox="0 0 32 32" fill="none" xmlns="http://www.w3.org/2000/svg">
<g clip-path="url(#clip0_1350_3546)">
<path fill-rule="evenodd" clip-rule="evenodd" d="M30 18H26C24.9 18 24 17.1 24 16C24 14.9 24.9 14 26 14H30C31.1 14 32 14.9 32 16C32 17.1 31.1 18 30 18ZM24.48 10.34C23.69 11.11 22.42 11.09 21.65 10.3C20.9 9.52 20.9 8.29 21.65 7.51L24.48 4.68C25.27 3.91 26.54 3.93 27.31 4.72C28.06 5.5 28.06 6.73 27.31 7.51L24.48 10.34ZM16 32C14.9 32 14 31.11 14 30V26C14 24.9 14.9 24 16 24C17.1 24 18 24.9 18 26V30C18 31.1 17.11 32 16 32ZM16 8C14.9 8 14 7.11 14 6V2C14 0.9 14.9 0 16 0C17.1 0 18 0.9 18 2V6C18 7.1 17.11 8 16 8ZM7.52 27.31C6.73 28.08 5.46 28.06 4.69 27.27C3.94 26.49 3.94 25.26 4.69 24.48L7.52 21.65C8.31 20.88 9.58 20.9 10.35 21.69C11.1 22.47 11.1 23.7 10.35 24.48L7.52 27.31ZM7.52 10.34L4.69 7.51C3.92 6.72 3.94 5.45 4.73 4.68C5.51 3.93 6.74 3.93 7.52 4.68L10.35 7.51C11.12 8.3 11.1 9.57 10.31 10.34C9.53 11.09 8.3 11.09 7.52 10.34ZM8 16C8 17.1 7.11 18 6 18H2C0.9 18 0 17.1 0 16C0 14.9 0.9 14 2 14H6C7.1 14 8 14.89 8 16ZM24.48 21.66L27.31 24.49C28.08 25.28 28.06 26.55 27.27 27.32C26.49 28.07 25.26 28.07 24.48 27.32L21.65 24.49C20.88 23.7 20.9 22.43 21.69 21.66C22.47 20.91 23.7 20.91 24.48 21.66Z" fill="#131416"/>
</g>
<defs>
<clipPath id="clip0_1350_3546">
<rect width="32" height="32" fill="white"/>
</clipPath>
</defs>
</svg>
