<svg width="32" height="32" viewBox="0 0 32 32" fill="none" xmlns="http://www.w3.org/2000/svg">
<path d="M21.6059 27.2643H10.733C9.94739 27.2643 9.3189 27.8824 9.3189 28.6321C9.3189 29.3819 9.95786 30 10.733 30H21.6059C22.3915 30 23.02 29.3819 23.02 28.6321C23.02 27.8824 22.381 27.2643 21.6059 27.2643Z" fill="#131416"/>
<path d="M16.1799 22.3759C16.9956 22.3759 17.6569 21.7363 17.6569 20.9473C17.6569 20.1582 16.9956 19.5186 16.1799 19.5186C15.3642 19.5186 14.703 20.1582 14.703 20.9473C14.703 21.7363 15.3642 22.3759 16.1799 22.3759Z" fill="#131416"/>
<path d="M24.3294 2H8.03049C4.24907 2 1.17993 4.96874 1.17993 8.62647V19.1437C1.17993 22.8015 4.24907 25.7702 8.03049 25.7702H24.3294C28.1108 25.7702 31.1799 22.8015 31.1799 19.1437V8.62647C31.1799 4.96874 28.1108 2 24.3294 2ZM26.4977 17.4719C26.4977 16.712 25.8587 16.1041 25.0836 16.1041H4.00814V8.62647C4.00814 6.48857 5.80982 4.7357 8.02001 4.7357H24.3189C26.5291 4.7357 28.3308 6.47844 28.3308 8.62647V19.1437C28.3308 21.2918 26.5291 23.0345 24.3189 23.0345H8.02001C5.80982 23.0345 4.00814 21.2918 4.00814 19.1437V18.8499H25.0836C25.8692 18.8499 26.4977 18.2318 26.4977 17.482V17.4719Z" fill="#131416"/>
</svg>
