<svg width="32" height="32" viewBox="0 0 32 32" fill="none" xmlns="http://www.w3.org/2000/svg">
<path d="M30 5.09232C29.9897 4.00775 29.7223 3.06779 29.1978 2.28276C28.6836 1.50807 27.9225 0.877986 26.9352 0.423499C26.6164 0.27889 26.277 0.196256 25.9479 0.113622C25.8039 0.082634 25.6496 0.041317 25.5056 0C25.4953 0 25.4748 0 25.4645 0H10.8604C10.8604 0 10.8192 0 10.7987 0.0103292C10.7781 0.0103292 10.7678 0.0206585 10.7472 0.0309877C10.7267 0.0309877 10.7061 0.0516462 10.6958 0.0516462C8.50519 0.392511 6.85965 1.96256 6.41741 4.1317C6.36599 4.35894 6.34542 4.59651 6.32485 4.83409C6.32485 4.89606 6.31457 4.95804 6.30428 5.02001C6.26314 5.02001 6.21172 5.02001 6.17058 5.02001C6.11916 5.02001 6.06774 5.02001 6.00603 5.02001C4.66903 5.051 3.41431 5.58812 2.47841 6.53841C1.54251 7.46804 1.018 8.73854 1.00771 10.071C0.997429 15.7418 0.997429 21.4229 1.00771 26.9283C1.00771 29.7069 3.27033 31.9793 6.03688 31.9897C7.79555 31.9897 9.62621 32 11.4877 32C13.3492 32 17.679 32 19.664 32C22.0294 32 24.0966 30.2853 24.58 27.9509C24.6314 27.703 24.6623 27.4448 24.6931 27.1866C24.6931 27.1143 24.7137 27.042 24.7137 26.98C24.7549 26.98 24.796 26.98 24.8268 26.98C24.8783 26.98 24.9297 26.98 24.9811 26.98C27.2026 26.9387 29.1258 25.4822 29.7635 23.3751C29.8869 22.9619 29.9589 22.4868 29.9897 21.9083C30.0103 21.5261 29.8869 21.175 29.64 20.9064C29.3932 20.6378 29.0538 20.4829 28.6836 20.4726C28.663 20.4726 28.6424 20.4726 28.6219 20.4726C27.8711 20.4726 27.2849 21.0303 27.2026 21.8154C27.1717 22.1459 27.11 22.5384 26.966 22.8689C26.6266 23.6333 25.7936 24.1808 24.9708 24.1808C24.8783 24.1808 24.7857 24.1808 24.6931 24.1601V23.9329C24.6931 22.9309 24.6931 21.929 24.6931 20.9271C24.6931 17.4461 24.6931 13.8412 24.6931 10.2879C24.6931 9.77147 24.6417 9.29632 24.5286 8.87282C24.2509 7.75726 23.6235 6.78631 22.7288 6.09425C21.834 5.39187 20.7439 5.03034 19.592 5.02001C18.6664 5.02001 15.2725 5.02001 14.0589 5.02001C13.2772 5.02001 12.4956 5.02001 11.714 5.02001C10.9324 5.02001 10.1507 5.02001 9.36909 5.02001H9.12226C9.12226 4.95804 9.12226 4.91672 9.12226 4.86507C9.25596 3.69787 10.233 2.80955 11.3746 2.80955C12.8144 2.80955 16.774 2.80955 18.6561 2.80955C19.8902 2.80955 21.1244 2.80955 22.3483 2.80955C23.2122 2.80955 24.0658 2.80955 24.9297 2.80955C25.0428 2.80955 25.1457 2.80955 25.2382 2.83021C26.4312 3.0368 27.2026 3.9561 27.2026 5.17495C27.2026 7.15817 27.2026 9.17237 27.2026 11.1246C27.2026 12.612 27.2026 14.1097 27.2026 15.5972C27.2026 16.4338 27.7991 17.0742 28.5807 17.0846H28.6013C29.3932 17.0846 29.9897 16.4442 29.9897 15.5972C29.9897 14.6469 29.9897 13.6966 29.9897 12.7463C29.9897 10.2466 30 7.65397 29.9794 5.10265L30 5.09232ZM11.786 7.80891C13.5241 7.80891 17.6688 7.80891 19.4069 7.80891C20.9496 7.80891 21.906 8.77986 21.906 10.3292C21.906 15.7728 21.906 21.2163 21.906 26.6598C21.906 28.2402 20.9598 29.1904 19.376 29.1904C17.4631 29.1904 13.1333 29.1904 11.2203 29.1904C9.57478 29.1904 7.92925 29.1904 6.28371 29.1904C4.75131 29.1904 3.80512 28.2298 3.80512 26.6908C3.80512 24.7695 3.80512 22.8483 3.80512 20.9271V16.093C3.80512 14.1717 3.80512 12.2505 3.80512 10.3396C3.80512 9.57521 4.04167 8.9348 4.47362 8.50097C4.91586 8.05681 5.54322 7.82957 6.31457 7.82957C8.14523 7.82957 9.9656 7.82957 11.7963 7.82957L11.786 7.80891Z" fill="#131416"/>
<path d="M10.2639 22.7347C10.4181 22.7553 10.5724 22.776 10.7678 22.776C10.9118 22.776 11.0558 22.776 11.1895 22.7657C11.282 22.7657 11.3643 22.7657 11.4569 22.7657C11.4569 22.807 11.4569 22.838 11.4569 22.8793C11.4569 23.0755 11.4569 23.2511 11.4569 23.4371C11.4672 24.2324 12.0637 24.8418 12.835 24.8522H12.8453C13.6269 24.8522 14.2234 24.2427 14.244 23.4371C14.244 23.2511 14.244 23.0755 14.244 22.8793C14.244 22.8483 14.244 22.8173 14.244 22.7863C14.2646 22.7863 14.2851 22.7863 14.3057 22.7863C14.46 22.7863 14.5937 22.807 14.7377 22.807C14.7685 22.807 14.7891 22.807 14.8199 22.807C16.7431 22.807 18.255 21.5365 18.5738 19.6359C18.8309 18.1278 18.4504 16.7644 17.4425 15.5868C16.3935 14.3473 15.077 13.428 13.7092 12.5087C13.4212 12.3125 13.123 12.2195 12.835 12.2195C12.547 12.2195 12.2488 12.3228 11.9711 12.5294C11.7654 12.674 11.57 12.8289 11.3643 12.9735C10.6032 13.5313 9.82161 14.0994 9.09141 14.7192C7.76469 15.8451 7.08591 17.1465 7.03449 18.6959C6.9625 20.8031 8.24807 22.4351 10.2433 22.7657L10.2639 22.7347ZM10.1919 17.6527C10.4284 17.3221 10.6855 17.0329 10.9426 16.816C11.5289 16.3099 12.1665 15.8244 12.7733 15.3596H12.7939C12.7939 15.3596 12.835 15.3286 12.8761 15.3286C12.8967 15.3286 12.907 15.3286 12.907 15.3286C13.0098 15.4112 13.123 15.5042 13.2258 15.5868C13.8943 16.124 14.5834 16.6817 15.221 17.2705C15.6427 17.6527 15.8587 18.1588 15.8587 18.7063C15.8587 19.1504 15.7661 19.481 15.5501 19.6979C15.3753 19.8838 15.1079 19.9768 14.7788 19.9768H14.7582C14.4291 19.9768 14.2337 19.8631 14.0794 19.5739C13.8223 19.0988 13.3595 18.8199 12.835 18.8199C12.3413 18.8199 11.8991 19.0884 11.6523 19.5326C11.4877 19.8425 11.2717 19.9768 10.9221 19.9768C10.8398 19.9768 10.7472 19.9768 10.6547 19.9561C10.233 19.8941 9.94503 19.6049 9.87304 19.1814C9.77019 18.5926 9.87304 18.0762 10.1816 17.6527H10.1919Z" fill="#131416"/>
</svg>
