<svg width="32" height="32" viewBox="0 0 32 32" fill="none" xmlns="http://www.w3.org/2000/svg">
<path d="M14.001 7.50009C14.001 8.88086 15.12 10.0002 16.5004 10.0002C17.8808 10.0002 18.9998 8.88086 18.9998 7.50009C18.9998 6.11933 17.8808 5 16.5004 5C15.12 5 14.001 6.11933 14.001 7.50009Z" fill="#131416"/>
<path d="M14.0674 16.5744C14.3845 17.9183 15.7307 18.7506 17.0741 18.4334C18.4176 18.1162 19.2497 16.7697 18.9326 15.4258C18.6155 14.082 17.2693 13.2497 15.9259 13.5669C14.5824 13.8841 13.7503 15.2306 14.0674 16.5744Z" fill="#131416"/>
<path d="M14.001 24.4999C14.001 25.8807 15.12 27 16.5004 27C17.8808 27 18.9998 25.8807 18.9998 24.4999C18.9998 23.1191 17.8808 21.9998 16.5004 21.9998C15.12 21.9998 14.001 23.1191 14.001 24.4999Z" fill="#131416"/>
</svg>
