<svg width="32" height="32" viewBox="0 0 32 32" fill="none" xmlns="http://www.w3.org/2000/svg">
<g clip-path="url(#clip0_47_388)">
<path d="M28.791 32C27.0316 32 25.592 30.56 25.592 28.8C25.592 28.52 25.632 28.24 25.702 27.97L22.0031 24.28C20.7035 25.14 19.184 25.6 17.5945 25.6C13.7357 25.6 10.4967 22.85 9.75695 19.2H5.96814C5.41831 20.16 4.37863 20.8 3.199 20.8C1.43955 20.8 0 19.36 0 17.6C0 15.84 1.43955 14.4 3.199 14.4C4.37863 14.4 5.41831 15.04 5.96814 16H9.75695C10.1368 14.12 11.1765 12.44 12.696 11.27L10.7366 6.37C9.18713 6.15 7.9975 4.81 7.9975 3.2C7.9975 1.44 9.43705 0 11.1965 0C12.956 0 14.3955 1.44 14.3955 3.2C14.3955 3.94 14.1456 4.63 13.7157 5.18L15.5851 9.85C17.7744 9.28 20.1637 9.69 22.0131 10.92L25.712 7.23C25.642 6.96 25.602 6.68 25.602 6.4C25.602 4.64 27.0416 3.2 28.801 3.2C30.5605 3.2 32 4.64 32 6.4C32 8.16 30.5605 9.6 28.801 9.6C28.5211 9.6 28.2412 9.56 27.9713 9.49L24.2724 13.19C25.1321 14.49 25.592 16.01 25.592 17.6C25.592 19.19 25.1321 20.72 24.2724 22.01L27.9713 25.7C28.2412 25.63 28.5111 25.59 28.801 25.59C30.5605 25.59 32 27.03 32 28.79C32 30.55 30.5605 31.99 28.801 31.99L28.791 32ZM12.796 17.6C12.796 20.25 14.9453 22.4 17.5945 22.4C18.8741 22.4 20.0837 21.9 20.9834 20.99C21.8932 20.08 22.393 18.88 22.393 17.6C22.393 16.32 21.8932 15.12 20.9934 14.21C19.5439 12.77 17.2446 12.41 15.4352 13.33C15.4252 13.33 15.4152 13.34 15.4052 13.35C13.8057 14.18 12.806 15.81 12.806 17.62L12.796 17.6Z" fill="#131416"/>
</g>
<defs>
<clipPath id="clip0_47_388">
<rect width="32" height="32" fill="white"/>
</clipPath>
</defs>
</svg>
