<svg width="32" height="32" viewBox="0 0 32 32" fill="none" xmlns="http://www.w3.org/2000/svg">
<path d="M23.7228 31C23.3384 31 22.9728 30.915 22.6259 30.745L16.0067 27.6098L9.37814 30.7545C8.96561 30.9528 8.51558 31.0283 8.06555 30.9906C7.61552 30.9528 7.18424 30.7828 6.81859 30.5184C6.45294 30.2445 6.1623 29.8857 5.97479 29.4701C5.79665 29.0546 5.73102 28.5919 5.7779 28.1386L6.70609 20.801L1.69013 15.437C1.38073 15.1065 1.16509 14.691 1.06196 14.2471C0.95883 13.8033 0.986957 13.3311 1.12759 12.8967C1.26823 12.4623 1.52137 12.0751 1.86827 11.7729C2.20579 11.4707 2.62769 11.263 3.06834 11.178L10.2126 9.80865L13.8128 3.32093C14.0191 2.93374 14.3378 2.59377 14.7316 2.35768C15.5192 1.88551 16.5505 1.87606 17.3474 2.35768C17.7412 2.59377 18.06 2.93374 18.2756 3.33981L21.7915 9.80865L28.9451 11.178C29.3951 11.263 29.8076 11.4707 30.1451 11.7729C30.4827 12.0751 30.7358 12.4623 30.8764 12.8967C31.0171 13.3311 31.0358 13.7938 30.9421 14.2471C30.8389 14.691 30.6233 15.1065 30.3139 15.437L25.2792 20.8198L26.2074 28.1292C26.2636 28.573 26.2074 29.0357 26.0292 29.4513C25.8511 29.8762 25.5605 30.2445 25.1948 30.5089C24.8292 30.7734 24.3979 30.9433 23.9385 30.9811C23.8635 30.9811 23.7885 30.9906 23.7135 30.9906L23.7228 31ZM3.92153 13.8033L8.75935 18.9878C9.01249 19.2617 9.20938 19.6016 9.32188 19.9605C9.43439 20.3193 9.47189 20.7065 9.41564 21.0748L8.52496 28.1197L14.9098 25.0883C15.5379 24.7673 16.4192 24.7578 17.113 25.0978L23.4603 28.1103L22.579 21.0654C22.5321 20.7065 22.5603 20.3193 22.6728 19.9605C22.7853 19.6016 22.9822 19.2617 23.2353 18.9878L28.0825 13.8033L21.182 12.4812C20.8164 12.4151 20.4601 12.2545 20.1601 12.0373C19.8601 11.8201 19.6069 11.5274 19.4288 11.1874L16.0255 4.93578L12.5471 11.1969C12.3783 11.5085 12.1252 11.8012 11.8252 12.0279C11.5252 12.2545 11.1689 12.4056 10.8032 12.4717L3.90277 13.7938L3.92153 13.8033ZM16.1098 27.5625H16.1005C16.1005 27.5625 16.1005 27.5625 16.1098 27.5625Z" fill="#131416"/>
</svg>
