<svg width="32" height="32" viewBox="0 0 32 32" fill="none" xmlns="http://www.w3.org/2000/svg">
<path fill-rule="evenodd" clip-rule="evenodd" d="M2.01049 5.8913C2.01049 4.29946 3.25937 3 4.81259 3H27.1979C28.7406 3 30 4.28863 30 5.8913V26.1087C30 27.7005 28.7511 29 27.1979 29H4.8021C3.25937 29 2 27.7114 2 26.1087V5.8913H2.01049ZM27.1979 5.8913H25.8021L24.4063 10.2228H27.2084V5.8913H27.1979ZM27.1979 13.1141H4.8021V26.1087H27.1874V13.1141H27.1979ZM4.81259 10.2228H7.61469L9.01049 5.8913H4.81259V10.2228ZM10.4063 10.2228H14.6042L16 5.8913H11.8021L10.4063 10.2228ZM17.4063 10.2228H21.6042L23 5.8913H18.8021L17.4063 10.2228Z" fill="#131416"/>
</svg>
