<svg width="32" height="32" viewBox="0 0 32 32" fill="none" xmlns="http://www.w3.org/2000/svg">
<g clip-path="url(#clip0_642_12156)">
<path fill-rule="evenodd" clip-rule="evenodd" d="M16 0C24.8342 0 32 7.16579 32 16C32 24.8342 24.8342 32 16 32C7.16579 32 0 24.8342 0 16C0 7.16579 7.16579 0 16 0ZM16 3.2048C8.93023 3.2048 3.1928 8.94224 3.1928 16.012C3.1928 23.0818 8.93023 28.8192 16 28.8192C23.0698 28.8192 28.8072 23.0818 28.8072 16.012C28.8072 8.94224 23.0698 3.2048 16 3.2048ZM16 6.4096C16.8882 6.4096 17.5964 7.12978 17.5964 8.006V9.6024H20.8012C21.6894 9.6024 22.3976 10.3226 22.3976 11.1988C22.3976 12.075 21.6774 12.7952 20.8012 12.7952H17.5964V14.3916H19.1928C21.4014 14.3916 23.1898 16.18 23.1898 18.3886C23.1898 20.5972 21.4014 22.3856 19.1928 22.3856H17.5964V23.982C17.5964 24.8702 16.8762 25.5784 16 25.5784C15.1238 25.5784 14.4036 24.8582 14.4036 23.982V22.3856H11.1988C10.3106 22.3856 9.6024 21.6654 9.6024 20.7892C9.6024 19.913 10.3226 19.1928 11.1988 19.1928H14.4036V17.5964H12.8072C10.5986 17.5964 8.8102 15.808 8.8102 13.5994C8.8102 11.3908 10.5986 9.6024 12.8072 9.6024H14.4036V8.006C14.4036 7.11778 15.1238 6.4096 16 6.4096ZM19.2048 17.6084H17.6084V19.2048H19.2048C19.6489 19.2048 20.009 18.8447 20.009 18.4006C20.009 17.9565 19.6489 17.5964 19.2048 17.5964V17.6084ZM14.4036 12.8072H12.8072C12.3631 12.8072 12.003 13.1673 12.003 13.6114C12.003 14.0555 12.3631 14.4156 12.8072 14.4156H14.4036V12.8192V12.8072Z" fill="#131416"/>
</g>
<defs>
<clipPath id="clip0_642_12156">
<rect width="32" height="32" fill="white"/>
</clipPath>
</defs>
</svg>
