<svg width="32" height="32" viewBox="0 0 32 32" fill="none" xmlns="http://www.w3.org/2000/svg">
<g clip-path="url(#clip0_24_243)">
<path d="M22.0799 32H9.92011C7.93916 32 6.84765 32 5.82093 31.4768C4.91182 31.0141 4.18654 30.2883 3.72334 29.3792C3.20014 28.3525 3.20014 27.2615 3.20014 25.28V17.5862C2.64815 17.5593 2.19743 17.4806 1.74719 17.2516C1.14095 16.9425 0.657597 16.4591 0.348478 15.8529C0 15.1684 0 14.481 0 13.4404V10.5604C0 9.51979 0 8.83244 0.348478 8.14748C0.657597 7.54124 1.14095 7.05789 1.74719 6.74877C2.43167 6.39981 3.11902 6.39981 4.16014 6.39981H5.86893C5.69229 5.89245 5.60013 5.35341 5.60013 4.79998C5.60013 3.52318 6.08973 2.32175 6.97917 1.41599C7.86284 0.515997 9.08876 0 10.343 0C11.962 0 14.2271 0.643197 16.0002 3.63454C16.5527 2.70479 17.1926 1.94063 17.9068 1.35935C19.0137 0.457438 20.2756 0 21.657 0C22.9108 0 24.1372 0.515997 25.0208 1.41599C25.9103 2.32175 26.3999 3.52318 26.3999 4.79998C26.3999 5.35341 26.3077 5.89293 26.1311 6.39981H27.8399C28.8805 6.39981 29.5683 6.39981 30.2528 6.74877C30.8586 7.05741 31.3424 7.54076 31.651 8.147C32 8.83148 32 9.51931 32 10.5599V13.4399C32 14.4806 32 15.1684 31.651 15.8529C31.3424 16.4586 30.8586 16.9425 30.2528 17.2511C29.8031 17.4806 29.3519 17.5588 28.7999 17.5857V25.2796C28.7999 27.2605 28.7999 28.352 28.2767 29.3787C27.8135 30.2878 27.0882 31.0131 26.1791 31.4763C25.1524 31.9995 24.0613 32 22.0799 32ZM17.6001 28.7999H22.0799C23.4676 28.7999 24.3839 28.7999 24.7261 28.6256C25.0295 28.4711 25.2709 28.2296 25.4255 27.9267C25.6002 27.5845 25.6002 26.6677 25.6002 25.28V17.6001H17.6001V28.7999ZM6.40029 17.6001V25.28C6.40029 26.6677 6.40029 27.584 6.57453 27.9263C6.72909 28.2296 6.97053 28.4711 7.2734 28.6256C7.61564 28.7999 8.53244 28.7999 9.92011 28.7999H14.3999V17.6001H6.40029ZM17.6001 14.3999H27.8399C28.209 14.3999 28.5882 14.3999 28.7821 14.3822C28.7999 14.1882 28.7999 13.8086 28.7999 13.4399V10.5599C28.7999 10.1908 28.7999 9.81163 28.7821 9.61771C28.5882 9.59995 28.2085 9.59995 27.8399 9.59995H17.6001V14.3999ZM3.2179 14.3822C3.41182 14.3999 3.7915 14.3999 4.16014 14.3999H14.3999V9.59995H4.16014C3.79102 9.59995 3.41182 9.59995 3.2179 9.61771C3.20014 9.81163 3.20014 10.1913 3.20014 10.5599V13.4399C3.20014 13.8091 3.20014 14.1882 3.2179 14.3822ZM18.1852 6.39981H21.657C22.0636 6.39981 22.4476 6.23709 22.738 5.94141C23.0312 5.64237 23.1997 5.22621 23.1997 4.79998C23.1997 4.37374 23.0312 3.9571 22.7375 3.65806C22.4471 3.36238 22.0636 3.19966 21.6565 3.19966C21.0301 3.19966 20.4714 3.40366 19.9482 3.8227C19.4644 4.21054 19.0165 4.7755 18.6167 5.50317C18.4511 5.80461 18.3081 6.10845 18.1852 6.39981ZM10.343 6.39981H13.8148C13.6919 6.10845 13.5484 5.80461 13.3828 5.50317C12.983 4.77598 12.5347 4.21054 12.0513 3.8227C11.5281 3.40318 10.9694 3.19966 10.343 3.19966C9.93643 3.19966 9.55243 3.36238 9.26203 3.65806C8.96828 3.9571 8.7998 4.37326 8.7998 4.7995C8.7998 5.22573 8.96828 5.64189 9.26203 5.94093C9.55243 6.23661 9.93595 6.39981 10.343 6.39981Z" fill="#131416"/>
</g>
<defs>
<clipPath id="clip0_24_243">
<rect width="32" height="32" fill="white"/>
</clipPath>
</defs>
</svg>
