<svg width="32" height="32" viewBox="0 0 32 32" fill="none" xmlns="http://www.w3.org/2000/svg">
<path d="M9.09908 16.653C8.66364 19.2164 8.97329 21.0487 10.0377 22.1209C10.7828 22.8811 11.9246 23.2515 13.4244 23.2515C14.0437 23.2515 14.721 23.1832 15.4661 23.0565C17.082 22.7739 18.6109 21.9162 20.0043 20.5224L27.9098 12.5595C27.9679 12.501 29.2742 11.1754 30.1547 9.39181C31.4804 6.73099 31.2385 4.29435 29.4871 2.53021C26.1681 -0.803119 21.5235 2.11111 19.5301 4.11891L11.6246 12.0819C10.2312 13.4854 9.38937 15.0253 9.10876 16.653H9.09908ZM27.4357 4.58674C28.8194 5.98051 27.7163 8.06628 26.7874 9.35283L22.704 5.23977C23.9813 4.30409 26.052 3.19298 27.4357 4.58674ZM11.9633 17.1404C12.1374 16.117 12.718 15.1033 13.676 14.1384L20.5558 7.20858L24.8328 11.5166L17.9529 18.4464C16.995 19.4113 15.9886 19.9961 14.9726 20.1715C13.1148 20.4932 12.2826 20.23 12.0891 20.0448C11.9052 19.8596 11.644 19.0117 11.9633 17.1404Z" fill="#131416"/>
<path d="M29.3323 14.538C28.5291 14.538 27.8808 15.191 27.8808 16C27.8808 25.5906 25.4134 28.076 15.8919 28.076C6.37036 28.076 3.9029 25.6004 3.9029 16C3.9029 6.39961 6.37036 3.92398 15.8919 3.92398C16.695 3.92398 17.3433 3.27096 17.3433 2.46199C17.3433 1.65302 16.695 1 15.8919 1C4.75441 1 1 4.78168 1 16C1 27.2183 4.75441 31 15.8919 31C27.0293 31 30.7837 27.2183 30.7837 16C30.7837 15.191 30.1354 14.538 29.3323 14.538Z" fill="#131416"/>
</svg>
