<svg width="32" height="32" viewBox="0 0 32 32" fill="none" xmlns="http://www.w3.org/2000/svg">
<path d="M13.2689 4.7069C13.3825 3.51077 14.6435 2.52905 15.9044 3.23995C18.54 4.7746 21.0278 6.52365 23.4362 8.38555C26.4012 10.7101 28.7868 12.9105 30.4794 14.6596C31.2178 15.4269 31.1383 16.623 30.4454 17.3565C28.7868 19.083 26.9919 20.6853 25.1516 22.2087C22.2206 24.6009 19.1761 26.9142 15.8704 28.7648C14.7457 29.3967 13.5302 28.6745 13.3143 27.5574L13.2916 27.3881L12.9508 22.0056C10.2017 22.062 7.53205 22.9986 5.40771 24.7476L5.01011 25.0862C4.94195 25.1426 4.88515 25.1877 4.81699 25.2442L4.44211 25.5375C4.38531 25.5827 4.31715 25.6278 4.26035 25.6729L3.90818 25.9099C3.79458 25.9889 3.68098 26.0566 3.57874 26.113L3.27202 26.2823C1.80657 27.0045 1 26.3613 1 23.5177C1 16.8938 5.91892 10.9922 12.5646 10.1007L12.9622 10.0556L13.303 4.69561L13.2689 4.7069ZM16.1657 6.92989L15.8704 12.1545C15.8476 12.5269 15.5636 12.8202 15.1888 12.8654L13.1212 13.0798C8.47494 13.6327 4.79427 17.2324 4.11266 21.9492C6.37332 20.3017 9.0543 19.2974 11.8943 19.0717L12.4964 19.0378L15.0752 18.9814C15.4841 18.9814 15.8249 19.2861 15.8476 19.6923L16.143 25.0975C18.5741 23.5628 20.8915 21.7912 23.209 19.9067C24.7085 18.6655 26.1512 17.3678 27.5372 16.0024L27.1509 15.6187L26.3103 14.8175C24.9925 13.5763 23.3907 12.1996 21.5618 10.7665C19.8009 9.38984 18.0061 8.10344 16.1544 6.92989H16.1657Z" fill="#131416"/>
</svg>
