<svg width="32" height="32" viewBox="0 0 32 32" fill="none" xmlns="http://www.w3.org/2000/svg">
<path d="M19.5057 19.4297H17.3123V17.367C17.3123 16.6544 16.728 16.0824 16 16.0824C15.272 16.0824 14.6877 16.6544 14.6877 17.367V19.4297H12.4943C11.7663 19.4297 11.182 20.0017 11.182 20.7143C11.182 21.4269 11.7663 21.9988 12.4943 21.9988H14.6877V24.221C14.6877 24.9336 15.272 25.5055 16 25.5055C16.728 25.5055 17.3123 24.9336 17.3123 24.221V21.9988H19.5057C20.2337 21.9988 20.818 21.4269 20.818 20.7143C20.818 20.0017 20.2337 19.4297 19.5057 19.4297Z" fill="#131416"/>
<path d="M30.9904 18.914V14.9948C30.9904 11.6662 29.1992 8.65645 26.3065 7.00624C26.249 6.89372 26.182 6.77183 26.1149 6.65932C25.9904 6.43429 25.8467 6.22801 25.6552 6.01236C24.8123 4.99973 23.4808 4.14649 21.4885 3.33076L18.1743 1.96183C18.0307 1.90557 17.887 1.84931 17.7433 1.79306C17.7433 1.79306 17.7433 1.79306 17.7337 1.79306C17.7146 1.79306 17.6954 1.78368 17.6858 1.7743C12.9061 0.00219816 10.0996 1.22111 7.98276 5.9561C7.97318 5.97485 7.9636 5.99361 7.95402 6.02174C3.89272 7.12813 1 10.7942 1 14.9948V19.0172C1 19.0734 1.00958 19.1297 1.01916 19.1766V21.6894C1.01916 22.0457 1.04789 22.4208 1.09579 22.7489C1.43103 27.7746 4.32375 30.5968 9.37165 30.925C9.7931 30.9812 10.1762 31 10.5402 31H21.4693C27.3793 31 30.6648 28.084 30.9713 22.552C30.9808 22.2614 31 21.9801 31 21.6894V19.0172C31 19.0172 31 18.9515 31 18.914H30.9904ZM27.9349 12.7914C27.7433 12.632 27.5326 12.4913 27.3314 12.3507C27.2931 12.3226 27.2548 12.3038 27.2165 12.2757C26.977 12.1257 26.7375 11.985 26.4885 11.8631C26.5172 11.7694 26.5364 11.6756 26.5556 11.5818C26.6034 11.4131 26.6418 11.2443 26.6801 11.0755C26.7088 10.9536 26.7567 10.813 26.7759 10.6911C27.3027 11.3193 27.7241 12.0506 27.9923 12.8195C27.9732 12.8007 27.954 12.7914 27.9349 12.782V12.7914ZM23.6245 7.63445C23.7203 7.74696 23.7778 7.83135 23.8257 7.91573C23.8448 7.94386 23.8544 7.97199 23.8736 8.00012C23.9502 8.12201 23.9789 8.18764 23.9885 8.22515C24.0077 8.29078 24.0268 8.35641 24.0556 8.41267C24.0747 8.45955 24.0939 8.51581 24.1322 8.64708C24.1801 8.77835 24.1992 8.92836 24.2184 9.07838C24.2184 9.10651 24.228 9.13464 24.228 9.17215C24.2375 9.29404 24.228 9.43468 24.228 9.57532C24.228 9.66909 24.228 9.77223 24.2088 9.87536C24.1897 10.016 24.1801 10.166 24.1418 10.316C24.1322 10.3911 24.1034 10.4661 24.0939 10.5411C24.0556 10.7192 24.0077 10.9067 23.9502 11.1036C23.6341 11.0661 23.3084 11.0474 22.9828 11.0474C22.9349 11.0474 22.887 11.038 22.8391 11.038H15.1379L17.9444 4.67156L20.4636 5.71232C22.0249 6.3499 23.0594 6.97811 23.6149 7.6532L23.6245 7.63445ZM10.3391 7.11875C10.3391 7.11875 10.3678 7.0625 10.387 7.03437C11.7375 3.97772 12.954 3.10573 15.4923 3.76206L12.2931 11.0286H9.16092C8.99808 11.0286 8.83525 11.0286 8.66284 11.0474L10.1284 7.61569V7.59694L10.272 7.27815C10.2912 7.25002 10.3103 7.17501 10.3295 7.12813L10.3391 7.11875ZM6.45977 9.53782L5.91379 10.8224L5.45402 11.9006C4.9272 12.1632 4.44828 12.4726 3.99808 12.8289C4.45785 11.5068 5.31992 10.3629 6.45977 9.53782ZM28.3467 22.4301C28.1169 26.5182 25.933 28.4215 21.4693 28.4215H10.5402C10.2912 28.4215 10.023 28.4028 9.63027 28.3559C5.84674 28.1121 3.96935 26.2744 3.71073 22.4864C3.67241 22.1957 3.65326 21.9238 3.65326 21.68V19.0078C3.65326 16.8419 4.96552 14.8916 6.99617 14.0384C7.70498 13.7477 8.44253 13.5977 9.18008 13.5977H22.8487C22.954 13.5977 23.0498 13.6165 23.1552 13.6165C23.4617 13.6352 23.7682 13.6727 24.0556 13.729C24.1705 13.7571 24.295 13.7665 24.4004 13.804C24.4195 13.804 24.4387 13.8228 24.4579 13.8321C26.7663 14.5072 28.3755 16.6356 28.3755 19.0078C28.3755 19.0266 28.3755 19.0359 28.3755 19.0453V21.68C28.3755 21.9238 28.3659 22.177 28.3467 22.4301Z" fill="#131416"/>
</svg>
