<svg width="32" height="32" viewBox="0 0 32 32" fill="none" xmlns="http://www.w3.org/2000/svg">
<path fill-rule="evenodd" clip-rule="evenodd" d="M28.4367 8.21574H23.77V3.55102C23.77 2.68805 23.07 2 22.2183 2C21.3667 2 20.6667 2.69971 20.6667 3.55102V8.21574C20.6667 9.93003 22.055 11.3294 23.7817 11.3294H28.4483C29.3117 11.3294 30 10.6297 30 9.77843C30 8.92711 29.3 8.22741 28.4483 8.22741L28.4367 8.21574ZM8.21833 11.3294C9.93333 11.3294 11.3333 9.94169 11.3333 8.21574V3.55102C11.3333 2.68805 10.6333 2 9.78167 2C8.93 2 8.23 2.69971 8.23 3.55102V8.21574H3.56333C2.7 8.21574 2.01167 8.91545 2.01167 9.76676C2.01167 10.6181 2.71167 11.3178 3.56333 11.3178H8.23L8.21833 11.3294ZM8.21833 23.7726H3.55167C2.68833 23.7726 2 23.0729 2 22.2216C2 21.3703 2.7 20.6706 3.55167 20.6706H8.21833C9.93333 20.6706 11.3333 22.0583 11.3333 23.7843V28.449C11.3333 29.312 10.6333 30 9.78167 30C8.93 30 8.23 29.3003 8.23 28.449V23.7843L8.21833 23.7726ZM23.77 20.6589C22.055 20.6589 20.655 22.0466 20.655 23.7726V28.4373C20.655 29.3003 21.355 29.9883 22.2067 29.9883C23.0583 29.9883 23.7583 29.2886 23.7583 28.4373V23.7726H28.425C29.2883 23.7726 29.9767 23.0729 29.9767 22.2216C29.9767 21.3703 29.2767 20.6706 28.425 20.6706H23.7583L23.77 20.6589Z" fill="#131416"/>
</svg>
