<svg width="32" height="32" viewBox="0 0 32 32" fill="none" xmlns="http://www.w3.org/2000/svg">
<path d="M17.5839 5.98098H14.427C13.5888 5.98098 12.903 6.63473 12.903 7.43376C12.903 8.23279 13.5888 8.88655 14.427 8.88655H17.5839C18.4221 8.88655 19.1079 8.23279 19.1079 7.43376C19.1079 6.63473 18.4221 5.98098 17.5839 5.98098Z" fill="#131416"/>
<path d="M20.7407 1H11.2593C7.80851 1 5 3.67727 5 6.96679V25.0332C5 28.3227 7.80851 31 11.2593 31H20.7407C24.1915 31 27 28.3227 27 25.0332V6.96679C27 3.67727 24.1915 1 20.7407 1ZM23.952 25.0436C23.952 26.735 22.5151 28.1048 20.7407 28.1048H11.2593C9.48491 28.1048 8.048 26.735 8.048 25.0436V6.96679C8.048 5.27534 9.49579 3.90557 11.2593 3.90557H20.7407C22.5151 3.90557 23.952 5.28571 23.952 6.96679V25.0436Z" fill="#131416"/>
</svg>
