<svg width="32" height="32" viewBox="0 0 32 32" fill="none" xmlns="http://www.w3.org/2000/svg">
<path d="M1.01874 6.6839C1.01874 6.6839 1.02811 6.70353 1.03748 6.71335C1.33734 7.32199 1.75902 7.63613 2.28377 7.63613C2.37748 7.63613 2.47119 7.62631 2.57426 7.60668C3.17398 7.48887 3.55818 6.9784 3.63314 6.20288C3.76433 4.72055 4.70139 3.79777 6.07887 3.77814C6.50992 3.77814 6.96908 3.77814 7.5688 3.77814C7.84054 3.77814 8.11229 3.77814 8.38404 3.77814C8.65579 3.77814 8.92753 3.77814 9.19928 3.77814C9.64907 3.77814 10.0145 3.77814 10.3519 3.77814C10.4456 3.77814 10.5018 3.79778 10.5299 3.82723C10.558 3.85668 10.5768 3.92539 10.5674 4.03338C10.5674 4.58312 10.5674 5.15249 10.5674 5.69241C10.5674 5.82984 10.5674 5.97709 10.5674 6.11453C10.5674 7.02749 11.0828 7.62631 11.8886 7.62631C12.6851 7.62631 13.2099 7.02749 13.2193 6.13416C13.2193 6.00654 13.2193 5.86911 13.2193 5.74149C13.2193 5.19175 13.2193 4.61257 13.2193 4.05301C13.2193 3.93521 13.2286 3.86649 13.2661 3.83704C13.2942 3.80759 13.3598 3.78796 13.4629 3.78796C14.7279 3.78796 15.5244 3.78796 16.3116 3.78796C17.0987 3.78796 17.9421 3.78796 19.1509 3.78796C19.2539 3.78796 19.3102 3.80759 19.3477 3.83704C19.3758 3.86649 19.3945 3.93521 19.3851 4.03338C19.3758 4.75 19.3851 5.48626 19.3851 6.19306V6.2127C19.3851 7.04712 19.9286 7.62631 20.697 7.63613H20.7064C21.4841 7.63613 22.0276 7.04712 22.037 6.2127V6.01636C22.037 5.37827 22.0464 4.71073 22.037 4.06283C22.037 3.94503 22.0464 3.87631 22.0839 3.83704C22.112 3.79778 22.1869 3.78796 22.29 3.78796H22.2994C22.7773 3.78796 23.2833 3.78796 23.9486 3.78796C24.2391 3.78796 24.5296 3.78796 24.8201 3.78796C25.1106 3.78796 25.4011 3.78796 25.6916 3.78796H25.8227C26.0664 3.78796 26.3194 3.81741 26.563 3.88613C27.6032 4.16099 28.2404 5.0445 28.3247 6.32068C28.3715 7.0962 28.9244 7.63613 29.6647 7.63613C29.6741 7.63613 29.6928 7.63613 29.7022 7.63613C30.4143 7.61649 30.9672 7.01767 30.9766 6.23233C30.9859 4.85798 30.4799 3.55236 29.5429 2.55105C28.6058 1.54974 27.3689 1 26.057 1C21.7934 1 18.7479 1 15.8805 1C12.5165 1 9.36795 1 5.96642 1C4.12041 1 2.66797 1.88351 1.64657 3.60144C1.30923 4.16099 1.14993 4.78927 1 5.44699C1 5.44699 1 5.45681 1 5.46662V6.61518C1 6.61518 1 6.64463 1.00937 6.65445V6.67408L1.01874 6.6839Z" fill="#131416"/>
<path d="M29.7303 24.3737C29.7303 24.3737 29.6928 24.3737 29.6741 24.3737C28.915 24.3737 28.3809 24.9038 28.3247 25.7284C28.2216 27.2304 27.2939 28.1826 25.9071 28.212C25.5135 28.212 25.0825 28.2219 24.5483 28.2219C24.2672 28.2219 23.9861 28.2219 23.705 28.2219C23.4239 28.2219 23.1427 28.2219 22.8616 28.2219C22.6555 28.2219 22.4493 28.2219 22.2432 28.2219C22.1682 28.2219 22.112 28.212 22.0932 28.1826C22.0651 28.1531 22.0558 28.0942 22.0558 28.0059C22.0558 27.358 22.0558 26.6512 22.0558 25.7971C22.0558 24.9627 21.5123 24.3835 20.7439 24.3835C19.9567 24.3835 19.4226 24.9529 19.4132 25.8069V25.9149C19.4132 26.5923 19.4039 27.2991 19.4132 27.9863C19.4132 28.0844 19.4039 28.1531 19.3758 28.1826C19.3477 28.212 19.2821 28.2317 19.179 28.2317C17.9139 28.2317 17.1362 28.2317 16.3303 28.2317C15.5244 28.2317 14.7279 28.2317 13.4816 28.2317C13.3786 28.2317 13.313 28.212 13.2849 28.1826C13.2568 28.1531 13.238 28.0844 13.238 27.9568C13.2474 27.2205 13.238 26.4647 13.238 25.8069C13.238 24.9529 12.6945 24.3835 11.9074 24.3835C11.5326 24.3835 11.2046 24.5209 10.961 24.7762C10.7173 25.0314 10.5955 25.3848 10.5861 25.7971V26.0327C10.5861 26.6512 10.5768 27.2893 10.5861 27.9175C10.5861 28.055 10.5768 28.1335 10.5393 28.1728C10.5018 28.212 10.4268 28.2317 10.3144 28.2317H10.305C9.73341 28.2317 9.13369 28.2317 8.35593 28.2317C7.99047 28.2317 7.62502 28.2317 7.2502 28.2317C6.89411 28.2317 6.52866 28.2317 6.17258 28.2317C5.89146 28.2317 5.62908 28.1924 5.37607 28.1237C4.34531 27.839 3.71748 26.9555 3.63314 25.7088C3.58629 24.9332 3.03342 24.3835 2.29314 24.3835C2.28377 24.3835 2.2744 24.3835 2.25566 24.3835C1.69342 24.3933 1.29986 24.7075 1.00937 25.3554C1.00937 25.3652 1.00937 25.375 1.00937 25.3946V26.5432C1.00937 26.5432 1.00937 26.553 1.00937 26.5628C1.01874 26.6021 1.02811 26.6414 1.03748 26.6806C1.05622 26.7592 1.08434 26.8475 1.10308 26.926C1.36545 28.1139 1.97454 29.1348 2.85538 29.8711C3.73622 30.6073 4.81384 31 5.97579 31C9.69592 31 13.0131 31 16.3397 31C19.6663 31 22.8335 31 26.0664 31C27.3595 31 28.5964 30.4601 29.5241 29.4686C30.4612 28.4869 30.9766 27.1911 30.9672 25.8364C30.9672 25.0216 30.4424 24.4031 29.7209 24.3737H29.7303Z" fill="#131416"/>
<path d="M4.80447 15.087C4.54209 15.5681 4.27034 16.0491 4.00797 16.5301C3.37076 17.6787 2.71482 18.8665 2.07762 20.0347C1.85273 20.4372 1.81524 20.9084 1.97454 21.3109C2.12447 21.7134 2.45244 22.0177 2.86475 22.1551C2.99594 22.1944 3.12713 22.2238 3.25832 22.2238C3.75496 22.2238 4.21412 21.9097 4.51398 21.3698C5.76964 19.1021 6.97845 16.913 8.44026 14.2821C8.53397 14.1054 8.62767 13.9385 8.73075 13.7716C9.0025 13.2906 9.27425 12.7997 9.51788 12.2991C9.73341 11.8475 9.72404 11.3272 9.4804 10.9149C9.23676 10.4928 8.79635 10.2376 8.30907 10.2376C7.43761 10.2376 6.52866 10.2376 5.61034 10.2376C4.69202 10.2376 3.67062 10.2376 2.6586 10.2376C1.89021 10.2376 1.32797 10.8266 1.3186 11.6414C1.3186 12.4758 1.87147 13.0844 2.64923 13.0942C3.00531 13.0942 3.3895 13.0942 3.85804 13.0942C4.12041 13.0942 4.37342 13.0942 4.6358 13.0942C4.89817 13.0942 5.15118 13.0942 5.41356 13.0942H5.9102L5.60097 13.6538L4.80447 15.087Z" fill="#131416"/>
<path d="M16.4802 13.2415C16.096 13.9385 15.7025 14.6453 15.3277 15.3325L15.1871 15.5877C14.9435 16.0294 14.6998 16.4712 14.4468 16.9228C13.8752 17.9437 13.2942 19.0039 12.7226 20.0543C12.5071 20.4568 12.4696 20.9182 12.6289 21.3305C12.7882 21.733 13.1162 22.0471 13.5285 22.1747C13.6597 22.214 13.7815 22.2336 13.9127 22.2336C14.4093 22.2336 14.8591 21.9293 15.159 21.3992C16.4709 19.0334 17.8015 16.6185 19.0946 14.2919C19.1883 14.1152 19.2821 13.9385 19.3758 13.7716C19.6475 13.2906 19.9193 12.7997 20.1629 12.2991C20.3784 11.8573 20.3597 11.337 20.116 10.9247C19.8724 10.5026 19.4414 10.2474 18.9635 10.2474C18.2888 10.2474 17.5485 10.2474 16.6395 10.2474C16.1523 10.2474 15.665 10.2474 15.1777 10.2474C14.6905 10.2474 14.2032 10.2474 13.7159 10.2474H13.313C12.9756 10.2474 12.7039 10.3455 12.4696 10.5419C12.0105 10.9346 11.8324 11.553 12.0198 12.1518C12.1979 12.7408 12.6945 13.1041 13.2942 13.1041C13.6972 13.1041 14.1282 13.1041 14.6623 13.1041C14.9903 13.1041 15.3089 13.1041 15.6369 13.1041C15.9367 13.1041 16.2366 13.1041 16.5365 13.1041C16.5365 13.1433 16.5084 13.1728 16.4896 13.212C16.4802 13.2317 16.4709 13.2415 16.4615 13.2611L16.4802 13.2415Z" fill="#131416"/>
<path d="M27.144 13.2317C26.7692 13.9188 26.385 14.606 26.0102 15.2834L25.8509 15.5779C25.6072 16.0196 25.3636 16.4614 25.1106 16.913C24.539 17.9339 23.958 18.9941 23.3864 20.0445C23.1709 20.447 23.1334 20.9084 23.2927 21.3207C23.452 21.7232 23.7706 22.0373 24.1923 22.1649C24.3234 22.2042 24.4546 22.2238 24.5764 22.2238C25.0731 22.2238 25.5229 21.9195 25.8227 21.3894C26.6755 19.8482 27.5469 18.2775 28.3809 16.7657L28.8776 15.8724C29.0556 15.5386 29.243 15.2147 29.4304 14.8907C29.8896 14.0661 30.3675 13.212 30.8173 12.3482C31.0609 11.8868 31.0609 11.3567 30.8173 10.9346C30.5736 10.4928 30.1145 10.2277 29.5897 10.2277C28.7464 10.2277 27.8562 10.2277 26.9472 10.2277C26.0383 10.2277 25.0731 10.2277 24.0423 10.2277C23.2271 10.2277 22.6555 10.8069 22.6461 11.6414C22.6461 12.4954 23.2083 13.0746 24.0423 13.0844C24.3609 13.0844 24.6983 13.0844 25.1199 13.0844C25.3729 13.0844 25.6166 13.0844 25.8696 13.0844C26.1226 13.0844 26.3662 13.0844 26.6192 13.0844H27.2283C27.2283 13.0844 27.2002 13.1531 27.1815 13.1826C27.1721 13.2022 27.1627 13.212 27.1534 13.2317H27.144Z" fill="#131416"/>
</svg>
