<svg width="32" height="32" viewBox="0 0 32 32" fill="none" xmlns="http://www.w3.org/2000/svg">
<path fill-rule="evenodd" clip-rule="evenodd" d="M11.1352 11.9378C11.7219 11.3529 12.6716 11.3543 13.2566 11.9409L15.6871 14.3787L18.1352 11.9378C18.7219 11.3529 19.6716 11.3543 20.2566 11.9409C20.8415 12.5276 20.8401 13.4773 20.2534 14.0622L17.8084 16.5L20.2534 18.9378C20.8401 19.5227 20.8415 20.4724 20.2566 21.0591C19.6716 21.6457 18.7219 21.6471 18.1352 21.0622L15.6871 18.6213L13.2566 21.0591C12.6716 21.6457 11.7219 21.6471 11.1352 21.0622C10.5486 20.4773 10.5472 19.5276 11.1321 18.9409L13.5658 16.5L11.1321 14.0591C10.5472 13.4724 10.5486 12.5227 11.1352 11.9378Z" fill="#131416"/>
<path fill-rule="evenodd" clip-rule="evenodd" d="M0.694336 16C0.694336 7.43958 7.63392 0.5 16.1943 0.5C24.7547 0.5 31.6943 7.43958 31.6943 16C31.6943 24.5603 24.7547 31.5 16.1943 31.5C13.5757 31.5 11.1051 30.8494 8.93919 29.7004L3.16888 30.7747C2.68278 30.8652 2.18331 30.7103 1.83367 30.3607C1.48404 30.011 1.32917 29.5115 1.41968 29.0254L2.494 23.2552C1.34489 21.0892 0.694336 18.6186 0.694336 16ZM16.1943 3.5C9.29077 3.5 3.69434 9.09644 3.69434 16C3.69434 18.2792 4.30301 20.4118 5.3657 22.2489C5.54496 22.5588 5.60747 22.9226 5.54194 23.2746L4.76917 27.4252L8.91979 26.6524C9.27173 26.5869 9.63551 26.6494 9.94539 26.8287C11.7825 27.8913 13.9151 28.5 16.1943 28.5C23.0978 28.5 28.6943 22.9035 28.6943 16C28.6943 9.09644 23.0978 3.5 16.1943 3.5Z" fill="#131416"/>
</svg>
