<svg width="32" height="32" viewBox="0 0 32 32" fill="none" xmlns="http://www.w3.org/2000/svg">
<path d="M3.56333 20.6744C4.42667 20.6744 5.115 21.3739 5.115 22.2248V26.8876H9.78167C10.645 26.8876 11.3333 27.587 11.3333 28.438C11.3333 29.2889 10.6333 29.9883 9.78167 29.9883H5.115C3.4 29.9883 2 28.6012 2 26.8759V22.2132C2 21.3505 2.7 20.6628 3.55167 20.6628L3.56333 20.6744ZM28.4483 20.6744C29.2417 20.6744 29.9067 21.2689 29.9883 22.05V22.2365V26.8993C29.9883 28.5429 28.7167 29.8834 27.1067 30H26.8733H22.2067C21.3433 30 20.655 29.3006 20.655 28.4496C20.655 27.657 21.25 26.9925 22.0317 26.9109H22.2183H26.885V22.2481C26.885 21.3855 27.585 20.6978 28.4367 20.6978L28.4483 20.6744ZM26.8967 2.02331C28.5417 2.02331 29.8833 3.29392 30 4.90258V5.13572V9.7985C30 10.6611 29.3 11.3489 28.4483 11.3489C27.655 11.3489 26.99 10.7544 26.9083 9.97335V9.78684V5.12406H22.2417C21.3783 5.12406 20.69 4.42465 20.69 3.57369C20.69 2.78102 21.285 2.11657 22.0667 2.03497H22.2533H26.92L26.8967 2.02331ZM9.78167 2.02331C10.645 2.02331 11.3333 2.72273 11.3333 3.57369C11.3333 4.36636 10.7383 5.03081 9.95667 5.11241H9.77H5.10333V9.77519C5.10333 10.6378 4.40333 11.3256 3.55167 11.3256C2.75833 11.3256 2.09333 10.7311 2.01167 9.95004V9.76353V5.10075C2.01167 3.45712 3.28333 2.11657 4.89333 2H5.12667H9.79333L9.78167 2.02331Z" fill="#131416"/>
</svg>
