<svg width="32" height="32" viewBox="0 0 32 32" fill="none" xmlns="http://www.w3.org/2000/svg">
<path d="M16 31C7.75 31 1 24.25 1 16C1 7.75 7.75 1 16 1C24.25 1 31 7.75 31 16C31 24.25 24.25 31 16 31ZM16 4C9.4 4 4 9.4 4 16C4 22.6 9.4 28 16 28C22.6 28 28 22.6 28 16C28 9.4 22.6 4 16 4Z" fill="#131416"/>
<path d="M21.7 19L15.7 17.5C14.95 17.35 14.5 16.75 14.5 16V8.5C14.5 7.6 15.1 7 16 7C16.9 7 17.5 7.6 17.5 8.5V14.8L22.3 16C23.05 16.15 23.65 17.05 23.35 17.8C23.2 18.7 22.45 19.15 21.7 19Z" fill="#131416"/>
</svg>
