<svg width="32" height="32" viewBox="0 0 32 32" fill="none" xmlns="http://www.w3.org/2000/svg">
<g clip-path="url(#clip0_364_24132)">
<path d="M6.94847 4.4686C7.57327 5.0934 7.57327 6.10593 6.94847 6.73073C1.94961 11.7296 1.94961 19.8347 6.94847 24.834C7.57327 25.4588 7.57327 26.4714 6.94847 27.0962C6.32368 27.721 5.31114 27.721 4.68634 27.0962C-1.56211 20.8477 -1.56211 10.7171 4.68634 4.4686C5.31114 3.8438 6.32368 3.8438 6.94847 4.4686ZM27.3139 4.4686C33.5624 10.7171 33.5624 20.8477 27.3139 27.0962C26.6891 27.721 25.6766 27.721 25.0518 27.0962C24.427 26.4714 24.427 25.4588 25.0518 24.834C30.0506 19.8352 30.0506 11.7301 25.0518 6.73073C24.427 6.10593 24.427 5.0934 25.0518 4.4686C25.6766 3.8438 26.6891 3.8438 27.3139 4.4686ZM11.694 9.06484C12.3188 9.68964 12.3188 10.7022 11.694 11.327C9.24516 13.7758 9.24516 17.7463 11.694 20.1951C12.3188 20.8199 12.3188 21.8324 11.694 22.4572C11.0692 23.082 10.0566 23.082 9.43183 22.4572C5.73343 18.7588 5.73343 12.7628 9.43183 9.06484C10.0566 8.44005 11.0692 8.44005 11.694 9.06484ZM22.8242 9.06484C26.5226 12.7632 26.5226 18.7593 22.8242 22.4572C22.1994 23.082 21.1868 23.082 20.5621 22.4572C19.9373 21.8324 19.9373 20.8199 20.5621 20.1951C23.0109 17.7463 23.0109 13.7758 20.5621 11.327C19.9373 10.7022 19.9373 9.68964 20.5621 9.06484C21.1868 8.44005 22.1994 8.44005 22.8242 9.06484ZM16.128 13.4946C17.4529 13.4946 18.5274 14.569 18.5274 15.8939C18.5274 17.2189 17.4529 18.2933 16.128 18.2933C14.8031 18.2933 13.7286 17.2189 13.7286 15.8939C13.7286 14.569 14.8031 13.4946 16.128 13.4946Z" fill="#131416"/>
</g>
<defs>
<clipPath id="clip0_364_24132">
<rect width="32" height="32" fill="white"/>
</clipPath>
</defs>
</svg>
