<svg width="32" height="32" viewBox="0 0 32 32" fill="none" xmlns="http://www.w3.org/2000/svg">
<path d="M29.9666 29.2114C29.9666 28.9905 29.9666 28.759 29.9666 28.538C29.9666 26.8964 29.5449 25.5916 28.7015 24.5603C28.4443 24.2447 28.1563 23.9605 27.8786 23.6869C27.7963 23.6028 27.7037 23.5186 27.6215 23.4239C27.6626 23.3923 27.7037 23.3502 27.7449 23.3186C27.9609 23.1398 28.1975 22.9503 28.4135 22.7294C29.3083 21.8139 29.8123 20.73 29.9254 19.4252C29.9872 18.7307 29.7094 18.3519 29.2363 17.9625C28.2489 17.1523 27.6523 16.1315 27.4569 14.9109C27.4055 14.5952 27.3952 14.269 27.3952 13.9954C27.3952 13.5745 27.3952 13.1641 27.3952 12.7432C27.3952 12.2802 27.3952 11.8172 27.3952 11.3647C27.3746 9.54423 27.0969 8.09207 26.5312 6.80829C26.0581 5.73496 25.4923 4.82999 24.7929 4.04078C23.6718 2.76751 22.4581 1.83098 21.0798 1.16804C19.9073 0.610326 18.8787 0.29464 17.8398 0.178889C17.6856 0.157843 17.5313 0.14732 17.377 0.126274C16.8627 0.0631371 16.3381 0 15.8136 0C15.7622 0 15.7004 0 15.649 0C14.1062 0.0420914 12.6148 0.3683 11.2365 0.978625C9.78621 1.62052 8.52108 2.51496 7.47195 3.65143C6.5771 4.61953 5.86739 5.73496 5.35311 6.96613C4.95197 7.92371 4.76683 8.92338 4.58169 9.95462C4.5714 10.0178 4.58169 10.0809 4.58169 10.1335V10.1966C4.58169 10.5649 4.58169 10.9438 4.58169 11.3121C4.58169 12.1644 4.58169 13.0378 4.5714 13.9007C4.55083 14.9845 4.33483 15.8264 3.90284 16.5419C3.52227 17.1733 3.0697 17.6784 2.52457 18.0783C2.16457 18.3203 2 18.657 2 19.0779C2 20.6564 2.64799 21.9928 3.96455 23.1608C4.03655 23.2239 4.10855 23.2766 4.18055 23.3292L4.25255 23.3818C4.25255 23.3818 4.31426 23.4239 4.34512 23.4449C3.00799 24.5182 2.24685 25.7915 2.10286 27.2542C2 28.2644 2.01029 29.3061 2.02057 30.3058C2.02057 30.5689 2.02057 30.832 2.02057 31.0845C2.02057 31.5475 2.432 31.8001 2.73028 31.979C2.75085 31.9895 2.78171 32 2.81256 32H29.1232C29.1232 32 29.1746 32 29.1952 31.979C29.7814 31.6948 30.0283 31.2108 29.9974 30.4742C29.9769 30.0533 29.9769 29.6218 29.9872 29.2009L29.9666 29.2114ZM4.26284 19.5304C4.26284 19.5304 4.28341 19.4778 4.29369 19.4673C4.90054 18.9938 5.41482 18.3729 5.89825 17.4995C6.48453 16.4577 6.76224 15.4265 6.76224 14.3637C6.76224 13.1851 6.78281 11.9645 6.82395 10.607C6.87538 8.87077 7.48223 7.23972 8.60336 5.76652C9.59078 4.48274 10.8148 3.52516 12.2445 2.92535C13.1496 2.54653 13.9107 2.33607 14.641 2.28346C14.7953 2.27294 14.9496 2.25189 15.0936 2.23085C15.361 2.19928 15.6079 2.16771 15.865 2.16771H15.9164C17.9118 2.19928 19.6707 2.7149 21.1621 3.70404C22.3964 4.52483 23.3838 5.58764 24.0832 6.8609C24.5255 7.67116 24.8443 8.57613 25.0295 9.55475C25.1323 10.0809 25.1529 10.6386 25.1632 11.1647C25.1838 12.0066 25.1735 12.8589 25.1632 13.6902V14.3216C25.1632 15.1319 25.3483 15.9526 25.7495 16.8997C26.1609 17.8573 26.7575 18.6886 27.5392 19.3726C27.6523 19.4673 27.6729 19.5304 27.6317 19.7198C27.3438 20.951 26.5312 21.7613 25.1529 22.1927C25.1015 22.2137 25.0398 22.2243 24.9781 22.2243C24.9369 22.2243 24.8958 22.2243 24.8752 22.2137C24.2066 22.0033 23.5484 21.7823 22.8901 21.5613C22.8387 21.5403 22.8078 21.5192 22.7975 21.5192C22.6638 20.951 22.3141 20.4564 21.7484 20.0355C22.5095 19.1411 22.9929 18.2466 23.2398 17.3206C23.3632 16.8471 23.4764 16.3946 23.4866 15.9211C23.5278 14.29 23.5381 12.6274 23.5484 11.0174V9.95462C23.5586 9.55475 23.4558 9.24959 23.2398 9.02861C23.0135 8.79711 22.6741 8.67083 22.2421 8.67083H21.6558H21.0181C20.7712 8.67083 20.5244 8.67083 20.2673 8.67083H20.1335C18.6318 8.67083 17.2021 8.21835 15.865 7.33443C15.4947 7.08188 15.1553 6.8609 14.8982 6.56626C14.6822 6.33476 14.3942 6.21901 14.0753 6.21901C13.6227 6.21901 13.201 6.47156 12.985 6.8609C12.4502 7.85005 11.5656 8.44985 10.4136 8.59717C10.2593 8.61822 10.1051 8.62874 9.95078 8.63926C9.70392 8.66031 9.4365 8.68135 9.18964 8.73397C8.74736 8.81815 8.43879 9.21802 8.43879 9.69155C8.43879 10.2493 8.43879 10.807 8.43879 11.3647C8.43879 12.8694 8.41822 14.4163 8.46965 15.9421C8.49022 16.6051 8.70622 17.268 8.94279 17.9415C9.17936 18.6149 9.59078 19.2779 10.2079 20.0145C9.71421 20.3512 9.3645 20.8247 9.15879 21.4561C9.15879 21.4771 9.10736 21.5298 9.06622 21.5403C8.79879 21.635 8.53136 21.7192 8.26394 21.8034C7.90394 21.9191 7.54395 22.0349 7.19423 22.1611C7.11195 22.1927 7.03995 22.2032 6.95767 22.2032C6.77252 22.2032 6.59767 22.1296 6.40224 22.0559C5.25025 21.6034 4.53026 20.7511 4.27312 19.5304H4.26284ZM15.9576 24.1289C15.5153 24.1289 15.1964 23.8237 15.1656 23.3607C15.1553 23.1818 15.2273 22.9924 15.361 22.8346C15.505 22.6768 15.6902 22.5926 15.8856 22.5926C16.4616 22.6241 16.7496 22.8767 16.7804 23.3607C16.7804 23.5396 16.7187 23.708 16.585 23.8658C16.4307 24.0342 16.2147 24.1394 16.0296 24.1394C16.009 24.1394 15.9884 24.1394 15.9781 24.1394H15.9576V24.1289ZM16.6673 20.3617C16.3999 20.3933 16.1427 20.4143 15.8856 20.4143C14.3736 20.4143 13.057 19.8251 11.9565 18.6465C11.2673 17.9099 10.8559 17.0681 10.7428 16.1315C10.7119 15.879 10.6811 15.6159 10.6811 15.3634C10.6811 14.1848 10.6811 13.0062 10.6811 11.8066V10.7438C12.0285 10.5965 13.2319 9.96514 14.2605 8.87077C16.0399 10.1651 18.097 10.828 20.3804 10.828C20.6787 10.828 20.9872 10.8175 21.2958 10.7964C21.2958 10.828 21.2958 10.8596 21.2958 10.8912C21.2958 11.3226 21.2958 11.754 21.2958 12.1855C21.2958 13.2062 21.3061 14.2585 21.2958 15.2897C21.265 16.8892 20.6272 18.2045 19.393 19.2042C18.601 19.8461 17.6856 20.2354 16.6673 20.3617ZM6.5051 29.8218H4.24226C4.26284 29.5061 4.24226 29.2009 4.24226 28.8958C4.22169 28.075 4.21141 27.2963 4.60226 26.5386C5.1474 25.4969 5.94968 24.8234 7.03995 24.4972C7.47195 24.3709 7.90394 24.2236 8.32565 24.0868C8.55194 24.0132 8.77822 23.9395 9.0045 23.8658C9.02507 23.8658 9.05593 23.8553 9.0765 23.8448C9.0765 23.8764 9.0765 23.9079 9.0765 23.929C9.0765 24.1184 9.0765 24.2867 9.0765 24.4656C8.98393 25.6442 9.88907 26.8543 11.0719 27.1069C11.1953 27.1384 11.2468 27.1805 11.2879 27.4015C11.3805 27.9592 11.5039 28.5169 11.6273 29.0536C11.6788 29.2956 11.7405 29.5377 11.7919 29.7902C11.7919 29.7902 11.7919 29.8007 11.7919 29.8112H6.51538L6.5051 29.8218ZM13.129 24.4341L12.8616 24.5603L11.977 24.9918C11.905 25.0233 11.833 25.0444 11.761 25.0444C11.545 25.0444 11.3188 24.8971 11.3188 24.655C11.2982 23.8553 11.2879 22.9398 11.3188 22.0664C11.3291 21.8349 11.4628 21.7086 11.6993 21.7086C11.8022 21.7086 11.905 21.7297 12.0182 21.7718C12.3062 21.877 12.5736 22.0138 12.8616 22.1611C12.9439 22.2032 13.0365 22.2453 13.1187 22.2874C12.841 22.9819 12.841 23.6869 13.1187 24.4341H13.129ZM18.3747 27.3173L18.0147 29.1378C18.0044 29.2114 17.9941 29.2746 17.9736 29.3482C17.9427 29.5061 17.9221 29.6534 17.8707 29.8007C17.8707 29.8007 17.7884 29.8323 17.7473 29.8323C16.9861 29.8323 16.225 29.8323 15.4536 29.8323H14.6924H14.0445L13.9725 29.485C13.8902 29.1273 13.8182 28.7695 13.7359 28.4117C13.6845 28.1802 13.6433 27.9382 13.5919 27.7067C13.5405 27.4436 13.489 27.17 13.4273 26.9069C13.3862 26.7175 13.4067 26.686 13.5302 26.6544C13.6947 26.6018 13.849 26.5176 13.9827 26.4334C14.2913 26.244 14.569 26.1493 14.857 26.1493C15.0422 26.1493 15.2273 26.1809 15.433 26.265C15.5976 26.3282 15.7724 26.3597 15.9679 26.3597C16.2661 26.3597 16.5953 26.2861 16.9039 26.1493C16.9656 26.1177 17.0273 26.1072 17.0787 26.1072C17.1507 26.1072 17.2227 26.1282 17.3256 26.1809C17.6238 26.3282 17.9221 26.4755 18.2204 26.6228L18.4776 26.7491L18.3644 27.3384L18.3747 27.3173ZM19.5267 24.7918C19.3004 24.6761 19.0741 24.5709 18.8478 24.4656C18.817 24.4551 18.7964 24.4446 18.7861 24.4341C18.7861 24.4341 18.7861 24.4025 18.8067 24.3709C19.0638 23.708 19.0638 23.024 18.8067 22.3505C18.7861 22.2979 18.7861 22.2664 18.7861 22.2664C18.7861 22.2664 18.8067 22.2558 18.8581 22.2348C18.9815 22.1822 19.0947 22.119 19.2181 22.0559C19.4135 21.9612 19.5987 21.8665 19.7941 21.7823C19.9278 21.7297 20.0615 21.6981 20.1747 21.6981C20.473 21.6981 20.6272 21.8875 20.6375 22.2664C20.6478 22.5084 20.6375 22.7609 20.6375 23.003C20.6375 23.1187 20.6375 23.2239 20.6375 23.3397C20.6375 23.3713 20.6375 23.4028 20.6581 23.4239C20.6581 23.5396 20.6581 23.6449 20.6478 23.7606C20.6375 24.0868 20.6272 24.392 20.5758 24.6866C20.5347 24.9181 20.3907 25.0549 20.185 25.0549C20.0924 25.0549 19.9998 25.0339 19.897 24.9813L19.5267 24.8024V24.7918ZM25.4615 29.8112H20.1541L20.2055 29.5692L20.5347 27.9066C20.5347 27.9066 20.5552 27.8224 20.5552 27.7698V27.6962C20.6272 27.3699 20.689 27.1595 21.1107 27.0016C22.1495 26.6439 22.7461 25.8652 22.8181 24.8234C22.8387 24.5709 22.8592 24.3183 22.8798 24.0447L22.9004 23.8553L23.2192 23.95C23.5998 24.0658 23.9701 24.1815 24.3506 24.3078L24.4638 24.3394C25.0501 24.5288 25.6055 24.7182 26.0889 25.076C26.9735 25.7389 27.4672 26.4755 27.5803 27.3384C27.6626 27.9277 27.6935 28.5169 27.7243 29.1483C27.7346 29.3693 27.7449 29.5903 27.7655 29.8112H25.4512H25.4615Z" fill="#131416"/>
</svg>
