<svg width="32" height="32" viewBox="0 0 32 32" fill="none" xmlns="http://www.w3.org/2000/svg">
<path d="M22 17C22.5522 17 23 16.5522 23 16C23 15.4478 22.5522 15 22 15C21.4478 15 21 15.4478 21 16C21 16.5522 21.4478 17 22 17Z" fill="#131416"/>
<path fill-rule="evenodd" clip-rule="evenodd" d="M20 16C20 14.8955 20.8955 14 22 14C23.1045 14 24 14.8955 24 16C24 17.1045 23.1045 18 22 18C20.8955 18 20 17.1045 20 16Z" fill="#131416"/>
<path d="M16 17C16.5522 17 17 16.5522 17 16C17 15.4478 16.5522 15 16 15C15.4478 15 15 15.4478 15 16C15 16.5522 15.4478 17 16 17Z" fill="#131416"/>
<path fill-rule="evenodd" clip-rule="evenodd" d="M14 16C14 14.8955 14.8955 14 16 14C17.1045 14 18 14.8955 18 16C18 17.1045 17.1045 18 16 18C14.8955 18 14 17.1045 14 16Z" fill="#131416"/>
<path d="M10 17C10.5523 17 11 16.5522 11 16C11 15.4478 10.5523 15 10 15C9.44772 15 9 15.4478 9 16C9 16.5522 9.44772 17 10 17Z" fill="#131416"/>
<path fill-rule="evenodd" clip-rule="evenodd" d="M8 16C8 14.8956 8.89538 14 10 14C11.1046 14 12 14.8956 12 16C12 17.1044 11.1046 18 10 18C8.89538 18 8 17.1044 8 16Z" fill="#131416"/>
<path fill-rule="evenodd" clip-rule="evenodd" d="M0.5 16C0.5 7.43958 7.43958 0.5 16 0.5C24.5603 0.5 31.5 7.43958 31.5 16C31.5 24.5603 24.5603 31.5 16 31.5C13.3814 31.5 10.9107 30.8494 8.74485 29.7004L2.97455 30.7747C2.48845 30.8652 1.98897 30.7103 1.63934 30.3607C1.28971 30.011 1.13484 29.5115 1.22534 29.0254L2.29967 23.2552C1.15056 21.0892 0.5 18.6186 0.5 16ZM16 3.5C9.09644 3.5 3.5 9.09644 3.5 16C3.5 18.2792 4.10868 20.4118 5.17136 22.2489C5.35062 22.5588 5.41313 22.9226 5.34761 23.2746L4.57484 27.4252L8.72545 26.6524C9.07739 26.5869 9.44117 26.6494 9.75105 26.8287C11.5881 27.8913 13.7208 28.5 16 28.5C22.9035 28.5 28.5 22.9035 28.5 16C28.5 9.09644 22.9035 3.5 16 3.5Z" fill="#131416"/>
</svg>
