<svg width="32" height="32" viewBox="0 0 32 32" fill="none" xmlns="http://www.w3.org/2000/svg">
<path d="M24.8307 10.2372C24.8307 10.2372 24.811 10.2187 24.8011 10.2095C24.5144 9.95109 24.1387 9.81267 23.7433 9.81267C23.1304 9.81267 22.5768 10.1541 22.3296 10.6801C22.1714 11.0215 21.9836 11.3353 21.776 11.6213C21.7365 9.96955 21.341 8.38234 20.5897 6.88742C20.5897 6.86896 20.5699 6.85974 20.56 6.85051C19.2254 4.31283 16.9912 2.29191 14.2726 1.15687L14.1836 1.11996C14.0057 1.04614 13.7882 1 13.5806 1C12.7304 1 12.0384 1.64596 12.0384 2.43956C12.0384 2.52261 12.0384 2.59643 12.0581 2.67026V2.79022C12.0581 4.58044 11.2277 6.27838 9.76459 7.45032C9.20109 7.97632 8.62771 8.4654 8.06421 8.92679C6.70984 9.96955 5.51364 11.1692 4.49539 12.498L4.45585 12.5534C3.24976 14.3897 2.60718 16.5029 2.60718 18.6992C2.60718 19.7881 2.76535 20.877 3.0817 21.9197C3.0817 21.9197 3.0817 21.9289 3.0817 21.9382C3.89235 24.928 5.85965 27.4565 8.62771 29.0714L8.68703 29.099C10.7532 30.3264 13.1752 30.9908 15.6961 31C16.2596 31 16.8133 30.9631 17.357 30.8985C17.3669 30.8985 17.3866 30.8985 17.3965 30.8985C22.2406 30.2064 26.2642 27.1243 27.925 22.8517L27.9547 22.7595C28.3798 21.5783 28.6072 20.2495 28.6072 18.9206C28.6072 15.654 27.2627 12.5811 24.811 10.2464L24.8307 10.2372ZM18.3159 14.4543C18.3159 14.4543 18.3159 14.4728 18.306 14.482C18.2665 14.6112 18.2368 14.7588 18.2368 14.9065C18.2368 15.7001 18.9289 16.346 19.779 16.346C19.9866 16.346 20.1844 16.3091 20.3623 16.2353C20.3623 16.2353 20.3623 16.2353 20.3722 16.2353C21.776 15.6909 23.0019 14.8327 23.9311 13.7438C24.9988 15.2664 25.5623 17.0474 25.5623 18.9022C25.5623 19.8896 25.4041 20.8677 25.0779 21.809C25.0779 21.8182 25.0779 21.8274 25.068 21.8367C23.7828 25.1679 20.6787 27.558 16.9714 28.0655H16.922C16.5562 28.1117 16.141 28.1393 15.7357 28.1393C13.8277 28.1393 11.9593 27.641 10.3577 26.6906C10.3577 26.6906 10.3479 26.6813 10.338 26.6721C8.18284 25.4171 6.6703 23.4792 6.07714 21.2184V21.163C5.82999 20.3971 5.70147 19.5574 5.70147 18.7176C5.70147 17.112 6.16611 15.534 7.03607 14.1498C7.93569 12.9871 8.94406 11.9997 10.0908 11.1046L10.1304 11.0769C10.6939 10.6063 11.3365 10.0618 11.9395 9.49892C13.3828 8.2347 14.4209 6.62904 14.9547 4.85728C17.3174 6.53676 18.7212 9.13904 18.7212 11.8982C18.7212 12.7656 18.5828 13.6238 18.3159 14.4543Z" fill="#131416"/>
</svg>
