<svg width="32" height="32" viewBox="0 0 32 32" fill="none" xmlns="http://www.w3.org/2000/svg">
<g clip-path="url(#clip0_18_1813)">
<path d="M16 2.90909C23.2291 2.90909 29.0909 8.77091 29.0909 16C29.0909 23.2291 23.2291 29.0909 16 29.0909C8.77091 29.0909 2.90909 23.2291 2.90909 16C2.90909 8.77091 8.77091 2.90909 16 2.90909ZM16 0C7.17091 0 0 7.17091 0 16C0 24.8291 7.17091 32 16 32C24.8291 32 32 24.8291 32 16C32 7.17091 24.8291 0 16 0Z" fill="#131416"/>
<path d="M14.4145 12.5527L9.44 16.64L11.7673 22.6036L19.0691 22.2255L20.1891 15.4327L14.4145 12.5527Z" fill="#131416"/>
<path d="M29.4982 14.9527C29.2509 12.1164 27.6509 9.44 25.8764 7.41818L23.0836 9.04727L22.5891 14.9236L27.1855 17.1491L29.4982 14.9673V14.9527Z" fill="#131416"/>
<path d="M13.5418 8.48L18.7055 6.32727L19.4909 3.37455C18.3709 3.06909 17.2073 2.89455 15.9855 2.89455C13.2945 2.89455 10.7782 3.70909 8.69818 5.10545L13.5273 8.46546L13.5418 8.48Z" fill="#131416"/>
<path d="M3.40364 19.5636L4.39273 19.0255L6.60364 15.4036L4.56727 11.36L3.72364 11.4473C3.2 12.8727 2.90909 14.4 2.90909 16C2.90909 17.2364 3.08364 18.4291 3.40364 19.5636Z" fill="#131416"/>
<path d="M27.9273 22.6036L21.5418 25.4545L19.8836 29.0764C23.2582 27.9273 26.1091 25.6436 27.9564 22.6618L27.9273 22.5891V22.6036Z" fill="#131416"/>
<path d="M10.7927 25.4836L6.13818 24.96C7.86909 26.4873 9.83273 27.7527 11.9855 28.6836L10.7927 25.4691V25.4836Z" fill="#131416"/>
</g>
<defs>
<clipPath id="clip0_18_1813">
<rect width="32" height="32" fill="white"/>
</clipPath>
</defs>
</svg>
