<svg width="32" height="32" viewBox="0 0 32 32" fill="none" xmlns="http://www.w3.org/2000/svg">
<path d="M16 31C10.6224 31 6.52696 30.4866 4.02043 27.9796C1.51346 25.4727 1 21.3777 1 15.9998C1 10.6219 1.51346 6.52687 4.02043 4.02039C6.52696 1.51345 10.6224 1 16 1C21.3776 1 25.473 1.51345 27.9796 4.02039C30.4865 6.52732 31 10.6223 31 15.9998C31 21.3772 30.4865 25.4727 27.9796 27.9792C25.4726 30.4861 21.3776 31 16 31ZM16 4.00013C10.5189 4.00013 7.66277 4.62068 6.14175 6.14167C4.62074 7.66267 4.00018 10.5188 4.00018 15.9998C4.00018 21.4807 4.62074 24.3369 6.14175 25.8579C7.66277 27.3789 10.5189 27.9994 16 27.9994C21.4811 27.9994 24.3372 27.3789 25.8583 25.8579C27.3793 24.3369 27.9998 21.4807 27.9998 15.9998C27.9998 10.5188 27.3793 7.66267 25.8583 6.14167C24.3372 4.62068 21.4811 4.00013 16 4.00013Z" fill="#131416"/>
<path d="M16.0007 23.888C14.5046 23.888 13.0137 23.5304 11.6894 22.8536C10.4097 22.1999 9.27547 21.2457 8.41052 20.0937C7.91708 19.4365 8.04956 18.5039 8.70668 18.0105C9.36379 17.517 10.2964 17.6495 10.7899 18.3066C12.0335 19.9626 13.9329 20.9121 16.0007 20.9121C18.0686 20.9121 19.9674 19.9621 21.2116 18.3066C21.705 17.6495 22.6376 17.517 23.2948 18.0105C23.9519 18.5039 24.0844 19.437 23.5909 20.0937C22.726 21.2457 21.5917 22.1999 20.3121 22.8536C18.9877 23.5304 17.4969 23.888 16.0007 23.888Z" fill="#131416"/>
<path d="M11.1998 14.4018C10.1923 14.4018 9.37579 13.5854 9.37579 12.5779V12.5601C9.37579 11.5526 10.1923 10.7361 11.1998 10.7361C12.2073 10.7361 13.0238 11.5526 13.0238 12.5601V12.5779C13.0238 13.5854 12.2073 14.4018 11.1998 14.4018Z" fill="#131416"/>
<path d="M20.7997 14.4018C19.7922 14.4018 18.9757 13.5854 18.9757 12.5779V12.5601C18.9757 11.5526 19.7922 10.7361 20.7997 10.7361C21.8073 10.7361 22.6237 11.5526 22.6237 12.5601V12.5779C22.6237 13.5854 21.8073 14.4018 20.7997 14.4018Z" fill="#131416"/>
</svg>
