<svg width="32" height="32" viewBox="0 0 32 32" fill="none" xmlns="http://www.w3.org/2000/svg">
<path fill-rule="evenodd" clip-rule="evenodd" d="M16.0001 4.16666C9.46471 4.16666 4.16675 9.46462 4.16675 16C4.16675 22.5354 9.46471 27.8333 16.0001 27.8333C22.5354 27.8333 27.8334 22.5354 27.8334 16C27.8334 9.46462 22.5354 4.16666 16.0001 4.16666ZM1.16675 16C1.16675 7.80777 7.80786 1.16666 16.0001 1.16666C24.1923 1.16666 30.8334 7.80777 30.8334 16C30.8334 24.1922 24.1923 30.8333 16.0001 30.8333C7.80786 30.8333 1.16675 24.1922 1.16675 16Z" fill="#131416"/>
<path fill-rule="evenodd" clip-rule="evenodd" d="M1.16675 16C1.16675 15.1716 1.83832 14.5 2.66675 14.5H29.3334C30.1618 14.5 30.8334 15.1716 30.8334 16C30.8334 16.8284 30.1618 17.5 29.3334 17.5H2.66675C1.83832 17.5 1.16675 16.8284 1.16675 16Z" fill="#131416"/>
<path fill-rule="evenodd" clip-rule="evenodd" d="M16.0001 1.16666C16.4215 1.16666 16.8234 1.3439 17.1076 1.65502C20.6879 5.57463 22.7225 10.6613 22.8331 15.9687C22.8335 15.9896 22.8335 16.0104 22.8331 16.0312C22.7225 21.3387 20.6879 26.4254 17.1076 30.345C16.8234 30.6561 16.4215 30.8333 16.0001 30.8333C15.5787 30.8333 15.1768 30.6561 14.8926 30.345C11.3123 26.4254 9.27764 21.3387 9.16707 16.0312C9.16664 16.0104 9.16664 15.9896 9.16707 15.9687C9.27764 10.6613 11.3123 5.57463 14.8926 1.65502C15.1768 1.3439 15.5787 1.16666 16.0001 1.16666ZM12.1671 16C12.2568 19.99 13.6065 23.834 16.0001 26.9918C18.3937 23.834 19.7433 19.99 19.8331 16C19.7433 12.01 18.3937 8.166 16.0001 5.00822C13.6065 8.166 12.2568 12.01 12.1671 16Z" fill="#131416"/>
</svg>
