<svg width="32" height="32" viewBox="0 0 32 32" fill="none" xmlns="http://www.w3.org/2000/svg">
<path fill-rule="evenodd" clip-rule="evenodd" d="M21.3299 8C21.3299 5.79 23.1199 4 25.3299 4C27.5399 4 29.3299 5.79 29.3299 8C29.3299 10.21 27.5399 12 25.3299 12C23.1199 12 21.3299 10.21 21.3299 8ZM5.32992 11.33C5.32992 8.02 8.01992 5.33 11.3299 5.33C14.6399 5.33 17.3299 8.02 17.3299 11.33V20.66C17.3299 22.5 18.8199 23.99 20.6599 23.99C22.4999 23.99 23.9899 22.5 23.9899 20.66V14.66C23.9899 13.92 24.5899 13.33 25.3199 13.33C26.0499 13.33 26.6499 13.93 26.6499 14.66V20.66C26.6499 23.97 23.9599 26.66 20.6499 26.66C17.3399 26.66 14.6499 23.97 14.6499 20.66V11.33C14.6499 9.49 13.1599 8 11.3199 8C9.47992 8 7.98992 9.49 7.98992 11.33V17.33C7.98992 18.07 7.38992 18.66 6.65992 18.66C5.92992 18.66 5.32992 18.06 5.32992 17.33V11.33ZM23.9999 8C23.9999 8.74 24.5999 9.33 25.3299 9.33C26.0599 9.33 26.6599 8.73 26.6599 8C26.6599 7.27 26.0599 6.67 25.3299 6.67C24.5999 6.67 23.9999 7.27 23.9999 8ZM2.66992 24C2.66992 21.79 4.45992 20 6.66992 20C8.87992 20 10.6699 21.79 10.6699 24C10.6699 26.21 8.87992 28 6.66992 28C4.45992 28 2.66992 26.21 2.66992 24ZM5.33992 24C5.33992 24.74 5.93992 25.33 6.66992 25.33C7.39992 25.33 7.99992 24.73 7.99992 24C7.99992 23.27 7.39992 22.67 6.66992 22.67C5.93992 22.67 5.33992 23.27 5.33992 24Z" fill="#131416"/>
</svg>
