<svg width="32" height="32" viewBox="0 0 32 32" fill="none" xmlns="http://www.w3.org/2000/svg">
<path fill-rule="evenodd" clip-rule="evenodd" d="M8.89972 18.888C10.5697 18.888 11.9317 20.1861 12.0501 21.8297V22.0679V26.8319C12.0501 28.5112 10.7592 29.8809 9.12475 30H8.88788H4.15041C2.48046 30 1.11844 28.7018 1 27.0582V26.82V22.056C1 20.3767 2.29096 19.0071 3.92538 18.888H4.16226H8.89972ZM23.1121 25.236C23.9886 25.236 24.6873 25.9506 24.6873 26.82C24.6873 27.6299 24.0833 28.3088 23.2898 28.3921H23.1003H16.7876C15.9112 28.3921 15.2124 27.6775 15.2124 26.8081C15.2124 25.9982 15.8164 25.3194 16.6099 25.236H16.7994H23.1121ZM8.89972 22.056H4.16226V26.82H8.89972V22.056ZM29.4248 18.876C30.3012 18.876 31 19.5906 31 20.4601C31 21.3295 30.2894 22.0441 29.4248 22.0441H16.7876C15.9112 22.0441 15.2124 21.3295 15.2124 20.4601C15.2124 19.5906 15.923 18.876 16.7876 18.876H29.4248ZM8.89972 2.01191C10.6407 2.01191 12.062 3.4292 12.062 5.19188V9.95589C12.062 11.7067 10.6526 13.1359 8.89972 13.1359H4.16226C2.42124 13.1359 1 11.7186 1 9.95589V5.19188C1 3.44111 2.4094 2.01191 4.16226 2.01191H8.89972ZM23.1121 8.35995C23.9886 8.35995 24.6873 9.07455 24.6873 9.94398C24.6873 10.7539 24.0833 11.4327 23.2898 11.5161H23.1003H16.7876C15.9112 11.5161 15.2124 10.8015 15.2124 9.93207C15.2124 9.12219 15.8164 8.44332 16.6099 8.35995H16.7994H23.1121ZM8.89972 5.17997H4.16226V9.94398H8.89972V5.17997ZM29.4248 2C30.3012 2 31 2.7146 31 3.58403C31 4.39391 30.396 5.07278 29.6024 5.15615H29.4129H16.7758C15.8993 5.15615 15.2006 4.44155 15.2006 3.57212C15.2006 2.76224 15.8046 2.08337 16.5981 2H16.7876H29.4248Z" fill="#131416"/>
</svg>
