<svg width="32" height="32" viewBox="0 0 32 32" fill="none" xmlns="http://www.w3.org/2000/svg">
<path fill-rule="evenodd" clip-rule="evenodd" d="M15.9883 17.5028C19.71 17.5028 23.105 18.5385 25.6017 20.0131C26.85 20.7448 27.9117 21.6116 28.6817 22.546C29.44 23.469 30 24.5722 30 25.7542C30 27.0263 29.3583 28.0169 28.4367 28.7373C27.5617 29.4128 26.4183 29.863 25.1933 30.167C22.7433 30.7974 19.465 31 16 31C12.535 31 9.25667 30.7861 6.80667 30.167C5.58167 29.8518 4.43833 29.4128 3.56333 28.7373C2.64167 28.0281 2 27.0263 2 25.7542C2 24.5722 2.56 23.469 3.31833 22.546C4.08833 21.6116 5.15 20.7448 6.39833 20.0131C8.895 18.5497 12.2783 17.5028 16.0117 17.5028H15.9883ZM15.9883 20.5084C12.8383 20.5084 10.015 21.3977 7.99667 22.5797C6.99333 23.1764 6.235 23.818 5.745 24.4146C5.24333 25.0338 5.10333 25.4953 5.10333 25.7655C5.10333 25.9456 5.16167 26.137 5.5 26.4071C5.885 26.7111 6.56167 27.015 7.58833 27.2852C9.64167 27.8143 12.5817 28.0281 15.9883 28.0281C19.395 28.0281 22.335 27.8143 24.3883 27.2852C25.415 27.0263 26.0917 26.7111 26.4767 26.4071C26.815 26.1482 26.8733 25.9456 26.8733 25.7655C26.8733 25.4953 26.7333 25.0338 26.2317 24.4146C25.7417 23.818 24.9833 23.1764 23.98 22.5797C21.9733 21.3977 19.1383 20.5084 15.9883 20.5084ZM15.9883 1C20.2817 1 23.77 4.3546 23.77 8.50844C23.77 12.6623 20.2933 16.0169 15.9883 16.0169C11.6833 16.0169 8.20667 12.6623 8.20667 8.50844C8.20667 4.3546 11.6833 1 15.9883 1ZM15.9883 4.00563C13.41 4.00563 11.3217 6.02064 11.3217 8.50844C11.3217 10.9962 13.41 13.0113 15.9883 13.0113C18.5667 13.0113 20.655 10.9962 20.655 8.50844C20.655 6.02064 18.5667 4.00563 15.9883 4.00563Z" fill="#131416"/>
</svg>
