<svg width="32" height="32" viewBox="0 0 32 32" fill="none" xmlns="http://www.w3.org/2000/svg">
<path d="M30.4399 6.30012C29.8734 5.24196 29.084 4.50866 28.0996 4.11881C27.5609 3.90532 26.9759 3.78465 26.4558 3.67327C25.9636 3.57116 25.4621 3.47834 24.9791 3.3948C24.7005 3.34839 24.4312 3.30198 24.1526 3.24629C23.4375 3.10705 22.7874 2.98639 22.1466 2.84715C22.0166 2.81931 21.8866 2.74505 21.8123 2.66151C21.125 1.91894 20.2799 1.39913 19.3048 1.12995L18.8033 1C18.8033 1 18.7754 1 18.7661 1H5.07701C5.07701 1 5.04915 1 5.03058 1C4.91913 1.03713 4.7984 1.07426 4.68696 1.11139C4.44549 1.18564 4.19474 1.2599 3.95328 1.362C2.69953 1.85396 1.80797 2.7729 1.29719 4.09097C1.2136 4.30446 1.14859 4.52723 1.08358 4.75C1.05572 4.8521 1.02786 4.95421 1 5.04703C1 5.05631 1 5.07488 1 5.08416V24.5118C1 24.5118 1 24.5396 1 24.5582C1.04644 24.6881 1.08358 24.8088 1.12073 24.9387C1.20431 25.2172 1.29719 25.505 1.41792 25.7741C2.10516 27.2964 3.31247 28.2339 4.98414 28.5402C5.13273 28.5681 5.30919 28.5959 5.48564 28.5959C5.93142 28.5959 6.38648 28.5959 6.83226 28.5959C7.74239 28.5959 8.68038 28.5866 9.5998 28.6145C10.1292 28.633 10.6585 28.7351 11.1786 28.8373C11.3179 28.8651 11.4479 28.8929 11.5872 28.9115C12.163 29.0136 12.7295 29.1343 13.296 29.2457C13.5747 29.3014 13.844 29.3571 14.1226 29.4127L14.9213 29.5705C15.72 29.7283 16.5186 29.8861 17.3266 30.0439C17.7817 30.1275 18.246 30.2203 18.7011 30.3038C19.1933 30.3967 19.6855 30.4895 20.1777 30.5823C20.4006 30.6287 20.6235 30.6751 20.8464 30.7215C21.2736 30.8144 21.7101 30.9072 22.1466 30.9629C22.3509 30.9814 22.5552 31 22.7503 31C23.066 31 23.3725 30.9722 23.6697 30.9165C24.6355 30.7401 25.4899 30.2853 26.2143 29.552C26.9016 28.8558 27.3288 27.9833 27.4866 26.9623C27.5238 26.7209 27.4402 26.4239 27.2452 26.164C27.0409 25.8948 26.7623 25.6999 26.5022 25.6627C25.5828 25.5235 25.0442 25.9041 24.8584 26.8323C24.6912 27.6584 23.6975 28.4288 22.9081 28.3824C22.4345 28.3453 21.9423 28.2618 21.4779 28.1782C21.2829 28.1411 21.0879 28.104 20.8836 28.0761C20.7535 28.0576 20.6235 28.0297 20.4935 28.0019C21.4315 27.4635 22.1002 26.7488 22.5274 25.8205C22.7967 25.2172 22.9267 24.7067 22.9267 24.1962V20.2141C22.9546 15.573 22.9731 10.9319 22.9824 6.29084C22.9824 6.11448 22.9731 5.93812 22.9639 5.76176C22.9639 5.73391 22.9639 5.70606 22.9639 5.67822L23.2425 5.72463C23.5396 5.78032 23.8461 5.83601 24.1433 5.89171C24.4312 5.9474 24.7098 6.00309 24.9977 6.05879C25.4899 6.16089 25.9729 6.25371 26.4651 6.33725C27.4866 6.51361 28.1182 7.07983 28.3318 8.01733C28.4246 8.41646 28.3411 8.88985 28.2853 9.27042C28.1832 9.91089 28.0439 10.5606 27.9231 11.1918C27.8767 11.4239 27.8303 11.6559 27.7838 11.888C27.7095 12.25 27.6352 12.612 27.5609 12.974C27.4402 13.5588 27.3288 14.1343 27.208 14.7191C27.1152 15.211 27.0223 15.703 26.9294 16.1949C26.8458 16.659 26.7623 17.1231 26.6694 17.5873C26.5858 18.0328 26.4929 18.4691 26.4093 18.9146C26.3165 19.3973 26.2143 19.8892 26.1214 20.3719C26.0472 20.7803 25.9636 21.2166 25.9171 21.6621C25.8428 22.3769 26.4744 22.8967 26.9666 22.9616C27.6817 23.0545 28.3132 22.6089 28.4525 21.9035C28.5732 21.2816 28.7032 20.6689 28.8333 20.047C28.954 19.4344 29.084 18.8311 29.2047 18.2184C29.3998 17.2438 29.5855 16.2599 29.7805 15.2853L30.217 13.039C30.3656 12.2778 30.5142 11.5074 30.6628 10.7463C30.6907 10.5885 30.7185 10.4307 30.7557 10.2729C30.8671 9.72525 30.9786 9.14975 30.9971 8.58354C31.025 7.78527 30.8486 7.00557 30.4771 6.30941L30.4399 6.30012ZM3.59108 12.25C3.59108 10.0501 3.59108 7.78527 3.60037 5.54827C3.60037 4.65718 4.43621 3.75681 5.32776 3.6547C5.79211 3.60829 6.25647 3.59901 6.6651 3.59901C8.75468 3.59901 10.835 3.59901 12.9246 3.59901C14.6148 3.59901 16.2958 3.59901 17.986 3.59901C18.7104 3.59901 19.2676 3.79394 19.6855 4.19307C20.1127 4.60149 20.317 5.01918 20.317 5.48329C20.3449 11.526 20.3635 17.578 20.3728 23.6207C20.3728 24.3632 20.1685 24.9202 19.7505 25.3286C19.2955 25.7741 18.7847 25.9969 18.2275 25.9969H14.7077C11.6522 25.9969 8.60609 25.9969 5.55065 25.9969C4.73339 25.9969 3.87898 25.2636 3.65609 24.3818C3.61895 24.2426 3.60037 24.0755 3.60037 23.8806C3.60037 21.4022 3.60037 18.9146 3.60037 16.427V14.7748C3.60037 13.9301 3.60037 13.0947 3.60037 12.25H3.59108Z" fill="#131416"/>
<path d="M7.26875 17.3459C7.35234 17.448 7.42663 17.5501 7.51022 17.6522C8.0953 18.4319 8.72682 19.2488 9.44192 20.1491L9.61837 20.3719C9.8877 20.7246 10.1663 21.0774 10.5006 21.3837C10.8907 21.7457 11.3829 21.9406 11.9216 21.9406C11.9494 21.9406 11.9866 21.9406 12.0144 21.9406C12.646 21.9127 13.2775 21.625 13.7047 21.1516C13.9368 20.901 14.1412 20.6225 14.3455 20.3533C14.4198 20.2605 14.4848 20.1677 14.5591 20.0749C15.1813 19.258 15.8128 18.4505 16.4351 17.6337L17.0573 16.8261C17.7724 15.8979 17.8188 14.6448 17.178 13.7166C16.8716 13.271 16.5279 12.8348 16.2029 12.4078L15.9057 12.0272C15.6828 11.7395 15.4599 11.461 15.237 11.1733C14.8284 10.6535 14.4105 10.1151 14.0111 9.57673C13.4168 8.76918 12.7574 8.42574 11.9494 8.48144C11.2065 8.48144 10.6399 8.69493 10.3056 9.10334C9.94342 9.5396 9.5998 9.99443 9.26547 10.4307C9.10759 10.6349 8.95899 10.8391 8.80112 11.034L8.1696 11.8509C7.75168 12.3892 7.33376 12.9276 6.91585 13.466C6.41435 14.125 6.2286 14.8861 6.3772 15.703C6.49793 16.3713 6.88798 16.8632 7.26875 17.3366V17.3459ZM12.6645 12.0829C12.7853 12.2407 12.8967 12.3892 13.0174 12.547C13.2217 12.8069 13.4261 13.0668 13.6304 13.3267C13.9926 13.7816 14.3455 14.2364 14.6984 14.7005C14.9522 15.0285 14.9522 15.3533 14.6984 15.6751L14.6705 15.7123C14.2155 16.2877 13.7697 16.8725 13.3146 17.4573C13.0453 17.81 12.7667 18.1627 12.4881 18.5248C12.3488 18.7011 12.2095 18.8682 12.0609 19.0538L11.968 19.1652L11.838 19.0074C11.6615 18.7847 11.4758 18.5712 11.3086 18.3484C10.9186 17.8472 10.5285 17.3366 10.1477 16.8354L9.42335 15.8979C9.37691 15.8329 9.32119 15.7679 9.26547 15.703C9.16331 15.5823 9.06115 15.4616 8.98686 15.3317C8.94971 15.2574 8.95899 15.0996 8.98686 15.0532C9.40477 14.4963 9.84126 13.9394 10.2685 13.3917C10.4635 13.1411 10.6678 12.8812 10.8628 12.6306C11.0021 12.4449 11.1414 12.2593 11.2808 12.0736C11.4944 11.7952 11.708 11.5074 11.9308 11.229C11.9401 11.2104 11.9494 11.2011 11.9587 11.2011C11.9773 11.2197 12.0051 11.2568 12.0237 11.2847C12.0423 11.3032 12.0516 11.3311 12.0702 11.3496C12.2652 11.591 12.4602 11.8509 12.6552 12.1015L12.6645 12.0829Z" fill="#131416"/>
</svg>
