<svg width="32" height="32" viewBox="0 0 32 32" fill="none" xmlns="http://www.w3.org/2000/svg">
<g clip-path="url(#clip0_121_277)">
<path d="M31.5875 14.8243C31.2175 14.5243 30.7975 14.3243 30.3775 14.1643C29.1175 13.6843 27.8175 13.4243 26.5075 13.2243C26.1475 13.1743 25.9675 13.0343 25.8675 12.6143C25.2075 9.79429 24.5075 6.99429 23.8375 4.17429C23.4075 2.39429 22.0175 1.58429 20.4975 2.24429C19.8975 2.50429 19.3075 2.77429 18.7175 3.06429C17.4275 3.68429 16.0975 3.72429 14.7375 3.52429C13.6375 3.36429 12.6775 2.74429 11.6575 2.30429C11.3275 2.16429 10.9875 2.02429 10.6375 2.00429C9.4575 1.93429 8.5375 2.72429 8.1775 4.17429C7.4875 6.95429 6.8175 9.73429 6.1575 12.5243C6.0475 12.9743 5.8675 13.1643 5.4475 13.2343C4.1375 13.4243 2.8375 13.7043 1.5775 14.1843C1.1375 14.3543 0.7075 14.5443 0.3375 14.8843C-0.1125 15.3043 -0.1125 15.7443 0.3375 16.1543C0.5475 16.3443 0.7875 16.4943 1.0475 16.6143C2.6275 17.3443 4.3075 17.6343 5.9775 17.8843C9.3075 18.3843 12.6575 18.5643 16.1475 18.5443C18.5275 18.5643 21.0375 18.4343 23.5375 18.1843C25.5475 17.9843 27.5475 17.7043 29.5175 17.1443C30.2475 16.9343 30.9675 16.7043 31.5975 16.2043C32.1375 15.7643 32.1375 15.2743 31.5975 14.8243H31.5875Z" fill="#131416"/>
<path d="M27.0175 19.9043C24.0575 20.3343 21.0775 20.5143 18.0975 20.5843C13.7875 20.6843 9.4775 20.4943 5.1875 19.9543C4.1875 19.8243 3.5675 20.6443 3.7775 21.8143C4.0375 23.2243 4.4475 24.5643 5.0175 25.8343C5.3275 26.5243 5.6875 27.1743 6.2675 27.5943C8.1075 28.9343 10.1175 29.6143 12.2575 29.8043C13.0275 29.8643 13.6875 29.5943 14.2575 28.9843C14.4775 28.7543 14.7275 28.5543 14.9575 28.3443C15.7075 27.6843 16.6475 27.6843 17.3875 28.3443C17.6775 28.5943 17.9575 28.8443 18.2275 29.1143C18.7175 29.6043 19.2775 29.8143 19.9075 29.7943C21.9575 29.7343 23.8575 29.0343 25.6475 27.8643C26.2675 27.4643 26.6975 26.8443 27.0275 26.1143C27.6675 24.7043 28.1275 23.2143 28.3975 21.6443C28.5675 20.6643 27.8475 19.7843 27.0075 19.9043H27.0175ZM13.0575 25.5943C12.6675 26.1143 12.1575 26.3243 11.5975 26.3743C10.6075 26.4743 9.6475 26.2943 8.7975 25.6343C8.3475 25.2843 8.0475 24.7943 8.0375 24.1043C8.0375 23.7243 8.1575 23.5043 8.4575 23.4043C8.9975 23.2043 9.5575 23.1843 10.0275 23.1943C10.9575 23.1943 11.7775 23.2643 12.5875 23.5243C13.5375 23.8343 13.7275 24.7143 13.0675 25.5943H13.0575ZM24.0975 24.3443C23.9875 24.8043 23.7475 25.1643 23.4375 25.4443C22.4375 26.3043 21.3375 26.6143 20.1275 26.2943C19.5775 26.1443 19.1275 25.7943 18.8675 25.1543C18.5675 24.3943 18.7175 23.9043 19.3775 23.6143C20.0175 23.3243 20.6975 23.2943 21.3775 23.2143C21.5975 23.1943 21.8175 23.2143 22.0375 23.2143C22.5975 23.1943 23.1575 23.1943 23.6975 23.4143C24.1275 23.5943 24.2175 23.8243 24.0875 24.3443H24.0975Z" fill="#131416"/>
</g>
<defs>
<clipPath id="clip0_121_277">
<rect width="32" height="32" fill="white"/>
</clipPath>
</defs>
</svg>
