<svg width="32" height="32" viewBox="0 0 32 32" fill="none" xmlns="http://www.w3.org/2000/svg">
<path d="M29.4308 2.60756C27.841 1 25.5846 1 21.4821 1H10.5385C6.44615 1 4.17949 1 2.58974 2.60756C1 4.21512 1 6.49682 1 10.6454V16.1733C1 20.3218 1 22.6035 2.58974 24.2111C3.98462 25.6216 5.98462 25.7876 8.82564 25.8187C8.96923 26.2024 9.17436 26.555 9.45128 26.8869C9.58462 27.0529 9.66667 27.2499 9.68718 27.4677C9.83077 29.2931 11.2462 30.7243 13.0513 30.8695C13.2667 30.8903 13.4615 30.9732 13.6256 31.1081C14.3128 31.6992 15.1641 32 16.0051 32C16.8462 32 17.6974 31.6992 18.3846 31.1081C18.5487 30.9732 18.7436 30.8903 18.959 30.8695C20.7641 30.7243 22.1795 29.2931 22.3231 27.4677C22.3436 27.2499 22.4256 27.0529 22.559 26.8869C22.8359 26.5654 23.041 26.2024 23.1846 25.8187H23.2872C25.9744 25.7876 27.9846 25.6631 29.4103 24.2111C31 22.6035 31 20.3218 31 16.1733V10.6454C31 6.50719 31 4.22549 29.4103 2.60756H29.4308ZM20.5487 25.1342C20.0462 25.7357 19.7487 26.4617 19.6872 27.2499C19.6462 27.7477 19.2564 28.1419 18.7641 28.1833C17.9846 28.2456 17.2667 28.5463 16.6718 29.0545C16.2923 29.376 15.7487 29.376 15.3692 29.0545C14.7744 28.5463 14.0564 28.2456 13.2769 28.1833C12.7846 28.1419 12.3949 27.7477 12.3538 27.2499C12.2923 26.4617 11.9949 25.7357 11.4923 25.1342C11.1744 24.7504 11.1744 24.2007 11.4923 23.817C11.9949 23.2155 12.2923 22.4895 12.3538 21.7012C12.3949 21.2034 12.7846 20.8093 13.2769 20.7678C14.0564 20.7056 14.7744 20.4048 15.3692 19.8966C15.7487 19.5647 16.2923 19.5751 16.6718 19.8966C17.2667 20.4048 17.9846 20.7056 18.7641 20.7678C19.2564 20.8093 19.6462 21.2034 19.6872 21.7012C19.7487 22.4895 20.0462 23.2155 20.5487 23.817C20.8667 24.2007 20.8667 24.7504 20.5487 25.1342ZM28.3641 16.1733C28.3641 19.8551 28.3333 21.5146 27.5538 22.3028C26.9692 22.8939 25.9333 23.091 23.2872 23.1221H23.1949C23.0513 22.7487 22.8462 22.3857 22.5795 22.0642C22.4462 21.8983 22.3641 21.7012 22.3436 21.4834C22.2 19.6581 20.7846 18.2268 18.9795 18.0816C18.7641 18.0609 18.5692 17.9779 18.4051 17.8431C17.0205 16.6504 15.0205 16.6504 13.6462 17.8431C13.4821 17.9779 13.2872 18.0609 13.0718 18.0816C11.2667 18.2268 9.85128 19.6581 9.70769 21.4834C9.68718 21.7012 9.60513 21.8983 9.4718 22.0642C9.20513 22.3857 9 22.7487 8.85641 23.1221C6.39487 23.1014 5.14359 22.9562 4.50769 22.3028C3.72821 21.5146 3.69744 19.8551 3.69744 16.1733V10.6454C3.69744 6.96353 3.72821 5.30412 4.50769 4.51589C5.28718 3.72767 6.92821 3.69655 10.5692 3.69655H21.5128C25.1538 3.69655 26.7949 3.72767 27.5744 4.51589C28.3538 5.30412 28.3846 6.96353 28.3846 10.6454V16.1733H28.3641Z" fill="#131416"/>
<path d="M11.9129 9.22448H20.118C20.8565 9.22448 21.4514 8.62294 21.4514 7.8762C21.4514 7.12946 20.8565 6.52792 20.118 6.52792H11.9129C11.1744 6.52792 10.5796 7.12946 10.5796 7.8762C10.5796 8.62294 11.1744 9.22448 11.9129 9.22448Z" fill="#131416"/>
<path d="M22.8563 11.3714H9.18455C8.44608 11.3714 7.85121 11.9729 7.85121 12.7196C7.85121 13.4664 8.44608 14.0679 9.18455 14.0679H22.8563C23.5948 14.0679 24.1897 13.4664 24.1897 12.7196C24.1897 11.9729 23.5948 11.3714 22.8563 11.3714Z" fill="#131416"/>
<path d="M17.2255 22.1783L15.1332 24.1489L14.805 23.8377C14.3127 23.371 13.5332 23.3918 13.0614 23.9C12.5999 24.3978 12.6204 25.186 13.123 25.6631L14.2922 26.7728C14.5281 27.001 14.8255 27.1047 15.1332 27.1047C15.4409 27.1047 15.7384 26.9906 15.9743 26.7728L18.9076 24.0037C19.3999 23.537 19.4307 22.7487 18.9691 22.2406C18.5076 21.7324 17.7281 21.7116 17.2255 22.1783Z" fill="#131416"/>
</svg>
