<svg width="32" height="32" viewBox="0 0 32 32" fill="none" xmlns="http://www.w3.org/2000/svg">
<path d="M23.5152 3.23617V2.54094C23.5152 1.6898 22.8316 1 21.9882 1C21.1448 1 20.4612 1.6898 20.4612 2.54094V3.23572H11.5388V2.54094C11.5388 1.6898 10.8552 1 10.0118 1C9.16839 1 8.48484 1.6898 8.48484 2.54094V3.23617C4.35529 3.25249 1 6.64798 1 10.8198L1 23.4163C1 27.5982 4.37146 31 8.51493 31H23.4851C27.629 31 31 27.5977 31 23.4163V10.8198C31 6.64844 27.6456 3.25294 23.5152 3.23617ZM8.48529 6.31804V7.0731C8.48529 7.92424 9.16883 8.61404 10.0123 8.61404C10.8557 8.61404 11.5392 7.92424 11.5392 7.0731V6.31759H20.4617V7.0731C20.4617 7.92424 21.1452 8.61404 21.9886 8.61404C22.8321 8.61404 23.5156 7.92424 23.5156 7.0731V6.31804C25.9619 6.33436 27.947 8.34754 27.947 10.8198V12.3005H4.05394V10.8198C4.05394 8.34754 6.039 6.33481 8.48529 6.31804ZM23.4855 27.9181H8.51493C6.05517 27.9181 4.05394 25.8986 4.05394 23.4163V15.3824H27.9465V23.4163C27.9465 25.8986 25.9453 27.9181 23.4855 27.9181Z" fill="#131416"/>
<path d="M23.4855 21.8754H21.9886C21.1452 21.8754 20.4617 22.5652 20.4617 23.4163C20.4617 24.2675 21.1452 24.9573 21.9886 24.9573H23.4855C24.3289 24.9573 25.0125 24.2675 25.0125 23.4163C25.0125 22.5652 24.3289 21.8754 23.4855 21.8754Z" fill="#131416"/>
</svg>
