<svg width="32" height="32" viewBox="0 0 32 32" fill="none" xmlns="http://www.w3.org/2000/svg">
<g clip-path="url(#clip0_416_5265)">
<path d="M16 32C13.5 32 11.1 31.44 8.88 30.33C8.66 30.22 8.43 30.19 8.23 30.24L4.99 31.11C3.82 31.42 2.61 31.1 1.76 30.24C0.91 29.38 0.58 28.18 0.89 27.01L1.76 23.77C1.81 23.58 1.78 23.35 1.67 23.12C0.56 20.9 0 18.5 0 16C0 7.18 7.18 0 16 0C24.82 0 32 7.18 32 16C32 24.82 24.82 32 16 32ZM8.42 27.31C9.01 27.31 9.62 27.45 10.17 27.73C11.99 28.64 13.95 29.1 16 29.1C23.22 29.1 29.09 23.23 29.09 16.01C29.09 8.79 23.22 2.91 16 2.91C8.78 2.91 2.91 8.78 2.91 16C2.91 18.05 3.37 20.01 4.28 21.83C4.71 22.69 4.81 23.65 4.58 24.53L3.71 27.77C3.65 27.98 3.76 28.12 3.82 28.19C3.89 28.26 4.03 28.36 4.24 28.3L7.48 27.43C7.79 27.35 8.1 27.31 8.42 27.31Z" fill="#131416"/>
<path d="M13.38 23.29C12.87 23.29 12.39 23.16 11.9 22.86C10.18 21.82 10.18 19.75 10.18 16C10.18 12.25 10.18 10.18 11.9 9.14C13.68 8.06 15.4 9.12 18.53 11.05C21.59 12.93 23.27 13.96 23.27 16C23.27 18.04 21.59 19.08 18.53 20.95C16.26 22.35 14.72 23.29 13.38 23.29ZM13.42 11.63C13.42 11.63 13.39 11.63 13.38 11.63C13.09 11.96 13.09 14.1 13.09 15.99C13.09 17.88 13.09 20.02 13.41 20.37C13.82 20.44 15.52 19.38 17.01 18.47C18.58 17.5 20.36 16.41 20.36 15.99C20.36 15.57 18.58 14.48 17.01 13.52C15.56 12.63 13.93 11.63 13.42 11.63Z" fill="#131416"/>
</g>
<defs>
<clipPath id="clip0_416_5265">
<rect width="32" height="32" fill="white"/>
</clipPath>
</defs>
</svg>
