<svg width="32" height="32" viewBox="0 0 32 32" fill="none" xmlns="http://www.w3.org/2000/svg">
<g clip-path="url(#clip0_1733_27885)">
<path d="M19.7286 11.6969L14.3931 17.0323L12.2707 14.9099C11.6683 14.3075 10.6919 14.3075 10.0895 14.9099C9.48711 15.5123 9.48711 16.4887 10.0895 17.0906L13.3025 20.3036C13.6037 20.6048 13.9984 20.7552 14.3931 20.7552C14.7878 20.7552 15.1825 20.6048 15.4837 20.3036L21.9093 13.8781C22.5117 13.2757 22.5117 12.2993 21.9093 11.6973C21.3069 11.0954 20.331 11.0944 19.7286 11.6969Z" fill="#131416"/>
<path d="M31.5594 14.9205L29.1613 12.4732L30.0143 9.15469C30.2235 8.34168 29.7435 7.51084 28.9353 7.28529L25.6351 6.36481L24.7146 3.06457C24.489 2.2559 23.6582 1.77638 22.8452 1.98505L19.5266 2.83806L17.0794 0.439992C16.4799 -0.147478 15.5204 -0.147478 14.9208 0.439992L12.4736 2.83806L9.15506 1.98505C8.34205 1.77638 7.51121 2.2559 7.28567 3.06457L6.36518 6.36481L3.06494 7.28529C2.25627 7.51084 1.77675 8.34168 1.98591 9.15469L2.83892 12.4732L0.440847 14.9205C-0.146623 15.52 -0.146623 16.4795 0.440847 17.079L2.83892 19.5263L1.98591 22.8448C1.77675 23.6578 2.25675 24.4887 3.06542 24.7142L6.36566 25.6347L7.28615 28.9349C7.51169 29.7436 8.34253 30.2231 9.15554 30.014L12.4741 29.161L14.9213 31.559C15.2211 31.853 15.611 31.9995 16.0008 31.9995C16.3907 31.9995 16.7801 31.8525 17.0804 31.559L19.5276 29.161L22.8461 30.014C23.6592 30.2231 24.49 29.7431 24.7155 28.9345L25.636 25.6342L28.9363 24.7137C29.7449 24.4882 30.2245 23.6573 30.0158 22.8443L29.1628 19.5263L31.5608 17.079C32.1483 16.4795 32.1483 15.52 31.5608 14.9205H31.5594ZM25.958 19.452L26.651 22.1489L23.9686 22.8969C23.4486 23.0419 23.0423 23.4482 22.8972 23.9682L22.1493 26.6506L19.4524 25.9571C18.9295 25.8226 18.3748 25.9716 17.9893 26.3494L16.0004 28.2983L14.0114 26.3494C13.7194 26.0636 13.3305 25.9089 12.9319 25.9089C12.8042 25.9089 12.6751 25.9248 12.5483 25.9576L9.85145 26.6511L9.1035 23.9687C8.95844 23.4487 8.55217 23.0424 8.03217 22.8973L5.34976 22.1494L6.04277 19.4525C6.17723 18.9296 6.02832 18.3749 5.65097 17.9894L3.70205 16.0005L5.65097 14.0116C6.0288 13.626 6.17723 13.0713 6.04277 12.5484L5.34976 9.85156L8.03217 9.10361C8.55217 8.95855 8.95844 8.55228 9.1035 8.03228L9.85145 5.34987L12.5483 6.04288C13.0712 6.17734 13.6259 6.02843 14.0114 5.65059L16.0004 3.70168L17.9893 5.65059C18.3748 6.02843 18.9295 6.17686 19.4524 6.04288L22.1493 5.34987L22.8972 8.03228C23.0423 8.55228 23.4486 8.95855 23.9686 9.10361L26.651 9.85204L25.958 12.5489C25.8235 13.0718 25.9724 13.6265 26.3502 14.012L28.2992 16.001L26.3502 17.9904C25.9724 18.3759 25.824 18.9306 25.9584 19.4535L25.958 19.452Z" fill="#131416"/>
</g>
<defs>
<clipPath id="clip0_1733_27885">
<rect width="32" height="32" fill="white"/>
</clipPath>
</defs>
</svg>
