<svg width="32" height="32" viewBox="0 0 32 32" fill="none" xmlns="http://www.w3.org/2000/svg">
<path d="M21.4248 25.945C21.8125 26.8692 22.1611 27.73 22.5327 28.5805C23.0921 29.8606 22.1154 30.9874 20.939 30.9889C17.6706 30.9911 14.4029 30.9727 11.1344 30.9999C10.2514 31.0073 9.57321 30.4487 9.37787 29.7117C9.27688 29.3292 9.32406 28.974 9.48328 28.6077C9.85847 27.7469 10.2042 26.8744 10.603 25.9082C10.1769 25.9561 9.87617 26.0143 9.57394 26.0195C8.00902 26.0497 6.53845 25.6672 5.19098 24.8868C3.65038 23.995 2.49014 22.7333 1.7567 21.1009C1.35054 20.1974 1.12203 19.2548 1.03431 18.2592C0.892783 16.6459 1.18985 15.1256 1.91149 13.7017C2.58891 12.3656 3.54055 11.2255 4.71553 10.2881C6.05932 9.21507 7.41711 8.15899 8.76605 7.09259C9.90565 6.19128 11.0873 5.33639 12.1649 4.36654C13.0053 3.6104 13.7549 2.74151 14.4736 1.86452C15.1673 1.017 15.9921 0.739902 16.8715 1.27052C17.2423 1.49382 17.5062 1.89474 17.818 2.21532C18.589 3.00977 19.2996 3.87719 20.1436 4.58394C21.7992 5.96945 23.5329 7.26062 25.2269 8.60117C26.0775 9.27476 26.951 9.92772 27.7427 10.6654C29.3201 12.1357 30.5644 13.8455 30.8814 16.0387C31.2485 18.5739 30.7937 20.9226 29.0946 22.9552C27.8031 24.4998 26.1697 25.4505 24.2258 25.847C23.4349 26.0084 22.6115 26.1499 21.7896 25.9465C21.7174 25.9288 21.6363 25.9443 21.4248 25.9443V25.945ZM18.5455 27.6504C18.5389 27.5995 18.5404 27.5605 18.5293 27.5258C18.0185 25.9192 17.6625 24.2869 17.6875 22.5881C17.6971 21.9536 17.9853 21.4761 18.5264 21.2004C19.0704 20.9233 19.6719 20.9086 20.1974 21.2476C20.5115 21.4503 20.7311 21.7922 21.026 22.0325C21.7506 22.6228 22.5703 22.7761 23.4946 22.5955C24.573 22.3847 25.5092 21.9072 26.2574 21.137C27.0387 20.333 27.5098 19.3617 27.6373 18.2032C27.7456 17.2171 27.5989 16.3025 27.2024 15.4255C26.6503 14.2051 25.7296 13.2721 24.6983 12.4518C23.6037 11.5815 22.4781 10.7509 21.3709 9.89603C20.4149 9.15758 19.4389 8.44272 18.5227 7.65711C17.7369 6.98352 17.0182 6.23034 16.2811 5.50073C16.0843 5.30617 15.9634 5.29143 15.7467 5.49631C14.8009 6.39173 13.8699 7.30852 12.8645 8.13393C11.6681 9.11631 10.401 10.0132 9.16484 10.9477C7.90435 11.9006 6.66155 12.8712 5.65611 14.1093C4.51208 15.5169 4.05359 17.0911 4.48923 18.8738C4.7229 19.8311 5.22046 20.6624 5.93916 21.3331C6.70946 22.0524 7.65077 22.4533 8.68275 22.6604C9.59385 22.8431 10.8226 22.3693 11.3666 21.6227C11.7315 21.1216 12.2645 20.9528 12.8571 21.0317C13.4947 21.1164 14.0741 21.4193 14.2223 22.0612C14.3505 22.6176 14.2989 23.2308 14.2407 23.81C14.1655 24.5625 14.0218 25.3098 13.8751 26.0526C13.7697 26.5869 13.6112 27.1102 13.4726 27.6511H18.5463L18.5455 27.6504Z" fill="#131416"/>
</svg>
