<svg width="32" height="32" viewBox="0 0 32 32" fill="none" xmlns="http://www.w3.org/2000/svg">
<path d="M21.5858 10.4142C20.9701 9.79851 19.9851 9.79851 19.3694 10.4142L16 13.7836L12.6306 10.4142C12.0149 9.79851 11.0299 9.79851 10.4142 10.4142C9.79851 11.0299 9.79851 12.0149 10.4142 12.6306L13.7836 16L10.4142 19.3694C9.79851 19.9851 9.79851 20.9701 10.4142 21.5858C10.7164 21.8881 11.1194 22.0448 11.5224 22.0448C11.9254 22.0448 12.3284 21.8881 12.6306 21.5858L16 18.2164L19.3694 21.5858C19.6716 21.8881 20.0746 22.0448 20.4776 22.0448C20.8806 22.0448 21.2836 21.8881 21.5858 21.5858C22.2015 20.9701 22.2015 19.9851 21.5858 19.3694L18.2164 16L21.5858 12.6306C22.2015 12.0149 22.2015 11.0299 21.5858 10.4142Z" fill="#131416"/>
<path d="M16 1C4.08955 1 1 4.08955 1 16C1 27.9104 4.08955 31 16 31C27.9104 31 31 27.9104 31 16C31 4.08955 27.9104 1 16 1ZM16 27.8657C5.80224 27.8657 4.13433 26.1978 4.13433 16C4.13433 5.80224 5.80224 4.13433 16 4.13433C26.1978 4.13433 27.8657 5.80224 27.8657 16C27.8657 26.1978 26.1978 27.8657 16 27.8657Z" fill="#131416"/>
</svg>
