<svg width="32" height="32" viewBox="0 0 32 32" fill="none" xmlns="http://www.w3.org/2000/svg">
<g clip-path="url(#clip0_50_402)">
<path d="M19.0759 7.67777C18.4135 7.01537 17.5774 6.56827 16.6586 6.38555C15.7399 6.20284 14.7965 6.29585 13.9307 6.65419C13.0648 7.01301 12.332 7.61403 11.8122 8.39305C11.2915 9.17206 11.0162 10.079 11.0162 11.0162C11.0162 11.8854 11.7206 12.5898 12.5898 12.5898C13.459 12.5898 14.1634 11.8854 14.1634 11.0162C14.1634 10.7041 14.255 10.4015 14.4288 10.1418C14.602 9.88214 14.8461 9.68196 15.1351 9.56251C15.4235 9.44306 15.738 9.4119 16.0444 9.47281C16.3508 9.53371 16.6293 9.6829 16.8503 9.90339C17.0713 10.1239 17.22 10.4029 17.2809 10.7088C17.3418 11.0153 17.3106 11.3297 17.1917 11.6182C17.0722 11.9066 16.8716 12.1507 16.6119 12.3245C16.3522 12.4977 16.05 12.5898 15.7375 12.5898C14.8683 12.5898 14.1639 13.2942 14.1639 14.1634V15.737C14.1639 16.6062 14.8683 17.3106 15.7375 17.3106C16.6067 17.3106 17.3111 16.6062 17.3111 15.737V15.4679C17.6789 15.3376 18.0311 15.1615 18.3602 14.9415C19.1392 14.4212 19.7407 13.6885 20.0995 12.8221C20.4578 11.9567 20.5509 11.0134 20.3681 10.0946C20.1854 9.17584 19.7383 8.34017 19.0759 7.67777Z" fill="#131416"/>
<path d="M23.6065 0H7.86898C3.53011 0 0 3.53011 0 7.86898V20.4593C0 24.7981 3.53011 28.3282 7.86898 28.3282H11.41L13.2196 30.7413C13.8197 31.5416 14.7375 32.0005 15.7375 32.0005C16.7375 32.0005 17.6553 31.5416 18.2554 30.7413L20.065 28.3282H23.606C27.9449 28.3282 31.475 24.7981 31.475 20.4593V7.86898C31.4755 3.53011 27.9454 0 23.6065 0ZM28.3278 20.4588C28.3278 23.0621 26.2098 25.1801 23.6065 25.1801H19.2785C18.7832 25.1801 18.3167 25.4133 18.0193 25.8094L15.737 28.8518L13.4552 25.8094C13.1578 25.4133 12.6913 25.1801 12.1961 25.1801H7.86804C5.26472 25.1801 3.14674 23.0621 3.14674 20.4588V7.86898C3.14674 5.26566 5.26472 3.14769 7.86804 3.14769H23.6055C26.2089 3.14769 28.3268 5.26566 28.3268 7.86898V20.4593L28.3278 20.4588Z" fill="#131416"/>
<path d="M16.0983 21.9914C16.9442 21.7918 17.468 20.9443 17.2684 20.0984C17.0688 19.2526 16.2212 18.7287 15.3754 18.9284C14.5296 19.128 14.0057 19.9755 14.2053 20.8214C14.405 21.6672 15.2525 22.191 16.0983 21.9914Z" fill="#131416"/>
</g>
<defs>
<clipPath id="clip0_50_402">
<rect width="32" height="32" fill="white"/>
</clipPath>
</defs>
</svg>
