<svg width="32" height="32" viewBox="0 0 32 32" fill="none" xmlns="http://www.w3.org/2000/svg">
<g clip-path="url(#clip0_642_12155)">
<path fill-rule="evenodd" clip-rule="evenodd" d="M19.9541 0.048094C21.5678 0.442272 23.0829 1.08281 24.4748 1.92044C25.0538 2.26535 25.3617 2.93052 25.2509 3.5957C25.0661 4.72896 25.3494 5.59123 25.8791 6.1209C26.4088 6.65058 27.271 6.9339 28.4043 6.74913C29.0695 6.63826 29.7347 6.94622 30.0796 7.52517C30.9172 8.90479 31.5577 10.4322 31.9519 12.0459C32.112 12.6988 31.8657 13.3886 31.3114 13.7704C30.3752 14.4356 29.9687 15.2486 29.9687 16C29.9687 16.7514 30.3875 17.5644 31.3114 18.2296C31.8534 18.6238 32.112 19.3012 31.9519 19.9541C31.5577 21.5678 30.9172 23.0829 30.0796 24.4748C29.7347 25.0538 29.0695 25.3617 28.4043 25.2509C27.271 25.0661 26.4088 25.3494 25.8791 25.8791C25.3494 26.4088 25.0661 27.271 25.2509 28.4043C25.3617 29.0695 25.0538 29.7347 24.4748 30.0796C23.0952 30.9172 21.5678 31.5577 19.9541 31.9519C19.3012 32.112 18.6114 31.8657 18.2296 31.3114C17.5644 30.3752 16.7514 29.9687 16 29.9687C15.2486 29.9687 14.4356 30.3875 13.7704 31.3114C13.3762 31.8534 12.6988 32.112 12.0459 31.9519C10.4322 31.5577 8.91711 30.9172 7.52516 30.0796C6.94622 29.7347 6.63826 29.0695 6.74913 28.4043C6.9339 27.271 6.65058 26.4088 6.1209 25.8791C5.59123 25.3494 4.72896 25.0661 3.5957 25.2509C2.93052 25.3617 2.26535 25.0538 1.92044 24.4748C1.08281 23.0952 0.442272 21.5678 0.048094 19.9541C-0.112041 19.3012 0.13432 18.6114 0.688634 18.2296C1.62481 17.5644 2.0313 16.7514 2.0313 16C2.0313 15.2486 1.61249 14.4356 0.688634 13.7704C0.146639 13.3763 -0.112041 12.6988 0.048094 12.0459C0.442272 10.4322 1.08281 8.91711 1.92044 7.52517C2.26535 6.94622 2.93052 6.63826 3.5957 6.74913C4.72896 6.9339 5.59123 6.65058 6.1209 6.1209C6.65058 5.59123 6.9339 4.72896 6.74913 3.5957C6.63826 2.93052 6.94622 2.26535 7.52516 1.92044C8.90479 1.08281 10.4322 0.442272 12.0459 0.048094C12.6988 -0.112041 13.3886 0.13432 13.7704 0.688634C14.4356 1.62481 15.2486 2.0313 16 2.0313C16.7514 2.0313 17.5644 1.61249 18.2296 0.688634C18.6237 0.146639 19.3012 -0.112041 19.9541 0.048094ZM20.1266 3.50947C19.0426 4.59346 17.626 5.30791 16 5.30791C14.374 5.30791 12.9574 4.58115 11.8734 3.50947C11.2575 3.70656 10.6663 3.96524 10.0873 4.24856C10.0873 5.776 9.5946 7.29112 8.44902 8.4367C7.29112 9.5946 5.78832 10.075 4.26087 10.075C3.97756 10.6416 3.7312 11.2452 3.52179 11.8611C4.60578 12.9451 5.32023 14.3617 5.32023 15.9877C5.32023 17.6137 4.59346 19.0302 3.52179 20.1142C3.71888 20.7301 3.97756 21.3214 4.26087 21.9004C5.78832 21.9004 7.30344 22.3931 8.44902 23.5387C9.60692 24.6966 10.0873 26.1994 10.0873 27.7268C10.654 28.0101 11.2575 28.2565 11.8734 28.4659C12.9574 27.3819 14.374 26.6675 16 26.6675C17.626 26.6675 19.0426 27.3942 20.1266 28.4659C20.7425 28.2688 21.3337 28.0101 21.9127 27.7268C21.9127 26.1994 22.4054 24.6842 23.551 23.5387C24.6966 22.3931 26.2117 21.9004 27.7391 21.9004C28.0224 21.3337 28.2688 20.7301 28.4782 20.1142C27.3942 19.0302 26.6798 17.6137 26.6798 15.9877C26.6798 14.3617 27.4065 12.9451 28.4782 11.8611C28.2811 11.2452 28.0224 10.654 27.7391 10.075C26.2117 10.075 24.6966 9.58228 23.551 8.4367C22.4054 7.29112 21.9127 5.776 21.9127 4.24856C21.346 3.96524 20.7425 3.71888 20.1266 3.50947ZM16 9.42215C19.6338 9.42215 22.5655 12.3662 22.5655 15.9877C22.5655 19.6092 19.6215 22.5532 16 22.5532C12.3785 22.5532 9.43447 19.6092 9.43447 15.9877C9.43447 12.3662 12.3785 9.42215 16 9.42215ZM16 12.7111C14.1892 12.7111 12.7111 14.1769 12.7111 16C12.7111 17.8231 14.1769 19.2889 16 19.2889C17.8231 19.2889 19.2889 17.8231 19.2889 16C19.2889 14.1769 17.8231 12.7111 16 12.7111Z" fill="#131416"/>
</g>
<defs>
<clipPath id="clip0_642_12155">
<rect width="32" height="32" fill="white"/>
</clipPath>
</defs>
</svg>
