<svg width="32" height="32" viewBox="0 0 32 32" fill="none" xmlns="http://www.w3.org/2000/svg">
<path d="M15.254 32H13.752C12.2198 32 10.8992 31.08 10.3347 29.76H8.48992C6.02016 29.76 4.01411 27.77 4.01411 25.32L3.97379 25.28C2.34073 25.28 1 23.96 1 22.33V14.87C1 6.68 7.73387 0 16 0C23.7722 0 30.1935 5.9 30.9294 13.43H31V22.34C31 23.96 29.6694 25.29 28.0262 25.29H26.5242C24.0544 25.29 22.0484 23.3 22.0484 20.85V17.87C22.0484 15.42 24.0544 13.43 26.5242 13.43H27.9758C27.25 7.51 22.1492 2.91 16 2.91C9.85081 2.91 4.75 7.51 4.02419 13.43H5.47581C7.94556 13.43 9.95161 15.42 9.95161 17.87V20.85C9.95161 22.79 8.69153 24.44 6.94758 25.04V25.32C6.94758 26.16 7.64315 26.85 8.48992 26.85H10.3347C10.9093 25.54 12.2198 24.61 13.752 24.61H15.254C17.3105 24.61 18.9738 26.27 18.9738 28.3C18.9738 30.33 17.3004 31.99 15.254 31.99V32ZM13.752 27.52C13.3185 27.52 12.9657 27.87 12.9657 28.3C12.9657 28.73 13.3185 29.08 13.752 29.08H15.254C15.6875 29.08 16.0403 28.73 16.0403 28.3C16.0403 27.87 15.6875 27.52 15.254 27.52H13.752ZM26.5343 16.33C25.6875 16.33 24.9919 17.02 24.9919 17.86V20.84C24.9919 21.68 25.6875 22.37 26.5343 22.37H28.0363L28.0665 16.33H26.5343ZM5.47581 22.37C6.32258 22.37 7.01815 21.68 7.01815 20.84V17.86C7.01815 17.02 6.32258 16.33 5.47581 16.33H3.93347V22.33L5.47581 22.37Z" fill="#131416"/>
</svg>
