<svg width="32" height="32" viewBox="0 0 32 32" fill="none" xmlns="http://www.w3.org/2000/svg">
<path fill-rule="evenodd" clip-rule="evenodd" d="M14.6667 5.5C9.60406 5.5 5.5 9.60406 5.5 14.6667C5.5 19.7293 9.60406 23.8333 14.6667 23.8333C19.7293 23.8333 23.8333 19.7293 23.8333 14.6667C23.8333 9.60406 19.7293 5.5 14.6667 5.5ZM2.5 14.6667C2.5 7.9472 7.9472 2.5 14.6667 2.5C21.3861 2.5 26.8333 7.9472 26.8333 14.6667C26.8333 21.3861 21.3861 26.8333 14.6667 26.8333C7.9472 26.8333 2.5 21.3861 2.5 14.6667Z" fill="#131416"/>
<path fill-rule="evenodd" clip-rule="evenodd" d="M21.1393 21.1393C21.7251 20.5536 22.6749 20.5536 23.2607 21.1393L29.0607 26.9393C29.6464 27.5251 29.6464 28.4749 29.0607 29.0607C28.4749 29.6464 27.5251 29.6464 26.9393 29.0607L21.1393 23.2607C20.5536 22.6749 20.5536 21.7251 21.1393 21.1393Z" fill="#131416"/>
</svg>
