<svg width="32" height="32" viewBox="0 0 32 32" fill="none" xmlns="http://www.w3.org/2000/svg">
<g clip-path="url(#clip0_1640_20152)">
<path d="M31.5099 24.09L20.0599 3.28C19.2799 1.87 17.7299 1 15.9999 1C14.2699 1 12.7199 1.88 11.9399 3.28L0.489888 24.09C-0.180112 25.31 -0.160112 26.75 0.549888 27.95C1.33989 29.29 2.87989 30.13 4.54989 30.13H27.4599C29.1299 30.13 30.6599 29.29 31.4599 27.95C32.1699 26.75 32.1899 25.31 31.5199 24.09H31.5099ZM28.6599 26.3C28.4899 26.59 28.0799 26.89 27.4499 26.89H4.54989C3.90989 26.89 3.50989 26.59 3.33989 26.3C3.14989 25.98 3.28989 25.73 3.32989 25.65L14.7799 4.84C15.0299 4.39 15.5699 4.23 15.9999 4.23C16.4299 4.23 16.9799 4.39 17.2199 4.84L28.6699 25.65C28.7099 25.73 28.8499 25.98 28.6599 26.3Z" fill="#131416"/>
<path d="M15.9999 10.49C15.1099 10.49 14.3799 11.21 14.3799 12.11V17.86C14.3799 18.75 15.0999 19.48 15.9999 19.48C16.8999 19.48 17.6199 18.76 17.6199 17.86V12.11C17.6199 11.22 16.8999 10.49 15.9999 10.49Z" fill="#131416"/>
<path d="M15.9999 21.48C15.1099 21.48 14.3799 22.2 14.3799 23.1V23.13C14.3799 24.02 15.0999 24.75 15.9999 24.75C16.8999 24.75 17.6199 24.03 17.6199 23.13V23.1C17.6199 22.21 16.8999 21.48 15.9999 21.48Z" fill="#131416"/>
</g>
<defs>
<clipPath id="clip0_1640_20152">
<rect width="32" height="32" fill="white"/>
</clipPath>
</defs>
</svg>
