<svg width="32" height="32" viewBox="0 0 32 32" fill="none" xmlns="http://www.w3.org/2000/svg">
<g clip-path="url(#clip0_1655_23038)">
<path d="M16 0C7.18 0 0 7.18 0 16C0 18.5 0.56 20.9 1.67 23.12C1.78 23.35 1.81 23.58 1.76 23.77L0.89 27.01C0.58 28.18 0.91 29.38 1.76 30.24C2.61 31.1 3.82 31.42 4.99 31.11L8.23 30.24C8.43 30.19 8.66 30.22 8.88 30.33C11.1 31.44 13.5 32 16 32C24.82 32 32 24.82 32 16C32 7.18 24.82 0 16 0ZM16 29.1C13.95 29.1 11.99 28.64 10.17 27.73C9.62 27.45 9.01 27.31 8.42 27.31C8.1 27.31 7.79 27.35 7.48 27.43L4.24 28.3C4.03 28.36 3.89 28.26 3.82 28.19C3.76 28.12 3.65 27.98 3.71 27.77L4.58 24.53C4.81 23.65 4.71 22.69 4.28 21.83C3.37 20.01 2.91 18.05 2.91 16C2.91 8.78 8.78 2.91 16 2.91C23.22 2.91 29.09 8.79 29.09 16.01C29.09 23.23 23.22 29.1 16 29.1Z" fill="#131416"/>
<path d="M24.25 10.77C23.81 10.5 23.25 10.47 22.79 10.7L20.1 12.05C19.75 10.73 18.56 9.76 17.13 9.76H10.12C8.42 9.76 7.04 11.14 7.04 12.84V19.17C7.04 20.87 8.42 22.25 10.12 22.25H17.13C18.56 22.25 19.75 21.27 20.1 19.96L22.79 21.31C23 21.42 23.23 21.47 23.46 21.47C23.73 21.47 24.01 21.39 24.25 21.25C24.69 20.98 24.96 20.49 24.96 19.97V12.06C24.96 11.54 24.69 11.06 24.25 10.78V10.77ZM17.21 19.17C17.21 19.17 17.17 19.25 17.13 19.25H10.12C10.12 19.25 10.04 19.21 10.04 19.17V12.84C10.04 12.84 10.08 12.76 10.12 12.76H17.13C17.13 12.76 17.21 12.8 17.21 12.84V19.17ZM21.96 17.53L20.21 16.66V15.35L21.96 14.48V17.54V17.53Z" fill="#131416"/>
</g>
<defs>
<clipPath id="clip0_1655_23038">
<rect width="32" height="32" fill="white"/>
</clipPath>
</defs>
</svg>
