<svg width="32" height="32" viewBox="0 0 32 32" fill="none" xmlns="http://www.w3.org/2000/svg">
<path fill-rule="evenodd" clip-rule="evenodd" d="M16 3C17.0096 3 17.8281 3.81848 17.8281 4.82813V14.1719H27.1719C28.1815 14.1719 29 14.9904 29 16C29 17.0096 28.1815 17.8281 27.1719 17.8281H17.8281V27.1719C17.8281 28.1815 17.0096 29 16 29C14.9904 29 14.1719 28.1815 14.1719 27.1719V17.8281H4.82813C3.81848 17.8281 3 17.0096 3 16C3 14.9904 3.81848 14.1719 4.82813 14.1719H14.1719V4.82813C14.1719 3.81848 14.9904 3 16 3Z" fill="#131416"/>
</svg>
