<svg width="33" height="32" viewBox="0 0 33 32" fill="none" xmlns="http://www.w3.org/2000/svg">
<path d="M17 32C16.1145 32 15.402 31.2875 15.402 30.402V28.8041C15.402 27.9186 16.1145 27.2061 17 27.2061C17.8855 27.2061 18.598 27.9186 18.598 28.8041V30.402C18.598 31.2875 17.8855 32 17 32ZM27.402 28C26.9949 28 26.5878 27.8473 26.2723 27.5318L24.9695 26.2392C24.3384 25.6183 24.3384 24.6005 24.9695 23.9796C25.5903 23.3486 26.6081 23.3486 27.229 23.9796L28.5318 25.2723C29.1628 25.8931 29.1628 26.9109 28.5318 27.5318C28.2163 27.8473 27.8092 28 27.402 28ZM6.59796 28C6.19084 28 5.77354 27.8473 5.46819 27.5318C4.84733 26.9008 4.84733 25.8931 5.46819 25.2723L6.77099 23.9796C7.40204 23.3588 8.40967 23.3588 9.03053 23.9796C9.6514 24.6107 9.6514 25.6183 9.03053 26.2392L7.72774 27.5318C7.41221 27.8473 7.00509 28 6.59796 28ZM17 24C12.5929 24 9 20.4071 9 16C9 11.5929 12.5929 8 17 8C21.4071 8 25 11.5929 25 16C25 20.4071 21.4071 24 17 24ZM17 11.1959C14.3537 11.1959 12.1959 13.3537 12.1959 16C12.1959 18.6463 14.3537 20.8041 17 20.8041C19.6463 20.8041 21.8041 18.6463 21.8041 16C21.8041 13.3537 19.6463 11.1959 17 11.1959ZM31.402 17.598H29.8041C28.9186 17.598 28.2061 16.8855 28.2061 16C28.2061 15.1145 28.9186 14.402 29.8041 14.402H31.402C32.2875 14.402 33 15.1145 33 16C33 16.8855 32.2875 17.598 31.402 17.598ZM4.19593 17.598H2.59796C1.71247 17.598 1 16.8855 1 16C1 15.1145 1.71247 14.402 2.59796 14.402H4.19593C5.08142 14.402 5.79389 15.1145 5.79389 16C5.79389 16.8855 5.08142 17.598 4.19593 17.598ZM26.0992 8.49873C25.6921 8.49873 25.285 8.34606 24.9695 8.03053C24.3486 7.40967 24.3486 6.39186 24.9695 5.77099L26.2723 4.46819C26.8931 3.84733 27.9109 3.84733 28.5318 4.46819C29.1527 5.08906 29.1527 6.10687 28.5318 6.72774L27.229 8.03053C26.9135 8.34606 26.5064 8.49873 26.0992 8.49873ZM7.90076 8.49873C7.49364 8.49873 7.08651 8.34606 6.77099 8.03053L5.46819 6.72774C4.84733 6.10687 4.84733 5.08906 5.46819 4.46819C6.08906 3.84733 7.10687 3.84733 7.72774 4.46819L9.03053 5.77099C9.6514 6.39186 9.6514 7.40967 9.03053 8.03053C8.71501 8.34606 8.30789 8.49873 7.90076 8.49873ZM17 4.79389C16.1145 4.79389 15.402 4.08142 15.402 3.19593V1.59796C15.402 0.712468 16.1145 0 17 0C17.8855 0 18.598 0.712468 18.598 1.59796V3.19593C18.598 4.08142 17.8855 4.79389 17 4.79389Z" fill="#131416"/>
</svg>
