<svg width="32" height="32" viewBox="0 0 32 32" fill="none" xmlns="http://www.w3.org/2000/svg">
<path d="M26.0286 22.7273H21.0145C20.1145 22.7273 19.385 23.4569 19.385 24.3569C19.385 25.2569 20.1145 25.9865 21.0145 25.9865H22.1738C20.3366 27.1216 18.2022 27.7414 16.0005 27.7414C12.8642 27.7414 9.91596 26.52 7.69826 24.3022C5.48055 22.0845 4.25913 19.1363 4.25913 16C4.25913 15.5086 4.28971 15.0142 4.34988 14.5304C4.46119 13.6374 3.82742 12.8231 2.93442 12.7118C2.04091 12.6 1.22714 13.2343 1.11582 14.1273C1.03861 14.7445 1 15.3742 1 16C1 20.0067 2.56037 23.7738 5.3933 26.6067C8.22623 29.4401 11.9933 31 16 31C19.02 31 21.9406 30.0879 24.3985 28.4273V29.3704C24.3985 30.2705 25.1281 31 26.0281 31C26.9281 31 27.6576 30.2705 27.6576 29.3704V24.3564C27.6576 23.4564 26.9286 22.7273 26.0286 22.7273Z" fill="#131416"/>
<path d="M26.6072 5.3933C23.7738 2.56037 20.0072 1 16.0005 1C12.8221 1 9.7856 1.99278 7.26755 3.79984V2.62956C7.26705 1.72954 6.5375 1 5.63748 1C4.73746 1 4.00792 1.72954 4.00792 2.62956V7.5368C4.00792 7.54533 4.00792 7.55385 4.00792 7.56187V7.6431C4.00792 8.54312 4.73746 9.27266 5.63748 9.27266H10.6515C11.5515 9.27266 12.2811 8.54312 12.2811 7.6431C12.2811 6.74308 11.5515 6.01354 10.6515 6.01354H9.81869C11.6518 4.87685 13.7818 4.25862 16 4.25862C19.1363 4.25862 22.0845 5.48004 24.3022 7.69775C26.52 9.91546 27.7409 12.8637 27.7409 16C27.7409 16.4919 27.7103 16.9863 27.6501 17.4696C27.5388 18.3626 28.1721 19.1769 29.0651 19.2887C29.1338 19.2972 29.2015 19.3012 29.2692 19.3012C30.0789 19.3012 30.7809 18.6981 30.8842 17.8732C30.9614 17.2565 31 16.6263 31 16C31 11.9933 29.4401 8.22623 26.6072 5.3933Z" fill="#131416"/>
</svg>
