<svg width="32" height="32" viewBox="0 0 32 32" fill="none" xmlns="http://www.w3.org/2000/svg">
<path fill-rule="evenodd" clip-rule="evenodd" d="M14.9883 17.5028C18.71 17.5028 22.105 18.5385 24.6017 20.0131C25.85 20.7448 26.9117 21.6116 27.6817 22.546C28.44 23.469 29 24.5722 29 25.7542C29 27.0263 28.3583 28.0169 27.4367 28.7373C26.5617 29.4128 25.4183 29.863 24.1933 30.167C21.7433 30.7974 18.465 31 15 31C11.535 31 8.25667 30.7861 5.80667 30.167C4.58167 29.8518 3.43833 29.4128 2.56333 28.7373C1.64167 28.0281 1 27.0263 1 25.7542C1 24.5722 1.56 23.469 2.31833 22.546C3.08833 21.6116 4.15 20.7448 5.39833 20.0131C7.895 18.5497 11.2783 17.5028 15.0117 17.5028H14.9883ZM14.9883 20.5084C11.8383 20.5084 9.015 21.3977 6.99667 22.5797C5.99333 23.1764 5.235 23.818 4.745 24.4146C4.24333 25.0338 4.10333 25.4953 4.10333 25.7655C4.10333 25.9456 4.16167 26.137 4.5 26.4071C4.885 26.7111 5.56167 27.015 6.58833 27.2852C8.64167 27.8143 11.5817 28.0281 14.9883 28.0281C18.395 28.0281 21.335 27.8143 23.3883 27.2852C24.415 27.0263 25.0917 26.7111 25.4767 26.4071C25.815 26.1482 25.8733 25.9456 25.8733 25.7655C25.8733 25.4953 25.7333 25.0338 25.2317 24.4146C24.7417 23.818 23.9833 23.1764 22.98 22.5797C20.9733 21.3977 18.1383 20.5084 14.9883 20.5084ZM14.9883 1C19.2817 1 22.77 4.3546 22.77 8.50844C22.77 12.6623 19.2933 16.0169 14.9883 16.0169C10.6833 16.0169 7.20667 12.6623 7.20667 8.50844C7.20667 4.3546 10.6833 1 14.9883 1ZM14.9883 4.00563C12.41 4.00563 10.3217 6.02064 10.3217 8.50844C10.3217 10.9962 12.41 13.0113 14.9883 13.0113C17.5667 13.0113 19.655 10.9962 19.655 8.50844C19.655 6.02064 17.5667 4.00563 14.9883 4.00563Z" fill="#131416"/>
<path d="M26 11.5C26 10.6716 26.6716 10 27.5 10C28.3284 10 29 10.6716 29 11.5V17.5C29 18.3284 28.3284 19 27.5 19C26.6716 19 26 18.3284 26 17.5V11.5Z" fill="#131416"/>
<path d="M30.5 13C31.3284 13 32 13.6716 32 14.5C32 15.3284 31.3284 16 30.5 16H24.5C23.6716 16 23 15.3284 23 14.5C23 13.6716 23.6716 13 24.5 13H30.5Z" fill="#131416"/>
</svg>
