<svg width="32" height="32" viewBox="0 0 32 32" fill="none" xmlns="http://www.w3.org/2000/svg">
<path fill-rule="evenodd" clip-rule="evenodd" d="M11.7623 5.09458C12.0279 7.28604 11.67 9.56978 10.8732 11.6113C9.99556 13.8835 8.82926 16.3287 8.69068 18.7739C8.56366 20.827 9.03711 23.2607 10.2843 24.9331C11.6469 26.7555 13.8871 27.9204 16.3467 27.9204H18.6793C22.6863 27.9204 26.0236 24.8524 26.3469 20.8731L26.9012 14.2065C26.9705 13.3068 26.2661 12.5456 25.3654 12.5456H17.1666C15.8848 12.5456 14.8686 11.5075 14.8571 10.2503C14.8571 8.7624 14.9379 6.91696 14.2566 5.54441C13.6446 4.31027 13.0672 4.09112 12.5591 4.09112C12.0972 4.09112 11.7277 4.69089 11.7739 5.10611L11.7623 5.09458ZM12.5476 1C14.6377 1 16.0811 2.31488 17.0049 4.16032C17.8133 5.76355 17.8826 7.70127 17.9287 9.46597H25.3769C28.0791 9.46597 30.2038 11.7728 29.9844 14.4602L29.4301 21.1269C28.9682 26.7093 24.2915 31 18.6909 31H16.3583C13.3328 31 10.5152 29.7428 8.55211 27.6551C7.85926 27.8397 7.14331 27.9319 6.39272 27.9319C4.68368 27.9319 3.27487 26.9746 2.35107 25.4637C1.4619 23.9873 1 21.9458 1 19.4775C1 17.0092 1.4619 14.9677 2.35107 13.4914C3.26332 11.9689 4.68368 11.0231 6.39272 11.0231C6.83153 11.0231 7.28188 11.1038 7.74378 11.2307C8.44819 9.38524 8.95628 7.48212 8.71378 5.48674C8.44819 3.26067 10.2612 1.02307 12.5476 1.02307V1ZM6.69295 14.1142C5.94236 13.9642 5.36498 14.4487 4.98391 15.06C4.48737 15.8904 4.0832 17.3091 4.0832 19.4544C4.0832 21.5998 4.48737 23.0185 4.98391 23.8489C5.45736 24.6332 5.96546 24.8408 6.39272 24.8408C6.4851 24.8408 6.58903 24.8408 6.68141 24.8408C5.86153 22.9839 5.50355 20.6309 5.61903 18.6009C5.68832 17.3668 6.17331 15.6482 6.69295 14.1142Z" fill="#131416"/>
</svg>
