<svg width="32" height="32" viewBox="0 0 32 32" fill="none" xmlns="http://www.w3.org/2000/svg">
<path d="M29.7906 11.5736C29.1719 11.1326 28.4875 10.8324 27.7563 10.6354C26.2094 10.2319 24.625 10.1944 23.05 10.3633C21.9719 10.4853 20.9312 10.7386 19.9844 11.2921C18.9062 11.9113 18.3062 12.7839 18.3156 14.0974C18.3438 18.5351 18.3344 22.9728 18.3156 27.4105C18.3156 28.1798 18.5969 28.8178 19.1406 29.3432C19.6562 29.8404 20.275 30.1594 20.9406 30.4128C22.3844 30.9569 23.8938 31.0413 25.4125 30.9851C26.6031 30.9381 27.7562 30.713 28.8531 30.2251C29.8656 29.7748 30.6906 29.118 31 27.9828V13.3562C30.8125 12.615 30.4094 12.0239 29.7906 11.583V11.5736ZM28.1594 27.9077C27.6062 28.2361 26.9781 28.3768 26.35 28.4519C24.9062 28.6302 23.4719 28.6302 22.0469 28.2549C21.8594 28.208 21.6719 28.1423 21.4938 28.0672C20.9688 27.8515 20.6031 27.5325 20.6969 26.8757C20.7437 26.5755 20.7062 26.2753 20.6969 25.9657C20.6969 25.7874 20.725 25.7123 20.9312 25.7874C22.2719 26.2659 23.6687 26.3878 25.0844 26.3503C25.8531 26.3316 26.3594 25.8062 26.3219 25.065C26.2844 24.3707 25.7219 23.9204 24.9719 23.9485C23.8656 24.0048 22.7875 23.8735 21.7469 23.5076C21.6625 23.4794 21.5781 23.4513 21.5031 23.4137C20.7812 23.1041 20.7063 22.9915 20.7063 22.2222C20.7063 21.9501 20.7063 21.6781 20.7063 21.406C20.7063 21.2559 20.7625 21.2183 20.9031 21.2652C22.2437 21.7531 23.6406 21.8751 25.0562 21.8469C25.8531 21.8282 26.3687 21.3215 26.3313 20.571C26.3031 19.8673 25.7312 19.417 24.9625 19.4545C23.8281 19.5108 22.7219 19.3701 21.6531 18.9666C21.5781 18.9385 21.5125 18.9103 21.4375 18.8822C20.9312 18.6758 20.6031 18.3756 20.7063 17.7564C20.7531 17.4937 20.7156 17.2122 20.7063 16.9401C20.7063 16.7806 20.725 16.6962 20.9219 16.7712C22.2812 17.2591 23.6969 17.3811 25.1312 17.3435C25.8437 17.3248 26.35 16.8088 26.3313 16.1051C26.3219 15.4296 25.7875 14.9324 25.0844 14.9511C23.9312 14.9793 22.8062 14.8761 21.7187 14.482C21.4187 14.3694 21.1188 14.2381 20.875 14.0223C20.725 13.8909 20.7156 13.769 20.8563 13.6283C21.0813 13.3843 21.3625 13.2342 21.6719 13.1216C22.2812 12.8965 22.9187 12.7745 23.5562 12.737C24.8312 12.6619 26.1156 12.6525 27.3625 13.0184C27.6812 13.1122 27.9906 13.2248 28.2719 13.4218C28.525 13.6001 28.6656 13.8159 28.6562 14.1536C28.6469 16.3209 28.6562 18.4882 28.6562 20.646C28.6562 22.7851 28.6469 24.9149 28.6562 27.054C28.6562 27.4668 28.4875 27.7201 28.1687 27.9077H28.1594Z" fill="#131416"/>
<path d="M18.325 7.86767C18.3344 8.5807 18.8219 9.08733 19.5063 9.08733C20.2094 9.08733 20.7063 8.59009 20.7156 7.86767C20.7156 7.10772 20.725 6.34777 20.7156 5.58783C20.6969 4.15237 20.1062 2.989 19.0281 2.06017C18.3625 1.48787 17.5656 1.17826 16.7125 1H4.98438C4.24375 1.15949 3.55 1.40343 2.93125 1.86315C1.975 2.5668 1.35625 3.48625 1.08438 4.64024C1.05625 4.75282 1.02812 4.86541 1 4.97799V21.7156C1.0375 21.8469 1.06562 21.9783 1.10312 22.1096C1.58125 24.0892 3.39063 25.6748 5.34063 25.6936C8.50938 25.7311 11.6875 25.7123 14.8562 25.703C15.6625 25.703 16.1875 24.9524 15.9719 24.1737C15.8219 23.6295 15.3906 23.3199 14.7531 23.3199C11.8469 23.3199 8.93125 23.3199 6.025 23.3199C5.59375 23.3199 5.1625 23.3012 4.76875 23.1135C3.79375 22.6538 3.3625 21.8563 3.3625 20.8149C3.3625 17.9534 3.3625 15.1012 3.3625 12.2397C3.3625 10.1006 3.3625 7.97087 3.3625 5.83176C3.3625 4.37754 4.32812 3.36428 5.7625 3.3549C9.14687 3.33613 12.5406 3.33613 15.925 3.3549C17.2188 3.3549 18.1187 4.18052 18.2781 5.46586C18.3813 6.26333 18.2969 7.06081 18.3156 7.85828L18.325 7.86767Z" fill="#131416"/>
<path d="M12.4375 16.4898C13.6187 16.6305 14.7063 16.3866 15.4469 15.3921C16.375 14.1536 16.4875 12.7651 15.8125 11.3859C14.9313 9.61273 13.5625 8.23357 11.9781 7.07019C11.2844 6.56356 10.3375 6.63862 9.65312 7.18278C8.59375 8.0084 7.6375 8.93722 6.82188 10.0068C5.95937 11.142 5.37812 12.3711 5.67812 13.8628C5.92188 15.0919 6.56875 15.9831 7.81563 16.3772C8.35 16.5461 8.89375 16.5742 9.4375 16.4804C9.64375 16.4429 9.71875 16.4992 9.71875 16.7149C9.71875 17.3435 9.41875 17.7001 8.79063 17.7657C8.05938 17.8408 7.6375 18.3287 7.66563 19.0417C7.69375 19.6891 8.2 20.1488 8.90313 20.1488C9.56875 20.1488 10.2344 20.1488 10.8906 20.1488C11.5375 20.1488 12.175 20.1488 12.8219 20.1488C12.8406 20.1488 12.8594 20.1488 12.8781 20.1488C13 20.1394 13.1312 20.1488 13.2531 20.1113C13.8344 19.9611 14.1813 19.4545 14.1344 18.8353C14.0969 18.2724 13.6562 17.8314 13.0656 17.7751C12.4 17.7094 12.1 17.3905 12.0812 16.7712C12.0812 16.4992 12.1562 16.4523 12.4281 16.4898H12.4375ZM12.0062 13.3186C11.8 12.8402 11.425 12.5962 10.9937 12.5681C10.4031 12.5681 9.98125 12.8683 9.775 13.4125C9.55 13.9942 9.175 14.2099 8.62188 14.1067C8.35 14.0598 8.18125 13.9003 8.10625 13.647C7.96562 13.2061 7.98438 12.7651 8.19063 12.3429C8.49062 11.7425 8.89375 11.2264 9.34375 10.7386C9.76562 10.2789 10.2156 9.84728 10.6938 9.44385C10.8344 9.32189 10.9469 9.29374 11.0969 9.42509C11.9594 10.1757 12.775 10.9731 13.3938 11.9395C13.675 12.3804 13.8813 12.8402 13.7688 13.3937C13.7031 13.7033 13.6281 13.9848 13.2719 14.0786C12.8875 14.1818 12.5406 14.1067 12.2594 13.7971C12.1375 13.6564 12.0719 13.4781 11.9969 13.3093L12.0062 13.3186Z" fill="#131416"/>
</svg>
