<svg width="32" height="32" viewBox="0 0 32 32" fill="none" xmlns="http://www.w3.org/2000/svg">
<path fill-rule="evenodd" clip-rule="evenodd" d="M16 0.5C16.8284 0.5 17.5 1.17157 17.5 2V30C17.5 30.8284 16.8284 31.5 16 31.5C15.1716 31.5 14.5 30.8284 14.5 30V2C14.5 1.17157 15.1716 0.5 16 0.5Z" fill="#131416"/>
<path fill-rule="evenodd" clip-rule="evenodd" d="M8.32563 7.23825C9.48595 6.11938 11.0484 5.5 12.6667 5.5H22.6667C23.4951 5.5 24.1667 6.17157 24.1667 7C24.1667 7.82843 23.4951 8.5 22.6667 8.5H12.6667C11.8096 8.5 10.9981 8.82883 10.408 9.39779C9.81987 9.96495 9.5 10.7223 9.5 11.5C9.5 12.2777 9.81987 13.035 10.408 13.6022C10.9981 14.1712 11.8096 14.5 12.6667 14.5H19.3333C20.9516 14.5 22.5141 15.1194 23.6744 16.2383C24.8365 17.3589 25.5 18.8907 25.5 20.5C25.5 22.1093 24.8365 23.6411 23.6744 24.7617C22.5141 25.8806 20.9516 26.5 19.3333 26.5H8C7.17157 26.5 6.5 25.8284 6.5 25C6.5 24.1716 7.17157 23.5 8 23.5H19.3333C20.1904 23.5 21.0019 23.1712 21.592 22.6022C22.1801 22.0351 22.5 21.2777 22.5 20.5C22.5 19.7223 22.1801 18.9649 21.592 18.3978C21.0019 17.8288 20.1904 17.5 19.3333 17.5H12.6667C11.0484 17.5 9.48595 16.8806 8.32563 15.7617C7.16346 14.6411 6.5 13.1093 6.5 11.5C6.5 9.89073 7.16346 8.35892 8.32563 7.23825Z" fill="#131416"/>
</svg>
