<svg width="32" height="32" viewBox="0 0 32 32" fill="none" xmlns="http://www.w3.org/2000/svg">
<path fill-rule="evenodd" clip-rule="evenodd" d="M8.61196 3.82288C7.23169 4.00386 6.48934 4.3362 5.95784 4.85372L5.95511 4.85637C5.42621 5.36843 5.08506 6.08695 4.89915 7.43118C4.70803 8.81316 4.70515 10.6445 4.70515 13.2634V18.7366C4.70515 21.3508 4.70803 23.18 4.89915 24.562C5.08502 25.9059 5.42634 26.6288 5.95784 27.1463L5.96056 27.1489C6.48646 27.6639 7.22439 27.9961 8.60493 28.1771C10.0243 28.3632 11.9051 28.366 14.5947 28.366H17.4053C20.0901 28.366 21.9687 28.3632 23.388 28.1771C24.7683 27.9961 25.5107 27.6638 26.0422 27.1463L26.0449 27.1436C26.5738 26.6316 26.9149 25.913 27.1008 24.5688C27.292 23.1868 27.2949 21.3555 27.2949 18.7366V13.2634C27.2949 10.6492 27.292 8.82002 27.1008 7.43802C26.915 6.09406 26.5737 5.37123 26.0422 4.85372L26.0394 4.85106C25.5135 4.33607 24.7756 4.0039 23.3951 3.82288C21.9757 3.63679 20.0949 3.63398 17.4053 3.63398H14.5947C11.9099 3.63398 10.0313 3.63679 8.61196 3.82288ZM14.4954 1H17.5049C20.0715 0.999966 22.1352 0.999937 23.7561 1.21247C25.436 1.43273 26.843 1.903 27.9564 2.99254C29.0727 4.08028 29.5555 5.45051 29.7818 7.0865C30.0001 8.66477 30 10.6719 30 13.1667V18.8336C30 21.3327 30.0001 23.3421 29.7818 24.9203C29.5556 26.5561 29.0726 27.926 27.9536 29.0101C26.8365 30.0971 25.4292 30.5672 23.7491 30.7875C22.1281 31.0001 20.0668 31 17.5046 31H14.4951C11.9285 31 9.86484 31.0001 8.24392 30.7875C6.564 30.5673 5.15702 30.097 4.04365 29.0075C2.92727 27.9197 2.44446 26.5495 2.21821 24.9135C1.99994 23.3352 1.99996 21.3281 2 18.8333V13.1664C1.99996 10.6673 1.99994 8.65793 2.21821 7.07966C2.44442 5.44393 2.9274 4.07396 4.04637 2.98989C5.16351 1.90287 6.57076 1.43277 8.25095 1.21247C9.87186 0.999937 11.9332 0.999966 14.4954 1ZM9.02633 10.5268C9.02633 9.79944 9.6319 9.2098 10.3789 9.2098H21.6211C22.3681 9.2098 22.9736 9.79944 22.9736 10.5268C22.9736 11.2541 22.3681 11.8438 21.6211 11.8438H10.3789C9.6319 11.8438 9.02633 11.2541 9.02633 10.5268ZM9.02633 16C9.02633 15.2726 9.6319 14.683 10.3789 14.683H21.6211C22.3681 14.683 22.9736 15.2726 22.9736 16C22.9736 16.7273 22.3681 17.317 21.6211 17.317H10.3789C9.6319 17.317 9.02633 16.7273 9.02633 16ZM9.02633 21.4732C9.02633 20.7458 9.6319 20.1562 10.3789 20.1562H17.4052C18.1523 20.1562 18.7578 20.7458 18.7578 21.4732C18.7578 22.2005 18.1523 22.7902 17.4052 22.7902H10.3789C9.6319 22.7902 9.02633 22.2005 9.02633 21.4732Z" fill="#131416"/>
</svg>
