<svg width="32" height="32" viewBox="0 0 32 32" fill="none" xmlns="http://www.w3.org/2000/svg">
<path fill-rule="evenodd" clip-rule="evenodd" d="M17.9301 4.0221C16.8801 3.8321 16.0201 4.9021 16.4701 5.9021C16.9201 6.9021 17.1701 8.0021 17.1701 9.1721C17.1701 13.5921 13.5901 17.1721 9.17012 17.1721C8.00012 17.1721 6.89012 16.9221 5.90012 16.4721C4.90012 16.0221 3.84012 16.8821 4.02012 17.9321C5.01012 23.5621 9.92013 27.8321 15.8401 27.8321C22.4701 27.8321 27.8401 22.4621 27.8401 15.8321C27.8401 9.9221 23.5701 5.0121 17.9401 4.0121L17.9301 4.0221ZM19.6701 7.3321C22.9101 8.7921 25.1601 12.0521 25.1601 15.8421C25.1601 20.9921 20.9801 25.1721 15.8301 25.1721C12.0501 25.1721 8.79012 22.9221 7.32012 19.6821C7.92012 19.7821 8.53012 19.8421 9.16012 19.8421C15.0501 19.8421 19.8301 15.0621 19.8301 9.1721C19.8301 8.5421 19.7801 7.9321 19.6701 7.3321Z" fill="#131416"/>
</svg>
