<svg width="32" height="32" viewBox="0 0 32 32" fill="none" xmlns="http://www.w3.org/2000/svg">
<path d="M31 15.0985C30.9383 14.1282 30.3829 13.2765 29.5396 12.8237C29.4059 10.8724 29.0665 8.86722 27.6575 7.39026C26.6908 6.37688 25.4464 5.8055 23.5746 5.53598L18.4529 1.97835C16.5811 0.673884 14.0614 0.673884 12.1896 1.97835L7.06788 5.53598C5.22695 5.79472 3.96195 6.3661 2.98492 7.39026C2.00788 8.41443 1.4628 9.72967 1.21598 11.6702C1 13.3304 1 15.4219 1 18.0739V18.2356C1 20.8877 1 22.9899 1.21598 24.6394C1.4628 26.5799 2.00788 27.8952 2.98492 28.9193C3.96195 29.9435 5.21666 30.5149 7.06788 30.7736C8.6517 31 10.6469 31 13.1769 31H17.445C19.975 31 21.9805 31 23.554 30.7736C25.4052 30.5149 26.6599 29.9435 27.637 28.9193C29.0459 27.4424 29.3853 25.4479 29.519 23.4859C30.3624 23.0331 30.9177 22.1814 30.9897 21.2111C30.9897 21.1249 30.9897 21.0171 30.9897 20.9093V15.3788C30.9897 15.2925 30.9897 15.1847 30.9897 15.0985H31ZM24.5516 12.5003C21.4045 12.5003 18.8334 15.0338 18.8334 18.1602C18.8334 21.2866 21.3942 23.8201 24.5516 23.8201H26.9273C26.7731 25.4587 26.4542 26.3751 25.8372 27.0219C25.2818 27.6041 24.5002 27.9383 23.2352 28.1108C21.8262 28.3048 19.9647 28.3048 17.3833 28.3048H13.2695C10.6983 28.3048 8.83682 28.3048 7.41755 28.1108C6.15255 27.9275 5.37093 27.6041 4.80528 27.0219C4.24991 26.4398 3.93109 25.6204 3.76654 24.2944C3.58142 22.8174 3.58142 20.8661 3.58142 18.1602C3.58142 15.4542 3.58142 13.5029 3.76654 12.026C3.94138 10.6999 4.24991 9.8806 4.80528 9.28766C5.36064 8.70551 6.14227 8.37131 7.41755 8.19881C8.82653 8.00476 10.688 8.00476 13.2695 8.00476H17.3833C19.9647 8.00476 21.8262 8.00476 23.2352 8.19881C24.5002 8.38209 25.2818 8.70551 25.8372 9.28766C26.4542 9.93451 26.7731 10.8509 26.9273 12.4895H24.5516V12.5003ZM28.4392 21.0278C28.4392 21.0278 28.4083 21.1141 28.2437 21.1249H24.5516C22.8135 21.1249 21.4045 19.7988 21.4045 18.1602C21.4045 16.5215 22.8135 15.1955 24.5516 15.1955H28.2643C28.4083 15.1955 28.4392 15.2925 28.4392 15.3249V21.0278ZM12.0456 5.30959L13.6191 4.22073C14.627 3.51999 16.036 3.51999 17.0336 4.22073L18.6071 5.30959C18.2369 5.30959 17.8564 5.30959 17.4655 5.30959H13.1975C12.8067 5.30959 12.4261 5.30959 12.0559 5.30959H12.0456Z" fill="#131416"/>
<path d="M13.2592 11.0557H7.77751C7.06788 11.0557 6.49194 11.6594 6.49194 12.4033C6.49194 13.1472 7.06788 13.7509 7.77751 13.7509H13.2592C13.9688 13.7509 14.5447 13.1472 14.5447 12.4033C14.5447 11.6594 13.9688 11.0557 13.2592 11.0557Z" fill="#131416"/>
<path d="M24.2328 16.4461C23.338 16.4461 22.6078 17.2115 22.6078 18.1494C22.6078 19.0873 23.338 19.8528 24.2328 19.8528C25.1275 19.8528 25.8577 19.0873 25.8577 18.1494C25.8577 17.2115 25.1275 16.4461 24.2328 16.4461Z" fill="#131416"/>
</svg>
