<svg width="32" height="32" viewBox="0 0 32 32" fill="none" xmlns="http://www.w3.org/2000/svg">
<path d="M19.5057 20.1914H12.4943C11.7663 20.1914 11.182 20.7632 11.182 21.4757C11.182 22.1881 11.7663 22.76 12.4943 22.76H19.5057C20.2337 22.76 20.818 22.1881 20.818 21.4757C20.818 20.7632 20.2337 20.1914 19.5057 20.1914Z" fill="#131416"/>
<path d="M30.9904 18.9071V14.9886C30.9904 11.6607 29.1992 8.65156 26.3065 7.00167C26.249 6.88918 26.182 6.76731 26.1054 6.65482C25.9808 6.42984 25.8372 6.2236 25.6456 6.00799C24.8027 4.99556 23.4713 4.14249 21.4789 3.32693L18.1648 1.96765C18.0211 1.90203 17.8774 1.85515 17.7337 1.79891C17.7337 1.79891 17.7337 1.79891 17.7241 1.79891C17.705 1.79891 17.6858 1.78953 17.6667 1.78016C12.9061 -0.000967383 10.0996 1.2177 7.99234 5.95174C7.98276 5.97987 7.97318 5.98924 7.9636 6.01736C3.89272 7.12354 1 10.7889 1 14.9886V19.0102C1 19.0665 1.00958 19.1133 1.01916 19.1696V21.6913C1.01916 22.0475 1.04789 22.4225 1.09579 22.7506C1.43103 27.7752 4.32375 30.5969 9.37165 30.925C9.7931 30.9813 10.1762 31 10.5402 31H21.4693C27.3793 31 30.6648 28.0846 30.9713 22.5725C30.9904 22.2819 31 21.9819 31 21.6819V19.0102C31 19.0102 31 18.9446 31 18.9071H30.9904ZM27.9349 12.7856C27.7433 12.6357 27.5421 12.4857 27.3314 12.3544C27.2931 12.3263 27.2548 12.3076 27.2165 12.2794C26.977 12.1294 26.7375 11.9888 26.4885 11.867C26.5172 11.7732 26.5268 11.6982 26.5556 11.6045C26.6322 11.342 26.6992 11.0889 26.7471 10.8358C26.7471 10.7889 26.7759 10.742 26.7854 10.6952C27.3218 11.3232 27.7337 12.0544 28.0019 12.8325C27.9828 12.8138 27.9636 12.8044 27.9444 12.7856H27.9349ZM23.6245 7.63913C23.7203 7.75162 23.7778 7.83599 23.8257 7.92036C23.8448 7.94848 23.864 7.9766 23.8736 8.00473C23.9502 8.11722 23.9789 8.19221 23.9885 8.22971C24.0077 8.29533 24.0268 8.36095 24.0556 8.4172C24.0747 8.46407 24.0939 8.52032 24.1322 8.65156C24.1801 8.7828 24.1992 8.93279 24.2184 9.08278C24.2184 9.1109 24.228 9.13902 24.228 9.17652C24.2375 9.29839 24.228 9.439 24.228 9.57962C24.228 9.67336 24.228 9.77648 24.2088 9.8796C24.1897 10.0202 24.1801 10.1702 24.1418 10.3296C24.1322 10.3952 24.1034 10.4702 24.0939 10.5452C24.0556 10.7327 24.0077 10.9108 23.9502 11.1076C23.6341 11.0701 23.3084 11.0514 22.9828 11.0514C22.9349 11.0514 22.887 11.042 22.8391 11.042H15.1379L17.9444 4.67683L20.4636 5.71738C22.0249 6.35484 23.0594 6.98292 23.6149 7.65788L23.6245 7.63913ZM10.2816 7.27353C10.2816 7.27353 10.3199 7.17041 10.3391 7.12354C10.3582 7.09541 10.3678 7.06729 10.387 7.03917C11.7375 3.98313 12.9444 3.11132 15.4923 3.76752L12.2931 11.0326H9.16092C8.99808 11.0326 8.83525 11.0326 8.66284 11.0514L10.1284 7.62038V7.60163L10.272 7.2829L10.2816 7.27353ZM6.45977 9.54212L5.45402 11.8951C5.26245 11.9888 5.08046 12.1013 4.90805 12.2044C4.90805 12.2044 4.89847 12.2044 4.88889 12.2044C4.58238 12.3919 4.27586 12.5888 3.99808 12.8138C4.45785 11.492 5.31992 10.3483 6.45977 9.53275V9.54212ZM28.3467 22.4319C28.1169 26.5191 25.933 28.4221 21.4693 28.4221H10.5402C10.2912 28.4221 10.023 28.4033 9.63027 28.3564C5.84674 28.1127 3.96935 26.2753 3.71073 22.4881C3.67241 22.1881 3.65326 21.9256 3.65326 21.6819V19.0102C3.65326 16.8447 4.96552 14.8949 6.99617 14.0418C7.70498 13.7512 8.44253 13.6012 9.18008 13.6012H22.8487C22.954 13.6012 23.0498 13.62 23.1552 13.62C23.4713 13.6387 23.7778 13.6762 24.0747 13.7418C24.1801 13.77 24.295 13.7793 24.4004 13.8074C24.4195 13.8074 24.4387 13.8262 24.4579 13.8356C26.7663 14.5105 28.3755 16.6385 28.3755 19.0102C28.3755 19.029 28.3755 19.0383 28.3755 19.0477V21.6819C28.3755 21.935 28.3659 22.1881 28.3467 22.4319Z" fill="#131416"/>
</svg>
