<svg width="32" height="32" viewBox="0 0 32 32" fill="none" xmlns="http://www.w3.org/2000/svg">
<path d="M14.6273 29.99H6.73778C4.12488 29.99 2 27.8962 2 25.3216V6.66834C2 4.09374 4.12488 2 6.73778 2H14.6273C17.2402 2 19.3651 4.09374 19.3651 6.66834V8.22111C19.3651 9.08265 18.6534 9.77388 17.7892 9.77388C16.925 9.77388 16.2133 9.07263 16.2133 8.22111V6.66834C16.2133 5.8068 15.5017 5.11556 14.6375 5.11556H6.74795C5.87359 5.11556 5.17208 5.81682 5.17208 6.66834V25.3317C5.17208 26.1932 5.88376 26.8844 6.74795 26.8844H14.6375C15.5118 26.8844 16.2133 26.1832 16.2133 25.3317V23.7789C16.2133 22.9174 16.925 22.2261 17.7892 22.2261C18.6534 22.2261 19.3651 22.9274 19.3651 23.7789V25.3317C19.3651 27.9063 17.2402 30 14.6273 30V29.99ZM25.6787 22.2161C25.2721 22.2161 24.8755 22.0658 24.5604 21.7653C23.9402 21.1542 23.9402 20.1725 24.5604 19.5614L26.6039 17.5478H13.8444C12.9701 17.5478 12.2686 16.8465 12.2686 15.995C12.2686 15.1435 12.9803 14.4422 13.8444 14.4422H26.6039L24.5604 12.4286C23.9402 11.8175 23.9402 10.8358 24.5604 10.2247C25.1805 9.6136 26.1769 9.6136 26.7971 10.2247L31.5349 14.893C32.155 15.5041 32.155 16.4859 31.5349 17.097L26.7971 21.7653C26.4921 22.0658 26.0854 22.2161 25.6787 22.2161Z" fill="#131416"/>
</svg>
