<svg width="32" height="32" viewBox="0 0 32 32" fill="none" xmlns="http://www.w3.org/2000/svg">
<path d="M26.41 2H23.08C20.84 2 19.01 3.87 19.01 6.16V10.85L13.85 3.49C13.17 2.54 12.14 2 11.03 2H7.09C4.83 2 3 3.87 3 6.16V27.34C3 29.08 4.39 30.5 6.09 30.5H9.42C11.66 30.5 13.49 28.63 13.49 26.34V20.98L19.1 29.03C19.78 29.98 20.76 30.5 21.87 30.5H25.43C27.67 30.5 29.5 28.63 29.5 26.34V5.16C29.5 3.42 28.11 2 26.41 2ZM10.79 12.37C10.69 12.4 10.62 12.5 10.62 12.61V26.33C10.62 27.02 10.09 27.56 9.42 27.56H6.09C5.96 27.56 5.87 27.46 5.87 27.33V6.16C5.87 5.47 6.4 4.93 7.07 4.93H11.01C11.21 4.93 11.37 5.02 11.5 5.19L21.41 19.32C21.46 19.39 21.53 19.43 21.61 19.43C21.64 19.43 21.66 19.43 21.69 19.42C21.79 19.39 21.86 19.29 21.86 19.18V6.16C21.86 5.47 22.39 4.93 23.06 4.93H26.39C26.51 4.93 26.61 5.04 26.61 5.16V26.34C26.61 26.34 26.61 26.4 26.63 26.43C26.59 27.08 26.08 27.58 25.43 27.58H21.87C21.74 27.58 21.6 27.55 21.44 27.32L11.07 12.47C11.02 12.4 10.95 12.36 10.86 12.36C10.84 12.36 10.81 12.36 10.79 12.37Z" fill="#131416"/>
</svg>
