<svg width="32" height="32" viewBox="0 0 32 32" fill="none" xmlns="http://www.w3.org/2000/svg">
<path fill-rule="evenodd" clip-rule="evenodd" d="M13.5743 4.20551C13.5743 4.20552 13.5743 4.20551 13.5743 4.20551L5.79656 9.1036C4.38664 9.9915 3.5 11.6005 3.5 13.3636V23.5345C3.5 26.3316 5.66792 28.5 8.22222 28.5H9.83333V23.5345C9.83333 20.0826 12.5405 17.1854 16 17.1854C19.4595 17.1854 22.1667 20.0826 22.1667 23.5345V28.5H23.7778C26.332 28.5 28.5 26.3316 28.5 23.5345V13.3636C28.5 11.6005 27.6134 9.99151 26.2034 9.1036L18.4257 4.20551C18.4257 4.2055 18.4257 4.20551 18.4257 4.20551C16.9319 3.26485 15.0681 3.26485 13.5743 4.20551ZM19.1667 28.5V23.5345C19.1667 21.63 17.6953 20.1854 16 20.1854C14.3047 20.1854 12.8333 21.63 12.8333 23.5345V28.5H19.1667ZM11.9757 1.66693C14.4464 0.111025 17.5536 0.111021 20.0243 1.66693L27.8021 6.56504C30.1137 8.02074 31.5 10.605 31.5 13.3636V23.5345C31.5 27.8789 28.0963 31.5 23.7778 31.5H8.22222C3.90364 31.5 0.5 27.8789 0.5 23.5345V13.3636C0.5 10.605 1.88637 8.02075 4.19789 6.56504L11.9757 1.66693Z" fill="#131416"/>
</svg>
