<svg width="32" height="32" viewBox="0 0 32 32" fill="none" xmlns="http://www.w3.org/2000/svg">
<g clip-path="url(#clip0_440_8545)">
<path d="M30.7243 12.1736C29.865 10.9852 28.9051 9.90654 27.8721 8.95581C27.3145 8.44389 26.446 8.48045 25.9341 9.03809C25.4222 9.59572 25.4587 10.4642 26.0164 10.9761C26.9123 11.808 27.7533 12.7496 28.5029 13.7917C29.4902 15.1538 29.4902 17.6403 28.5029 19.0024C25.3308 23.3812 20.7691 25.8951 15.9972 25.8951C14.1324 25.8951 12.3041 25.5203 10.5489 24.7798C9.85412 24.4873 9.04967 24.8164 8.75714 25.5112C8.46461 26.2059 8.7937 27.0104 9.48846 27.3029C11.5727 28.1805 13.7667 28.6284 15.9972 28.6284C21.665 28.6284 27.0311 25.7031 30.7243 20.6022C32.4155 18.2802 32.4155 14.4956 30.7243 12.1736Z" fill="#131416"/>
<path d="M4.57945 23.7468C4.93597 23.7468 5.29249 23.6097 5.55759 23.3355C6.0878 22.7961 6.07866 21.9277 5.53931 21.3975C4.79885 20.6753 4.11323 19.8617 3.48246 18.9932C2.49518 17.6311 2.49518 15.1446 3.48246 13.7826C6.65458 9.40375 11.2162 6.88982 15.9881 6.88982C17.6793 6.88982 19.3522 7.20064 20.952 7.80398C21.665 8.07823 22.4512 7.72171 22.7254 7.00866C22.9905 6.30476 22.6432 5.50945 21.9301 5.2352C20.0104 4.50388 18.0175 4.13822 15.9881 4.13822C10.3295 4.14736 4.95425 7.07266 1.26107 12.1736C-0.430121 14.4956 -0.430121 18.2802 1.26107 20.6022C1.98325 21.5986 2.76942 22.5219 3.61959 23.3538C3.88469 23.6189 4.23207 23.7468 4.57945 23.7468Z" fill="#131416"/>
<path d="M19.1054 16.397C19.1054 18.1156 17.7067 19.5143 15.9881 19.5143C15.2294 19.5143 14.6169 20.1268 14.6169 20.8855C14.6169 21.6443 15.2294 22.2568 15.9881 22.2568C19.2151 22.2568 21.8387 19.6331 21.8387 16.397C21.8387 15.6383 21.2262 15.0258 20.4675 15.0258C19.7087 15.0258 19.0962 15.6383 19.0962 16.397H19.1054Z" fill="#131416"/>
<path d="M29.9015 3.44346C29.3896 2.88583 28.5212 2.84926 27.9635 3.36119L19.1145 11.4515C18.1821 10.8664 17.1125 10.5464 15.979 10.5464C12.752 10.5464 10.1192 13.1701 10.1192 16.4062C10.1192 17.3386 10.3569 18.2528 10.7774 19.0755L1.76385 27.3395C1.20622 27.8514 1.16965 28.7198 1.68158 29.2775C1.95582 29.57 2.32149 29.7254 2.69629 29.7254C3.02539 29.7254 3.35448 29.6066 3.61959 29.3689L29.8193 5.38147C30.3769 4.86954 30.4135 4.00109 29.9015 3.44346ZM12.88 16.397C12.88 14.6784 14.2786 13.2798 15.9972 13.2798C16.3263 13.2798 16.6463 13.3438 16.948 13.4443L12.9714 17.0827C12.9257 16.8633 12.8891 16.6347 12.8891 16.397H12.88Z" fill="#131416"/>
</g>
<defs>
<clipPath id="clip0_440_8545">
<rect width="32" height="32" fill="white"/>
</clipPath>
</defs>
</svg>
