<svg width="32" height="32" viewBox="0 0 32 32" fill="none" xmlns="http://www.w3.org/2000/svg">
<path d="M28.5373 22.7313C27.7295 22.7313 27.0746 22.0765 27.0746 21.2687V11.378C27.0746 8.58591 27.0746 7.048 26.6266 6.16913C26.23 5.39057 25.609 4.76955 24.8309 4.37296C23.9516 3.92496 22.4141 3.92496 19.622 3.92496H9.73134C8.92352 3.92496 8.26866 3.27009 8.26866 2.46227C8.26866 1.65445 8.92352 1 9.73134 1H19.622C22.9724 1 24.6541 1 26.159 1.76687C27.4913 2.44597 28.5544 3.50872 29.2331 4.84102C30 6.34591 30 8.02758 30 11.378V21.2687C30 22.0765 29.3451 22.7313 28.5373 22.7313Z" fill="#131416"/>
<path d="M19.2041 29H7.92054C6.18496 29 5.22878 29 4.31982 28.537C3.51534 28.127 2.87301 27.4851 2.46304 26.6802C2 25.7712 2 24.8155 2 23.0795V11.7959C2 10.0603 2 9.10412 2.46304 8.19516C2.87301 7.39069 3.51493 6.74836 4.31982 6.33839C5.22878 5.87534 6.18454 5.87534 7.92012 5.87534H19.2037C20.9393 5.87534 21.8955 5.87534 22.8044 6.33839C23.6093 6.74836 24.2512 7.39069 24.6612 8.19516C25.1242 9.1037 25.1242 10.0599 25.1242 11.7955V23.079C25.1242 24.8146 25.1242 25.7708 24.6612 26.6798C24.2512 27.4842 23.6093 28.1266 22.8044 28.5365C21.8959 28.9996 20.9397 29 19.2041 29ZM7.92054 8.80113C6.76585 8.80113 5.93128 8.80114 5.64794 8.94531C5.39719 9.07319 5.19743 9.27296 5.06955 9.5237C4.92537 9.80705 4.92537 10.6412 4.92537 11.7963V23.0799C4.92537 24.235 4.92537 25.0691 5.06955 25.3525C5.19743 25.6032 5.39719 25.8034 5.64752 25.9309C5.93087 26.0755 6.76543 26.0755 7.92012 26.0755H19.2037C20.3588 26.0755 21.193 26.0755 21.4763 25.9313C21.727 25.8034 21.9268 25.6036 22.0547 25.3529C22.1989 25.0696 22.1989 24.2354 22.1989 23.0803V11.7967C22.1989 10.642 22.1989 9.80746 22.0547 9.52412C21.9272 9.27337 21.727 9.07361 21.4763 8.94573C21.1934 8.80155 20.3588 8.80155 19.2037 8.80155L7.92054 8.80113Z" fill="#131416"/>
</svg>
