<svg width="32" height="32" viewBox="0 0 32 32" fill="none" xmlns="http://www.w3.org/2000/svg">
<g clip-path="url(#clip0_1653_23028)">
<path fill-rule="evenodd" clip-rule="evenodd" d="M10.7588 3H21.2417C22.845 3 24.1375 3 25.1839 3.08292C26.2617 3.16834 27.2074 3.34876 28.0801 3.78169C29.4084 4.44046 30.4915 5.47467 31.1814 6.74304C31.6348 7.5764 31.8237 8.47935 31.9132 9.50855C32 10.5078 32 11.7424 32 13.2728L32 18.8101C32 20.341 32 21.5752 31.9132 22.5744C31.8237 23.6036 31.6343 24.5065 31.1814 25.3399C30.4915 26.6083 29.4084 27.6425 28.0801 28.3012C27.2073 28.7342 26.2617 28.9146 25.1839 29C24.1375 29.0829 22.8445 29.0829 21.2417 29.0829H10.7587C9.15551 29.0829 7.86298 29.0829 6.81656 29C5.73916 28.9146 4.79311 28.7337 3.92036 28.3012C2.59205 27.6425 1.50897 26.6083 0.819069 25.3399C0.365679 24.5065 0.17673 23.6036 0.0872743 22.5744C0 21.5756 0 20.3414 0 18.8105L3.43323e-05 13.2733C3.43323e-05 11.7424 3.43397e-05 10.5082 0.0868723 9.50897C0.176328 8.48018 0.365277 7.57682 0.818667 6.74346C1.50857 5.47508 2.59165 4.44088 3.91996 3.78211C4.7927 3.34918 5.73832 3.16876 6.81616 3.08334C7.86301 3 9.15555 3 10.7588 3ZM6.18604 5.95927C7.42053 6.23594 8.56644 6.82179 9.49853 7.66974L13.7732 11.557C14.3645 12.0945 14.7455 12.4399 15.0579 12.6812C15.3564 12.9116 15.4969 12.9699 15.5746 12.9924C15.8521 13.0733 16.148 13.0733 16.4255 12.9924C16.5032 12.9695 16.6437 12.9116 16.9422 12.6812C17.2546 12.4399 17.636 12.0949 18.2268 11.557L22.5015 7.66974C23.4341 6.82179 24.58 6.23552 25.8145 5.95927C25.5701 5.91426 25.2843 5.87843 24.943 5.85135C24.031 5.77884 22.8594 5.77801 21.178 5.77801H10.8216C9.14027 5.77801 7.96862 5.77926 7.0566 5.85135C6.71536 5.87843 6.43041 5.91426 6.18604 5.95927ZM28.8163 8.55602H27.4552C26.3582 8.55602 25.303 8.95895 24.5084 9.68147L20.1936 13.6054C19.6538 14.0962 19.1869 14.5208 18.7714 14.8416C18.3316 15.1812 17.8564 15.48 17.2764 15.6492C16.4447 15.8921 15.5558 15.8921 14.7241 15.6492C14.1441 15.48 13.6689 15.1812 13.2291 14.8416C12.8136 14.5208 12.3467 14.0962 11.8069 13.6054L7.4921 9.68147C6.69747 8.95895 5.64232 8.55602 4.54528 8.55602H3.18424C3.09565 8.85686 3.02933 9.23437 2.98569 9.73897C2.90976 10.6098 2.90889 11.7286 2.90889 13.3341L2.90885 18.7505C2.90885 20.356 2.91016 21.4747 2.98565 22.3456C3.05984 23.1998 3.19817 23.6898 3.40021 24.0603C3.81432 24.8215 4.46408 25.442 5.2609 25.837C5.64927 26.0295 6.16244 26.162 7.05656 26.2328C7.96858 26.3053 9.14024 26.3062 10.8216 26.3062H21.178C22.8593 26.3062 24.031 26.3049 24.943 26.2328C25.8376 26.162 26.3507 26.0299 26.7387 25.837C27.5359 25.4415 28.1857 24.8211 28.5994 24.0603C28.801 23.6894 28.9397 23.1994 29.0139 22.3456C29.0898 21.4747 29.0907 20.356 29.0907 18.7505L29.0907 13.3341C29.0907 11.7286 29.0894 10.6098 29.0139 9.73897C28.9703 9.23437 28.9049 8.85686 28.8163 8.55602Z" fill="#131416"/>
</g>
<defs>
<clipPath id="clip0_1653_23028">
<rect width="32" height="32" fill="white"/>
</clipPath>
</defs>
</svg>
