<svg width="32" height="32" viewBox="0 0 32 32" fill="none" xmlns="http://www.w3.org/2000/svg">
<path d="M16 1C4.07836 1 1 4.08955 1 16C1 27.9104 4.07836 31 16 31C27.9216 31 31 27.9104 31 16C31 4.08955 27.9104 1 16 1ZM16 27.8657C5.80224 27.8657 4.13433 26.1978 4.13433 16C4.13433 5.80224 5.80224 4.13433 16 4.13433C26.1978 4.13433 27.8657 5.80224 27.8657 16C27.8657 26.1978 26.1978 27.8657 16 27.8657Z" fill="#131416"/>
<path d="M20.4888 11.1978L14.1306 17.556L11.5112 14.9366C10.8955 14.3209 9.91045 14.3209 9.29478 14.9366C8.6791 15.5522 8.6791 16.5373 9.29478 17.153L12.4291 20.2873C12.8993 20.7575 13.5149 20.9925 14.1306 20.9925C14.7463 20.9925 15.3619 20.7575 15.8321 20.2873L22.7052 13.4142C23.3209 12.7985 23.3209 11.8134 22.7052 11.1978C22.0896 10.5821 21.1045 10.5821 20.4888 11.1978Z" fill="#131416"/>
</svg>
