<svg width="32" height="32" viewBox="0 0 32 32" fill="none" xmlns="http://www.w3.org/2000/svg">
<g clip-path="url(#clip0_43_367)">
<path d="M11.9651 14.3313C13.2662 14.3313 14.321 13.2765 14.321 11.9755C14.321 10.6744 13.2662 9.61963 11.9651 9.61963C10.664 9.61963 9.6093 10.6744 9.6093 11.9755C9.6093 13.2765 10.664 14.3313 11.9651 14.3313Z" fill="#131416"/>
<path d="M20.0039 17.6584C18.702 17.6584 17.648 18.7123 17.648 20.0142C17.648 21.3161 18.702 22.37 20.0039 22.37C21.3058 22.37 22.3597 21.3161 22.3597 20.0142C22.3597 18.7123 21.3058 17.6584 20.0039 17.6584Z" fill="#131416"/>
<path d="M30.2641 11.6242C29.8405 11.1695 29.4272 10.7355 29.2309 10.5186C29.2205 10.2189 29.1999 9.61963 29.1792 8.99968C29.1379 7.36713 28.4663 5.83791 27.3193 4.68066C26.1724 3.52341 24.6329 2.86212 23.0003 2.82079C22.3804 2.80013 21.7811 2.7898 21.4814 2.76913C21.2644 2.57281 20.8408 2.18017 20.3758 1.73587C19.1876 0.609622 17.6377 0 16.0052 0C14.3726 0 12.8124 0.619955 11.6138 1.75654C11.1489 2.19051 10.7356 2.58314 10.5186 2.77946C10.2189 2.80013 9.61963 2.81046 8.99968 2.83113C7.36713 2.87246 5.82757 3.54407 4.68066 4.69099C3.53374 5.83791 2.86212 7.37746 2.82079 9.01001C2.80013 9.62996 2.7898 10.2293 2.76913 10.5289C2.57281 10.7459 2.18017 11.1695 1.73587 11.6345C0.619955 12.8227 0 14.3726 0 16.0052C0 17.6377 0.619955 19.1876 1.73587 20.3758C2.18017 20.8511 2.58314 21.2644 2.76913 21.4814C2.77946 21.7811 2.80013 22.3804 2.82079 23.0003C2.86212 24.6329 3.53374 26.1621 4.68066 27.3193C5.82757 28.4766 7.36713 29.1379 9.03067 29.1792C9.66096 29.1999 10.2293 29.2102 10.5186 29.2309C10.7356 29.4272 11.1695 29.8405 11.6242 30.2641C12.8124 31.3904 14.3623 32 15.9948 32C17.6274 32 19.1773 31.38 20.3965 30.2331C20.8511 29.7992 21.2644 29.4169 21.4814 29.2205C21.7707 29.2102 22.339 29.1895 23.0003 29.1689C24.6329 29.1275 26.1724 28.4559 27.3193 27.309C28.4663 26.1621 29.1379 24.6225 29.1792 22.99C29.1999 22.37 29.2102 21.7707 29.2309 21.4711C29.4272 21.2541 29.8198 20.8305 30.2641 20.3655C31.3904 19.1773 32 17.6274 32 15.9948C32 14.3623 31.38 12.8021 30.2641 11.6242ZM28.0116 18.2473C26.875 19.4562 26.6787 19.6629 26.5031 19.9625C26.3791 20.1485 26.2551 20.4585 26.2138 20.6858C26.1414 20.9855 26.1311 21.2645 26.0794 22.9177C26.0588 23.7546 25.7178 24.5399 25.1185 25.1392C24.5192 25.7385 23.7339 26.0691 22.866 26.1001C21.2334 26.1518 20.9545 26.1621 20.6135 26.2448C20.3965 26.2861 20.0865 26.4204 19.9005 26.5444C19.6319 26.6994 19.3943 26.9267 18.2267 28.0323C17.0074 29.1792 14.9512 29.1792 13.732 28.0323C12.5231 26.8957 12.3164 26.6994 12.0168 26.5237C11.8308 26.3894 11.5208 26.2757 11.2935 26.2344C11.0042 26.1621 10.7252 26.1518 9.06167 26.1001C8.22473 26.0794 7.43946 25.7385 6.84017 25.1392C6.24088 24.5399 5.91023 23.7546 5.87924 22.9177C5.83791 21.2645 5.82757 20.9751 5.73458 20.6342C5.69325 20.4068 5.55893 20.0969 5.4246 19.9109C5.26962 19.6526 5.0733 19.4459 3.93671 18.237C3.35809 17.6274 3.04811 16.8318 3.04811 15.9948C3.04811 15.1579 3.36842 14.3623 3.93671 13.7527C5.0733 12.5438 5.26962 12.3371 5.4556 12.0375C5.57959 11.8515 5.70358 11.5415 5.74491 11.3245C5.81724 11.0249 5.82757 10.7459 5.87924 9.09267C5.8999 8.25573 6.24088 7.47046 6.84017 6.87117C7.42912 6.28221 8.22473 5.94123 9.06167 5.91024C10.7149 5.85857 11.0042 5.84824 11.3452 5.76558C11.5725 5.72425 11.8721 5.58993 12.0581 5.46593C12.3164 5.31095 12.5231 5.12496 13.732 3.97804C14.3416 3.39942 15.1372 3.08944 15.9742 3.08944C16.8111 3.08944 17.6067 3.40975 18.2163 3.97804C19.4252 5.11463 19.6319 5.31095 19.9315 5.4866C20.1175 5.62092 20.4275 5.73458 20.6548 5.77591C20.9545 5.84824 21.2334 5.85857 22.8867 5.91024C23.7236 5.9309 24.5089 6.27188 25.1082 6.87117C25.6971 7.46012 26.0381 8.25573 26.0691 9.09267C26.1104 10.7459 26.1208 11.0352 26.2138 11.3762C26.2551 11.6035 26.3894 11.9135 26.5237 12.0995C26.6787 12.3578 26.875 12.5644 28.0116 13.7733C28.5902 14.383 28.9002 15.1786 28.9002 16.0155C28.9002 16.8524 28.5799 17.648 28.0116 18.2577V18.2473Z" fill="#131416"/>
<path d="M20.5102 9.26832L9.25799 20.5205C8.64837 21.1301 8.64837 22.1117 9.25799 22.711C9.55764 23.0107 9.96061 23.1656 10.3532 23.1656C10.7459 23.1656 11.1489 23.0107 11.4485 22.711L22.7007 11.4588C23.3103 10.8492 23.3103 9.86761 22.7007 9.26832C22.0911 8.6587 21.1095 8.6587 20.5102 9.26832Z" fill="#131416"/>
</g>
<defs>
<clipPath id="clip0_43_367">
<rect width="32" height="32" fill="white"/>
</clipPath>
</defs>
</svg>
