<svg width="32" height="32" viewBox="0 0 32 32" fill="none" xmlns="http://www.w3.org/2000/svg">
<g clip-path="url(#clip0_1780_25438)">
<path d="M31.9566 14.8193C31.6566 10.4109 29.7869 6.70216 26.4174 3.82317C23.4279 1.26406 19.9284 -0.0154923 15.5191 0.00450074C11.6297 -0.105461 7.17043 1.80387 4.11091 5.25267C0.9814 8.79143 -0.35839 12.93 0.0815414 17.6283C0.781432 25.0957 7.07045 31.6234 15.2592 31.9833C19.9384 32.1833 24.0078 30.5838 27.3173 27.285C30.7367 23.8762 32.2865 19.6476 31.9566 14.8293V14.8193ZM29.227 17.6283C29.217 17.7083 29.067 17.8183 28.967 17.8383C28.5071 17.9182 28.0372 17.9782 27.5372 18.0482C27.3773 18.608 27.2073 19.1978 27.0573 19.7876C27.0373 19.8576 27.1173 19.9975 27.1873 20.0475C27.4873 20.2874 27.7872 20.5173 28.0972 20.7373C28.2971 20.8772 28.3671 21.0272 28.2271 21.2671C27.7172 22.1268 27.2273 22.9965 26.7274 23.8562C26.5874 24.1061 26.4074 24.1461 26.1475 24.0261C25.8075 23.8662 25.4576 23.7262 25.0976 23.6063C25.0076 23.5763 24.8477 23.6062 24.7777 23.6662C24.3377 24.0661 23.9178 24.4859 23.5179 24.8658C23.7178 25.3556 23.8678 25.8055 24.0778 26.2153C24.1878 26.4253 24.1278 26.5352 23.9778 26.6352C22.998 27.225 22.0181 27.8148 21.0383 28.4046C20.6983 27.9347 20.4284 27.5449 20.1384 27.185C20.0684 27.105 19.8884 27.045 19.7785 27.075C19.2885 27.185 18.7986 27.305 18.3287 27.4649C18.1887 27.5149 18.0287 27.6648 17.9987 27.8048C17.9287 28.1147 17.8888 28.4446 17.9188 28.7644C17.9487 29.1443 17.7288 29.2543 17.4488 29.2643C16.459 29.2843 15.4691 29.2643 14.4793 29.2643C14.0794 29.2643 14.1293 28.9244 14.0894 28.6945C14.0294 28.3846 14.0494 28.0547 13.9894 27.7348C13.9694 27.6348 13.8394 27.5049 13.7394 27.4749C13.1695 27.305 12.5796 27.155 12.0197 27.0051C11.6697 27.4649 11.3398 27.9047 10.9598 28.4146C9.88001 27.7848 8.84017 27.175 7.79034 26.5652C8.0103 26.0354 8.21027 25.5856 8.37024 25.1257C8.40024 25.0258 8.37024 24.8558 8.30026 24.7858C7.96031 24.416 7.60036 24.0561 7.22042 23.7062C7.14044 23.6262 6.95047 23.5963 6.84048 23.6362C6.48054 23.7562 6.14059 23.9161 5.80065 24.0561C5.62068 24.1261 5.50069 24.1361 5.35072 23.9461C4.70082 23.0964 4.1709 22.1768 3.75097 21.1971C3.67098 21.0072 3.68098 20.9172 3.87095 20.7972C4.2009 20.5873 4.52085 20.3474 4.8208 20.0875C4.91079 20.0175 4.96078 19.8276 4.93078 19.7076C4.8208 19.2178 4.69082 18.728 4.53085 18.2481C4.50085 18.1382 4.34087 18.0282 4.22089 18.0082C3.89095 17.9582 3.561 17.9482 3.22105 17.9182C2.9111 17.8882 2.73113 17.7583 2.73113 17.3884C2.73113 16.6887 2.67114 15.9989 2.67114 15.2992C2.67114 14.9793 2.70113 14.6594 2.76112 14.3495C2.78112 14.2495 2.94109 14.1196 3.05108 14.0996C3.42102 14.0196 3.80096 13.9596 4.1809 13.9496C4.42086 13.9396 4.50085 13.8397 4.55084 13.6197C4.66083 13.1699 4.8108 12.7301 4.93078 12.2802C4.97078 12.1103 5.00077 11.9503 4.76081 11.8204C4.42086 11.6404 4.11091 11.3705 3.81096 11.1206C3.74097 11.0606 3.71097 10.8807 3.75097 10.8007C4.27089 9.85106 4.8008 8.90139 5.35072 7.97171C5.39071 7.90174 5.61068 7.86175 5.71066 7.90174C6.05061 8.0217 6.38056 8.17165 6.7105 8.32159C6.92047 8.42156 7.07045 8.43155 7.25042 8.24162C7.64036 7.82177 8.06029 7.4319 8.47023 7.04204C8.24027 6.50223 8.0303 5.99241 7.78034 5.40261C8.83017 4.79283 9.87001 4.18304 10.9498 3.54326C11.3298 4.04309 11.6597 4.48293 12.0297 4.96277C12.5796 4.81282 13.1495 4.63288 13.7394 4.50293C13.9994 4.44295 13.9894 4.31299 14.0094 4.12306C14.0494 3.68321 14.0993 3.24337 14.1593 2.69356C15.1292 2.69356 16.069 2.69356 17.0089 2.69356C17.2389 2.69356 17.4788 2.71355 17.6888 2.78353C17.7888 2.81352 17.8788 2.98346 17.9088 3.10342C17.9787 3.49328 18.0087 3.88314 18.0787 4.27301C18.0987 4.37297 18.2187 4.50293 18.3187 4.53292C18.8086 4.68287 19.3085 4.82282 19.8085 4.93278C19.9084 4.95277 20.0784 4.8628 20.1484 4.77283C20.4384 4.40296 20.7083 4.0131 21.0483 3.54326C22.0381 4.14305 23.038 4.72285 24.0178 5.33264C24.0878 5.38262 24.1378 5.58255 24.0978 5.68252C23.9378 6.13236 23.7478 6.56221 23.5379 7.07203C23.9378 7.46189 24.3677 7.90174 24.8277 8.3016C24.9077 8.37158 25.1076 8.36158 25.2276 8.32159C25.5776 8.20163 25.9175 8.0117 26.2774 7.91174C26.4074 7.87175 26.6574 7.95172 26.7174 8.05169C27.3073 8.99136 27.8672 9.94103 28.4471 10.9207C27.9872 11.2706 27.5972 11.5505 27.2273 11.8504C27.1373 11.9203 27.0673 12.1003 27.0873 12.2102C27.1873 12.7001 27.3473 13.1799 27.4473 13.6697C27.5073 13.9596 27.7472 13.9796 27.9572 14.0196C28.2871 14.0696 28.6171 14.0896 28.957 14.0996C29.177 14.0996 29.247 14.1895 29.257 14.4095C29.277 15.1692 29.317 15.9289 29.327 16.6987C29.327 17.0186 29.297 17.3384 29.247 17.6483L29.227 17.6283Z" fill="#131416"/>
<path d="M15.4291 6.66217C13.1795 6.77213 11.1998 7.61184 9.60005 9.1713C7.3704 11.3305 6.38056 13.9896 6.7305 17.0885C7.21043 21.357 10.8099 25.2257 15.7691 25.3157C21.1382 25.4156 25.3176 21.1771 25.3276 15.9789C25.3776 10.9407 21.2182 6.36228 15.4291 6.66217ZM15.9491 22.6066C12.2796 22.6966 9.2901 19.5477 9.3201 15.9589C9.35009 12.2402 12.1796 9.46119 15.5991 9.32124C19.8584 9.1513 22.508 12.3502 22.658 15.629C22.838 19.6376 19.5285 22.7266 15.9391 22.5966L15.9491 22.6066Z" fill="#131416"/>
<path d="M12.1197 17.3085L12.0497 17.3684V19.2878H20.0084V17.3684C20.0084 17.3684 19.9584 17.3284 19.9384 17.3085H12.1197Z" fill="#131416"/>
<path d="M16.579 15.0292C17.2289 14.5594 17.9287 14.1596 18.6486 13.7097C17.9088 13.2499 17.1889 12.83 16.509 12.3602C16.099 12.0703 15.7891 12.1303 15.4191 12.3902C14.7492 12.84 14.0594 13.2599 13.3295 13.7197C14.0494 14.1795 14.7392 14.5794 15.3791 15.0292C15.8091 15.3291 16.149 15.3391 16.579 15.0292Z" fill="#131416"/>
</g>
<defs>
<clipPath id="clip0_1780_25438">
<rect width="32" height="32" fill="white"/>
</clipPath>
</defs>
</svg>
