<svg width="32" height="32" viewBox="0 0 32 32" fill="none" xmlns="http://www.w3.org/2000/svg">
<path d="M30.55 24.1294H29.09V11.0394H30.55C31.35 11.0394 32 10.3894 32 9.58941C32 8.78941 31.35 8.13941 30.55 8.13941H26.78C22.65 4.18941 18.82 3.02941 16 4.81941C13.18 3.02941 9.35 4.18941 5.22 8.12941H1.45C0.65 8.12941 0 8.77941 0 9.57941C0 10.3794 0.65 11.0294 1.45 11.0294H2.9V24.1194H1.45C0.65 24.1194 0 24.7694 0 25.5694C0 26.3694 0.65 27.0194 1.45 27.0194H4.36C5.16 27.0194 5.81 26.3694 5.81 25.5694V22.6594H6.37L6.52 22.9694C7.1 24.1294 8.21 24.8894 9.5 24.9994C10.22 25.0594 10.92 24.9194 11.54 24.5994C11.91 24.9394 12.23 25.1794 12.6 25.3594C13.81 25.9594 15.26 25.9594 16.48 25.3594C16.82 25.1894 17.11 24.9794 17.44 24.6894C19.11 26.1994 21.63 26.1894 23.3 24.6894C23.36 24.6294 23.43 24.5694 23.57 24.4194C23.71 24.2794 23.78 24.2094 23.84 24.1394C24.24 23.6994 24.54 23.1894 24.73 22.6594H26.18V25.5694C26.18 26.3694 26.83 27.0194 27.63 27.0194H30.54C31.34 27.0194 31.99 26.3694 31.99 25.5694C31.99 24.7694 31.34 24.1194 30.54 24.1194L30.55 24.1294ZM24.74 19.7694C24.55 19.2394 24.25 18.7294 23.85 18.2894C23.79 18.2294 23.72 18.1594 23.58 18.0194L21.4 15.8394C20.83 15.2694 19.91 15.2694 19.34 15.8394C18.77 16.4094 18.77 17.3294 19.34 17.8994L21.52 20.0794C21.61 20.1694 21.66 20.2194 21.69 20.2494C21.93 20.5094 22.06 20.8394 22.07 21.1694C22.07 21.1894 22.07 21.2094 22.07 21.2294C22.07 21.2494 22.07 21.2694 22.07 21.2894C22.06 21.6194 21.93 21.9394 21.69 22.2094C21.65 22.2494 21.61 22.2894 21.5 22.3994C21.42 22.4794 21.38 22.5194 21.34 22.5594C20.78 23.0694 19.94 23.0694 19.38 22.5594C19.35 22.5294 19.31 22.4894 19.21 22.3894L18.48 21.6594C18.21 21.3894 17.84 21.2294 17.45 21.2294C17.06 21.2294 16.69 21.3794 16.42 21.6594C15.81 22.2694 15.4 22.6794 15.19 22.7894C14.79 22.9894 14.3 22.9894 13.9 22.7894C13.69 22.6794 13.28 22.2794 12.66 21.6594C12.36 21.3594 11.94 21.2094 11.53 21.2394C11.11 21.2694 10.72 21.4794 10.47 21.8194C10.23 22.1394 9.9 22.1494 9.77 22.1294C9.64 22.1094 9.31 22.0494 9.13 21.6894L8.57 20.5794C8.32 20.0894 7.82 19.7794 7.27 19.7794H5.81V11.0394C6.2 11.0394 6.57 10.8894 6.84 10.6094C7.92 9.52941 11.18 6.54941 13.62 6.98941L10.6 10.0094C10.46 10.1494 10.39 10.2194 10.33 10.2794C8.81 11.9494 8.81 14.4794 10.33 16.1594C10.39 16.2194 10.45 16.2894 10.59 16.4294C10.73 16.5694 10.81 16.6494 10.87 16.6994C12.54 18.2194 15.07 18.2194 16.75 16.6994C16.81 16.6394 16.88 16.5794 17.02 16.4394L18.48 14.9794C19.05 14.4094 19.05 13.4894 18.48 12.9194C17.91 12.3494 16.99 12.3494 16.42 12.9194L14.96 14.3794C14.87 14.4694 14.82 14.5194 14.79 14.5494C14.23 15.0594 13.39 15.0594 12.83 14.5494C12.79 14.5194 12.75 14.4694 12.66 14.3894C12.57 14.2994 12.52 14.2494 12.49 14.2194C11.98 13.6594 11.98 12.8194 12.49 12.2694C12.53 12.2294 12.58 12.1794 12.67 12.0894L17.03 7.71941C19.44 5.29941 23.86 9.33941 25.15 10.6294C25.42 10.8994 25.79 11.0594 26.18 11.0594V19.7894H24.73L24.74 19.7694Z" fill="#131416"/>
</svg>
