<svg width="32" height="32" viewBox="0 0 32 32" fill="none" xmlns="http://www.w3.org/2000/svg">
<path d="M16 22.1224C12.7707 22.1224 10.1361 19.4969 10.1361 16.2584C10.1361 13.02 12.7616 10.3945 16 10.3945C19.2384 10.3945 21.8639 13.02 21.8639 16.2584C21.8639 19.4969 19.2384 22.1224 16 22.1224ZM16 13.1481C14.2802 13.1481 12.8805 14.5477 12.8805 16.2676C12.8805 17.9874 14.2802 19.3871 16 19.3871C17.7198 19.3871 19.1195 17.9874 19.1195 16.2676C19.1195 14.5477 17.7198 13.1481 16 13.1481Z" fill="#131416"/>
<path d="M16 28.5077C10.3282 28.5077 4.95826 25.5803 1.26244 20.4666C-0.420812 18.1429 -0.420812 14.3556 1.26244 12.032C4.94911 6.92739 10.3282 4 16 4C21.6718 4 27.0417 6.92739 30.7376 12.0412C32.4208 14.3648 32.4208 18.1521 30.7376 20.4757C27.0417 25.5803 21.6718 28.5077 16 28.5077ZM16 6.74443C11.2156 6.74443 6.65981 9.26015 3.48542 13.6421C2.49743 15.0051 2.49743 17.4934 3.48542 18.8565C6.65981 23.2476 11.2247 25.7633 16 25.7633C20.7753 25.7633 25.3402 23.2476 28.5146 18.8656C29.5026 17.5026 29.5026 15.0143 28.5146 13.6512C25.3402 9.26015 20.7753 6.74443 16 6.74443Z" fill="#131416"/>
</svg>
