<svg width="32" height="32" viewBox="0 0 32 32" fill="none" xmlns="http://www.w3.org/2000/svg">
<g clip-path="url(#clip0_122_389)">
<path d="M18.0638 0H13.9362C6.25007 0 0 6.25007 0 13.9362V18.0638C0 25.7499 6.25007 32 13.9362 32H18.0638C25.7499 32 32 25.7499 32 18.0638V13.9362C32 6.25007 25.7499 0 18.0638 0ZM28.9021 18.0638C28.9021 24.0429 24.0429 28.9021 18.0638 28.9021H13.9362C7.9571 28.9021 3.09794 24.0429 3.09794 18.0638V13.9362C3.09794 7.9571 7.9571 3.09794 13.9362 3.09794H18.0638C24.0429 3.09794 28.9021 7.9571 28.9021 13.9362V18.0638Z" fill="#131416"/>
<path d="M15.9955 14.451C15.1375 14.451 14.451 15.1465 14.451 15.9955V24.2506C14.451 25.1087 15.1465 25.7951 15.9955 25.7951C16.8445 25.7951 17.5399 25.0996 17.5399 24.2506V15.9955C17.5399 15.1375 16.8445 14.451 15.9955 14.451Z" fill="#131416"/>
<path d="M15.9955 7.74033C14.8575 7.74033 13.9272 8.66159 13.9272 9.80864C13.9272 10.9557 14.8484 11.8769 15.9955 11.8769C17.1425 11.8769 18.0638 10.9557 18.0638 9.80864C18.0638 8.66159 17.1425 7.74033 15.9955 7.74033Z" fill="#131416"/>
</g>
<defs>
<clipPath id="clip0_122_389">
<rect width="32" height="32" fill="white"/>
</clipPath>
</defs>
</svg>
