<svg width="37" height="35" viewBox="0 0 37 35" fill="none" xmlns="http://www.w3.org/2000/svg">
<path fill-rule="evenodd" clip-rule="evenodd" d="M22.8028 1.01777C22.7844 0.972672 22.7403 0.943325 22.6916 0.943606H14.0128C13.9646 0.943598 13.9214 0.972995 13.9036 1.01777L0.00889581 33.8872C-0.010494 33.9346 0.00249817 33.9891 0.0411933 34.0227C0.0798885 34.0562 0.135676 34.0614 0.179876 34.0355C4.82477 31.2767 10.039 29.6166 15.4239 29.1821C15.5451 29.1668 15.6591 29.1159 15.7514 29.0359C16.7152 28.1368 17.4256 27.0001 17.8114 25.7399C17.8369 25.6839 17.8166 25.6178 17.7641 25.5858C17.7116 25.5538 17.6435 25.566 17.6054 25.6142C16.7814 26.4382 15.3147 26.7905 13.8171 26.7452C12.1176 26.6937 9.78773 24.576 9.95253 21.8238C10.1173 19.0716 13.2341 17.4072 14.0725 16.8798C14.8183 16.4081 17.6384 14.3666 18.2399 12.9843C18.2588 12.9389 18.3031 12.9093 18.3522 12.9093C18.4013 12.9093 18.4456 12.9389 18.4645 12.9843C19.066 14.3666 21.8861 16.4081 22.6319 16.8798C23.4559 17.4072 26.5768 19.0737 26.7519 21.8238C26.927 24.5739 24.5806 26.6937 22.8832 26.7452C21.3856 26.7905 19.9147 26.43 19.0948 25.6142C19.0567 25.566 18.9886 25.5538 18.9362 25.5858C18.8837 25.6178 18.8634 25.6839 18.8888 25.7399C19.2747 27.0001 19.9851 28.1368 20.9488 29.0359C21.0416 29.1152 21.1554 29.166 21.2764 29.1821C26.6614 29.6158 31.8759 31.2759 36.5204 34.0355C36.5651 34.066 36.6246 34.0627 36.6656 34.0275C36.7067 33.9923 36.7189 33.9339 36.6955 33.8851L22.8028 1.01777Z" fill="url(#paint0_linear_0_9897)"/>
<mask id="mask0_0_9897" style="mask-type:luminance" maskUnits="userSpaceOnUse" x="0" y="0" width="37" height="35">
<path fill-rule="evenodd" clip-rule="evenodd" d="M22.8028 1.01777C22.7844 0.972672 22.7403 0.943325 22.6916 0.943606H14.0128C13.9646 0.943598 13.9214 0.972995 13.9036 1.01777L0.00889581 33.8872C-0.010494 33.9346 0.00249817 33.9891 0.0411933 34.0227C0.0798885 34.0562 0.135676 34.0614 0.179876 34.0355C4.82477 31.2767 10.039 29.6166 15.4239 29.1821C15.5451 29.1668 15.6591 29.1159 15.7514 29.0359C16.7152 28.1368 17.4256 27.0001 17.8114 25.7399C17.8369 25.6839 17.8166 25.6178 17.7641 25.5858C17.7116 25.5538 17.6435 25.566 17.6054 25.6142C16.7814 26.4382 15.3147 26.7905 13.8171 26.7452C12.1176 26.6937 9.78773 24.576 9.95253 21.8238C10.1173 19.0716 13.2341 17.4072 14.0725 16.8798C14.8183 16.4081 17.6384 14.3666 18.2399 12.9843C18.2588 12.9389 18.3031 12.9093 18.3522 12.9093C18.4013 12.9093 18.4456 12.9389 18.4645 12.9843C19.066 14.3666 21.8861 16.4081 22.6319 16.8798C23.4559 17.4072 26.5768 19.0737 26.7519 21.8238C26.927 24.5739 24.5806 26.6937 22.8832 26.7452C21.3856 26.7905 19.9147 26.43 19.0948 25.6142C19.0567 25.566 18.9886 25.5538 18.9362 25.5858C18.8837 25.6178 18.8634 25.6839 18.8888 25.7399C19.2747 27.0001 19.9851 28.1368 20.9488 29.0359C21.0416 29.1152 21.1554 29.166 21.2764 29.1821C26.6614 29.6158 31.8759 31.2759 36.5204 34.0355C36.5651 34.066 36.6246 34.0627 36.6656 34.0275C36.7067 33.9923 36.7189 33.9339 36.6955 33.8851L22.8028 1.01777Z" fill="white"/>
</mask>
<g mask="url(#mask0_0_9897)">
</g>
<defs>
<linearGradient id="paint0_linear_0_9897" x1="2.23264" y1="11.3393" x2="17.5416" y2="34.9724" gradientUnits="userSpaceOnUse">
<stop stop-color="#EE0974"/>
<stop offset="1" stop-color="#A039B6"/>
</linearGradient>
</defs>
</svg>
