<svg width="44" height="20" viewBox="0 0 44 20" fill="none" xmlns="http://www.w3.org/2000/svg">
<g clip-path="url(#clip0_1127_42644)">
<path d="M36.7056 11.541C36.7056 10.8591 36.764 10.1728 36.6921 9.50006C36.5166 7.8546 37.3444 7.37733 38.6489 7.99551C39.2068 8.25915 39.4812 8.20915 39.9715 8.05006C42.2883 7.30006 43.332 8.03187 43.4894 10.5228C43.5659 11.7273 43.4759 12.941 43.5344 14.1501C43.5749 15.0591 43.377 15.5091 42.3243 15.5091C41.2806 15.5091 41.0602 15.091 41.1142 14.1637C41.1727 13.1091 41.1277 12.0501 41.1232 10.991C41.1232 10.2546 41.0017 9.57278 40.066 9.60006C39.0808 9.62733 39.1483 10.4001 39.1438 11.0819C39.1348 12.141 39.0808 13.2001 39.1528 14.2546C39.2248 15.3182 38.7209 15.4955 37.8122 15.5001C36.881 15.5046 36.6561 15.0955 36.6966 14.2637C36.7415 13.3591 36.7056 12.4501 36.7056 11.5455V11.541Z" fill="#ED2A25"/>
<path fill-rule="evenodd" clip-rule="evenodd" d="M8.04515 19.5559C8.6599 19.553 9.27466 19.55 9.88941 19.55H9.89391C10.5011 19.55 11.1087 19.5523 11.7164 19.5545C13.054 19.5594 14.3923 19.5643 15.7286 19.5455C18.2388 19.5137 19.4579 18.3455 19.4894 15.8228C19.5389 11.8228 19.5389 7.81823 19.4894 3.81823C19.4624 1.42732 18.2433 0.145503 15.8995 0.104594C11.8643 0.031867 7.82006 0.031867 3.78032 0.104594C1.53552 0.145503 0.289411 1.41369 0.257921 3.6455C0.194941 7.80005 0.190442 11.9546 0.257921 16.1046C0.289411 18.341 1.55802 19.4955 3.8298 19.541C5.23492 19.5694 6.64003 19.5627 8.04515 19.5559ZM16.3382 11.2153C16.3301 10.8767 16.3221 10.538 16.3221 10.2001L16.3266 10.1955V6.35007C16.3266 4.21371 14.3427 3.0228 12.6153 4.34098L12.6038 4.34983C12.0117 4.80524 11.9503 4.85247 11.3782 4.51825C8.90844 3.07735 6.36224 3.4728 4.74274 5.46825C2.9478 7.68189 2.9793 12.1228 4.80572 14.3637C6.37123 16.2864 8.80947 16.5273 11.4681 15.0455C11.5409 15.0054 11.6221 14.9308 11.7067 14.8532C11.9669 14.6142 12.2588 14.3462 12.4353 14.9637C12.9084 16.6263 14.0137 16.3183 14.9648 16.0532C15.2437 15.9755 15.5093 15.9015 15.7418 15.8819C16.5487 15.8145 16.447 15.101 16.3477 14.4042C16.3064 14.1144 16.2655 13.8274 16.2906 13.591C16.3758 12.8066 16.357 12.0111 16.3382 11.2153Z" fill="#ED2A25"/>
<path fill-rule="evenodd" clip-rule="evenodd" d="M21.3652 8.64578C21.3609 9.04888 21.3565 9.45194 21.3565 9.8546L21.352 9.85915C21.352 10.3607 21.351 10.8622 21.35 11.3637C21.348 12.3667 21.346 13.3698 21.352 14.3728C21.352 14.4171 21.3513 14.4634 21.3506 14.5108C21.3436 15.0019 21.3349 15.6101 22.0448 15.4319C22.7963 15.2408 23.5291 15.3396 24.2562 15.4377C24.861 15.5193 25.4619 15.6004 26.0665 15.5137C27.5735 15.291 28.7162 13.4637 28.4508 11.4591C28.2258 9.74551 27.8884 7.63187 25.6391 7.81824C23.7812 7.97278 23.5518 7.34551 23.7407 5.85915C23.8532 4.99096 23.6553 4.47278 22.5756 4.48187C21.5724 4.49096 21.2935 4.83642 21.3385 5.79096C21.3859 6.73966 21.3756 7.69284 21.3652 8.64578ZM23.7499 11.071C23.7556 11.2981 23.7613 11.5245 23.7317 11.7273C23.7641 11.917 23.7607 12.1314 23.7574 12.3467C23.7467 13.0289 23.7359 13.7211 24.8609 13.6728C26.0166 13.6236 25.972 12.7953 25.9318 12.0498C25.9237 11.8986 25.9158 11.7508 25.918 11.6137C25.919 11.549 25.9208 11.4824 25.9226 11.4146C25.9443 10.5848 25.971 9.56325 24.7484 9.61367C23.7143 9.65491 23.7322 10.3667 23.7499 11.071Z" fill="#ED2A25"/>
<path fill-rule="evenodd" clip-rule="evenodd" d="M32.4726 7.71367C30.2143 7.70458 28.8692 9.14094 28.8422 11.5909H28.8377C28.8152 14.0955 30.0704 15.5364 32.3286 15.5955C34.6004 15.6546 36.0445 14.2273 36.121 11.8455C36.2019 9.33639 34.7759 7.72276 32.4726 7.71367ZM33.6742 12.2727C33.7037 12.0692 33.7331 11.8663 33.7857 11.6819C33.7457 11.5098 33.7193 11.3243 33.6927 11.1377C33.5879 10.4024 33.4805 9.64907 32.5261 9.62731C31.2095 9.59648 31.2111 10.7097 31.2125 11.6597C31.2125 11.69 31.2126 11.7201 31.2126 11.75L31.2126 11.7515C31.2171 12.6512 31.2223 13.6909 32.4902 13.6682C33.4748 13.6472 33.575 12.9566 33.6742 12.2727Z" fill="#ED2A25"/>
<path d="M12.737 9.85913C12.4806 11.4819 11.8238 12.7637 9.92085 12.6455C8.1889 12.5364 7.48712 11.3682 7.47362 9.7455C7.46012 8.04095 8.70623 6.77277 10.2493 6.92731C11.9497 7.0955 12.6605 8.20459 12.737 9.85459V9.85913Z" fill="#ED2A25"/>
</g>
<defs>
<clipPath id="clip0_1127_42644">
<rect width="43.6364" height="20" fill="white" transform="translate(0.181641)"/>
</clipPath>
</defs>
</svg>
