<svg width="103" height="16" viewBox="0 0 103 16" fill="none" xmlns="http://www.w3.org/2000/svg">
<g clip-path="url(#clip0_1127_42642)">
<path d="M77.3607 6.9075C77.46 6.83078 77.5566 6.75547 77.651 6.68187C78.5363 5.99169 79.2288 5.45182 80.1673 5.30537C82.8109 4.89594 84.5235 6.19867 84.6465 8.88872C84.6901 9.85015 84.688 10.8142 84.6859 11.7782V11.7788C84.6839 12.7247 84.6818 13.6706 84.723 14.614C84.7695 15.7001 84.3339 15.9032 83.3629 15.8693C83.0301 15.8575 82.7455 15.8524 82.5022 15.8481C81.7376 15.8344 81.381 15.828 81.2193 15.6442C81.078 15.4837 81.0852 15.1878 81.0988 14.6334C81.1059 14.3436 81.1148 13.9832 81.105 13.5346C81.0941 13.0293 81.0883 12.524 81.0824 12.0188C81.0739 11.289 81.0654 10.5592 81.0418 9.8294C81.0119 8.90564 80.7093 8.15446 79.6585 8.05633C78.5545 7.95143 77.8828 8.49283 77.5868 9.5587C77.3032 10.5769 77.3354 11.6093 77.3676 12.6408V12.6411C77.3826 13.1212 77.3976 13.6012 77.3807 14.0793C77.3753 14.2354 77.397 14.4162 77.419 14.6005C77.4793 15.1037 77.5427 15.6329 77.0681 15.7543C76.2149 15.9698 75.2625 15.8653 74.3522 15.7655C74.2762 15.7571 74.2005 15.7488 74.1252 15.7408C73.8277 15.7077 73.8491 15.3569 73.8675 15.056C73.8717 14.9869 73.8758 14.9204 73.8758 14.861C73.8748 13.5067 73.8753 12.1524 73.8757 10.7981C73.8768 7.54717 73.8779 4.29622 73.8591 1.04527C73.8558 0.304232 74.1252 0.121511 74.8235 0.0809063L74.9118 0.0756002C76.1301 0.00230907 76.7423 -0.0345196 77.05 0.259092C77.3607 0.555654 77.3607 1.18933 77.3607 2.46304V6.9075Z" fill="#ED2A25"/>
<path fill-rule="evenodd" clip-rule="evenodd" d="M60.8925 5.51608C60.1562 5.41547 59.3877 5.31046 59.3245 6.86862H59.3212C58.1806 5.51513 56.9669 5.00758 55.4771 5.24105C53.4953 5.55235 52.1685 6.87877 51.7528 8.99021C51.234 11.6295 52.082 14.2993 53.8477 15.2873C55.8662 16.4175 57.6586 15.849 59.258 14.2688C59.4875 15.9438 59.6105 15.9404 61.6755 15.8795C62.7877 15.8474 62.704 15.2344 62.6255 14.6597C62.6045 14.5057 62.5839 14.3546 62.5867 14.2181C62.6158 12.6742 62.6124 11.1304 62.609 9.58659V9.58458C62.607 8.65896 62.605 7.73334 62.61 6.80771C62.6102 6.75984 62.6108 6.71159 62.6114 6.66331C62.6198 6.00516 62.6283 5.34046 61.6556 5.5422C61.4301 5.58955 61.1635 5.55311 60.8925 5.51608ZM59.5703 10.3031C59.4905 8.86166 58.5926 7.98866 57.2226 8.02588H57.2259C55.8226 8.0631 54.998 9.05791 55.0611 10.6347C55.1177 12.0187 56.082 12.9729 57.3955 12.9424C58.739 12.912 59.6534 11.8055 59.5703 10.3031Z" fill="#ED2A25"/>
<path fill-rule="evenodd" clip-rule="evenodd" d="M24.6609 6.71975C24.9776 5.32436 25.8098 5.45757 26.6049 5.58483C26.8953 5.6313 27.1807 5.67699 27.4342 5.64712C28.2615 5.54917 28.177 6.12216 28.1042 6.61605C28.0839 6.75349 28.0646 6.88481 28.066 6.99383C28.0929 8.52931 28.0902 10.0648 28.0875 11.6003C28.0859 12.5349 28.0843 13.4695 28.0893 14.4042C28.0896 14.4838 28.0915 14.5641 28.0934 14.6438C28.1102 15.3663 28.1261 16.0444 26.982 15.8524C26.7644 15.8162 26.5148 15.8317 26.265 15.8471C25.4418 15.8982 24.6165 15.9494 24.9303 14.1504C23.803 15.152 22.7954 15.8761 21.4719 15.8524C20.1218 15.8253 19.0045 15.3245 18.1832 14.2079C16.5704 12.0119 16.8497 7.95143 18.7285 6.29002C20.4344 4.78088 22.7522 4.89931 24.6609 6.71975ZM20.5374 10.5095C20.5408 11.907 21.4552 12.9187 22.7355 12.9458C24.0756 12.9729 25.0566 11.9374 25.0832 10.4655C25.1098 9.08158 24.1953 8.08338 22.8751 8.05293C21.4719 8.02247 20.5308 9.01052 20.5374 10.5095Z" fill="#ED2A25"/>
<path d="M68.1228 13.2842C66.9091 13.3214 65.8749 12.7867 64.5182 11.8325L64.5116 11.8359C64.6717 12.3632 64.4653 12.8438 64.2752 13.2865C63.9956 13.9376 63.7514 14.5064 64.7609 15.02C66.4934 15.8964 68.3523 16.1468 70.2477 15.5749C71.9968 15.0471 72.9512 13.5481 72.6253 11.8596C72.3294 10.3162 71.1302 9.87502 69.9077 9.42524C69.8115 9.38987 69.7152 9.35445 69.6192 9.31843C69.4449 9.25308 69.2248 9.2088 68.9982 9.16323C68.3213 9.0271 67.5869 8.8794 67.8435 8.12398C68.1354 7.26122 69.0803 7.52882 69.9051 7.76238C70.0669 7.8082 70.2241 7.85271 70.3708 7.88712C70.4602 7.90797 70.5412 7.95641 70.6227 8.00511C70.6867 8.04335 70.7509 8.08176 70.8197 8.10706C70.9008 8.13589 70.9898 8.18749 71.0801 8.23995C71.3823 8.41533 71.7008 8.60021 71.8007 7.9751C71.8333 7.77559 71.9441 7.55869 72.0561 7.33957C72.3201 6.82285 72.5904 6.29379 71.8572 5.95163C70.0083 5.08879 68.0364 4.78087 66.0811 5.74523C64.9671 6.29677 64.4683 7.25775 64.4949 8.48266C64.5182 9.68049 65.1567 10.496 66.2307 10.9189C66.6304 11.0771 67.0435 11.1986 67.4568 11.3202C67.7862 11.417 68.1158 11.514 68.4388 11.6295C68.4927 11.649 68.5491 11.6678 68.6065 11.6869C69.0263 11.8267 69.4966 11.9834 69.4264 12.5668C69.345 13.2632 68.777 13.2726 68.2752 13.2809C68.2235 13.2817 68.1725 13.2826 68.1228 13.2842Z" fill="#ED2A25"/>
<path d="M50.6853 8.53341C49.2687 7.89389 47.9286 7.46077 46.9011 8.92592C46.2095 9.91397 46.1828 11.0881 46.9576 12.0626C47.9918 13.3654 49.2621 13.0879 50.5191 12.3502C51.0877 15.3685 50.958 15.9268 47.3633 15.7847C45.305 15.7035 43.8285 14.4515 43.2433 12.4416C42.6347 10.3539 42.811 8.30332 44.457 6.67237C45.9833 5.16323 47.8488 4.87561 49.8307 5.45085C50.9609 5.77851 50.8317 6.51946 50.6978 7.28641C50.623 7.71541 50.5467 8.15254 50.6887 8.53003L50.6853 8.53341Z" fill="#ED2A25"/>
<path d="M38.11 7.38553C38.3307 7.1744 38.5221 6.98139 38.6973 6.80472C39.0455 6.45369 39.3297 6.16714 39.6519 5.93132C40.4467 5.34593 41.6006 4.95342 42.2623 5.51174C42.7343 5.91156 42.5853 6.61904 42.437 7.32309C42.3732 7.62601 42.3096 7.9283 42.2956 8.20518C42.2726 8.6614 41.9804 8.61125 41.6805 8.55977C41.5889 8.54405 41.4966 8.52821 41.411 8.52663C39.346 8.48941 38.5246 9.24398 38.3517 11.3757C38.2786 12.2623 38.2387 13.1759 38.3617 14.0522C38.5679 15.5377 38.0558 16.2009 36.5926 15.8321C36.3975 15.7832 36.1533 15.8293 35.9066 15.8759C35.3334 15.9841 34.7467 16.0949 34.7305 15.0234C34.7114 13.5335 34.714 12.0427 34.7166 10.552V10.5515C34.7191 9.18484 34.7215 7.81824 34.7072 6.45241C34.7005 5.77567 34.9533 5.4982 35.5684 5.61663C35.8416 5.66995 36.168 5.63408 36.4956 5.59809C37.4347 5.49488 38.3828 5.39068 38.11 7.38553Z" fill="#ED2A25"/>
<path d="M33.3405 10.7091C33.3405 11.0986 33.3339 11.4887 33.3273 11.8789C33.3119 12.7835 33.2964 13.6885 33.3638 14.5869C33.447 15.6832 33.018 15.8862 32.0403 15.8727L31.8921 15.8708C29.7225 15.8434 29.7193 15.8433 29.7193 13.6124C29.7193 12.959 29.7243 12.3057 29.7294 11.6524V11.6516C29.7417 10.0553 29.754 8.45935 29.6927 6.86524C29.6494 5.78583 30.0052 5.54221 30.9995 5.57943C31.3655 5.59314 31.6753 5.5986 31.9375 5.60323C32.7055 5.61677 33.0648 5.6231 33.228 5.80834C33.3715 5.9712 33.3635 6.27237 33.3484 6.83835C33.3402 7.14443 33.33 7.52796 33.3405 8.00894C33.3538 8.6089 33.3494 9.20886 33.345 9.80882C33.3428 10.1088 33.3405 10.4091 33.3405 10.7091Z" fill="#ED2A25"/>
<path d="M3.919 5.21826C2.77517 5.21782 1.60509 5.21738 0.39981 5.21738H0.396484C0.76239 5.51455 1.04053 5.8303 1.29329 6.11721C1.78017 6.66991 2.17283 7.11565 2.91708 7.11565C3.62272 7.11497 4.32836 7.11389 5.03401 7.1128C7.85646 7.10847 10.6791 7.10414 13.5016 7.1258C14.2232 7.13257 14.436 6.88217 14.446 6.15467C14.4559 5.37303 14.1301 5.21061 13.465 5.21061C10.3589 5.22069 7.25102 5.21951 3.92054 5.21826H3.919Z" fill="#ED2A25"/>
<path d="M101.393 5.22075C100.522 6.50318 99.7405 7.21714 98.2508 7.15624C95.847 7.05687 93.4356 7.08029 91.0252 7.1037C90.2346 7.11138 89.444 7.11905 88.6539 7.1224C88.0321 7.1224 87.6064 7.07503 87.6364 6.23586C87.6596 5.55912 87.766 5.20721 88.5309 5.2106C91.6154 5.22791 94.7017 5.22534 97.8651 5.2227L97.8662 5.2227C99.0302 5.22173 100.205 5.22075 101.393 5.22075Z" fill="#ED2A25"/>
<path d="M4.73336 9.58574H4.72914V9.58235L4.73336 9.58574Z" fill="#ED2A25"/>
<path d="M5.63429 10.4821C5.37917 10.1949 5.09979 9.88044 4.73336 9.58574C5.63632 9.58574 6.49851 9.58677 7.33116 9.58776L7.33325 9.58776H7.3336C9.52478 9.59037 11.5114 9.59274 13.498 9.57559C14.2096 9.56882 14.4424 9.81921 14.4491 10.5535C14.4557 11.3148 14.1764 11.5111 13.4847 11.5009C11.4463 11.4705 9.40787 11.4569 7.36945 11.5009C6.55543 11.5189 6.14312 11.0548 5.63429 10.4821Z" fill="#ED2A25"/>
<path d="M97.0899 9.58574C96.2153 10.9054 95.3973 11.6464 93.9142 11.5212C92.7004 11.4195 91.4747 11.4443 90.2492 11.4691C89.7625 11.479 89.2758 11.4888 88.7899 11.4908C88.7424 11.4908 88.6953 11.4913 88.6488 11.4918C88.0866 11.4979 87.6137 11.5031 87.626 10.5873C87.636 9.7177 87.9785 9.56882 88.7101 9.57559C90.6687 9.59503 92.6256 9.59178 94.6571 9.5884H94.66C95.4558 9.58708 96.2632 9.58574 97.0866 9.58574H97.0899Z" fill="#ED2A25"/>
<path d="M29.5363 2.14496C29.4398 3.3834 30.1415 4.12105 31.3652 4.37822H31.3685C32.5224 4.29362 33.387 3.78945 33.4868 2.50025C33.5832 1.24151 32.9514 0.432801 31.6977 0.34144C30.4807 0.253464 29.6327 0.872684 29.5363 2.14496Z" fill="#ED2A25"/>
<path d="M9.30796 13.9034C9.74335 13.9034 10.168 13.9061 10.585 13.9087C11.5788 13.9149 12.5292 13.9208 13.4779 13.8899C14.1729 13.8696 14.4389 14.0793 14.4489 14.8271C14.4589 15.6257 14.2128 15.8626 13.4247 15.8862C11.7886 15.937 10.239 15.9269 9.30796 13.9034Z" fill="#ED2A25"/>
<path d="M88.2243 15.8829C90.1264 16.316 91.4898 15.778 92.6537 13.9034H92.6504C92.1998 13.9034 91.7573 13.9043 91.3203 13.9053C90.3188 13.9074 89.3463 13.9094 88.374 13.9C87.7887 13.8932 87.5992 14.1876 87.659 14.729C87.6714 14.8337 87.6671 14.9426 87.6628 15.0503C87.6486 15.4056 87.6349 15.7478 88.2243 15.8829Z" fill="#ED2A25"/>
</g>
<defs>
<clipPath id="clip0_1127_42642">
<rect width="102" height="16" fill="white" transform="translate(0.181641)"/>
</clipPath>
</defs>
</svg>
