<svg width="36" height="24" viewBox="0 0 36 24" fill="none" xmlns="http://www.w3.org/2000/svg">
<g clip-path="url(#clip0_1127_42619)">
<path d="M33 0H3C1.34315 0 0 1.34315 0 3V21C0 22.6569 1.34315 24 3 24H33C34.6569 24 36 22.6569 36 21V3C36 1.34315 34.6569 0 33 0Z" fill="white"/>
<g opacity="0.01">
<path d="M32.5208 2.3999H3.48828V21.5999H32.5208V2.3999Z" fill="white"/>
</g>
<path d="M21.8333 5.74487H14.1758V18.2549H21.8333V5.74487Z" fill="#7272B5"/>
<path d="M15.0015 11.9999C14.9889 9.56501 16.0948 7.25915 18.0015 5.74486C14.7392 3.17933 10.053 3.55188 7.23699 6.60061C4.421 9.64935 4.421 14.3504 7.23699 17.3991C10.053 20.4478 14.7392 20.8204 18.0015 18.2549C16.0948 16.7406 14.9889 14.4347 15.0015 11.9999Z" fill="#ED1C24"/>
<path d="M30.87 11.9998C30.868 15.0443 29.1291 17.8209 26.3909 19.1517C23.6527 20.4825 20.3951 20.1343 18 18.2548C21.45 15.5383 22.0475 10.5405 19.335 7.08731C18.9462 6.58726 18.4979 6.13644 18 5.74481C20.3951 3.8653 23.6527 3.51711 26.3909 4.84794C29.1291 6.17876 30.868 8.9553 30.87 11.9998Z" fill="#00A1DE"/>
</g>
<defs>
<clipPath id="clip0_1127_42619">
<rect width="36" height="24" fill="white"/>
</clipPath>
</defs>
</svg>
