<svg width="36" height="24" viewBox="0 0 36 24" fill="none" xmlns="http://www.w3.org/2000/svg">
<g clip-path="url(#clip0_1127_42635)">
<path d="M33 0H3C1.34315 0 0 1.34315 0 3V21C0 22.6569 1.34315 24 3 24H33C34.6569 24 36 22.6569 36 21V3C36 1.34315 34.6569 0 33 0Z" fill="white"/>
<path d="M17.2882 11.7999C18.0082 11.8143 19.2664 11.8359 19.4682 10.0015C19.6624 8.28954 18.5834 8.15294 17.6052 8.21754C17.5692 8.44774 17.5404 8.66354 17.5052 8.88654C17.3758 9.75694 17.2534 10.6129 17.0664 11.7997L17.2882 11.7999Z" fill="#191C1F"/>
<path fill-rule="evenodd" clip-rule="evenodd" d="M19.1505 5.46919C21.3157 5.51239 22.3875 6.49779 22.9053 7.32499C23.3159 7.99323 23.5302 8.7635 23.5239 9.54779V9.73479C23.4879 10.4326 23.4239 11.756 21.8623 13.0508C22.8405 15.3454 23.0423 15.7708 23.2363 16.1366C23.5313 16.712 23.3873 17.4166 22.8839 17.8198C22.2797 18.3018 21.6899 18.496 20.6253 18.5678C20.5389 18.575 20.4453 18.575 20.3591 18.575C19.8518 18.5862 19.3495 18.4735 18.8957 18.2466C18.442 18.0197 18.0504 17.6855 17.7551 17.273C17.6677 17.5033 17.5183 17.7049 17.3235 17.8556C16.7049 18.3304 16.1295 18.503 15.0649 18.539C14.9713 18.5462 14.8779 18.5462 14.7915 18.5462C13.8205 18.5462 13.2809 18.1218 12.9859 17.7694C12.2521 16.8774 12.4751 15.6618 12.6551 14.6908V14.6836C12.7055 14.4102 12.7487 14.1236 12.7773 13.8348V13.7988C12.7989 13.5758 12.8709 13.1588 12.9931 12.389L13.0075 12.2954C13.2017 11.1086 13.6981 8.03699 13.6475 7.35359C13.6057 7.17971 13.5989 6.99929 13.6273 6.82274C13.6556 6.64619 13.7187 6.47702 13.8129 6.32499C13.9063 6.17297 14.0297 6.04161 14.1757 5.93896C14.3216 5.83631 14.487 5.76452 14.6617 5.72799C15.6051 5.51229 16.5711 5.41083 17.5389 5.42579C18.0005 5.41879 18.5247 5.43319 19.1505 5.46919ZM14.9425 7.04439C16.0005 6.81419 16.8127 6.69999 19.1073 6.81419C22.1285 6.87179 22.2005 9.13759 22.2005 9.56199C22.2005 9.59799 22.1933 9.63399 22.1933 9.66979C22.1573 10.3532 22.1069 11.461 20.2079 12.5758C21.6753 16.6112 21.8119 16.6688 22.0421 16.7694C22.0493 16.7694 22.0493 16.7766 22.0565 16.7766C21.9415 16.9132 21.5457 17.1074 20.4739 17.1722C18.9417 17.28 18.5749 16.014 18.5749 16.014L17.6755 13.28H16.8205C16.7773 13.575 16.7269 13.8626 16.6839 14.136C16.4605 15.5248 16.3017 16.532 16.5103 16.7908C16.1579 16.9708 15.9205 17.0066 15.1867 17.1144C15.1219 17.1216 15.0501 17.136 14.9781 17.1432C13.5181 17.3518 13.7337 16.1432 13.9495 14.942C14.0143 14.5968 14.0717 14.2514 14.0933 13.942C14.1149 13.7406 14.2011 13.2154 14.3091 12.5322C14.5105 11.3022 14.7911 9.58299 14.9133 8.37459C14.9857 7.73499 15.0073 7.24579 14.9425 7.04439Z" fill="#191C1F"/>
</g>
<defs>
<clipPath id="clip0_1127_42635">
<rect width="36" height="24" fill="white"/>
</clipPath>
</defs>
</svg>
