<svg width="94" height="32" viewBox="0 0 94 32" fill="none" xmlns="http://www.w3.org/2000/svg">
<path d="M23.8976 27.2268L23.7418 27.2537C24.3321 26.7085 25.0142 26.3116 25.6961 25.9148L25.8034 25.8523C26.091 25.6841 26.1075 25.5274 25.8642 25.3051C25.5905 25.0572 25.2808 24.9261 24.9103 25.0743C24.7362 25.1427 24.5371 25.2139 24.4071 25.0173C24.2634 24.7979 24.0698 24.7922 23.8597 24.8093C23.5473 24.8321 23.2542 24.9318 22.9611 25.0458C22.8737 25.08 22.7889 25.1242 22.7038 25.1684C22.5198 25.2642 22.3352 25.3603 22.1233 25.3564C21.0976 25.3365 20.1603 25.6727 19.3087 26.2C18.5677 26.6588 17.882 26.7158 17.0691 26.4137C15.6259 25.8779 14.1301 25.6329 12.6647 26.3196C12.1255 26.5733 11.6942 26.5134 11.1744 26.2968C8.77172 25.288 6.69529 23.8432 5.05848 21.743C3.42444 19.6456 2.47055 17.2603 2.29084 14.5873C2.15536 12.5982 2.55073 10.6746 3.47421 8.92201C5.69441 4.71295 9.26664 2.69534 13.8066 2.30492C13.8467 2.30136 13.8868 2.29798 13.9268 2.29459C14.0471 2.28444 14.1674 2.27429 14.2877 2.25933C14.343 2.25078 14.401 2.22228 14.3955 2.14534C14.3872 2.07124 14.3291 2.0456 14.2738 2.0399C14.2302 2.03648 14.1865 2.03283 14.1428 2.02918C13.968 2.01459 13.7933 2 13.6186 2C11.9126 2.00855 10.262 2.33627 8.6556 2.91476C6.40498 3.72409 4.45021 4.99507 2.89082 6.8702C0.308414 9.97926 -0.526581 13.5614 0.316709 17.5282C1.08811 21.1616 3.15348 23.9373 6.03449 26.0974C8.4427 27.9012 11.2048 28.7704 14.0941 29.3176C14.8134 29.4532 15.5379 29.5385 16.2623 29.6238C16.816 29.6891 17.3697 29.7543 17.9207 29.8419C18.0037 29.8551 18.0873 29.8693 18.1714 29.8835C18.7231 29.9772 19.2954 30.0742 19.8423 29.916C20.1141 29.8375 20.3867 29.7619 20.6593 29.6864C21.7623 29.3805 22.8653 29.0747 23.9095 28.5766C24.2965 28.3914 24.703 28.2518 25.126 28.1948C25.5159 28.1406 25.8974 28.0637 26.2734 27.9554C26.4117 27.9155 26.5527 27.8499 26.4338 27.6989L26.3949 27.6496C26.1733 27.3685 25.9501 27.0851 25.5269 27.0663C24.9753 27.0403 24.4418 27.1326 23.8976 27.2268Z" fill="#A2ABB0"/>
<path fill-rule="evenodd" clip-rule="evenodd" d="M12.7471 16.9212C12.7471 16.4318 12.7476 15.9424 12.7481 15.4529C12.7497 13.9844 12.7513 12.5156 12.7388 11.0451C12.7388 10.706 12.8522 10.5977 13.1535 10.6176C14.2081 10.6903 15.2648 10.6922 16.3213 10.6941C17.6248 10.6965 18.928 10.6988 20.2261 10.8342C21.8132 10.9995 23.3007 11.464 24.4232 12.7378C26.931 15.5904 25.8112 20.5461 21.9846 21.4181C21.7717 21.4666 21.5616 21.5264 21.3514 21.5919C21.3392 21.5957 21.3262 21.5992 21.3131 21.6028C21.2371 21.6232 21.1531 21.6458 21.1413 21.743C21.1317 21.8274 21.1997 21.8707 21.2594 21.9088C21.2683 21.9144 21.2769 21.9199 21.2851 21.9254C22.203 22.521 23.1431 23.0653 24.2407 23.2277C24.2705 23.232 24.3005 23.236 24.3305 23.2401C24.5396 23.2685 24.7517 23.2973 24.9402 23.4044C25.2499 23.5839 25.2527 23.8404 24.9513 24.0256C24.7661 24.1396 24.5753 24.1681 24.3568 24.1197C22.9191 23.8062 21.6749 23.0852 20.4998 22.2103C20.1773 21.9691 19.8523 21.7303 19.5272 21.4916C19.3647 21.3722 19.2022 21.2528 19.04 21.1331C19.025 21.1219 19.01 21.1091 18.9948 21.0962C18.9288 21.0399 18.8588 20.9802 18.769 21.0334C18.6967 21.0763 18.7025 21.1586 18.7081 21.2364C18.7095 21.2567 18.711 21.2767 18.711 21.2956C18.711 21.438 18.7107 21.5805 18.7105 21.723C18.7096 22.293 18.7087 22.8629 18.722 23.4329C18.7303 23.7606 18.6418 23.8945 18.2935 23.8888C18.1596 23.8866 18.0257 23.8843 17.8917 23.882L17.8892 23.8819C16.8039 23.8631 15.7147 23.8441 14.6328 23.8974C13.6761 23.9458 12.7222 23.9116 11.7711 23.8689C10.3693 23.8033 9.09469 23.393 8.22375 22.1419C8.00533 21.8285 7.84497 21.4922 7.75372 21.1189C7.67907 20.8083 7.83667 20.4805 8.11316 20.358C8.24311 20.2982 8.33158 20.3409 8.41177 20.4492C8.5196 20.5974 8.5666 20.7712 8.59425 20.9422C8.71314 21.6945 9.16934 22.2018 9.76379 22.5808C10.6154 23.1251 11.5637 23.2647 12.548 23.2248C12.7481 23.2167 12.7477 23.0897 12.7472 22.9521L12.7471 22.9313V16.9212ZM18.711 15.7927H18.7082V19.6342L18.7079 19.662L18.7074 19.6894C18.7051 19.8029 18.7028 19.9164 18.7884 20.0046C19.2833 20.5147 19.8141 20.9906 20.5524 21.0106C21.7772 21.0448 22.767 20.4606 23.6352 19.637C24.426 18.8875 24.7605 17.8987 24.8905 16.8243C25.1117 15.0205 24.578 13.55 23.0767 12.5212C21.8463 11.6777 20.4832 11.4298 19.0289 11.5523C18.7745 11.5723 18.7027 11.6521 18.7054 11.9142C18.7155 12.8551 18.7138 13.7944 18.7122 14.7344C18.7116 15.087 18.711 15.4398 18.711 15.7927Z" fill="#A2ABB0"/>
<path d="M15.2547 9.78274H16.5265V9.77134C16.6711 9.77134 16.8156 9.77041 16.9602 9.76948C17.3216 9.76716 17.683 9.76483 18.0444 9.77704C18.285 9.78559 18.3762 9.7001 18.3679 9.45217C18.3513 8.89647 18.3513 8.33793 18.3513 7.78223C18.3458 5.90995 17.0325 4.58767 15.2187 4.63042C13.8584 4.66462 12.7248 5.8843 12.7442 7.29777C12.7635 8.67704 13.8778 9.78274 15.2547 9.78274Z" fill="#A2ABB0"/>
<path fill-rule="evenodd" clip-rule="evenodd" d="M48.6913 13.4561C48.6913 13.2199 48.6919 12.9836 48.6925 12.7474C48.6942 12.1173 48.6958 11.4872 48.6858 10.8572C48.683 10.6121 48.7493 10.5295 48.9927 10.5323C49.412 10.5392 49.832 10.5381 50.2521 10.5371C50.7071 10.536 51.1622 10.5348 51.6165 10.5437C52.6506 10.5637 53.234 11.0453 53.3805 12.0227C53.469 12.6069 53.3252 13.1284 52.8248 13.4932C52.8112 13.5031 52.7956 13.513 52.7798 13.523C52.6954 13.5764 52.6025 13.6351 52.7584 13.7383C53.2008 14.0318 53.2782 14.4991 53.3252 14.9751C53.3333 15.0555 53.3404 15.136 53.3475 15.2165C53.377 15.5494 53.4065 15.8821 53.5022 16.2033C53.5547 16.38 53.4745 16.4142 53.3335 16.4142C53.2487 16.4142 53.1642 16.4126 53.0798 16.411L53.0789 16.411C52.9108 16.4078 52.7422 16.4047 52.5732 16.4142C52.3409 16.4256 52.2386 16.323 52.211 16.0922L52.1993 15.9929C52.1536 15.6035 52.1075 15.2106 52.0285 14.8297C51.9234 14.3282 51.7437 14.18 51.2405 14.1458C51.0446 14.1328 50.8469 14.1346 50.649 14.1365C50.5005 14.1379 50.3518 14.1393 50.2037 14.1344C50.0018 14.1287 49.9493 14.2256 49.9521 14.4165C49.9562 14.6958 49.9562 14.9743 49.9562 15.2529C49.9562 15.5315 49.9562 15.81 49.9604 16.0893C49.9659 16.3258 49.8968 16.4455 49.6452 16.4227C49.4267 16.4056 49.2056 16.4056 48.9899 16.4227C48.7411 16.4455 48.6775 16.3401 48.6802 16.095C48.6885 15.4367 48.6875 14.7785 48.6864 14.1202C48.6861 13.9008 48.6858 13.6813 48.6858 13.4618L48.6913 13.4561ZM50.9004 11.6323C50.824 11.6323 50.7473 11.6329 50.6705 11.6336C50.5166 11.6348 50.3623 11.6361 50.2092 11.6323C50.0378 11.6266 49.9548 11.6893 49.9604 11.8774C49.9673 12.1742 49.9646 12.471 49.9619 12.7678L49.9604 12.946C49.9604 13.08 49.9852 13.1911 50.1428 13.1854C50.3062 13.1777 50.4703 13.1818 50.6343 13.1859C50.9532 13.1938 51.2721 13.2018 51.5861 13.1227C51.9843 13.0201 52.1557 12.7352 52.0783 12.3277C51.9594 11.7235 51.8598 11.638 51.2433 11.638H50.8977L50.9004 11.6323Z" fill="#A2ABB0"/>
<path fill-rule="evenodd" clip-rule="evenodd" d="M64.1341 16.4495L64.1342 16.4474C64.1351 16.2833 64.136 16.1142 64.136 15.9381C64.1925 15.9836 64.2349 16.0168 64.269 16.0437C64.3118 16.0772 64.3419 16.1008 64.371 16.1261C64.9738 16.6334 65.8668 16.5935 66.4585 16.0777C67.429 15.2342 67.3488 13.436 66.5719 12.5953C65.9664 11.9399 65.1037 11.8487 64.3904 12.3673L64.3712 12.3814C64.2983 12.4356 64.2043 12.5054 64.1637 12.393C64.0468 12.0786 63.8307 12.0962 63.6158 12.1136C63.5307 12.1206 63.4458 12.1275 63.3674 12.1137C63.0356 12.0567 62.9333 12.2106 62.9361 12.5526C62.9479 13.6086 62.9457 14.666 62.9434 15.7238V15.7308C62.9425 16.155 62.9416 16.5796 62.9416 17.0039C62.9402 17.4516 62.9395 17.6733 63.0467 17.7861C63.1516 17.8965 63.3598 17.9027 63.7721 17.9148L63.8042 17.9158C64.0669 17.9243 64.1498 17.8417 64.1416 17.5767C64.1299 17.2106 64.1319 16.8446 64.1341 16.4495ZM65.712 13.3761C65.9028 13.6412 65.9857 13.9461 65.9774 14.3052C65.9913 14.5331 65.9194 14.7697 65.8226 15.0005C65.6871 15.3225 65.4493 15.5134 65.1065 15.5248C64.7443 15.5362 64.4485 15.3881 64.2853 15.0432C64.0503 14.5474 64.0503 14.0316 64.266 13.53C64.5508 12.8689 65.2973 12.7948 65.712 13.3761Z" fill="#A2ABB0"/>
<path fill-rule="evenodd" clip-rule="evenodd" d="M87.1537 12.6212C87.4468 12.3647 87.6707 12.1738 87.9776 12.1111C88.8762 11.9258 89.4817 12.2051 89.8633 13.0629C90.2587 13.952 90.2808 14.8525 89.7499 15.7074C89.3131 16.4113 88.4007 16.6991 87.6486 16.3914C87.585 16.3657 87.5242 16.3287 87.4717 16.2859C87.4326 16.2561 87.3928 16.2055 87.3531 16.1552C87.2298 15.9986 87.1082 15.8443 87.0182 16.323C86.9957 16.439 86.8834 16.4284 86.7827 16.419C86.7597 16.4168 86.7374 16.4147 86.7168 16.4142C86.5818 16.4113 86.4705 16.4144 86.3789 16.417C86.1952 16.4222 86.0902 16.4252 86.0307 16.3731C85.9513 16.3036 85.9526 16.1362 85.9556 15.7455L85.9565 15.6134C85.9676 14.0717 85.9703 12.5328 85.9703 10.9911C85.9703 10.5494 85.9703 10.5437 86.4099 10.5409C86.9058 10.5409 87.1537 10.7926 87.1537 11.296V12.6212ZM88.9287 14.2712C88.9509 14.0033 88.8707 13.7468 88.7739 13.4903C88.6412 13.1484 88.3841 13.0116 88.0468 12.9973C87.7177 12.9859 87.4717 13.137 87.3168 13.4362C87.0707 13.9149 87.0846 14.4222 87.2339 14.9152C87.3417 15.2743 87.5905 15.5193 87.9914 15.5307C88.3675 15.5421 88.6274 15.3455 88.8016 14.9351C88.89 14.7271 88.9398 14.5105 88.9287 14.2712Z" fill="#A2ABB0"/>
<path fill-rule="evenodd" clip-rule="evenodd" d="M85.2183 15.3063C85.2225 15.1121 85.2267 14.9179 85.2123 14.7241L85.2096 14.7269C85.2096 14.6062 85.2112 14.4857 85.2129 14.3654C85.2165 14.1053 85.22 13.8462 85.2068 13.587C85.1653 12.7435 84.9027 12.3531 84.2529 12.1593C83.7359 12.0054 83.2078 11.9826 82.6852 12.1166C82.3037 12.2135 81.9359 12.3645 81.6871 12.7036C81.5406 12.9003 81.383 13.151 81.4797 13.3819C81.535 13.5155 81.6824 13.5014 81.8302 13.4873C81.8967 13.4809 81.9633 13.4745 82.0217 13.4816C82.0971 13.4892 82.1738 13.4867 82.2509 13.4841C82.2896 13.4829 82.3285 13.4816 82.3673 13.4816C82.4917 13.4787 82.6161 13.4417 82.6576 13.322C82.8203 12.8607 83.1749 12.8888 83.5212 12.9162C83.5465 12.9182 83.5717 12.9202 83.5968 12.922L83.6115 12.923C83.8161 12.9373 83.946 13.0741 83.9654 13.2935C83.9847 13.5101 83.8962 13.664 83.6889 13.7238C83.5684 13.7573 83.4459 13.7807 83.3231 13.8042L83.252 13.8179C83.1573 13.8353 83.0622 13.8506 82.9671 13.8658C82.6429 13.9178 82.319 13.9697 82.0134 14.1085C81.477 14.3508 81.2503 14.7754 81.3138 15.3995C81.3719 15.9637 81.7203 16.3598 82.276 16.451C82.7129 16.5223 83.1497 16.4995 83.5645 16.3199C83.61 16.3005 83.6555 16.2745 83.7006 16.2488C83.8798 16.1466 84.0529 16.0479 84.2031 16.3712C84.2142 16.3997 84.2889 16.4026 84.3331 16.4026C84.4857 16.406 84.6374 16.4063 84.7893 16.4067C84.8904 16.4069 84.9918 16.4071 85.0934 16.4083C85.2566 16.4111 85.2897 16.3142 85.2621 16.1774C85.2057 15.8885 85.212 15.5975 85.2183 15.3063ZM83.955 14.7538C83.9543 14.7949 83.9537 14.8372 83.9571 14.878H83.9598C84.0179 15.4109 83.3875 15.7756 82.8705 15.6445C82.652 15.5904 82.5166 15.4308 82.4972 15.1857C82.4779 14.935 82.594 14.7896 82.8152 14.7013C83.0714 14.5991 83.3381 14.5558 83.6062 14.5123C83.6448 14.506 83.6834 14.4997 83.7221 14.4933C83.9596 14.4524 83.9574 14.5938 83.955 14.7538Z" fill="#A2ABB0"/>
<path fill-rule="evenodd" clip-rule="evenodd" d="M56.7372 14.6242C56.6025 14.6242 56.4682 14.6249 56.3339 14.6255C56.0657 14.6268 55.798 14.628 55.5289 14.6242C55.258 14.6185 55.175 14.7183 55.2856 14.9919C55.5317 15.596 56.3556 15.7499 56.8091 15.274C57.0109 15.0631 57.7187 14.9235 57.9565 15.0517C58.0916 15.1226 58.0499 15.2165 58.0091 15.3083L58.0035 15.321L57.9977 15.3344C57.9949 15.3409 57.9922 15.3474 57.9897 15.3538C57.7021 16.1118 57.022 16.5592 56.1953 16.5364C55.1225 16.5051 54.34 15.8838 54.0995 14.8693C53.8479 13.8178 54.2903 12.7748 55.1972 12.2704C56.2367 11.6919 57.5832 12.2191 57.9897 13.3647C58.1086 13.6981 58.1777 14.0457 58.186 14.4048C58.1888 14.5843 58.1279 14.6527 57.9427 14.647C57.6512 14.6367 57.3582 14.6384 57.0648 14.6401C56.9547 14.6407 56.8446 14.6413 56.7344 14.6413V14.6271L56.7372 14.6242ZM56.0874 13.7522L56.0901 13.7522C56.2965 13.7494 56.5003 13.7466 56.7068 13.7522C56.9252 13.7522 56.9722 13.6553 56.8754 13.4644C56.7068 13.1281 56.3999 13.0255 56.0764 12.997C55.7529 12.9714 55.5068 13.1623 55.3382 13.4331C55.2276 13.6097 55.2552 13.7551 55.5041 13.7551H56.0902L56.0874 13.7522Z" fill="#A2ABB0"/>
<path d="M72.5419 13.7146C72.5412 13.8924 72.5404 14.0702 72.5404 14.248V14.2509H72.546V15.5333C72.546 15.9863 72.546 16.2108 72.6548 16.3205C72.7616 16.4282 72.9734 16.4255 73.3929 16.42L73.4252 16.4195C73.6713 16.4167 73.7487 16.3226 73.7431 16.0833C73.7348 15.4677 73.7348 14.8493 73.7348 14.2338C73.7348 13.9716 73.7791 13.7151 73.8648 13.4672C73.9643 13.1794 74.2657 12.9885 74.5367 13.0312C75.0012 13.1024 75.2306 13.3219 75.2306 13.7009V15.5532C75.2306 15.9944 75.2306 16.2125 75.3364 16.3202C75.4397 16.4253 75.6439 16.4253 76.0474 16.4252L76.0795 16.4252C76.3504 16.4224 76.4444 16.3283 76.4417 16.0519C76.4348 15.5945 76.4347 15.1379 76.4347 14.6812C76.4347 14.2245 76.4347 13.7679 76.4278 13.3105C76.4195 12.7348 76.0491 12.1905 75.5431 12.0851C75.0067 11.9711 74.4592 11.9854 74.0086 12.3872C73.8454 12.5325 73.7431 12.5724 73.7044 12.3017C73.6823 12.1563 73.5911 12.1136 73.4584 12.1164L73.3867 12.1176C73.2164 12.1204 73.0443 12.1232 72.8722 12.1107C72.6151 12.0936 72.5321 12.2133 72.5376 12.4698C72.5454 12.8847 72.5436 13.2997 72.5419 13.7146Z" fill="#A2ABB0"/>
<path fill-rule="evenodd" clip-rule="evenodd" d="M41.2009 14.2341C41.223 15.5535 40.3742 16.4683 39.1023 16.4997C37.9079 16.5281 37.001 15.6162 36.9374 14.4051C36.86 12.9432 37.977 12.0398 38.942 12.0313C40.2912 12.0227 41.176 12.8748 41.1981 14.2313L41.2009 14.2341ZM39.9816 14.3082C39.9816 14.2644 39.9828 14.2206 39.984 14.1769V14.176C39.9865 14.0895 39.9889 14.0026 39.9816 13.9178C39.929 13.382 39.6332 13.0572 39.1715 13.0144C38.6904 12.9688 38.3531 13.2481 38.2065 13.7867C38.1263 14.0802 38.1263 14.3766 38.1595 14.6673C38.2231 15.1945 38.6047 15.5364 39.0885 15.5364C39.5226 15.5364 39.8986 15.1859 39.976 14.6986C39.9901 14.6053 39.9925 14.5104 39.9949 14.4152C39.9958 14.3796 39.9967 14.3438 39.9982 14.3082H39.9816Z" fill="#A2ABB0"/>
<path fill-rule="evenodd" clip-rule="evenodd" d="M67.6364 14.2341C67.6059 15.4509 68.5322 16.5595 69.746 16.4939V16.4911C70.9763 16.5053 71.9219 15.5792 71.9413 14.3367C71.9606 13.0458 71.0537 12.0512 69.8483 12.037C68.5626 12.0227 67.6695 12.9232 67.6364 14.2341ZM70.7029 14.1687C70.7062 14.2206 70.7094 14.2712 70.7137 14.3196H70.7164C70.7123 14.3606 70.7088 14.4008 70.7053 14.4405L70.7052 14.4414C70.69 14.6139 70.6758 14.775 70.6197 14.9323C70.4648 15.3655 70.2713 15.5279 69.8731 15.5364C69.3672 15.5478 69.1349 15.3968 68.9607 14.9522C68.8031 14.5533 68.7948 14.1515 68.9054 13.7383C69.0464 13.2054 69.3063 12.9859 69.804 12.9973C70.2464 13.0087 70.5782 13.3136 70.6667 13.8095C70.6877 13.9296 70.6955 14.0526 70.7029 14.1687Z" fill="#A2ABB0"/>
<path d="M34.8675 12.1155L34.8675 12.1142V12.1102C34.8692 11.6609 34.8708 11.2546 34.8632 10.8484C34.8604 10.6318 34.9074 10.5377 35.1452 10.5349L35.1609 10.5345C36.2015 10.5121 36.2124 10.5118 36.2014 11.5978C36.1976 11.9524 36.1973 12.307 36.1971 12.6616C36.1967 13.3386 36.1963 14.0156 36.1709 14.6926C36.1156 16.1175 34.8797 16.9154 33.4614 16.3597C32.607 16.0263 32.3056 15.2825 32.3803 14.3906C32.3941 14.2281 32.4936 14.1968 32.6153 14.1939C32.7425 14.1911 32.869 14.1911 32.9955 14.1911C33.122 14.1911 33.2485 14.1911 33.3756 14.1882C33.5498 14.1882 33.5885 14.2965 33.5802 14.4447C33.5664 14.6613 33.5941 14.8665 33.6991 15.0631C33.8263 15.2968 34.0116 15.4022 34.2687 15.3709C34.5424 15.3367 34.7443 15.2113 34.8023 14.9035C34.8907 14.4304 34.8792 13.955 34.8685 13.5124V13.5115C34.8621 13.2483 34.856 12.9959 34.8714 12.7634L34.8659 12.7605C34.8659 12.5338 34.8667 12.3202 34.8675 12.1155Z" fill="#A2ABB0"/>
<path d="M77.7854 16.2456C78.1587 16.428 78.5513 16.4993 78.9605 16.4822L78.9577 16.4793C79.4278 16.505 79.8812 16.428 80.2821 16.1658C80.6969 15.8951 80.8572 15.4619 80.8489 14.9775C80.8406 14.5187 80.578 14.2166 80.1771 14.0285C79.8923 13.8946 79.5964 13.8063 79.2895 13.7464C79.0269 13.698 78.7697 13.6353 78.5375 13.4985C78.3274 13.3759 78.2969 13.1081 78.4684 12.9713C78.684 12.8003 79.3752 12.9228 79.4858 13.1822C79.5715 13.3873 79.6987 13.4358 79.8895 13.4244C80.0748 13.413 80.26 13.4101 80.4425 13.4244C80.7494 13.45 80.7687 13.2933 80.6775 13.0568C80.5171 12.635 80.249 12.3244 79.8232 12.1876C79.1651 11.9739 78.5098 11.971 77.8629 12.2417C77.3431 12.4583 77.1495 12.7775 77.1606 13.413C77.1689 13.906 77.4011 14.2309 77.9043 14.399C78.1097 14.4669 78.3178 14.5228 78.526 14.5788C78.685 14.6216 78.844 14.6644 79.002 14.7125C79.2011 14.7723 79.4001 14.835 79.5494 15.0003C79.7098 15.1741 79.6932 15.3366 79.5246 15.4904C79.1541 15.8296 78.4324 15.6814 78.2361 15.214C78.1725 15.063 78.0868 14.9803 77.9347 14.9718C77.7053 14.9604 77.473 14.9547 77.2435 14.9547C77.0998 14.9547 77.0334 15.0202 77.0638 15.1798C77.1523 15.6472 77.3514 16.0319 77.7854 16.2456Z" fill="#A2ABB0"/>
<path d="M60.5604 16.4822C59.9742 16.4936 59.4793 16.428 59.0701 16.0547C59.0597 16.0452 59.0492 16.0358 59.0388 16.0266L59.0294 16.0183C58.9901 15.9836 58.9516 15.9496 58.9208 15.9094C58.7272 15.6558 58.5448 15.3936 58.6139 15.0459C58.6305 14.9604 59.3825 14.9205 59.5456 14.9889C59.6341 15.026 59.7032 15.0887 59.7337 15.1856C59.8885 15.6786 60.5797 15.7983 60.9944 15.5361C61.1907 15.4135 61.2129 15.2853 61.0995 15.1029C60.9696 14.8863 60.7677 14.7809 60.541 14.7125C60.412 14.6742 60.2823 14.6391 60.1528 14.6041L60.1519 14.6039C59.9155 14.54 59.6789 14.4761 59.4489 14.3933C59.0203 14.2395 58.6885 13.9545 58.6636 13.4558C58.6388 12.94 58.8682 12.5211 59.3217 12.2931C60.1069 11.897 60.8977 11.9369 61.6746 12.3501C62.0285 12.5382 62.1363 12.8858 62.2276 13.2506C62.2608 13.3845 62.2027 13.4244 62.0893 13.4244H61.2599C61.1288 13.4244 61.0805 13.3345 61.029 13.2387L61.0138 13.2107C60.8534 12.9143 60.2949 12.7889 60.024 12.9856C59.7807 13.1594 59.7834 13.3475 60.035 13.5099C60.2391 13.6404 60.4722 13.6913 60.7027 13.7415L60.7511 13.7521C61.0442 13.8177 61.3345 13.8889 61.6138 13.9972C62.0313 14.1625 62.3354 14.4304 62.3575 14.9205C62.3796 15.4363 62.2303 15.878 61.7769 16.1687C61.3815 16.4195 60.953 16.5249 60.5604 16.485V16.4822Z" fill="#A2ABB0"/>
<path d="M44.7705 13.704H45.5972C45.7244 13.704 45.7907 13.6556 45.7575 13.5074C45.6746 13.1455 45.5557 12.8035 45.2654 12.5528C44.3917 11.8033 43.0811 11.8802 42.3014 12.7323C41.5936 13.5046 41.5245 14.7926 42.1466 15.6533C42.7576 16.4968 43.9023 16.7647 44.8451 16.2745C45.3373 16.018 45.6387 15.6048 45.7714 15.0548L45.7716 15.0538C45.7992 14.9457 45.8318 14.8182 45.6995 14.7869C45.3953 14.7129 45.0829 14.7356 44.7732 14.767C44.6122 14.784 44.5668 14.9122 44.5219 15.039C44.5067 15.082 44.4915 15.1248 44.4719 15.1631C44.2617 15.5678 43.5401 15.6561 43.2415 15.3113C42.8489 14.8582 42.8212 13.8095 43.189 13.3393C43.6231 12.7836 44.317 12.8947 44.5631 13.5673C44.6074 13.6841 44.6737 13.704 44.7705 13.704Z" fill="#A2ABB0"/>
<path fill-rule="evenodd" clip-rule="evenodd" d="M47.0485 22.0422C46.9081 22.0595 46.7545 22.0514 46.5934 22.0429C46.3296 22.0289 46.0455 22.0139 45.7656 22.1077C45.6827 22.1362 45.561 22.1277 45.5057 22.0536C45.3094 21.7943 45.1214 21.8826 44.8947 22.0108C44.6818 22.1334 44.4302 22.1448 44.1869 22.1049C43.7832 22.0393 43.5482 21.7943 43.4874 21.3839C43.4376 21.0533 43.6228 20.7228 43.9491 20.5432C44.1415 20.4382 44.3507 20.4102 44.56 20.3821C44.6573 20.3691 44.7547 20.356 44.8504 20.3352C44.8681 20.3313 44.8868 20.3279 44.906 20.3244C45.0432 20.2994 45.2041 20.2701 45.1629 20.0502C45.1242 19.8479 44.9997 19.7111 44.7868 19.694C44.5131 19.6684 44.2919 19.7766 44.126 19.9989C44.0099 20.1528 43.8523 20.2754 43.6892 20.1443C43.4984 19.9904 43.5786 19.7738 43.6975 19.6028C43.9214 19.2836 44.6901 19.0956 45.138 19.238C45.5057 19.3549 45.7352 19.7311 45.7463 20.2554C45.7518 20.4855 45.7499 20.7156 45.7481 20.9448C45.7472 21.0591 45.7463 21.1732 45.7463 21.287C45.7463 21.4038 45.7463 21.5207 45.8154 21.629C45.9979 21.9139 46.031 21.9026 46.2273 21.6347C46.476 21.2917 46.7336 20.9556 46.9909 20.6198C47.1398 20.4255 47.2887 20.2313 47.4356 20.036C47.4472 20.0212 47.4618 20.007 47.4766 19.9926C47.522 19.9483 47.5699 19.9017 47.5407 19.8308C47.5078 19.7563 47.4385 19.7623 47.3726 19.768C47.3553 19.7695 47.3383 19.7709 47.3222 19.7709C47.057 19.7681 46.7912 19.7652 46.5287 19.7652C46.3352 19.7652 46.2605 19.6627 46.2633 19.4746C46.2661 19.2865 46.3739 19.2323 46.5343 19.2323C46.7111 19.2333 46.8876 19.2336 47.064 19.2339C47.417 19.2346 47.7702 19.2352 48.1241 19.2409C48.4393 19.2466 48.5084 19.3748 48.3701 19.6769C48.2651 19.902 48.1102 20.0958 47.9526 20.2868C47.6929 20.6029 47.4331 20.9219 47.1734 21.2408C47.1632 21.2537 47.1515 21.2671 47.1402 21.2802C47.0813 21.3479 47.0187 21.4198 47.0651 21.5178C47.1039 21.6 47.1812 21.5922 47.2553 21.5847C47.2764 21.5826 47.2972 21.5805 47.3167 21.5805C47.4703 21.5837 47.6239 21.5825 47.7776 21.5812C47.9004 21.5802 48.0233 21.5793 48.1462 21.5805H48.1516C48.2885 21.5805 48.4392 21.5805 48.4365 21.7886C48.4365 21.9966 48.301 22.0393 48.1324 22.0393H47.0458L47.0485 22.0422ZM44.4634 21.6546C44.7564 21.6546 45.1546 21.2414 45.1656 20.9365C45.1712 20.7855 45.0882 20.7399 44.9721 20.7684C44.9032 20.7844 44.833 20.7957 44.7629 20.807C44.5967 20.8338 44.4306 20.8606 44.2809 20.9507C44.1288 21.0419 43.9657 21.1417 44.0431 21.3583C44.1122 21.5435 44.2477 21.6689 44.4606 21.6546H44.4634Z" fill="#A2ABB0"/>
<path d="M35.176 21.5178L35.9059 19.2351L35.9142 19.238C35.9252 19.2394 35.9363 19.2415 35.9474 19.2437L35.9552 19.2452L35.9665 19.2472L35.9745 19.2485L35.9805 19.2494C35.9805 19.5107 35.9799 19.7717 35.9793 20.0326V20.0403C35.9781 20.5592 35.9769 21.0777 35.9805 21.5976C35.9805 21.6243 35.9793 21.6523 35.9781 21.6805C35.9707 21.854 35.9627 22.0405 36.2266 22.0478C36.4991 22.0528 36.4933 21.8592 36.488 21.6826C36.4872 21.6585 36.4865 21.6347 36.4865 21.6118C36.492 20.64 36.492 19.6654 36.4865 18.6937C36.4837 18.2463 36.4284 18.2092 36.0027 18.2377C35.7704 18.252 35.6902 18.3973 35.6266 18.5882L35.5344 18.8682C35.3218 19.5134 35.1085 20.1607 34.8912 20.8053C34.8825 20.8307 34.8784 20.8619 34.8741 20.8939C34.8621 20.9844 34.8492 21.0816 34.7308 21.0732C34.646 21.0666 34.623 20.973 34.6019 20.8873C34.5955 20.8612 34.5892 20.8358 34.5815 20.8139L34.5521 20.7295C34.2937 19.9884 34.0361 19.2494 33.799 18.4999C33.6988 18.1835 33.4929 18.2101 33.2932 18.2359C33.2286 18.2443 33.1646 18.2526 33.1051 18.2491C32.8874 18.2357 32.9096 18.3883 32.929 18.5206C32.9342 18.5562 32.9392 18.5905 32.9392 18.6196C32.9346 19.1859 32.9342 19.7522 32.9339 20.3185V20.3198C32.9336 20.7733 32.9333 21.2267 32.9309 21.6802C32.9309 21.8996 32.9641 22.0535 33.2267 22.0478C33.4866 22.0421 33.517 21.8825 33.517 21.6688C33.5152 21.3368 33.5158 21.0047 33.5164 20.6727V20.6714C33.5167 20.5052 33.517 20.3389 33.517 20.1727C33.517 19.9561 33.5336 19.7424 33.6884 19.5229C33.7802 20.0746 33.9539 20.5759 34.1255 21.071C34.2021 21.2921 34.2782 21.5118 34.3465 21.7343C34.3935 21.8854 34.4599 22.0564 34.67 22.0478C34.8718 22.0393 35.0239 21.9566 35.1013 21.7543C35.1206 21.7006 35.1372 21.6455 35.1539 21.59L35.1632 21.5593L35.176 21.5178Z" fill="#A2ABB0"/>
<path d="M92.8012 12.7782L92.8012 12.7712V12.7655C92.8028 12.1468 92.8045 11.528 92.7944 10.9085C92.7917 10.6463 92.8414 10.5294 93.1318 10.5323L93.1713 10.5326C93.9833 10.5378 93.9834 10.5378 93.9861 11.4157L93.986 11.9846C93.9857 13.3139 93.9854 14.6428 93.9999 15.9696C94.0027 16.3002 93.9253 16.4284 93.5797 16.4199L93.5246 16.4181C93.1659 16.4066 92.9841 16.4008 92.8919 16.3041C92.7972 16.2048 92.7972 16.0094 92.7972 15.6134V13.4704H92.8C92.8 13.2395 92.8006 13.0088 92.8012 12.7782Z" fill="#A2ABB0"/>
<path d="M91.9904 14.8242C91.9911 14.6474 91.9919 14.4706 91.9919 14.2938H91.9863V12.9772C91.9857 12.8684 91.9865 12.7732 91.9871 12.6899V12.6831C91.9894 12.3739 91.9905 12.231 91.922 12.1654C91.8631 12.1091 91.753 12.1097 91.5483 12.1108C91.443 12.1113 91.3126 12.112 91.1513 12.1052C90.861 12.0938 90.7725 12.2021 90.7781 12.4956C90.7926 13.3877 90.7923 14.2776 90.792 15.1691L90.7919 15.5534L90.7919 15.5616C90.7933 15.9897 90.7939 16.2044 90.8984 16.3118C91.0032 16.4198 91.2127 16.4197 91.6324 16.4197H91.6573C91.9172 16.4197 92.0002 16.3285 91.9946 16.0692C91.9869 15.6542 91.9886 15.2392 91.9904 14.8242Z" fill="#A2ABB0"/>
<path fill-rule="evenodd" clip-rule="evenodd" d="M53.0517 21.2042V19.7109C53.0517 19.2208 53.1347 19.1524 53.5743 19.312C53.7236 19.3661 53.8618 19.3975 54.0001 19.3034C54.5282 18.9444 55.2636 19.3975 55.4185 20.0273C55.5152 20.4262 55.5208 20.8252 55.4185 21.2213C55.2388 21.9195 54.6249 22.2757 53.9531 22.0506C53.6904 21.9622 53.5964 21.9993 53.6213 22.2956C53.6305 22.4002 53.6269 22.5056 53.6233 22.6109C53.6205 22.6951 53.6176 22.7792 53.6213 22.8627C53.6296 23.0879 53.5383 23.1791 53.3172 23.1848C53.0904 23.1905 53.049 23.0708 53.049 22.877C53.0508 22.5068 53.0502 22.1354 53.0496 21.7643V21.7632C53.0493 21.5778 53.049 21.392 53.049 21.2071L53.0517 21.2042ZM54.9201 20.5732L54.92 20.5565C54.9196 20.4912 54.9188 20.3782 54.8904 20.2723C54.8157 19.9788 54.7079 19.7052 54.3402 19.691C53.9614 19.6767 53.8148 19.7907 53.6849 20.2182C53.5743 20.5801 53.5936 20.9449 53.7153 21.2954C53.8287 21.6203 54.0581 21.7143 54.3761 21.5975C54.8074 21.4379 54.9208 21.2526 54.918 20.5972H54.9208C54.9204 20.591 54.9202 20.5829 54.9201 20.5732Z" fill="#A2ABB0"/>
<path fill-rule="evenodd" clip-rule="evenodd" d="M71.6391 18.4856V20.1214L71.6336 20.1185C71.6336 20.3011 71.6339 20.4834 71.6342 20.6654V20.6802C71.6348 21.0386 71.6354 21.3967 71.6336 21.7543C71.6336 21.9224 71.6723 22.0535 71.863 22.0079C72.1132 21.9506 72.3426 22.0075 72.5765 22.0656L72.6427 22.082C73.2234 22.2216 73.6879 21.9594 73.9201 21.3952C74.0327 21.1235 74.0269 20.8395 74.021 20.5547L74.0196 20.4861C74.0031 19.4631 73.3423 18.9843 72.4132 19.3348C72.1893 19.4203 72.1506 19.3377 72.1506 19.1411C72.1506 19.0285 72.1485 18.9159 72.1464 18.8034C72.1444 18.6908 72.1423 18.5782 72.1423 18.4657C72.1395 18.2434 71.9985 18.2348 71.8354 18.232C71.6501 18.2291 71.6391 18.3431 71.6391 18.4856ZM72.2391 21.2356C72.1478 21.0447 72.134 20.8252 72.1423 20.6999H72.1451L72.1456 20.6585C72.1504 20.2764 72.1542 19.9764 72.4879 19.8278C72.7727 19.6996 73.0547 19.6797 73.287 19.9247C73.6138 20.2672 73.5167 20.6815 73.4239 21.0779L73.4197 21.096C73.3395 21.4379 73.0519 21.5804 72.7533 21.6317C72.4851 21.6773 72.3414 21.4522 72.2391 21.2356Z" fill="#A2ABB0"/>
<path fill-rule="evenodd" clip-rule="evenodd" d="M61.5316 20.8312C61.4611 20.8312 61.3903 20.8323 61.3195 20.8334C61.1597 20.8358 60.9994 20.8383 60.8404 20.8284C60.6247 20.8141 60.5805 20.9196 60.6164 21.1048C60.7077 21.5579 61.2606 21.7745 61.6146 21.4952C61.6662 21.4553 61.7132 21.4091 61.7602 21.3629C61.8542 21.2704 61.9482 21.178 62.0791 21.1362C62.0904 21.1323 62.1018 21.1283 62.1133 21.1243C62.2132 21.0892 62.3152 21.0533 62.397 21.1504C62.4657 21.2334 62.4269 21.3226 62.39 21.4074C62.3838 21.4216 62.3777 21.4358 62.3721 21.4496C62.0818 22.1507 61.0339 22.4014 60.4644 21.8799C59.9888 21.4439 59.9086 20.8654 60.0413 20.2527C60.163 19.6771 60.5169 19.3095 61.0809 19.2012C61.4929 19.1214 61.8496 19.2639 62.1371 19.5831C62.4219 19.9022 62.4855 20.2926 62.4689 20.7058C62.464 20.8241 62.3708 20.8246 62.2881 20.8251L62.267 20.8253L62.256 20.8255C62.0955 20.8274 61.9339 20.8268 61.7726 20.8262L61.642 20.8257L61.5316 20.8255V20.8312ZM61.2772 20.3753C61.3186 20.3753 61.3603 20.375 61.4021 20.3746C61.4859 20.374 61.5702 20.3734 61.6533 20.3753C61.8855 20.3838 61.9353 20.2926 61.833 20.0761C61.6146 19.6115 61.0422 19.5688 60.7436 20.002C60.68 20.0932 60.6358 20.19 60.6883 20.2955C60.7282 20.3799 60.8053 20.3766 60.8799 20.3734C60.8984 20.3726 60.9168 20.3719 60.9344 20.3724C61.01 20.3743 61.0869 20.3737 61.1633 20.3731C61.2014 20.3727 61.2396 20.3724 61.2772 20.3724V20.3753Z" fill="#A2ABB0"/>
<path fill-rule="evenodd" clip-rule="evenodd" d="M41.386 20.8311H42.1435L42.1408 20.834H42.4173C42.8199 20.8354 43.0218 20.8361 43.0941 20.7367C43.1668 20.6368 43.1086 20.4359 42.992 20.033L42.9896 20.0247C42.8514 19.5459 42.5113 19.3265 42.0661 19.2324C41.5933 19.1327 41.198 19.2894 40.9049 19.6713C40.5067 20.1871 40.5012 21.1503 40.8911 21.6747C41.162 22.0394 41.527 22.2332 41.9749 22.1477C42.4394 22.0565 42.8569 21.8884 43.0117 21.3441C43.0836 21.099 42.9813 21.0762 42.8016 21.0876C42.6298 21.0982 42.523 21.2101 42.4164 21.3218C42.3789 21.3611 42.3414 21.4004 42.3011 21.4353L42.2822 21.4517C42.131 21.5835 41.9791 21.7159 41.7482 21.612C41.4966 21.498 41.2837 21.3612 41.2201 21.0563C41.1869 20.8995 41.2311 20.8311 41.386 20.8311ZM41.9717 20.3733C41.9259 20.3742 41.8801 20.3752 41.8339 20.3752H41.8366C41.8209 20.3752 41.8051 20.3761 41.7894 20.3771C41.7584 20.379 41.7278 20.3809 41.6984 20.3752C41.654 20.3674 41.6032 20.3735 41.5525 20.3796C41.4361 20.3936 41.3203 20.4075 41.2837 20.2526C41.2351 20.0467 41.4158 19.9305 41.5685 19.8323L41.5795 19.8252C41.9721 19.5744 42.2873 19.6713 42.4422 20.0731C42.5223 20.2811 42.4836 20.3894 42.2459 20.3752C42.1538 20.3695 42.063 20.3714 41.9717 20.3733Z" fill="#A2ABB0"/>
<path fill-rule="evenodd" clip-rule="evenodd" d="M57.2673 20.8311C57.1946 20.8311 57.122 20.8317 57.0494 20.8324C56.9038 20.8336 56.7576 20.8349 56.612 20.8311C56.4212 20.8254 56.3631 20.9166 56.4074 21.0961C56.4793 21.3726 56.6562 21.5264 56.9217 21.6148C57.176 21.7003 57.3447 21.6034 57.4968 21.4181C57.5935 21.2985 57.6931 21.1816 57.8396 21.1303C57.9474 21.0904 58.0718 21.0505 58.1631 21.1503C58.256 21.2488 58.2062 21.3631 58.1604 21.4679L58.1548 21.4808C57.9032 22.0508 57.0046 22.3415 56.4461 22.0337C55.9622 21.7658 55.7217 21.1446 55.8129 20.3837C55.8821 19.7966 56.2526 19.3521 56.7806 19.221C57.5465 19.0301 58.3373 19.7568 58.2571 20.5689C58.2377 20.7684 58.1271 20.8311 57.9557 20.8311H57.2673ZM57.071 20.3751V20.3723H57.4857C57.6848 20.3694 57.7262 20.284 57.6322 20.1016C57.3447 19.5402 56.9714 19.62 56.5622 19.9477C56.4627 20.0275 56.435 20.1472 56.4654 20.2697C56.4938 20.3844 56.579 20.3802 56.6612 20.3761C56.6832 20.375 56.705 20.3739 56.7253 20.3751C56.8008 20.3808 56.8775 20.379 56.9546 20.3771C56.9933 20.3761 57.0321 20.3751 57.071 20.3751Z" fill="#A2ABB0"/>
<path fill-rule="evenodd" clip-rule="evenodd" d="M51.0638 20.9622C51.0655 20.8966 51.0672 20.8308 51.0662 20.7655H51.0607C51.0597 20.6993 51.0609 20.6327 51.0622 20.566C51.0644 20.4549 51.0666 20.3429 51.0579 20.2326C51.0247 19.7995 50.9031 19.409 50.4579 19.2438C50.0598 19.0956 49.305 19.2609 49.0727 19.5544C48.94 19.7254 48.8267 19.959 48.9981 20.13C49.175 20.3039 49.3575 20.1471 49.4902 19.979L49.5117 19.9532C49.5573 19.8981 49.604 19.8417 49.6589 19.8023C49.9022 19.6256 50.1593 19.6313 50.3944 19.808C50.6349 19.9875 50.599 20.1984 50.3142 20.2982C50.2088 20.3351 50.0954 20.3505 49.9826 20.3658C49.9474 20.3706 49.9121 20.3754 49.8773 20.3808C49.5428 20.4292 49.211 20.4919 48.9843 20.7798C48.7603 21.0619 48.7603 21.4438 48.9649 21.7743C49.1391 22.0564 49.5677 22.2445 49.9492 22.0707C50.3363 21.894 50.6653 21.8199 51.022 22.0878C51.0607 22.1163 51.1381 22.1134 51.1906 22.0992C51.3372 22.0621 51.445 21.9539 51.3123 21.8256C51.0481 21.5744 51.0559 21.2691 51.0638 20.9622ZM50.5547 20.8909C50.5464 21.2243 50.0957 21.6575 49.7612 21.6489C49.5649 21.6546 49.4294 21.552 49.3658 21.3697C49.2995 21.173 49.4377 21.0562 49.5759 20.9707C49.7727 20.8511 49.9944 20.8227 50.2152 20.7945C50.2892 20.785 50.363 20.7755 50.4358 20.7627C50.516 20.7484 50.5547 20.7997 50.5547 20.8909Z" fill="#A2ABB0"/>
<path d="M65.4905 20.1044C65.4905 19.9306 65.4911 19.7567 65.4917 19.5829V19.5815C65.4929 19.2343 65.4942 18.8871 65.4905 18.5399C65.4905 18.3404 65.532 18.2264 65.7587 18.2321C65.966 18.2378 66.002 18.349 66.0075 18.5285C66.0101 18.6174 65.999 18.716 65.9879 18.8142C65.9638 19.0278 65.9399 19.2399 66.0573 19.3492C66.1539 19.4401 66.3068 19.367 66.4698 19.2889C66.5726 19.2398 66.6795 19.1886 66.7789 19.1754C67.1162 19.1327 67.4259 19.2865 67.5835 19.6C67.6858 19.8023 67.7328 20.0218 67.7328 20.2498C67.7328 20.7114 67.7328 21.1759 67.7383 21.6376L67.7386 21.6812C67.7402 21.8716 67.7416 22.0373 67.4563 22.0479C67.1497 22.0584 67.152 21.8797 67.1545 21.683C67.1547 21.6651 67.1549 21.6471 67.1549 21.629C67.1549 21.5068 67.1545 21.3845 67.154 21.2624V21.2593C67.1529 20.9555 67.1518 20.6514 67.1577 20.3495C67.1632 20.0588 67.1024 19.8251 66.7872 19.7653C66.461 19.7026 66.1623 19.8964 66.0656 20.2184C66.0158 20.378 66.0075 20.5433 66.0075 20.7114V21.7801C66.0075 21.9624 65.9107 22.028 65.7476 22.0394C65.5624 22.0536 65.5043 21.9482 65.5043 21.7801V20.1073H65.496L65.4905 20.1044Z" fill="#A2ABB0"/>
<path d="M78.3699 21.7913V20.6885H78.3671C78.3671 20.5585 78.3674 20.4283 78.3677 20.298V20.2959C78.3684 20.0352 78.369 19.7742 78.3671 19.5144C78.3644 19.3035 78.2427 19.2152 78.0547 19.2152C77.8667 19.2152 77.792 19.332 77.792 19.5144C77.7909 19.5908 77.7916 19.6667 77.7923 19.7426C77.7933 19.8563 77.7942 19.9698 77.7893 20.0843C77.7841 20.2018 77.7889 20.3204 77.7938 20.439V20.44C77.8044 20.7009 77.815 20.9624 77.7201 21.2128C77.6178 21.4807 77.4354 21.6517 77.134 21.5833C76.8492 21.5177 76.6722 21.3753 76.6971 21.019C76.7205 20.6782 76.7178 20.3359 76.7151 19.9932C76.714 19.8489 76.7129 19.7044 76.7137 19.56C76.7165 19.3491 76.6363 19.2209 76.4123 19.218C76.1967 19.2152 76.1082 19.3035 76.1165 19.54C76.1247 19.7419 76.1245 19.9446 76.1243 20.1476C76.1239 20.5607 76.1235 20.9749 76.1939 21.3838C76.2962 21.968 76.6584 22.2074 77.2197 22.0677C77.3552 22.0336 77.4907 21.9965 77.6123 21.9338C77.7727 21.8512 77.9026 21.8369 78.0547 21.9623C78.2593 22.1333 78.3699 22.0478 78.3699 21.7913Z" fill="#A2ABB0"/>
<path d="M63.9421 22.1075C63.6269 22.1474 63.3781 22.0192 63.143 21.7912C62.6841 21.341 62.6288 19.9275 63.2453 19.4544C63.6601 19.1353 64.2932 19.064 64.7273 19.3632C64.8766 19.4658 64.9844 19.6055 65.0287 19.7822C65.0367 19.816 65.0498 19.852 65.0631 19.8887C65.1091 20.0155 65.1579 20.15 65.0121 20.2296C64.8213 20.335 64.625 20.2552 64.5255 20.0358C64.4066 19.7765 64.202 19.6938 63.9366 19.6938C63.7209 19.6938 63.5909 19.7879 63.5108 19.9845C63.3476 20.3834 63.3283 20.7881 63.4582 21.1985C63.5412 21.4549 63.7513 21.549 63.9891 21.5917C64.213 21.6316 64.3596 21.5205 64.4619 21.321C64.5034 21.2384 64.5587 21.1586 64.6278 21.1016C64.7522 20.9961 64.9209 20.9591 65.048 21.0417C65.176 21.1257 65.1179 21.248 65.065 21.3594C65.0551 21.3804 65.0453 21.4009 65.037 21.4208C64.8296 21.9081 64.4785 22.1617 63.9449 22.1104L63.9421 22.1075Z" fill="#A2ABB0"/>
<path d="M38.9677 22.0414C39.0558 22.0404 39.1441 22.0395 39.2327 22.0395L39.2382 22.048L39.3393 22.0482L39.5122 22.0487H39.5131C39.6963 22.0493 39.8809 22.0499 40.0649 22.048C40.2059 22.0452 40.3525 22.0422 40.3635 21.84C40.3746 21.6206 40.2281 21.5921 40.0677 21.5921C39.9115 21.5892 39.756 21.5892 39.6008 21.5892C39.4456 21.5892 39.2908 21.5892 39.1359 21.5864C39.1124 21.5856 39.0866 21.5887 39.0606 21.5918C38.9883 21.6003 38.9141 21.6091 38.8816 21.5379C38.8436 21.451 38.9054 21.3889 38.9638 21.3302C38.9819 21.312 38.9999 21.2939 39.0143 21.2758C39.14 21.1147 39.2681 20.9549 39.3961 20.7952C39.5467 20.6072 39.6973 20.4194 39.8437 20.2299C39.8743 20.1902 39.9058 20.151 39.9374 20.1117C40.0599 19.9592 40.1832 19.8059 40.2557 19.6201C40.3276 19.432 40.2944 19.2638 40.076 19.2581C39.5964 19.2418 39.1168 19.2427 38.6372 19.2435C38.5306 19.2437 38.4241 19.2439 38.3175 19.2439C38.1516 19.2439 38.1129 19.3721 38.1129 19.5146C38.1129 19.6514 38.1682 19.7483 38.312 19.754C38.3784 19.7578 38.4453 19.7571 38.5121 19.7564C38.5954 19.7555 38.6785 19.7546 38.7599 19.7626C38.8329 19.7704 38.9188 19.7591 39.0033 19.748C39.1653 19.7268 39.3219 19.7063 39.3709 19.8224C39.4398 19.9872 39.2982 20.1276 39.161 20.2636C39.1108 20.3134 39.0611 20.3627 39.0226 20.4123C38.917 20.5481 38.8074 20.681 38.6978 20.814C38.5177 21.0325 38.3369 21.2518 38.1738 21.4838C37.9221 21.84 38.0189 22.0252 38.4392 22.0395C38.616 22.0452 38.7916 22.0433 38.9677 22.0414Z" fill="#A2ABB0"/>
<path d="M74.4783 20.2862C74.477 20.0497 74.4758 19.8127 74.4795 19.5771C74.4823 19.4203 74.5182 19.2493 74.6675 19.1867C74.7692 19.1414 74.84 19.2336 74.9025 19.315C74.9147 19.3309 74.9268 19.3466 74.9385 19.3605C75.0796 19.5298 75.1789 19.4462 75.2782 19.3627C75.3092 19.3365 75.3403 19.3104 75.3726 19.2921L75.4043 19.2731C75.5238 19.2008 75.6446 19.1278 75.7818 19.2351C75.8979 19.3263 75.8923 19.4574 75.8758 19.5913C75.8592 19.7224 75.7652 19.7623 75.6629 19.7879C75.132 19.9247 74.9744 20.318 74.9855 20.8309C74.991 21.0789 74.9938 21.3268 74.9855 21.5747C74.9841 21.6063 74.9847 21.6401 74.9854 21.6746C74.9885 21.8453 74.992 22.0316 74.7505 22.0364C74.4826 22.0436 74.4855 21.8404 74.4881 21.6604C74.4886 21.6267 74.4891 21.5939 74.4878 21.5633C74.4764 21.3518 74.4794 21.1403 74.4823 20.9288C74.4837 20.8326 74.485 20.7362 74.485 20.64H74.4795C74.4795 20.5225 74.4789 20.4041 74.4783 20.2862Z" fill="#A2ABB0"/>
<path d="M69.4289 19.5291C69.4286 19.7026 69.4283 19.8762 69.4283 20.0501H69.4421C69.4421 20.2121 69.4416 20.3741 69.4412 20.5361C69.4401 20.9412 69.4389 21.3463 69.4448 21.7514C69.4476 21.9167 69.514 22.0564 69.713 22.0478C69.8983 22.0393 69.937 21.9025 69.937 21.7514V18.4885C69.937 18.2833 69.8319 18.2349 69.6522 18.2292C69.4559 18.2235 69.4283 18.3203 69.4283 18.4885C69.4301 18.8341 69.4295 19.1785 69.4289 19.5232V19.5291Z" fill="#A2ABB0"/>
<path d="M68.8394 20.6717C68.8394 20.7905 68.8385 20.909 68.8376 21.0275C68.8358 21.264 68.8339 21.5001 68.8394 21.7375C68.845 21.974 68.7371 22.0424 68.5242 22.0452C68.3086 22.0481 68.2478 21.9512 68.2505 21.746C68.2561 21.025 68.2533 20.3012 68.2505 19.5802C68.2505 19.3722 68.3141 19.2383 68.5408 19.2326C68.7758 19.2269 68.8312 19.3636 68.8284 19.5717C68.8247 19.8166 68.8259 20.0604 68.8272 20.3045C68.8278 20.4267 68.8284 20.549 68.8284 20.6717H68.8394Z" fill="#A2ABB0"/>
<path d="M37.6613 21.6518V20.6231C37.6613 20.5004 37.6616 20.3781 37.6619 20.2559C37.6625 20.0117 37.6631 19.768 37.6613 19.5231C37.6613 19.3122 37.5368 19.2324 37.3488 19.2324C37.1608 19.2324 37.0806 19.3321 37.0806 19.5202C37.0825 19.7608 37.0837 20.0017 37.0849 20.2427C37.0874 20.7239 37.0899 21.2056 37.0972 21.686C37.1028 21.8627 37.1249 22.0536 37.3765 22.0451C37.6336 22.0365 37.6613 21.8541 37.6613 21.6518Z" fill="#A2ABB0"/>
<path d="M79.8038 19.6453C79.7851 20.0397 79.7651 20.4611 79.6965 20.8794L79.6948 20.8903C79.6731 21.0306 79.6477 21.1953 79.4725 21.1787C79.3215 21.1653 79.3203 21.0461 79.3192 20.9321C79.3189 20.9 79.3186 20.8683 79.3149 20.8395C79.2494 20.2642 79.2469 19.6856 79.2444 19.1075C79.2436 18.9296 79.2429 18.7517 79.2403 18.574C79.2375 18.346 79.2735 18.2263 79.5361 18.2263C79.8016 18.2263 79.8375 18.366 79.8292 18.5826C79.8239 18.7037 79.8254 18.8261 79.8272 18.9664C79.8281 19.0436 79.8292 19.1271 79.8292 19.218L79.8264 19.2209C79.8175 19.3571 79.8108 19.4983 79.8039 19.6433L79.8039 19.6442L79.8038 19.6453Z" fill="#A2ABB0"/>
<path d="M71.0416 21.7V20.6399C71.0416 20.5135 71.0419 20.3874 71.0423 20.2613V20.2581C71.0429 20.0077 71.0435 19.757 71.0416 19.5057C71.0389 19.3376 70.9532 19.2379 70.7873 19.2322C70.6103 19.2265 70.5467 19.3433 70.5467 19.5057C70.5467 19.7499 70.5461 19.994 70.5455 20.2381C70.5443 20.7264 70.543 21.2146 70.5467 21.7029C70.5467 21.8739 70.5827 22.0505 70.8011 22.0505C71.0278 22.0505 71.0416 21.871 71.0416 21.7Z" fill="#A2ABB0"/>
<path d="M91.414 10.5379C91.4707 10.5507 91.5395 10.5422 91.6093 10.5335C91.74 10.5173 91.8742 10.5007 91.939 10.6233C92.0634 10.857 92.0773 11.2132 91.9529 11.4127C91.8139 11.6361 91.5892 11.6036 91.3621 11.5707C91.2503 11.5545 91.1379 11.5382 91.0349 11.5523C90.8303 11.5808 90.7971 11.4155 90.7999 11.2474V11.1761L90.7997 11.0611C90.7989 10.7608 90.7986 10.6303 90.861 10.5749C90.909 10.5322 90.9941 10.534 91.1447 10.5372C91.2179 10.5387 91.3066 10.5406 91.414 10.5379Z" fill="#A2ABB0"/>
<path d="M49.3741 18.1756C49.3619 18.167 49.3488 18.1578 49.3359 18.1487C49.3123 18.132 49.2873 18.1143 49.2607 18.0951L49.2579 18.0894C49.2165 18.5397 49.3768 18.8104 49.7003 18.9045C50.0183 18.9985 50.5574 18.7962 50.6736 18.5425C50.7261 18.4314 50.7676 18.3003 50.6819 18.2091C50.5996 18.1221 50.5414 18.1862 50.4853 18.248C50.4679 18.2672 50.4507 18.2862 50.433 18.3003C50.0819 18.5796 49.8939 18.5796 49.5455 18.3003C49.4933 18.2595 49.4386 18.221 49.3741 18.1756Z" fill="#A2ABB0"/>
<path d="M37.352 18.2294C37.1423 18.2266 37.0483 18.3032 37.0836 18.5216C37.0482 18.7456 37.1286 18.8393 37.3631 18.8393C37.5843 18.8364 37.6672 18.7652 37.6672 18.5315C37.6672 18.2893 37.5622 18.2323 37.352 18.2294Z" fill="#A2ABB0"/>
<path d="M68.2271 18.5226C68.2244 18.7021 68.2741 18.8532 68.4926 18.8332C68.6861 18.8361 68.8437 18.799 68.8437 18.554C68.841 18.3402 68.7497 18.2319 68.5313 18.2319C68.3322 18.2319 68.2299 18.326 68.2271 18.5226Z" fill="#A2ABB0"/>
<path d="M79.824 21.7086C79.8296 21.9166 79.7605 22.0449 79.5531 22.0477C79.343 22.0506 79.2379 21.9394 79.2351 21.7257C79.2351 21.5405 79.2738 21.4094 79.5033 21.4179C79.7079 21.4265 79.8323 21.492 79.824 21.7086Z" fill="#A2ABB0"/>
<path d="M70.7722 18.232C70.5538 18.2234 70.5178 18.3374 70.5344 18.4827C70.5355 18.5073 70.5359 18.5317 70.5363 18.5553C70.5387 18.7125 70.5407 18.8411 70.7473 18.8361C70.9381 18.8332 71.0542 18.7677 71.0542 18.5483C71.0515 18.3516 70.9851 18.2405 70.7722 18.232Z" fill="#A2ABB0"/>
</svg>
