<svg width="76" height="32" viewBox="0 0 76 32" fill="none" xmlns="http://www.w3.org/2000/svg">
<path d="M11.3134 24.3531C10.206 24.4534 9.15781 24.5078 8.11803 24.2672C4.51403 23.4309 2.0428 20.7302 1.53559 17.0071C1.29044 15.2056 1.67648 13.5073 2.51901 11.9006C3.40381 10.2138 4.72819 9.02523 6.41043 8.21473C6.53723 8.15172 6.66967 8.11735 6.81901 8.14027C8.38291 8.37797 9.79745 9.92165 9.87917 11.5255C9.93834 12.6968 9.38041 13.5818 8.5238 14.2949C8.13212 14.6214 7.69535 14.882 7.21351 15.051C6.96272 15.1398 6.86128 15.283 6.8641 15.5493C6.87255 18.1412 7.59955 20.4782 9.23952 22.4916C9.70728 23.0672 10.2596 23.5426 10.871 23.9522C10.8991 23.9712 10.9281 23.9889 10.9575 24.007C11.0793 24.0818 11.2096 24.1618 11.3163 24.3531H11.3134Z" fill="#A2ABB0"/>
<path d="M8.70778 7.65726C8.70669 7.65787 8.70559 7.65847 8.7045 7.65908L8.70168 7.65622C8.70372 7.65657 8.70575 7.65691 8.70778 7.65726Z" fill="#A2ABB0"/>
<path d="M9.5414 7.47006C9.27747 7.47577 9.01075 7.49 8.70778 7.65726C8.80827 7.67455 8.89236 7.68966 8.96843 7.70332C9.04128 7.71641 9.10677 7.72818 9.17226 7.73927C9.87671 7.85383 10.522 8.10299 11.1053 8.53545C13.2271 10.1078 13.3314 12.9144 11.3251 14.6414C10.8291 15.071 10.2543 15.3717 9.65129 15.6066C9.42023 15.6953 9.34133 15.8128 9.42868 16.0648C9.62029 16.6175 9.84008 17.1588 10.1951 17.6228C11.821 19.7507 14.002 20.5727 16.5972 20.4008C16.8283 20.3836 17.0143 20.2834 17.1354 20.0571C18.0287 18.3989 18.3302 16.6233 18.0738 14.7674C17.513 10.6777 14.0725 7.41278 9.5414 7.47006Z" fill="#A2ABB0"/>
<path fill-rule="evenodd" clip-rule="evenodd" d="M9.85113 6.00091C14.8781 5.92931 19.6572 10.1021 19.7022 15.936C19.7473 21.4892 15.3318 25.9799 9.87086 25.9999C4.44655 26.0228 0.0112928 21.5379 2.15171e-05 16.0162C-0.0112498 10.5116 4.4071 6.02096 9.85113 6.00091ZM9.83986 6.61379C4.77341 6.60234 0.622761 10.8181 0.608671 15.9933C0.594582 21.1656 4.73678 25.367 9.8624 25.3756C14.9486 25.3842 19.0936 21.177 19.0964 16.0076C19.0964 10.8353 14.9514 6.62525 9.83986 6.61379Z" fill="#A2ABB0"/>
<path fill-rule="evenodd" clip-rule="evenodd" d="M40.5231 18.1898C40.8105 17.4395 40.9232 16.6519 40.9148 15.8443H40.9176C40.912 15.4032 40.8894 14.965 40.8162 14.5268C40.5316 12.8199 39.5284 11.7058 37.9025 11.3507C37.1389 11.1846 36.3556 11.1789 35.5919 11.3135C34.0365 11.5884 32.977 12.4906 32.5064 14.0371C32.1147 15.3173 32.1035 16.6175 32.4275 17.9178C32.7656 19.2667 33.5997 20.1431 34.8987 20.5583C35.6849 20.8104 36.4964 20.8161 37.3023 20.7101C38.8465 20.5039 39.9511 19.6848 40.5231 18.1898ZM38.4097 14.2404C38.5619 14.7846 38.5901 15.3431 38.576 15.9044C38.5704 16.6719 38.5281 17.4309 38.1956 18.1383C37.8124 18.9516 37.1896 19.2982 36.2823 19.2151C35.5187 19.1464 34.9664 18.6452 34.7466 17.8118C34.4338 16.6233 34.4507 15.429 34.7663 14.2462C35.0932 13.0204 36.147 12.4791 37.308 12.903C37.9335 13.1321 38.2407 13.6276 38.4097 14.2404Z" fill="#A2ABB0"/>
<path d="M43.7457 15.4095L43.7465 15.4348C43.7774 16.4299 43.7352 17.423 43.693 18.4164C43.6659 19.0555 43.6387 19.6949 43.631 20.335C43.631 20.5126 43.5859 20.5928 43.3971 20.5928C43.0626 20.5908 42.7266 20.596 42.3912 20.6013C42.2577 20.6034 42.1242 20.6055 41.991 20.6071C41.7966 20.6071 41.7346 20.5212 41.7431 20.3179C41.8558 17.4339 41.9657 14.5499 42.0671 11.6658C42.0728 11.4682 42.1263 11.3938 42.3264 11.3966C43.1013 11.4052 43.8762 11.4024 44.6511 11.3966C44.8286 11.3966 44.9272 11.4539 44.9892 11.6315C45.1124 11.9887 45.2395 12.3446 45.3667 12.7005L45.3669 12.7011L45.367 12.7014C45.775 13.8433 46.183 14.9855 46.4601 16.1709C46.5052 16.3685 46.5615 16.5632 46.6827 16.7265C46.7593 16.7265 46.7715 16.6686 46.782 16.6189L46.7842 16.609C46.9753 15.5876 47.3263 14.6194 47.6772 13.6515L47.6773 13.6512C47.8281 13.2352 47.9789 12.8191 48.117 12.399C48.1491 12.3021 48.1715 12.1941 48.194 12.0858L48.1941 12.0855C48.2488 11.8228 48.3039 11.558 48.4974 11.4425C48.677 11.3361 48.93 11.3577 49.1817 11.3792C49.2892 11.3883 49.3965 11.3975 49.4977 11.3966C49.6386 11.3966 49.7795 11.3976 49.9204 11.3985C50.2726 11.4008 50.6248 11.4032 50.9771 11.3909C51.194 11.3852 51.256 11.4539 51.2645 11.6716C51.2946 12.5405 51.3323 13.4082 51.37 14.2754L51.3701 14.2777C51.3887 14.7074 51.4074 15.137 51.4251 15.5666C51.4483 16.1498 51.4703 16.7331 51.4922 17.3163L51.4925 17.3226C51.5292 18.2981 51.566 19.2736 51.6083 20.2491C51.6195 20.5269 51.5575 20.6329 51.2617 20.6128C50.7939 20.5842 50.3205 20.5756 49.8556 20.6071C49.5174 20.63 49.4357 20.4926 49.4301 20.1804C49.4183 19.5376 49.3974 18.8959 49.3765 18.254L49.3764 18.2504L49.3763 18.2498C49.3624 17.8205 49.3484 17.3911 49.3371 16.9613C49.331 16.7362 49.3178 16.5116 49.3046 16.2871L49.3046 16.2868C49.2747 15.7804 49.2449 15.2745 49.2977 14.7647C49.2896 14.7638 49.2816 14.7628 49.2735 14.7616L49.258 14.7594C49.2426 14.7571 49.2269 14.7547 49.2103 14.7532C49.1795 14.8353 49.1484 14.9172 49.1174 14.999L49.1166 15.001L49.1145 15.0067C49.0275 15.2364 48.9405 15.4659 48.8581 15.6983C48.767 15.9525 48.6756 16.2066 48.5842 16.4607L48.584 16.4612C48.2854 17.2916 47.9869 18.1214 47.6999 18.9546C47.6041 19.2324 47.4661 19.3556 47.1646 19.3384C46.7306 19.3126 46.2967 19.3126 45.8627 19.3384C45.6148 19.3527 45.5133 19.2582 45.4316 19.0377C45.3013 18.6856 45.1646 18.3356 45.0278 17.9856C44.6117 16.9205 44.1954 15.8548 43.9579 14.7274C43.9523 14.7009 43.9332 14.6782 43.9103 14.651C43.8986 14.637 43.8858 14.6217 43.8733 14.6043V14.61C43.7287 14.8763 43.7374 15.1481 43.7457 15.4095Z" fill="#A2ABB0"/>
<path fill-rule="evenodd" clip-rule="evenodd" d="M57.971 15.7527C58.0283 15.7639 58.086 15.776 58.1438 15.7881C58.2338 15.8069 58.3242 15.8258 58.4134 15.8415C59.2897 15.9904 59.9547 16.4315 60.2111 17.3307C60.4873 18.2988 60.2421 19.1494 59.4785 19.8109C58.9234 20.2921 58.2499 20.5298 57.537 20.5527C56.5524 20.5852 55.5679 20.5922 54.5824 20.5992C54.0901 20.6027 53.5974 20.6062 53.1046 20.6128C52.8792 20.6157 52.8707 20.4811 52.8707 20.3093L52.8708 20.3036C52.8792 19.6611 52.8876 19.0215 52.8848 18.379C52.882 16.1852 52.8792 13.9914 52.8623 11.8004C52.8623 11.4969 52.9271 11.388 53.2483 11.3938C53.8778 11.405 54.5081 11.4036 55.1389 11.4023C55.6346 11.4012 56.1309 11.4002 56.6269 11.4052C57.2271 11.4081 57.8216 11.4711 58.388 11.6945C59.3038 12.0582 59.873 12.883 59.7913 13.7852C59.718 14.5928 59.2644 15.1398 58.5374 15.452C58.407 15.5074 58.2739 15.5546 58.14 15.602C58.08 15.6233 58.0199 15.6446 57.9597 15.6668C57.9597 15.6811 57.9611 15.6954 57.9625 15.7097C57.9639 15.7241 57.9653 15.7384 57.9653 15.7527H57.971ZM55.0433 17.9121H55.032C55.032 18.0353 55.0323 18.1584 55.0326 18.2816V18.2828C55.0332 18.5287 55.0339 18.7746 55.032 19.0205C55.032 19.1751 55.0658 19.2782 55.2461 19.2696C55.41 19.2616 55.5745 19.2575 55.7388 19.2534C56.103 19.2442 56.4669 19.235 56.8241 19.1837C57.5765 19.072 57.9794 18.5737 57.9851 17.8491C57.9907 17.1933 57.6047 16.7751 56.8579 16.6148C56.542 16.5459 56.2249 16.5521 55.9081 16.5583C55.7108 16.5622 55.5135 16.566 55.3166 16.5517C55.0912 16.5374 55.0348 16.6348 55.0433 16.8439C55.0512 17.0944 55.0494 17.3449 55.0476 17.5944V17.598C55.0468 17.7039 55.0461 17.8096 55.0461 17.915L55.0433 17.9121ZM55.0461 13.9226H55.0489V14.8878C55.0489 15.0195 55.063 15.1255 55.2321 15.1198C55.3684 15.1155 55.5048 15.1171 55.6411 15.1187C55.961 15.1225 56.2806 15.1262 56.5987 15.0539C57.1764 14.9222 57.5117 14.5327 57.5342 13.9656C57.5568 13.3814 57.2693 12.9947 56.6832 12.8172C56.3977 12.7314 56.1065 12.7375 55.8161 12.7436C55.6508 12.747 55.4858 12.7505 55.3222 12.737C55.1024 12.7198 55.0348 12.8143 55.0433 13.0291C55.053 13.2352 55.0506 13.4414 55.0482 13.6475C55.0471 13.7391 55.0461 13.831 55.0461 13.9226Z" fill="#A2ABB0"/>
<path fill-rule="evenodd" clip-rule="evenodd" d="M24.4702 15.9789C24.4702 15.6265 24.4706 15.2743 24.4709 14.9222C24.472 13.8663 24.473 12.8112 24.4646 11.7546C24.4646 11.4911 24.5069 11.3851 24.8027 11.3908C25.4797 11.4021 26.1566 11.4007 26.8336 11.3994C27.3655 11.3983 27.8974 11.3972 28.4293 11.4023C29.1394 11.4109 29.8354 11.5054 30.4553 11.8949C31.3147 12.4333 31.6585 13.2495 31.5683 14.2376C31.481 15.1884 30.9005 15.7813 30.0467 16.1164C30.0166 16.1279 29.9814 16.1345 29.946 16.1411C29.8589 16.1573 29.7713 16.1736 29.7593 16.2653C29.7467 16.3591 29.831 16.4085 29.9121 16.456C29.9399 16.4723 29.9673 16.4883 29.9903 16.5059C30.3341 16.7665 30.6103 17.0844 30.8216 17.4653C31.1353 18.0311 31.4132 18.6152 31.6906 19.1985C31.8668 19.5687 32.0428 19.9387 32.2277 20.3035C32.3432 20.5297 32.3151 20.6214 32.0445 20.6128C31.4697 20.6013 30.8949 20.5985 30.32 20.6128C30.0862 20.6185 29.9481 20.5326 29.8635 20.3092C29.6139 19.6466 29.2976 19.0179 28.9809 18.3884C28.9294 18.286 28.8778 18.1836 28.8266 18.081C28.759 17.9436 28.6885 17.8032 28.6124 17.6715C28.3166 17.1646 27.9277 16.8639 27.2993 16.8954C27.2653 16.8972 27.2329 16.8988 27.2022 16.9003C26.9115 16.9149 26.762 16.9224 26.6867 17.0022C26.607 17.0866 26.6102 17.252 26.6169 17.5924L26.6174 17.6199C26.6259 18.0552 26.628 18.4905 26.6301 18.9258C26.6322 19.3612 26.6343 19.7965 26.6428 20.2319C26.6484 20.4982 26.5751 20.6242 26.2821 20.6099C25.789 20.587 25.2959 20.5841 24.8027 20.6013C24.5181 20.6099 24.459 20.5011 24.4618 20.2319C24.472 19.1987 24.4703 18.1656 24.4687 17.1336V17.1307C24.468 16.7447 24.4674 16.3588 24.4674 15.9732L24.4702 15.9789ZM26.6259 14.1288H26.6174C26.6174 14.2426 26.6185 14.3561 26.6196 14.4695C26.622 14.7242 26.6243 14.9787 26.6146 15.2343C26.6061 15.4405 26.6484 15.555 26.8767 15.5407C27.0348 15.5307 27.1933 15.5259 27.3517 15.5211C27.6028 15.5134 27.8536 15.5058 28.1024 15.4777C28.8125 15.3975 29.2774 14.8877 29.3197 14.1803C29.3563 13.5417 28.9675 13.0204 28.2997 12.8257C27.9762 12.7317 27.6467 12.7389 27.3167 12.746C27.1436 12.7497 26.9703 12.7535 26.7978 12.7426C26.6259 12.7312 26.6259 12.8572 26.6259 12.9861V14.1288Z" fill="#A2ABB0"/>
<path d="M61.1055 14.9197C61.1052 15.2717 61.1048 15.6238 61.1048 15.9761L61.0992 15.9703C61.0982 16.444 61.0985 16.9173 61.0989 17.3906C61.0995 18.3366 61.1001 19.2822 61.0907 20.229C61.0879 20.5097 61.1724 20.6014 61.4429 20.5956C62.37 20.5813 63.2971 20.5813 64.2241 20.5813C65.1512 20.5813 66.0783 20.5842 67.0053 20.5985C67.2448 20.6042 67.3463 20.5212 67.3491 20.2749C67.3547 19.9913 67.3716 19.7021 67.4167 19.4214C67.4646 19.1379 67.3914 19.0405 67.0955 19.0434C66.4425 19.0514 65.7885 19.0513 65.1347 19.0512C64.6262 19.0511 64.1178 19.0511 63.6098 19.0548C63.376 19.0548 63.2689 19.0033 63.2773 18.7369C63.2971 18.1298 63.2942 17.5197 63.283 16.9126C63.2773 16.6491 63.3647 16.5632 63.6296 16.5689C64.0839 16.5786 64.5376 16.5789 64.9909 16.5793C65.4767 16.5796 65.962 16.58 66.4474 16.5918C66.7376 16.5976 66.8193 16.4945 66.7996 16.2195C66.7771 15.9474 66.7771 15.6696 66.7996 15.3976C66.8222 15.1341 66.7461 15.0482 66.4728 15.051C65.9548 15.0588 65.4359 15.0564 64.9172 15.054C64.4849 15.052 64.0527 15.05 63.6211 15.0539C63.3647 15.0567 63.2661 14.9909 63.2773 14.7131C63.2971 14.2348 63.2971 13.7565 63.2773 13.2811C63.2661 13.0004 63.3703 12.9374 63.6239 12.9403C64.0994 12.9467 64.5749 12.9479 65.0505 12.9492C65.6316 12.9507 66.2128 12.9522 66.794 12.9632C67.0814 12.9689 67.1828 12.8887 67.1321 12.5966C67.0814 12.3016 67.0307 12.0038 67.0335 11.7088C67.0363 11.4252 66.9236 11.388 66.6813 11.388C64.9314 11.3995 63.1844 11.4023 61.4345 11.388C61.1414 11.3852 61.0992 11.4854 61.0992 11.7517C61.1076 12.8085 61.1066 13.8637 61.1055 14.9197Z" fill="#A2ABB0"/>
<path d="M73.0511 11.4004C72.716 11.3999 72.3809 11.3994 72.0461 11.3994C71.7579 11.3994 71.4697 11.399 71.1814 11.3985C70.4609 11.3973 69.7403 11.3961 69.0198 11.4023C68.9414 11.4031 68.8585 11.3939 68.7755 11.3847C68.5749 11.3624 68.3739 11.34 68.2364 11.4596C68.1238 11.5588 68.1287 11.7368 68.1337 11.9175C68.1362 12.0079 68.1387 12.0991 68.1265 12.1813C68.118 12.2418 68.1111 12.3028 68.1042 12.3638C68.095 12.4445 68.0858 12.5253 68.073 12.6051C68.0279 12.8829 68.1181 12.9832 68.4111 12.9717C68.7653 12.9578 69.1195 12.9567 69.4737 12.9557C69.8465 12.9546 70.2193 12.9535 70.5921 12.9374C70.9105 12.9259 70.9697 13.0319 70.9697 13.3355C70.9636 14.5816 70.9633 15.8277 70.9629 17.0738C70.9626 18.1417 70.9623 19.2097 70.9584 20.2777C70.9584 20.5211 71.0148 20.6156 71.2684 20.6099C71.7587 20.5956 72.2546 20.5927 72.7449 20.6214C73.069 20.6414 73.1423 20.5125 73.1423 20.2089C73.137 19.1342 73.136 18.0602 73.1351 16.9861C73.134 15.759 73.1329 14.5319 73.1253 13.304C73.1253 13.0261 73.1704 12.9316 73.4691 12.9431C73.9121 12.962 74.356 12.9623 74.7998 12.9627C75.0956 12.9629 75.3915 12.9631 75.6867 12.9689C75.9403 12.9746 76.0249 12.8715 75.9939 12.6252C75.9544 12.3188 75.915 12.0094 75.915 11.7001C75.9122 11.4309 75.791 11.3966 75.5656 11.3966C74.7282 11.4027 73.8893 11.4015 73.0511 11.4004Z" fill="#A2ABB0"/>
</svg>
