<svg width="32" height="32" viewBox="0 0 32 32" fill="none" xmlns="http://www.w3.org/2000/svg">
<path fill-rule="evenodd" clip-rule="evenodd" d="M16 30C23.732 30 30 23.732 30 16C30 8.26801 23.732 2 16 2C8.26801 2 2 8.26801 2 16C2 23.732 8.26801 30 16 30ZM16 32C24.8366 32 32 24.8366 32 16C32 7.16344 24.8366 0 16 0C7.16344 0 0 7.16344 0 16C0 24.8366 7.16344 32 16 32Z" fill="#A2ABB0"/>
<path fill-rule="evenodd" clip-rule="evenodd" d="M20.1481 17.1474C19.7592 16.6194 19.3231 16.368 18.5806 16.2297C19.7002 15.8149 20.2424 15.048 20.2424 13.8537C20.2424 12.1063 18.7927 11 16.5063 11C15.0684 11 13.9016 11.4651 13.277 12.2823C12.9588 12.7097 12.7938 13.2754 12.7938 13.9291C12.7938 14.5577 12.9941 15.1234 13.3595 15.5383C13.6423 15.8777 13.9134 16.0286 14.5027 16.2297C13.937 16.3554 13.6306 16.5063 13.2652 16.808C12.6641 17.3109 12.3577 18.0023 12.3577 18.8697C12.3577 19.6617 12.6052 20.3531 13.0766 20.8434C13.7838 21.5851 14.9977 22 16.4945 22C17.9677 22 19.1699 21.6103 19.8888 20.8811C20.3956 20.3783 20.6667 19.6617 20.6667 18.8697C20.6667 18.1406 20.5134 17.6126 20.1481 17.1474ZM15.1273 14.0926C15.1273 13.4137 15.6695 12.9863 16.5181 12.9863C17.3666 12.9863 17.897 13.4137 17.897 14.0926C17.897 14.7966 17.3784 15.224 16.5299 15.224C15.6695 15.224 15.1273 14.784 15.1273 14.0926ZM14.7856 18.656C14.7856 17.8137 15.4456 17.2983 16.5299 17.2983C17.5906 17.2983 18.227 17.7886 18.227 18.6309C18.227 19.4731 17.6024 19.9634 16.5063 19.9634C15.4338 19.9634 14.7856 19.4731 14.7856 18.656Z" fill="#A2ABB0"/>
<path d="M6 11.1886V13.5143C6.51857 13.4514 6.97822 13.4263 7.43786 13.4263H7.9093V19.8377C7.9093 20.5669 7.88572 21.1577 7.81501 21.736H10.3843C10.3136 21.12 10.29 20.592 10.29 19.8377V13.2503C10.29 12.4206 10.3136 11.8926 10.3725 11.2263C9.90109 11.2766 9.74788 11.2766 8.91109 11.2766H7.41429C6.73072 11.2766 6.42429 11.264 6 11.1886Z" fill="#A2ABB0"/>
<path d="M25.8528 19.6431V17.341H28.0014V15.6595H25.8528V13.3574H24.2834V15.6595H22.1348V17.341H24.2834V19.6431H25.8528Z" fill="#A2ABB0"/>
</svg>
