<svg width="57" height="41" viewBox="0 0 57 41" fill="none" xmlns="http://www.w3.org/2000/svg">
<g clip-path="url(#clip0_4094_13210)">
<path d="M11.2586 46.6807H-9L44.7414 -5.31934H65L11.2586 46.6807Z" fill="url(#paint0_radial_4094_13210)"/>
<path d="M35.7013 19.1608H26.5653V23.0035H31.0469C30.212 24.0836 29.1756 24.5233 27.9088 24.5233C25.1546 24.5233 23.8878 23.1755 23.8878 20.4799C23.8878 18.1763 25.1066 16.6851 27.2754 16.6851C28.4366 16.6851 29.2524 17.1057 29.6842 17.7652H35.6054C35.0775 14.066 32.0162 11.6667 27.2563 11.6667C27.2179 11.6667 27.1795 11.6667 27.1411 11.6667L18.197 20.3174C18.197 20.3748 18.197 20.4226 18.197 20.4799C18.197 25.6417 21.6614 29.2932 27.3042 29.2932C28.1679 29.2932 28.9645 29.2071 29.6842 29.0351L35.7013 23.2137V19.1513V19.1608Z" fill="white"/>
<path d="M47.0446 24.2748C45.1445 24.2748 43.9833 22.7836 43.9833 20.4799C43.9833 18.1763 45.1445 16.6851 47.0446 16.6851C48.3114 16.6851 49.3766 17.3446 49.9044 18.5012H55.8256C55.1058 14.4865 51.9869 11.7718 47.3901 11.6763L38.2924 20.5182C38.3116 25.6608 41.6705 29.2932 47.1502 29.2932C51.8813 29.2932 55.0962 26.5498 55.8256 22.4682H49.9044C49.3766 23.6152 48.3114 24.2748 47.0446 24.2748Z" fill="#323E48"/>
<path d="M6.75775 22.9557H6.78654L9.82869 28.4998L13.7345 24.6954L12.4294 22.5351C14.9821 21.7226 16.2968 19.7917 16.2968 17.5167C16.2968 14.3336 13.9936 11.8388 9.4928 11.8388H1.14369V29.1689H6.75775V22.9557ZM6.75775 16.3983H8.98418C10.0494 16.3983 10.606 16.9814 10.606 17.8704C10.606 18.9027 10.0494 19.3424 8.98418 19.3424H6.75775V16.3983Z" fill="#323E48"/>
</g>
<defs>
<radialGradient id="paint0_radial_4094_13210" cx="0" cy="0" r="1" gradientUnits="userSpaceOnUse" gradientTransform="translate(27.1657 18.9964) scale(23.9341 23.161)">
<stop stop-color="#00B189"/>
<stop offset="0.08" stop-color="#09B48D" stop-opacity="0.92"/>
<stop offset="0.22" stop-color="#22BB99" stop-opacity="0.78"/>
<stop offset="0.4" stop-color="#49C7AB" stop-opacity="0.6"/>
<stop offset="0.6" stop-color="#81D8C5" stop-opacity="0.4"/>
<stop offset="0.83" stop-color="#C7EEE5" stop-opacity="0.17"/>
<stop offset="1" stop-color="white" stop-opacity="0"/>
</radialGradient>
<clipPath id="clip0_4094_13210">
<rect width="56.6985" height="40" fill="white" transform="translate(0 0.680664)"/>
</clipPath>
</defs>
</svg>
