<svg width="129" height="41" viewBox="0 0 129 41" fill="none" xmlns="http://www.w3.org/2000/svg">
<path d="M34.5869 14.1328V9.0173H28.265L31.5151 14.1328H34.5869Z" fill="#E02031"/>
<path d="M107.742 28.5288L125 28.4958V9.0371H96.1331L104.533 23.2417L107.742 28.5288Z" fill="#E02031"/>
<path d="M37.6518 20.7137C37.6518 27.5321 43.2401 32.6807 50.6385 32.6807C54.2383 32.6015 57.7421 31.5453 60.7454 29.6378V20.509H55.3971V26.5619C54.0669 27.2351 52.5927 27.6246 51.0911 27.6972C47.1964 27.7302 44.0081 24.7203 43.9738 20.9711C43.9738 20.8853 43.9738 20.7929 43.9738 20.7071C43.8709 16.9843 46.9153 13.8886 50.7825 13.7896C50.8648 13.7896 50.9402 13.7896 51.0225 13.7896C53.4361 13.8556 55.74 14.7533 57.5159 16.3308L60.9854 12.2846C58.2015 10.047 54.684 8.81268 51.0568 8.80608C43.3841 8.80608 37.6518 13.9216 37.6518 20.7071V20.7137Z" fill="black"/>
<path d="M28.265 14.1328V32.4232L34.5869 32.476V19.2747L31.5151 14.1328H28.265Z" fill="black"/>
<path d="M24.9806 25.4727C24.9806 20.4826 21.0242 19.0371 17.157 18.2846L16.8005 18.2186C13.2418 17.5387 11.4591 17.1955 11.4591 15.4199C11.4591 13.9348 12.7893 13.0833 15.1069 13.0833C17.4244 13.0833 19.0769 14.0272 19.6049 15.7434L19.6392 15.8754L24.7543 14.5487L24.7132 14.4166C23.6092 10.6675 20.1671 8.68066 14.7709 8.68066C8.7575 8.68066 5.44569 11.1625 5.44569 15.6708C5.44569 20.179 8.61351 21.4001 12.0419 22.1724C12.7138 22.3176 13.3515 22.4496 13.9481 22.5619C17.1022 23.1889 19.0083 23.5652 19.0083 25.6048C19.0083 27.6444 16.9993 28.146 15.3194 28.146C12.0625 28.146 10.602 26.509 10.3208 24.9777L10.2934 24.8259L5 26.1988L5.02743 26.3242C5.63082 29.1691 7.90041 32.5552 15.3194 32.5552C21.5522 32.5486 24.9806 30.0404 24.9806 25.4793V25.4727Z" fill="black"/>
<path d="M94.412 14.1658L91.3402 9.0437H84.9977L78.0038 22.9843L71.1402 9.0371H64.6332V32.4694H70.1528V17.2615L75.9879 29.6312H80.0197L85.8548 17.2615L85.8891 32.4694H91.3402V14.1724H94.412V14.1658Z" fill="black"/>
<path d="M121.016 32.476L106.946 9.0437L100.809 19.3143L92.9035 32.476H99.0541L106.96 19.2945L114.866 32.476H121.016Z" fill="black"/>
</svg>
