<?xml version="1.0" encoding="UTF-8"?>
<svg xmlns="http://www.w3.org/2000/svg" xmlns:xlink="http://www.w3.org/1999/xlink" width="22px" height="21px" viewBox="0 0 22 21">
  <title>soccer-ball-svgrepo-com</title>
  <g id="Page-1" stroke="none" stroke-width="1" fill="none" fill-rule="evenodd">
    <g id="Menu-Expanded" transform="translate(-21, -295)" fill="#6864B1" fill-rule="nonzero">
      <g id="menu-expanded" transform="translate(0, 76)">
        <g id="Group-2" transform="translate(17.7, 114.8081)">
          <g id="soccer-ball-svgrepo-com" transform="translate(3.8726, 104.255)">
            <path d="M10.4605606,0 C10.4493027,0 10.4387071,0.0013244569 10.4274492,0.00198668535 C10.4161913,0.00198668535 10.4055957,0 10.3943378,0 C4.65414156,0 0,4.65347933 0,10.3943378 C0,16.1351962 4.65414156,20.79 10.3943378,20.79 C10.4055957,20.79 10.4161913,20.7886755 10.4274492,20.7873511 C10.4387071,20.7873511 10.4493027,20.79 10.4605606,20.79 C16.2007568,20.79 20.8548984,16.1358584 20.8548984,10.395 C20.8548984,4.65414156 16.2007568,0 10.4605606,0 Z M11.1426559,3.01711282 L13.8491836,2.70586545 C14.8710021,3.15816748 15.7842151,3.80847582 16.5437912,4.60712334 L16.8888122,7.36464261 L13.5438963,8.24341976 L11.1419937,6.57129292 L11.1419937,3.01711282 L11.1426559,3.01711282 Z M4.31044499,4.60712334 C5.07068325,3.80847582 5.98389629,3.15816748 7.00571479,2.70586545 L9.71224247,3.01711282 L9.71224247,6.57129292 L7.31033987,8.24341976 L3.96542397,7.36464261 L4.31044499,4.60712334 Z M3.04227751,14.4630694 C2.46084093,13.4167484 2.10323756,12.2346706 2.01582341,10.9751121 L3.44292572,8.5957253 L6.83088648,9.48576034 L7.68781009,12.3134758 L5.48192712,15.6014401 L3.04227751,14.4630694 Z M12.3505606,18.5808059 C11.7413104,18.7211983 11.110869,18.8019902 10.4605606,18.8033146 C10.4493027,18.8033146 10.4387071,18.8019902 10.4274492,18.8019902 C10.4161913,18.8019902 10.4055957,18.8033146 10.3943378,18.8033146 C9.7433672,18.8019902 9.11292572,18.7211983 8.50433777,18.5808059 L6.59380869,16.3219446 L8.74870007,13.1121233 L10.4274492,13.1121233 L12.1061983,13.1121233 L14.2610897,16.3219446 L12.3505606,18.5808059 Z M15.3729713,15.6007779 L13.1670883,12.3128136 L14.0246741,9.48509811 L17.4119727,8.59506307 L18.839075,10.9744499 C18.7516608,12.2333462 18.3933952,13.4160862 17.8126209,14.4624071 L15.3729713,15.6007779 Z" id="Shape"></path>
          </g>
        </g>
      </g>
    </g>
  </g>
</svg>
