<svg width="40" height="41" viewBox="0 0 40 41" fill="none" xmlns="http://www.w3.org/2000/svg">
<rect y="0.0419922" width="40" height="40" rx="20" fill="#E5F7FF"/>
<path d="M10.1444 19.01C10.1444 19.01 18.4002 15.4977 21.2635 14.261C22.3611 13.7663 26.0834 12.1832 26.0834 12.1832C26.0834 12.1832 27.8014 11.4907 27.6582 13.1726C27.6104 13.8652 27.2287 16.2892 26.8469 18.9111C26.2742 22.6213 25.6539 26.6778 25.6539 26.6778C25.6539 26.6778 25.5584 27.8156 24.7472 28.0135C23.9359 28.2114 22.5997 27.321 22.3611 27.123C22.1702 26.9747 18.782 24.7485 17.5412 23.6602C17.2072 23.3634 16.8254 22.7698 17.5889 22.0772C19.3069 20.4447 21.3589 18.4164 22.5997 17.1302C23.1724 16.5366 23.745 15.1514 21.3589 16.8334C17.9707 19.2574 14.6302 21.533 14.6302 21.533C14.6302 21.533 13.8667 22.0277 12.435 21.5824C11.0034 21.1373 9.33311 20.5436 9.33311 20.5436C9.33311 20.5436 8.18786 19.8016 10.1444 19.01Z" fill="#34AADF"/>
</svg>
