<?xml version="1.0" encoding="utf-8"?>
<!-- Generator: Adobe Illustrator 28.0.0, SVG Export Plug-In . SVG Version: 6.00 Build 0)  -->
<svg version="1.1" id="Layer_1" xmlns="http://www.w3.org/2000/svg" xmlns:xlink="http://www.w3.org/1999/xlink" x="0px" y="0px"
	 viewBox="0 0 36 29.2" style="enable-background:new 0 0 36 29.2;" xml:space="preserve">
<style type="text/css">
	.st0{fill:#FFFFFF;}
</style>
<path class="st0" d="M32.3,7.3c0,0.3,0,0.6,0,1c0,9.8-7.4,21-21,21c-4,0-8-1.1-11.3-3.3C0.6,26,1.2,26,1.8,26c3.3,0,6.5-1.1,9.2-3.2
	C7.8,22.8,5,20.8,4,17.7c0.5,0.1,0.9,0.1,1.4,0.1c0.7,0,1.3-0.1,1.9-0.3c-3.4-0.7-5.9-3.7-5.9-7.2v-0.1c1,0.6,2.2,0.9,3.3,0.9
	C1.5,9.1,0.5,4.7,2.5,1.3C6.3,6,11.8,8.8,17.7,9.1c-0.1-0.6-0.2-1.1-0.2-1.7c0-4.1,3.3-7.4,7.4-7.4c2,0,4,0.8,5.4,2.3
	C32,2,33.5,1.4,35,0.5c-0.6,1.7-1.7,3.2-3.2,4.1c1.5-0.2,2.9-0.6,4.2-1.1C35,4.9,33.7,6.2,32.3,7.3z"/>
</svg>
