<svg width="27" height="10" viewBox="0 0 27 10" fill="none" xmlns="http://www.w3.org/2000/svg">
<path d="M11.3061 0.625854L7.44778 9.75018H4.42372L0.56543 0.625854H3.87626L6.05306 5.95707L8.28201 0.625854H11.3061Z" fill="#6864B1"/>
<path d="M12.3042 0.625854H15.3804V9.75018H12.3042V0.625854Z" fill="#6864B1"/>
<path fill-rule="evenodd" clip-rule="evenodd" d="M24.1603 1.04297C23.5346 0.764892 22.8003 0.625854 21.9574 0.625854H17.5647V9.75018H20.6409V7.50821H21.9574C22.8003 7.50821 23.5346 7.36917 24.1603 7.09109C24.786 6.81302 25.2682 6.41329 25.6071 5.8919C25.946 5.37051 26.1155 4.76222 26.1155 4.06703C26.1155 3.37184 25.946 2.76355 25.6071 2.24216C25.2682 1.72077 24.786 1.32104 24.1603 1.04297ZM22.7004 4.85563C22.4918 5.04246 22.179 5.13588 21.7619 5.13588H20.6409V2.99818H21.7619C22.179 2.99818 22.4918 3.0916 22.7004 3.27843C22.9089 3.46526 23.0132 3.72813 23.0132 4.06703C23.0132 4.40593 22.9089 4.6688 22.7004 4.85563Z" fill="#6864B1"/>
</svg>
