<svg width="40" height="41" viewBox="0 0 40 41" fill="none" xmlns="http://www.w3.org/2000/svg">
<rect y="0.0419922" width="40" height="40" rx="20" fill="#FFECE8"/>
<path d="M31.0622 14.3356C30.801 13.3538 30.0284 12.5792 29.0455 12.3138C27.2682 11.8374 20.1373 11.8374 20.1373 11.8374C20.1373 11.8374 13.01 11.8374 11.2291 12.3138C10.2498 12.5756 9.47723 13.3501 9.21246 14.3356C8.7373 16.1174 8.7373 19.8374 8.7373 19.8374C8.7373 19.8374 8.7373 23.5574 9.21246 25.3392C9.47361 26.321 10.2462 27.0956 11.2291 27.361C13.01 27.8374 20.1373 27.8374 20.1373 27.8374C20.1373 27.8374 27.2682 27.8374 29.0455 27.361C30.0248 27.0992 30.7974 26.3247 31.0622 25.3392C31.5373 23.5574 31.5373 19.8374 31.5373 19.8374C31.5373 19.8374 31.5373 16.1174 31.0622 14.3356Z" fill="#FF5B35"/>
<path d="M17.8595 23.2665L23.7825 19.8374L17.8595 16.4083V23.2665Z" fill="#FFECE8"/>
</svg>
